<?xml version="1.0" encoding="UTF-8"?>
<svg xmlns="http://www.w3.org/2000/svg" xmlns:xlink="http://www.w3.org/1999/xlink" version="1.2" >
<font id="NDRSans">
<font-face  font-family="NDRSans" units-per-em="2048" ascent="1804" descent="-408" font-style="normal" font-weight="400" font-stretch="normal" cap-height="1366" x-height="1057" underline-position="-373" underline-thickness="41" />
<missing-glyph  horiz-adv-x="492" d="M49 0 L49 1366 L443 1366 L443 0 L49 0 Z M394 49 L394 1317 L98 1317 L98 49 L394 49 Z " />
<glyph glyph-name="space" unicode="&#x20;" horiz-adv-x="492" d="" />
<glyph glyph-name="exclam" unicode="&#x21;" horiz-adv-x="600" d="M422 1366 L389 346 L276 346 L242 1366 L422 1366 Z M424 0 L244 0 L244 238 L424 238 L424 0 Z " />
<glyph glyph-name="quotedbl" unicode="&#x22;" horiz-adv-x="711" d="M575 1415 L567 954 L432 954 L424 1415 L575 1415 Z M287 1415 L279 954 L143 954 L135 1415 L287 1415 Z " />
<glyph glyph-name="numbersign" unicode="&#x23;" horiz-adv-x="1161" d="M1104 969 L1085 834 L868 834 L831 535 L1059 535 L1042 399 L815 399 L766 0 L629 0 L680 399 L408 399 L358 0 L223 0 L272 399 L59 399 L76 535 L289 535 L326 834 L104 834 L121 969 L342 969 L391 1366 L528 1366 L479 969 L750 969 L799 1366 L934 1366 L885 969 L1104 969 Z M735 836 L461 836 L424 535 L696 535 L735 836 Z " />
<glyph glyph-name="dollar" unicode="&#x24;" horiz-adv-x="1085" d="M610 -27 L610 -203 L475 -203 L475 -23 Q242 9 125 213 Q96 265 84 313 L227 375 Q255 279 319.5 212 Q384 145 475 119 L475 645 Q339 699 270 754 Q139 858 139 1035 Q139 1138 181 1220 Q218 1294 286.5 1333.5 Q355 1373 475 1391 L475 1573 L610 1573 L610 1391 Q817 1362 932 1171 Q957 1128 971 1083 L827 1026 Q770 1207 608 1255 L608 770 Q771 694 844 641 Q989 536 989 358 Q989 175 886 77 Q837 29 776 6.5 Q715 -16 610 -27 Z M475 817 L475 1260 Q297 1215 297 1049 Q297 970 337.5 917 Q378 864 475 817 Z M608 598 L608 113 Q690 124 734 154 Q821 214 821 349 Q821 362 820 372 Q814 442 768 491 Q722 540 608 598 Z " />
<glyph glyph-name="percent" unicode="&#x25;" horiz-adv-x="1718" d="M1276 1393 L567 -27 L442 -27 L1151 1393 L1276 1393 Z M428 1395 Q501 1395 557 1362 Q705 1275 705 973 Q705 545 422 545 Q300 545 232 623 Q191 669 167 761 Q143 853 143 960 Q143 1146 198 1253 Q271 1395 428 1395 Z M422 1294 Q390 1294 367 1280 Q333 1259 321 1231 Q274 1128 274 971 Q274 870 293.5 787.5 Q313 705 344 678 Q377 647 422 647 Q476 647 512 688 Q540 720 556.5 793.5 Q573 867 573 956 Q573 1294 422 1294 Z M1298 825 Q1371 825 1427 792 Q1575 705 1575 402 Q1575 -25 1292 -25 Q1217 -25 1161 7 Q1103 39 1075 94 Q1014 216 1014 389 Q1014 577 1069 684 Q1141 825 1298 825 Z M1292 725 Q1261 725 1237 711 Q1204 691 1192 662 Q1145 557 1145 399 Q1145 299 1164.5 217.5 Q1184 136 1214 108 Q1248 78 1293 78 Q1347 78 1383 120 Q1411 152 1427.5 225 Q1444 298 1444 386 Q1444 725 1292 725 Z " />
<glyph glyph-name="ampersand" unicode="&#x26;" horiz-adv-x="1264" d="M1204 117 L1165 -20 Q947 -4 848 123 Q793 67 747 39 Q640 -25 489 -25 Q396 -25 315 2 Q94 74 94 314 Q94 460 170 568.5 Q246 677 414 772 Q404 792 399 802 Q351 895 341 919 Q311 991 311 1080 Q311 1221 400 1308 Q489 1395 630 1395 Q760 1395 841 1322 Q926 1245 926 1125 Q926 1010 852 919 Q778 828 606 731 Q721 523 870 326 Q976 455 1034 666 L1159 625 Q1086 378 954 229 Q1046 125 1204 117 Z M547 842 Q653 898 713.5 970 Q774 1042 774 1112 Q774 1119 774 1125 Q769 1197 730 1237.5 Q691 1278 627 1278 Q553 1278 507 1223.5 Q461 1169 461 1082 Q461 960 547 842 Z M776 211 Q599 436 475 657 Q383 602 338 552 Q252 457 252 330 Q252 257 283 201 Q311 151 370.5 123.5 Q430 96 511 96 Q589 96 649.5 122 Q710 148 776 211 Z " />
<glyph glyph-name="quotesingle" unicode="&#x27;" horiz-adv-x="414" d="M283 1415 L274 954 L139 954 L131 1415 L283 1415 Z " />
<glyph glyph-name="parenleft" unicode="&#x28;" horiz-adv-x="549" d="M492 -240 L367 -240 Q251 -24 192 137 Q86 429 86 682 Q86 893 152 1110.5 Q218 1328 367 1604 L492 1604 Q250 1049 250 682 Q250 321 492 -240 Z " />
<glyph glyph-name="parenright" unicode="&#x29;" horiz-adv-x="549" d="M180 -240 L55 -240 Q299 321 299 682 Q299 1048 55 1604 L180 1604 Q296 1388 355 1227 Q461 934 461 681 Q461 631 457 580 Q442 389 377 197.5 Q312 6 180 -240 Z " />
<glyph glyph-name="asterisk" unicode="&#x2a;" horiz-adv-x="1001" d="M858 1155 L588 1104 L764 897 L635 801 L502 1038 L360 801 L227 899 L412 1102 L143 1157 L193 1311 L446 1202 L416 1477 L580 1477 L557 1204 L807 1319 L858 1155 Z " />
<glyph glyph-name="plus" unicode="&#x2b;" horiz-adv-x="1024" d="M954 463 L582 463 L582 90 L442 90 L442 463 L70 463 L70 594 L442 594 L442 967 L582 967 L582 594 L954 594 L954 463 Z " />
<glyph glyph-name="comma" unicode="&#x2c;" horiz-adv-x="430" d="M307 4 L182 -274 L119 -274 L193 0 L129 0 L129 238 L307 238 L307 4 Z " />
<glyph glyph-name="hyphen" unicode="&#x2d;" horiz-adv-x="551" d="M551 471 L0 471 L0 623 L551 623 L551 471 Z " />
<glyph glyph-name="period" unicode="&#x2e;" horiz-adv-x="432" d="M305 0 L127 0 L127 238 L305 238 L305 0 Z " />
<glyph glyph-name="slash" unicode="&#x2f;" horiz-adv-x="1032" d="M956 1602 L223 -240 L74 -240 L809 1602 L956 1602 Z " />
<glyph glyph-name="zero" unicode="0" horiz-adv-x="1085" d="M551 1395 Q657 1395 738 1347 Q829 1293 871 1210 Q975 999 975 689 Q975 511 951.5 387 Q928 263 874 158 Q828 69 741 19 Q656 -29 545 -29 Q433 -29 348 19 Q256 71 213 158 Q111 366 111 664 Q111 1395 551 1395 Z M544 1262 Q486 1262 443 1236 Q382 1198 359 1146 Q276 958 276 677 Q276 406 358 219 Q380 168 432 136 Q484 104 545 104 Q639 104 701 176 Q750 233 779.5 365 Q809 497 809 655 Q809 833 789.5 947 Q770 1061 725 1150 Q699 1202 650.5 1232 Q602 1262 544 1262 Z " />
<glyph glyph-name="one" unicode="1" horiz-adv-x="1085" d="M926 0 L203 0 L203 141 L483 141 L483 1206 L268 1090 L217 1219 L510 1374 L649 1374 L649 141 L926 141 L926 0 Z " />
<glyph glyph-name="two" unicode="2" horiz-adv-x="1085" d="M938 0 L119 0 L119 94 Q119 234 205 361 Q291 488 496 651 Q644 769 711 862.5 Q778 956 778 1046 Q778 1093 760 1137 Q708 1266 548 1266 Q410 1266 344 1172 Q300 1108 279 991 L125 1032 Q163 1158 195 1212 Q301 1395 554 1395 Q741 1395 845 1295 Q942 1201 942 1043 Q942 862 796 712 Q737 651 596 541 Q442 420 367.5 324.5 Q293 229 287 141 L938 141 L938 0 Z " />
<glyph glyph-name="three" unicode="3" horiz-adv-x="1085" d="M96 195 L221 293 Q267 218 308 181 Q392 107 507 107 Q565 107 612 128 Q684 159 723 225.5 Q762 292 762 383 Q762 459 736 520 Q679 651 442 651 L352 651 L352 784 L434 784 Q565 784 647 855 Q731 926 731 1044 Q731 1093 715 1137 Q695 1195 643.5 1227.5 Q592 1260 522 1260 Q440 1260 380 1224 Q320 1188 264 1106 L152 1208 Q212 1281 263 1316 Q377 1395 534 1395 Q624 1395 702 1366 Q895 1293 895 1045 Q895 916 834 834 Q773 752 659 727 Q752 713 815 654 Q926 551 926 374 Q926 225 853 125 Q741 -29 513 -29 Q373 -29 275.5 23.5 Q178 76 96 195 Z " />
<glyph glyph-name="four" unicode="4" horiz-adv-x="1085" d="M985 336 L811 336 L811 0 L649 0 L649 336 L80 336 L80 449 L596 1366 L811 1366 L811 469 L985 469 L985 336 Z M662 1229 L240 469 L651 469 Q652 995 662 1229 Z " />
<glyph glyph-name="five" unicode="5" horiz-adv-x="1085" d="M125 246 L262 311 Q290 232 325 192 Q396 107 524 107 Q592 107 645 137 Q695 166 720 214 Q772 315 772 452 Q772 526 756 591 Q734 677 674.5 727.5 Q615 778 535 778 Q462 778 405 742 Q345 703 299 606 L160 625 L229 1364 L868 1364 L868 1225 L362 1225 L322 795 Q422 907 573 907 Q664 907 735 871 Q836 819 891 703 Q938 603 938 464 Q938 287 872 168 Q765 -25 528 -25 Q372 -25 262 48 Q177 104 125 246 Z " />
<glyph glyph-name="six" unicode="6" horiz-adv-x="1085" d="M932 1284 L842 1163 Q732 1264 614 1264 Q546 1264 494 1235 Q379 1171 328 960 Q308 879 297 709 Q345 769 386 799 Q474 862 601 862 Q778 862 871 756 Q915 708 940 621 Q965 534 965 435 Q965 244 886 131 Q773 -29 555 -29 Q327 -29 227 144 Q133 307 133 637 Q133 962 243 1187 Q290 1283 392 1340 Q491 1395 623 1395 Q806 1395 932 1284 Z M299 551 L299 477 Q299 327 354 226 Q422 102 559 102 Q627 102 680 133 Q801 203 801 428 Q801 568 761 638 Q706 733 574 733 Q488 733 425 691.5 Q362 650 299 551 Z " />
<glyph glyph-name="seven" unicode="7" horiz-adv-x="1085" d="M985 1260 Q732 840 658 666 Q531 370 526 0 L350 0 Q355 353 480 651 Q580 891 817 1225 L211 1225 L211 1366 L985 1366 L985 1260 Z " />
<glyph glyph-name="eight" unicode="8" horiz-adv-x="1085" d="M408 717 Q316 754 269 796 Q166 889 166 1052 Q166 1138 198 1204 Q243 1297 341 1349 Q428 1395 550 1395 Q636 1395 710 1369 Q811 1335 867.5 1252.5 Q924 1170 924 1058 Q924 938 865 849 Q814 772 688 721 Q802 675 860 625 Q977 521 977 348 Q977 329 975 310 Q961 161 845 68 Q724 -29 540 -29 Q357 -29 238 68 Q109 173 109 346 Q109 550 266 653 Q315 686 408 717 Z M551 786 Q635 820 677 857 Q762 933 762 1053 Q762 1152 703 1211 Q644 1270 545 1270 Q444 1270 386 1213 Q328 1156 328 1056 Q328 1000 347 949 Q384 847 551 786 Z M543 647 Q430 609 374 565 Q276 489 276 354 Q276 291 297 244 Q327 177 392 139.5 Q457 102 542 102 Q662 102 735 171 Q809 242 809 358 Q809 458 748 524 Q687 590 543 647 Z " />
<glyph glyph-name="nine" unicode="9" horiz-adv-x="1085" d="M143 100 L233 215 Q337 102 470 102 Q542 102 600 134 Q715 197 764 409 Q782 489 791 657 Q678 504 490 504 Q313 504 212 636 Q123 753 123 941 Q123 1146 236 1268 Q353 1395 540 1395 Q653 1395 737 1349 Q821 1303 859 1222 Q954 1026 954 747 Q954 454 900 289 Q797 -29 462 -29 Q359 -29 269 10 Q204 37 143 100 Z M788 815 L788 889 Q788 1036 739 1135 Q675 1264 533 1264 Q462 1264 407 1232 Q285 1162 285 943 Q285 824 328 737 Q352 689 405 661 Q458 633 525 633 Q604 633 673 680.5 Q742 728 788 815 Z " />
<glyph glyph-name="colon" unicode="&#x3a;" horiz-adv-x="432" d="M348 770 L170 770 L170 1010 L348 1010 L348 770 Z M348 0 L170 0 L170 238 L348 238 L348 0 Z " />
<glyph glyph-name="semicolon" unicode="&#x3b;" horiz-adv-x="432" d="M350 770 L170 770 L170 1008 L350 1008 L350 770 Z M350 4 L223 -274 L162 -274 L236 0 L170 0 L170 238 L350 238 L350 4 Z " />
<glyph glyph-name="less" unicode="&#x3c;" horiz-adv-x="1024" d="M950 63 L74 467 L74 590 L950 993 L950 852 L219 535 L950 205 L950 63 Z " />
<glyph glyph-name="equal" unicode="&#x3d;" horiz-adv-x="1024" d="M956 643 L70 643 L70 772 L956 772 L956 643 Z M956 319 L70 319 L70 449 L956 449 L956 319 Z " />
<glyph glyph-name="greater" unicode="&#x3e;" horiz-adv-x="1024" d="M950 467 L74 63 L74 205 L805 528 L74 852 L74 993 L950 590 L950 467 Z " />
<glyph glyph-name="question" unicode="&#x3f;" horiz-adv-x="813" d="M461 344 L322 344 L322 418 Q322 505 349.5 574.5 Q377 644 463 776 Q555 917 579.5 970.5 Q604 1024 604 1085 Q604 1145 579 1191 Q539 1264 431 1264 Q364 1264 314 1232 Q264 1201 229 1120 L94 1188 Q105 1214 124 1239 Q239 1393 434 1393 Q756 1393 756 1086 Q756 1070 755 1056 Q750 988 718 921.5 Q686 855 608 749 Q523 634 496 568 Q461 487 461 412 L461 344 Z M483 0 L305 0 L305 238 L483 238 L483 0 Z " />
<glyph glyph-name="at" unicode="&#x40;" horiz-adv-x="2062" d="M1169 141 Q1120 80 1078 50 Q991 -12 875 -12 Q798 -12 733 18 Q569 92 569 338 Q569 563 696 738 Q839 934 1051 934 Q1115 934 1169 912 Q1208 896 1249 854 L1260 924 L1405 924 L1319 406 Q1300 292 1300 271 Q1300 184 1328 152 Q1359 117 1434 117 Q1592 117 1672 286 Q1735 418 1735 586 Q1735 733 1684 856 Q1615 1020 1448 1115 Q1300 1200 1091 1200 Q762 1200 548 983 Q338 770 338 432 Q338 259 395 108 Q459 -63 609 -159 Q767 -260 1026 -260 Q1219 -260 1444 -205 L1468 -336 Q1253 -389 1032 -389 Q624 -389 408 -164 Q193 60 193 436 Q193 828 446 1077 Q700 1327 1087 1327 Q1264 1327 1418 1270 Q1625 1193 1750 1006 Q1866 832 1866 588 Q1866 399 1802 254 Q1746 126 1660 61 Q1566 -10 1421 -10 Q1332 -10 1262 22 Q1191 55 1169 141 Z M1223 739 Q1166 817 1064 817 Q907 817 809 665 Q725 534 725 357 Q725 258 760 187 Q797 113 896 113 Q1030 113 1147 281 L1223 739 Z " />
<glyph glyph-name="A" unicode="A" horiz-adv-x="1071" d="M1055 0 L877 0 L766 391 L299 391 L190 0 L18 0 L428 1366 L645 1366 L1055 0 Z M731 530 L586 1040 L532 1231 L479 1040 L334 530 L731 530 Z " />
<glyph glyph-name="B" unicode="B" horiz-adv-x="1157" d="M170 0 L170 1366 L621 1366 Q729 1366 816.5 1337.5 Q904 1309 949 1259 Q1024 1175 1024 1022 Q1024 927 988 852 Q939 747 780 719 Q887 705 955 642 Q1059 545 1059 375 Q1059 233 985 139 Q875 0 643 0 L170 0 Z M336 1227 L336 778 L563 778 Q856 778 856 1012 Q856 1227 602 1227 L336 1227 Z M336 639 L336 139 L592 139 Q877 139 877 389 Q877 518 802 581 Q762 614 709.5 626.5 Q657 639 559 639 L336 639 Z " />
<glyph glyph-name="C" unicode="C" horiz-adv-x="1208" d="M1112 426 Q1099 312 1064 234 Q948 -29 629 -29 Q483 -29 367 35 Q261 94 210 194 Q113 387 113 657 Q113 848 161 1018 Q211 1193 338 1296 Q459 1395 639 1395 Q948 1395 1063 1115 Q1093 1042 1106 942 L938 924 Q929 1005 907 1066 Q834 1260 634 1260 Q552 1260 487 1223 Q411 1180 379 1113 Q293 930 293 675 Q293 431 374 257 Q406 189 477 148 Q548 107 634 107 Q907 107 946 449 L1112 426 Z " />
<glyph glyph-name="D" unicode="D" horiz-adv-x="1249" d="M170 0 L170 1366 L514 1366 Q841 1366 992 1201 Q1137 1042 1137 714 Q1137 373 1039 216 Q983 125 897 79 Q751 0 506 0 L170 0 Z M336 1227 L336 139 L446 139 Q739 139 847 255 Q956 373 956 689 Q956 936 878 1061 Q775 1227 520 1227 L336 1227 Z " />
<glyph glyph-name="E" unicode="E" horiz-adv-x="1067" d="M1006 0 L170 0 L170 1366 L958 1366 L958 1227 L336 1227 L336 772 L840 772 L840 633 L336 633 L336 139 L1006 139 L1006 0 Z " />
<glyph glyph-name="F" unicode="F" horiz-adv-x="965" d="M973 1227 L336 1227 L336 776 L872 776 L872 637 L336 637 L336 0 L170 0 L170 1366 L973 1366 L973 1227 Z " />
<glyph glyph-name="G" unicode="G" horiz-adv-x="1270" d="M1126 961 L954 940 Q930 1078 878 1152 Q800 1262 644 1262 Q557 1262 489 1224 Q411 1180 378 1109 Q293 924 293 670 Q293 433 373 263 Q404 196 475 155.5 Q546 115 631 115 Q724 115 799 157 Q874 199 954 297 L954 524 L651 524 L651 664 L1116 664 L1116 0 L983 0 L969 143 L957 132 Q895 76 881 63 Q838 22 763 -3.5 Q688 -29 610 -29 Q368 -29 239 154 Q113 333 113 659 Q113 1003 249 1197 Q388 1395 649 1395 Q847 1395 968.5 1284.5 Q1090 1174 1126 961 Z " />
<glyph glyph-name="H" unicode="H" horiz-adv-x="1288" d="M1118 0 L952 0 L952 649 L336 649 L336 0 L170 0 L170 1366 L336 1366 L336 788 L952 788 L952 1366 L1118 1366 L1118 0 Z " />
<glyph glyph-name="I" unicode="I" horiz-adv-x="506" d="M336 0 L170 0 L170 1366 L336 1366 L336 0 Z " />
<glyph glyph-name="J" unicode="J" horiz-adv-x="797" d="M12 43 L74 178 Q198 107 289 107 Q344 107 384 130 Q425 153 443 213 Q461 273 461 387 L461 1366 L627 1366 L627 340 Q627 169 571 84 Q496 -31 294 -31 Q135 -31 12 43 Z " />
<glyph glyph-name="K" unicode="K" horiz-adv-x="1055" d="M1085 0 L897 0 L502 692 L338 477 L338 0 L170 0 L170 1366 L338 1366 L338 702 L809 1366 L1001 1366 L608 823 L1085 0 Z " />
<glyph glyph-name="L" unicode="L" horiz-adv-x="954" d="M961 0 L170 0 L170 1366 L336 1366 L336 139 L961 139 L961 0 Z " />
<glyph glyph-name="M" unicode="M" horiz-adv-x="1483" d="M1313 0 L1151 0 L1151 874 Q1151 926 1163 1219 Q1124 1043 1079 891 L813 0 L670 0 L399 893 Q363 1013 324 1219 Q336 948 336 874 L336 0 L170 0 L170 1366 L434 1366 L682 494 Q723 348 743 201 Q758 348 799 494 L1047 1366 L1313 1366 L1313 0 Z " />
<glyph glyph-name="N" unicode="N" horiz-adv-x="1286" d="M1116 0 L907 0 L414 971 Q405 990 388 1020 Q337 1116 324 1174 Q334 1108 334 1036 L334 0 L170 0 L170 1366 L387 1366 L887 373 Q915 318 965 190 Q954 278 954 356 L954 1366 L1116 1366 L1116 0 Z " />
<glyph glyph-name="O" unicode="O" horiz-adv-x="1298" d="M651 1395 Q784 1395 882 1345 Q1029 1269 1109 1100 Q1186 937 1186 685 Q1186 408 1089 232 Q945 -29 650 -29 Q400 -29 257 162 Q113 355 113 683 Q113 1017 256 1204 Q402 1395 651 1395 Z M647 1260 Q561 1260 497 1223 Q295 1105 295 685 Q295 528 329 393 Q363 260 449 181 Q529 107 650 107 Q734 107 798 143 Q1004 258 1004 681 L1003 746 Q1003 839 977 941 Q951 1043 910 1108 Q816 1260 647 1260 Z " />
<glyph glyph-name="P" unicode="P" horiz-adv-x="1071" d="M336 588 L336 0 L170 0 L170 1366 L586 1366 Q799 1366 906 1285 Q1026 1194 1026 982 Q1026 588 551 588 L336 588 Z M336 1227 L336 727 L528 727 Q691 727 768 787 Q844 846 844 980 Q844 1112 774.5 1169.5 Q705 1227 545 1227 L336 1227 Z " />
<glyph glyph-name="Q" unicode="Q" horiz-adv-x="1298" d="M1241 -61 L1165 -211 Q979 -129 831 4 Q734 -29 645 -29 Q398 -29 256 161 Q113 352 113 682 Q113 1012 256 1204 Q398 1395 650 1395 Q781 1395 880 1345 Q1028 1271 1109 1098 Q1186 933 1186 694 Q1186 547 1153.5 416 Q1121 285 1065 202 Q1034 156 973 96 Q1100 -6 1241 -61 Z M650 1260 Q566 1260 504 1224 Q403 1166 348 1028 Q295 893 295 686 Q295 537 329 407 Q365 267 451 187 Q537 107 651 107 Q731 107 794 142 Q895 198 951 337 Q1004 471 1004 682 Q1004 916 939 1057 Q845 1260 650 1260 Z " />
<glyph glyph-name="R" unicode="R" horiz-adv-x="1155" d="M1081 0 L889 0 L619 608 L336 608 L336 0 L170 0 L170 1366 L584 1366 Q807 1366 919 1296 Q1057 1210 1057 999 Q1057 854 986 760.5 Q915 667 780 635 L1081 0 Z M336 1227 L336 748 L559 748 Q722 748 796 800 Q874 855 874 990 Q874 1122 804.5 1174.5 Q735 1227 559 1227 L336 1227 Z " />
<glyph glyph-name="S" unicode="S" horiz-adv-x="1116" d="M61 350 L223 401 Q249 285 296 223 Q383 109 557 109 Q670 109 749 161 Q842 222 842 333 Q842 454 724 530 Q684 556 546 615 Q345 699 276 748 Q109 864 109 1056 Q109 1231 239 1320 Q348 1395 522 1395 Q886 1395 977 1053 L813 1010 Q784 1108 742 1159 Q663 1255 515 1255 Q382 1255 326 1192 Q283 1143 283 1069 Q283 948 410 872 Q481 830 700 737 Q809 691 853.5 663.5 Q898 636 937 591 Q1014 501 1014 353 Q1014 231 965 146 Q922 69 851 33 Q726 -31 555 -31 Q344 -31 228 58.5 Q112 148 61 350 Z " />
<glyph glyph-name="T" unicode="T" horiz-adv-x="934" d="M938 1227 L549 1227 L549 0 L383 0 L383 1227 L-4 1227 L-4 1366 L938 1366 L938 1227 Z " />
<glyph glyph-name="U" unicode="U" horiz-adv-x="1268" d="M170 1366 L336 1366 L336 487 Q336 302 386 218 Q451 109 634 109 Q732 109 807 146 Q872 179 902 262 Q932 345 932 492 L932 1366 L1098 1366 L1098 463 Q1098 256 1024 143 Q915 -27 628 -27 Q495 -27 385 18 Q170 107 170 463 L170 1366 Z " />
<glyph glyph-name="V" unicode="V" horiz-adv-x="1001" d="M1001 1366 L590 0 L412 0 L2 1366 L178 1366 L463 383 Q487 300 506 168 Q522 260 557 383 L834 1366 L1001 1366 Z " />
<glyph glyph-name="W" unicode="W" horiz-adv-x="1528" d="M1499 1366 L1186 0 L1020 0 L799 922 Q772 1034 762 1174 Q749 1028 723 922 L500 0 L336 0 L29 1366 L197 1366 L391 457 Q404 396 424 221 Q439 350 465 457 L682 1366 L852 1366 L1067 457 Q1082 395 1110 221 Q1120 350 1143 457 L1339 1366 L1499 1366 Z " />
<glyph glyph-name="X" unicode="X" horiz-adv-x="1044" d="M1030 0 L836 0 L610 397 L571 467 Q521 557 514 602 Q489 530 412 395 L188 0 L14 0 L426 713 L39 1366 L236 1366 L432 1018 Q505 888 524 815 Q544 880 614 1006 L813 1366 L987 1366 L612 717 L1030 0 Z " />
<glyph glyph-name="Y" unicode="Y" horiz-adv-x="1012" d="M1022 1366 L584 588 L584 0 L420 0 L420 588 L-10 1366 L172 1366 L371 999 Q444 864 469 809 Q494 754 512 688 Q540 795 651 999 L850 1366 L1022 1366 Z " />
<glyph glyph-name="Z" unicode="Z" horiz-adv-x="1026" d="M963 0 L72 0 L72 117 L762 1225 L117 1225 L117 1364 L948 1364 L948 1243 L258 137 L963 137 L963 0 Z " />
<glyph glyph-name="bracketleft" unicode="&#x5b;" horiz-adv-x="549" d="M442 -240 L150 -240 L150 1604 L442 1604 L442 1489 L289 1489 L289 -123 L442 -123 L442 -240 Z " />
<glyph glyph-name="backslash" unicode="&#x5c;" horiz-adv-x="1032" d="M956 -240 L807 -240 L74 1602 L223 1602 L956 -240 Z " />
<glyph glyph-name="bracketright" unicode="&#x5d;" horiz-adv-x="549" d="M399 -240 L104 -240 L104 -123 L258 -123 L258 1489 L104 1489 L104 1604 L399 1604 L399 -240 Z " />
<glyph glyph-name="asciicircum" unicode="&#x5e;" horiz-adv-x="1024" d="M885 989 L733 989 L512 1360 L291 989 L139 989 L420 1473 L606 1473 L885 989 Z " />
<glyph glyph-name="underscore" unicode="&#x5f;" horiz-adv-x="1024" d="M1044 -324 L-20 -324 L-20 -193 L1044 -193 L1044 -324 Z " />
<glyph glyph-name="grave" unicode="&#x60;" horiz-adv-x="1024" d="M670 1192 L526 1192 L354 1477 L553 1477 L670 1192 Z " />
<glyph glyph-name="a" unicode="a" horiz-adv-x="1008" d="M848 0 L700 0 L700 127 Q579 -18 391 -18 Q254 -18 174 63 Q94 145 94 273 Q94 514 365 609 Q481 650 692 676 L692 752 Q692 845 638 898 Q581 954 481 954 Q399 954 341.5 920 Q284 886 233 807 L100 889 Q151 961 198 997 Q311 1083 487 1083 Q618 1083 715 1032 Q848 962 848 762 L848 0 Z M692 266 L692 561 Q535 542 447 512 Q254 444 254 285 Q254 244 268 208 Q308 109 426 109 Q580 109 692 266 Z " />
<glyph glyph-name="b" unicode="b" horiz-adv-x="1096" d="M326 123 L322 0 L168 0 L168 1415 L326 1415 L326 952 Q384 1008 465 1040.5 Q546 1073 627 1073 Q715 1073 782 1037 Q987 926 987 527 Q987 303 918 171 Q819 -18 620 -18 Q540 -18 473 14 Q406 46 326 123 Z M326 829 L326 256 Q383 194 425 164 Q497 113 572 113 Q632 113 681 142 Q819 223 819 516 Q819 944 577 944 Q460 944 326 829 Z " />
<glyph glyph-name="c" unicode="c" horiz-adv-x="977" d="M920 276 Q901 203 869 150 Q760 -27 531 -27 Q416 -27 333 17 Q219 79 160 219 Q109 339 109 513 Q109 744 199 897 Q309 1083 531 1083 Q637 1083 723 1039 Q864 967 907 770 L752 731 Q729 826 691 876 Q633 952 527 952 Q424 952 362 881 Q324 838 299 736.5 Q274 635 274 523 Q274 399 301.5 300 Q329 201 375 159 Q436 104 528 104 Q621 104 677.5 156 Q734 208 766 322 L920 276 Z " />
<glyph glyph-name="d" unicode="d" horiz-adv-x="1096" d="M928 0 L776 0 L772 123 Q693 47 624.5 14.5 Q556 -18 475 -18 Q390 -18 320 20 Q109 133 109 524 Q109 785 209 930 Q307 1073 485 1073 Q641 1073 770 952 L770 1415 L928 1415 L928 0 Z M770 256 L770 829 Q634 946 522 946 Q463 946 415 919 Q360 887 337 837 Q276 706 276 524 Q276 347 336 222 Q359 173 411 143 Q463 113 523 113 Q645 113 770 256 Z " />
<glyph glyph-name="e" unicode="e" horiz-adv-x="1036" d="M936 240 Q888 138 836 86 Q723 -27 528 -27 Q410 -27 316 25 Q230 73 188 156 Q109 312 109 527 Q109 675 150 803 Q192 934 304 1013 Q404 1083 542 1083 Q649 1083 725 1042 Q827 986 881 861 Q928 753 928 596 L928 506 L274 506 Q278 394 290 335.5 Q302 277 334 217 Q395 104 535 104 Q626 104 687 151.5 Q748 199 795 307 L936 240 Z M766 635 Q762 764 721 840 Q660 952 533 952 Q418 952 355 875.5 Q292 799 274 635 L766 635 Z " />
<glyph glyph-name="f" unicode="f" horiz-adv-x="575" d="M598 1473 L584 1346 Q526 1360 474 1360 Q430 1360 397 1344 Q346 1319 346 1198 L346 1057 L561 1057 L561 920 L346 920 L346 0 L188 0 L188 920 L18 920 L18 1057 L188 1057 L188 1208 Q188 1359 264 1427 Q333 1487 449 1487 Q498 1487 598 1473 Z " />
<glyph glyph-name="g" unicode="g" horiz-adv-x="1040" d="M989 981 L987 981 Q986 981 983 981 Q978 981 971 982 Q968 982 965 982 Q954 983 942 983 Q907 983 874 970 Q848 960 821 938 Q901 831 901 701 Q901 537 794 434 Q688 332 523 332 Q483 332 445 339 Q402 346 346 367 Q274 338 274 296 Q274 252 340 232 Q359 226 498 197 L684 158 Q827 128 894 82 Q989 17 989 -108 Q989 -188 952 -246 Q853 -399 526 -399 Q427 -399 341 -383 Q209 -359 139.5 -297 Q70 -235 70 -142 Q70 -72 106 -19 Q154 50 266 102 Q131 145 131 256 Q131 288 143 313 Q172 373 276 401 Q224 434 198 467 Q129 555 129 707 Q129 794 160 868 Q200 966 296 1024.5 Q392 1083 512 1083 Q644 1083 756 1006 Q807 1072 848.5 1091 Q890 1110 989 1114 L989 981 Z M513 961 Q456 961 414 940 Q293 881 293 709 Q293 650 310 598 Q332 531 385.5 494 Q439 457 514 457 Q568 457 613 477 Q731 530 731 704 Q731 822 672 891.5 Q613 961 513 961 Z M377 66 Q213 -16 213 -121 Q213 -151 227 -176 Q248 -210 277 -224 Q378 -268 524 -268 Q669 -268 744 -231 Q819 -194 819 -123 Q819 -111 817 -102 Q797 -14 592 25 L377 66 Z " />
<glyph glyph-name="h" unicode="h" horiz-adv-x="1079" d="M920 0 L762 0 L762 745 Q762 844 733 890 Q697 946 607 946 Q484 946 326 815 L326 0 L168 0 L168 1415 L326 1415 L326 936 Q423 1013 494.5 1044 Q566 1075 647 1075 Q730 1075 797 1040 Q861 1007 890.5 928.5 Q920 850 920 713 L920 0 Z " />
<glyph glyph-name="i" unicode="i" horiz-adv-x="516" d="M348 1222 L168 1222 L168 1415 L348 1415 L348 1222 Z M338 0 L180 0 L180 1057 L338 1057 L338 0 Z " />
<glyph glyph-name="j" unicode="j" horiz-adv-x="516" d="M348 1222 L168 1222 L168 1415 L348 1415 L348 1222 Z M-63 -348 L-47 -223 Q12 -242 61 -242 Q128 -242 153.5 -202.5 Q179 -163 179 -61 L179 1057 L338 1057 L338 -37 Q338 -173 304 -246 Q248 -369 81 -369 Q4 -369 -63 -348 Z " />
<glyph glyph-name="k" unicode="k" horiz-adv-x="971" d="M973 0 L793 0 L481 555 L326 393 L326 0 L168 0 L168 1415 L326 1415 L326 571 L737 1055 L926 1055 L584 662 L973 0 Z " />
<glyph glyph-name="l" unicode="l" horiz-adv-x="494" d="M326 0 L168 0 L168 1415 L326 1415 L326 0 Z " />
<glyph glyph-name="m" unicode="m" horiz-adv-x="1659" d="M1499 0 L1341 0 L1341 700 Q1341 813 1317 866 Q1282 944 1184 944 Q1045 944 913 768 L913 0 L756 0 L756 731 Q756 944 596 944 Q469 944 326 774 L326 0 L168 0 L168 1057 L315 1057 L317 903 Q375 980 464 1026.5 Q553 1073 643 1073 Q740 1073 808 1025 Q864 986 895 891 Q960 966 1013 1003 Q1114 1073 1234 1073 Q1313 1073 1374 1039 Q1499 970 1499 743 L1499 0 Z " />
<glyph glyph-name="n" unicode="n" horiz-adv-x="1079" d="M920 0 L762 0 L762 756 Q762 946 610 946 Q496 946 326 815 L326 0 L168 0 L168 1057 L317 1057 L319 932 Q402 994 458 1023 Q555 1073 651 1073 Q730 1073 796 1040 Q860 1008 890 933 Q920 858 920 731 L920 0 Z " />
<glyph glyph-name="o" unicode="o" horiz-adv-x="1071" d="M546 1083 Q666 1083 758 1031 Q844 983 885 902 Q964 747 964 529 Q964 -27 530 -27 Q406 -27 311 24 Q227 69 185 152 Q108 305 108 518 Q108 770 198 910 Q309 1083 546 1083 Z M536 952 Q467 952 415 923 Q359 890 333 838 Q271 711 271 521 Q271 339 310 246 Q369 104 532 104 Q616 104 673 142 Q739 185 769.5 277 Q800 369 800 522 Q800 690 772 778 Q718 952 536 952 Z " />
<glyph glyph-name="p" unicode="p" horiz-adv-x="1096" d="M326 102 L326 -365 L168 -365 L168 1057 L322 1057 L326 932 Q402 1009 470 1041 Q538 1073 625 1073 Q722 1073 797 1029 Q875 984 911 912 Q987 758 987 537 Q987 309 921 175 Q825 -18 619 -18 Q544 -18 485 6 Q426 30 326 102 Z M326 795 L326 231 Q444 111 571 111 Q671 111 731 180 Q769 223 793 320 Q817 417 817 528 Q817 944 578 944 Q453 944 326 795 Z " />
<glyph glyph-name="q" unicode="q" horiz-adv-x="1096" d="M928 -365 L770 -365 L770 102 Q629 -18 474 -18 Q296 -18 203 125 Q109 269 109 525 Q109 792 210 933 Q311 1073 485 1073 Q566 1073 631 1041 Q696 1009 772 932 L772 1057 L928 1057 L928 -365 Z M770 231 L770 795 Q715 860 673 891 Q601 944 524 944 Q463 944 414 915 Q359 882 336 834 Q276 708 276 529 Q276 348 336 220 Q359 171 409 141 Q459 111 517 111 Q619 111 770 231 Z " />
<glyph glyph-name="r" unicode="r" horiz-adv-x="711" d="M690 913 Q646 912 600 905 Q451 880 326 637 L326 0 L168 0 L168 1057 L322 1057 L322 838 Q381 935 424 980.5 Q467 1026 521 1048 Q602 1082 690 1081 L690 913 Z " />
<glyph glyph-name="s" unicode="s" horiz-adv-x="889" d="M51 207 L186 274 Q217 207 250 173 Q321 100 453 100 Q532 100 593 132 Q661 168 661 250 Q661 355 516 427 Q292 538 278 544 Q194 583 147 653 Q100 723 100 810 Q100 875 126 927 Q162 1001 246 1042 Q328 1083 442 1083 Q637 1083 738 975 Q767 944 799 887 L664 821 Q639 872 613 898 Q553 956 439 956 Q369 956 315 928 Q256 897 256 825 Q256 780 276 752 Q329 678 539 587 Q636 545 679.5 519 Q723 493 752 459 Q821 379 821 266 Q821 179 784 114 Q750 55 694 26 Q589 -27 456 -27 Q345 -27 256.5 6.5 Q168 40 116 100 Q85 138 51 207 Z " />
<glyph glyph-name="t" unicode="t" horiz-adv-x="639" d="M635 10 Q525 -16 449 -16 Q378 -16 321 5 Q209 47 209 227 L209 920 L37 920 L37 1057 L209 1057 L209 1337 L369 1384 L369 1057 L627 1057 L627 920 L369 920 L369 227 Q369 164 393.5 139.5 Q418 115 482 115 Q543 115 616 139 L635 10 Z " />
<glyph glyph-name="u" unicode="u" horiz-adv-x="1081" d="M911 0 L762 0 L760 125 Q677 62 620 33 Q522 -18 427 -18 Q347 -18 282 15 Q221 46 192 112 Q160 186 160 324 L160 1057 L317 1057 L317 301 Q317 206 346 163 Q382 111 466 111 Q581 111 754 240 L754 1057 L911 1057 L911 0 Z " />
<glyph glyph-name="v" unicode="v" horiz-adv-x="856" d="M838 1057 L512 0 L352 0 L16 1057 L186 1057 L383 412 Q418 299 438 176 Q465 328 489 412 L676 1057 L838 1057 Z " />
<glyph glyph-name="w" unicode="w" horiz-adv-x="1348" d="M1319 1057 L1042 0 L889 0 L719 625 Q686 745 670 868 Q660 757 623 625 L449 0 L295 0 L27 1057 L190 1057 L340 406 Q366 293 375 195 Q388 313 414 406 L594 1057 L754 1057 L932 406 Q948 346 973 195 Q980 301 1004 406 L1155 1057 L1319 1057 Z " />
<glyph glyph-name="x" unicode="x" horiz-adv-x="918" d="M891 0 L713 0 L577 229 Q512 339 461 467 Q399 318 369 268 L209 0 L25 0 L362 561 L63 1057 L248 1057 L389 821 Q458 705 461 653 Q473 707 538 821 L674 1057 L854 1057 L557 563 L891 0 Z " />
<glyph glyph-name="y" unicode="y" horiz-adv-x="872" d="M854 1057 L496 -90 Q448 -245 384 -303 Q310 -371 152 -371 Q110 -371 75 -366 Q53 -363 29 -356 L45 -229 Q97 -242 143 -242 Q261 -242 308 -146 Q326 -112 365 20 L12 1057 L186 1057 L362 500 Q370 476 387 424 Q432 289 444 193 Q465 287 528 506 L688 1057 L854 1057 Z " />
<glyph glyph-name="z" unicode="z" horiz-adv-x="854" d="M788 0 L66 0 L66 109 L479 758 Q527 833 592 924 Q499 920 435 920 L119 920 L119 1057 L784 1057 L784 942 L362 274 Q315 200 258 129 L278 129 Q355 131 387 131 L788 131 L788 0 Z " />
<glyph glyph-name="braceleft" unicode="&#x7b;" horiz-adv-x="549" d="M512 -240 L401 -240 Q190 -240 190 -2 L190 389 Q190 535 156 580 Q127 619 63 623 L63 743 Q137 745 163.5 793.5 Q190 842 190 975 L190 1370 Q190 1604 401 1604 L512 1604 L512 1493 Q416 1492 385 1480 Q326 1457 326 1358 L326 915 Q326 820 292 765 Q258 710 184 686 L184 680 Q262 657 294 605 Q326 553 326 449 L326 10 Q326 -74 361.5 -100 Q397 -126 512 -127 L512 -240 Z " />
<glyph glyph-name="bar" unicode="&#x7c;" horiz-adv-x="1024" d="M584 -160 L440 -160 L440 1569 L584 1569 L584 -160 Z " />
<glyph glyph-name="braceright" unicode="&#x7d;" horiz-adv-x="549" d="M485 623 Q415 619 385 568 Q358 521 358 389 L358 -2 Q358 -240 147 -240 L37 -240 L37 -127 Q131 -126 163 -114 Q223 -91 223 10 L223 449 Q223 553 255 605 Q287 657 365 680 L365 686 Q316 702 290 724 Q223 782 223 915 L223 1358 Q223 1441 188 1466.5 Q153 1492 37 1493 L37 1604 L147 1604 Q358 1604 358 1370 L358 975 Q358 831 393 784 Q422 745 485 743 L485 623 Z " />
<glyph glyph-name="asciitilde" unicode="&#x7e;" horiz-adv-x="1024" d="M961 629 Q851 420 697 420 Q670 420 644 427 Q586 442 503 483 Q376 547 313 547 Q275 547 245 528 Q191 495 141 412 L63 461 Q182 674 320 674 Q388 674 515 611 Q643 547 709 547 Q802 547 881 676 L961 629 Z " />
<glyph glyph-name="Adieresis" unicode="&#xc4;" horiz-adv-x="1071" d="M1055 0 L877 0 L766 391 L299 391 L190 0 L18 0 L428 1366 L645 1366 L1055 0 Z M731 530 L586 1040 L532 1231 L479 1040 L334 530 L731 530 Z M782 1481 L614 1481 L614 1690 L782 1690 L782 1481 Z M440 1481 L272 1481 L272 1690 L440 1690 L440 1481 Z " />
<glyph glyph-name="Aring" unicode="&#xc5;" horiz-adv-x="1071" d="M1055 0 L877 0 L766 391 L299 391 L190 0 L18 0 L428 1366 L645 1366 L1055 0 Z M731 530 L586 1040 L532 1231 L479 1040 L334 530 L731 530 Z M531 1803 Q575 1803 610 1789 Q666 1767 697.5 1721 Q729 1675 729 1617 Q729 1539 672 1487 Q615 1435 530 1435 Q445 1435 390 1486.5 Q335 1538 335 1617 Q335 1696 391 1749.5 Q447 1803 531 1803 Z M535 1713 Q512 1713 495 1706 Q436 1682 436 1619 Q436 1579 463.5 1551 Q491 1523 532 1523 Q552 1523 570 1530 Q628 1555 628 1617 Q628 1713 535 1713 Z " />
<glyph glyph-name="Ccedilla" unicode="&#xc7;" horiz-adv-x="1208" d="M383 -381 L399 -293 Q500 -313 541 -313 Q585 -313 616 -298 Q643 -284 643 -251 Q643 -190 527 -190 Q513 -190 483 -193 L554 -24 Q472 -10 426.5 7 Q381 24 338 54 Q243 123 201 213 Q113 400 113 659 Q113 1007 250 1202 Q386 1395 639 1395 Q949 1395 1063 1115 Q1093 1042 1106 942 L938 924 Q929 1005 907 1066 Q834 1260 634 1260 Q552 1260 487 1223 Q411 1180 379 1113 Q293 930 293 675 Q293 431 374 257 Q406 189 477 148 Q548 107 634 107 Q907 107 946 449 L1112 426 Q1095 290 1048 201 Q923 -25 648 -29 L612 -113 Q694 -115 731 -146 Q768 -177 768 -244 Q768 -408 552 -408 Q479 -408 383 -381 Z " />
<glyph glyph-name="Eacute" unicode="&#xc9;" horiz-adv-x="1067" d="M1006 0 L170 0 L170 1366 L958 1366 L958 1227 L336 1227 L336 772 L840 772 L840 633 L336 633 L336 139 L1006 139 L1006 0 Z M784 1741 L563 1489 L412 1489 L584 1741 L784 1741 Z " />
<glyph glyph-name="Ntilde" unicode="&#xd1;" horiz-adv-x="1286" d="M1116 0 L907 0 L414 971 Q405 990 388 1020 Q337 1116 324 1174 Q334 1108 334 1036 L334 0 L170 0 L170 1366 L387 1366 L887 373 Q915 318 965 190 Q954 278 954 356 L954 1366 L1116 1366 L1116 0 Z M976 1608 Q885 1485 782 1485 Q764 1485 746 1489 Q709 1497 658 1519 Q577 1554 538 1554 Q491 1554 438 1483 L342 1561 Q438 1694 550 1694 Q568 1694 584 1690 Q618 1682 669 1658 Q745 1622 781 1622 Q798 1622 813 1629 Q846 1646 888 1694 L976 1608 Z " />
<glyph glyph-name="Odieresis" unicode="&#xd6;" horiz-adv-x="1298" d="M651 1395 Q784 1395 882 1345 Q1029 1269 1109 1100 Q1186 937 1186 685 Q1186 408 1089 232 Q945 -29 650 -29 Q400 -29 257 162 Q113 355 113 683 Q113 1017 256 1204 Q402 1395 651 1395 Z M647 1260 Q561 1260 497 1223 Q295 1105 295 685 Q295 528 329 393 Q363 260 449 181 Q529 107 650 107 Q734 107 798 143 Q1004 258 1004 681 L1003 746 Q1003 839 977 941 Q951 1043 910 1108 Q816 1260 647 1260 Z M909 1481 L741 1481 L741 1690 L909 1690 L909 1481 Z M567 1481 L399 1481 L399 1690 L567 1690 L567 1481 Z " />
<glyph glyph-name="Udieresis" unicode="&#xdc;" horiz-adv-x="1268" d="M170 1366 L336 1366 L336 487 Q336 302 386 218 Q451 109 634 109 Q732 109 807 146 Q872 179 902 262 Q932 345 932 492 L932 1366 L1098 1366 L1098 463 Q1098 256 1024 143 Q915 -27 628 -27 Q495 -27 385 18 Q170 107 170 463 L170 1366 Z M889 1481 L721 1481 L721 1690 L889 1690 L889 1481 Z M547 1481 L379 1481 L379 1690 L547 1690 L547 1481 Z " />
<glyph glyph-name="aacute" unicode="&#xe1;" horiz-adv-x="1008" d="M848 0 L700 0 L700 127 Q579 -18 391 -18 Q254 -18 174 63 Q94 145 94 273 Q94 514 365 609 Q481 650 692 676 L692 752 Q692 845 638 898 Q581 954 481 954 Q399 954 341.5 920 Q284 886 233 807 L100 889 Q151 961 198 997 Q311 1083 487 1083 Q618 1083 715 1032 Q848 962 848 762 L848 0 Z M692 266 L692 561 Q535 542 447 512 Q254 444 254 285 Q254 244 268 208 Q308 109 426 109 Q580 109 692 266 Z M709 1477 L541 1192 L393 1192 L514 1477 L709 1477 Z " />
<glyph glyph-name="agrave" unicode="&#xe0;" horiz-adv-x="1008" d="M848 0 L700 0 L700 127 Q579 -18 391 -18 Q254 -18 174 63 Q94 145 94 273 Q94 514 365 609 Q481 650 692 676 L692 752 Q692 845 638 898 Q581 954 481 954 Q399 954 341.5 920 Q284 886 233 807 L100 889 Q151 961 198 997 Q311 1083 487 1083 Q618 1083 715 1032 Q848 962 848 762 L848 0 Z M692 266 L692 561 Q535 542 447 512 Q254 444 254 285 Q254 244 268 208 Q308 109 426 109 Q580 109 692 266 Z M597 1192 L453 1192 L281 1477 L480 1477 L597 1192 Z " />
<glyph glyph-name="acircumflex" unicode="&#xe2;" horiz-adv-x="1008" d="M848 0 L700 0 L700 127 Q579 -18 391 -18 Q254 -18 174 63 Q94 145 94 273 Q94 514 365 609 Q481 650 692 676 L692 752 Q692 845 638 898 Q581 954 481 954 Q399 954 341.5 920 Q284 886 233 807 L100 889 Q151 961 198 997 Q311 1083 487 1083 Q618 1083 715 1032 Q848 962 848 762 L848 0 Z M692 266 L692 561 Q535 542 447 512 Q254 444 254 285 Q254 244 268 208 Q308 109 426 109 Q580 109 692 266 Z M784 1190 L642 1190 L501 1382 L364 1190 L226 1190 L392 1477 L616 1477 L784 1190 Z " />
<glyph glyph-name="adieresis" unicode="&#xe4;" horiz-adv-x="1008" d="M848 0 L700 0 L700 127 Q579 -18 391 -18 Q254 -18 174 63 Q94 145 94 273 Q94 514 365 609 Q481 650 692 676 L692 752 Q692 845 638 898 Q581 954 481 954 Q399 954 341.5 920 Q284 886 233 807 L100 889 Q151 961 198 997 Q311 1083 487 1083 Q618 1083 715 1032 Q848 962 848 762 L848 0 Z M692 266 L692 561 Q535 542 447 512 Q254 444 254 285 Q254 244 268 208 Q308 109 426 109 Q580 109 692 266 Z M733 1204 L565 1204 L565 1413 L733 1413 L733 1204 Z M393 1204 L225 1204 L225 1413 L393 1413 L393 1204 Z " />
<glyph glyph-name="atilde" unicode="&#xe3;" horiz-adv-x="1008" d="M848 0 L700 0 L700 127 Q579 -18 391 -18 Q254 -18 174 63 Q94 145 94 273 Q94 514 365 609 Q481 650 692 676 L692 752 Q692 845 638 898 Q581 954 481 954 Q399 954 341.5 920 Q284 886 233 807 L100 889 Q151 961 198 997 Q311 1083 487 1083 Q618 1083 715 1032 Q848 962 848 762 L848 0 Z M692 266 L692 561 Q535 542 447 512 Q254 444 254 285 Q254 244 268 208 Q308 109 426 109 Q580 109 692 266 Z M810 1360 Q721 1239 620 1239 Q600 1239 582 1243 Q547 1251 493 1274 Q414 1309 373 1309 Q354 1309 338 1300 Q308 1283 274 1237 L180 1313 Q275 1446 385 1446 Q403 1446 420 1442 Q455 1434 523 1403 Q583 1376 617 1376 Q662 1376 724 1446 L810 1360 Z " />
<glyph glyph-name="aring" unicode="&#xe5;" horiz-adv-x="1008" d="M848 0 L700 0 L700 127 Q579 -18 391 -18 Q254 -18 174 63 Q94 145 94 273 Q94 514 365 609 Q481 650 692 676 L692 752 Q692 845 638 898 Q581 954 481 954 Q399 954 341.5 920 Q284 886 233 807 L100 889 Q151 961 198 997 Q311 1083 487 1083 Q618 1083 715 1032 Q848 962 848 762 L848 0 Z M692 266 L692 561 Q535 542 447 512 Q254 444 254 285 Q254 244 268 208 Q308 109 426 109 Q580 109 692 266 Z M497 1532 Q542 1532 577 1518 Q633 1496 664.5 1450 Q696 1404 696 1346 Q696 1268 639 1215.5 Q582 1163 497 1163 Q413 1163 357.5 1215 Q302 1267 302 1346 Q302 1425 358 1478.5 Q414 1532 497 1532 Z M502 1442 Q479 1442 462 1435 Q403 1411 403 1348 Q403 1307 431 1279 Q459 1251 499 1251 Q520 1251 537 1258 Q595 1283 595 1346 Q595 1442 502 1442 Z " />
<glyph glyph-name="ccedilla" unicode="&#xe7;" horiz-adv-x="977" d="M920 276 Q847 -6 555 -26 L518 -113 Q600 -115 637 -146 Q674 -177 674 -244 Q674 -408 458 -408 Q385 -408 289 -381 L305 -293 Q405 -313 446 -313 Q491 -313 522 -298 Q549 -284 549 -251 Q549 -190 433 -190 L424 -190 Q419 -190 389 -193 L461 -22 Q311 3 226 107 Q109 251 109 512 Q109 638 138 748 Q177 900 273 990 Q372 1083 531 1083 Q637 1083 723 1039 Q864 967 907 770 L752 731 Q729 826 691 876 Q633 952 527 952 Q424 952 362 881 Q324 838 299 736.5 Q274 635 274 523 Q274 399 301.5 300 Q329 201 375 159 Q436 104 528 104 Q621 104 677.5 156 Q734 208 766 322 L920 276 Z " />
<glyph glyph-name="eacute" unicode="&#xe9;" horiz-adv-x="1036" d="M936 240 Q888 138 836 86 Q723 -27 528 -27 Q410 -27 316 25 Q230 73 188 156 Q109 312 109 527 Q109 675 150 803 Q192 934 304 1013 Q404 1083 542 1083 Q649 1083 725 1042 Q827 986 881 861 Q928 753 928 596 L928 506 L274 506 Q278 394 290 335.5 Q302 277 334 217 Q395 104 535 104 Q626 104 687 151.5 Q748 199 795 307 L936 240 Z M766 635 Q762 764 721 840 Q660 952 533 952 Q418 952 355 875.5 Q292 799 274 635 L766 635 Z M745 1478 L577 1193 L429 1193 L550 1478 L745 1478 Z " />
<glyph glyph-name="egrave" unicode="&#xe8;" horiz-adv-x="1036" d="M936 240 Q888 138 836 86 Q723 -27 528 -27 Q410 -27 316 25 Q230 73 188 156 Q109 312 109 527 Q109 675 150 803 Q192 934 304 1013 Q404 1083 542 1083 Q649 1083 725 1042 Q827 986 881 861 Q928 753 928 596 L928 506 L274 506 Q278 394 290 335.5 Q302 277 334 217 Q395 104 535 104 Q626 104 687 151.5 Q748 199 795 307 L936 240 Z M766 635 Q762 764 721 840 Q660 952 533 952 Q418 952 355 875.5 Q292 799 274 635 L766 635 Z M639 1192 L495 1192 L323 1477 L522 1477 L639 1192 Z " />
<glyph glyph-name="ecircumflex" unicode="&#xea;" horiz-adv-x="1036" d="M936 240 Q888 138 836 86 Q723 -27 528 -27 Q410 -27 316 25 Q230 73 188 156 Q109 312 109 527 Q109 675 150 803 Q192 934 304 1013 Q404 1083 542 1083 Q649 1083 725 1042 Q827 986 881 861 Q928 753 928 596 L928 506 L274 506 Q278 394 290 335.5 Q302 277 334 217 Q395 104 535 104 Q626 104 687 151.5 Q748 199 795 307 L936 240 Z M766 635 Q762 764 721 840 Q660 952 533 952 Q418 952 355 875.5 Q292 799 274 635 L766 635 Z M810 1190 L668 1190 L527 1382 L390 1190 L252 1190 L418 1477 L642 1477 L810 1190 Z " />
<glyph glyph-name="edieresis" unicode="&#xeb;" horiz-adv-x="1024" d="M784 1204 L616 1204 L616 1413 L784 1413 L784 1204 Z M444 1204 L276 1204 L276 1413 L444 1413 L444 1204 Z M936 240 Q888 138 836 86 Q723 -27 528 -27 Q410 -27 316 25 Q230 73 188 156 Q109 312 109 527 Q109 675 150 803 Q192 934 304 1013 Q404 1083 542 1083 Q649 1083 725 1042 Q827 986 881 861 Q928 753 928 596 L928 506 L274 506 Q278 394 290 335.5 Q302 277 334 217 Q395 104 535 104 Q626 104 687 151.5 Q748 199 795 307 L936 240 Z M766 635 Q762 764 721 840 Q660 952 533 952 Q418 952 355 875.5 Q292 799 274 635 L766 635 Z " />
<glyph glyph-name="iacute" unicode="&#xed;" horiz-adv-x="516" d="M338 0 L180 0 L180 1057 L338 1057 L338 0 Z M487 1477 L319 1192 L171 1192 L292 1477 L487 1477 Z " />
<glyph glyph-name="igrave" unicode="&#xec;" horiz-adv-x="516" d="M338 0 L180 0 L180 1057 L338 1057 L338 0 Z M351 1192 L207 1192 L35 1477 L234 1477 L351 1192 Z " />
<glyph glyph-name="icircumflex" unicode="&#xee;" horiz-adv-x="516" d="M477 1194 L354 1194 L254 1389 L160 1194 L39 1194 L162 1479 L350 1479 L477 1194 Z M338 0 L180 0 L180 1057 L338 1057 L338 0 Z " />
<glyph glyph-name="idieresis" unicode="&#xef;" horiz-adv-x="516" d="M469 1206 L315 1206 L315 1415 L469 1415 L469 1206 Z M201 1206 L47 1206 L47 1415 L201 1415 L201 1206 Z M338 0 L180 0 L180 1057 L338 1057 L338 0 Z " />
<glyph glyph-name="ntilde" unicode="&#xf1;" horiz-adv-x="1079" d="M920 0 L762 0 L762 756 Q762 946 610 946 Q496 946 326 815 L326 0 L168 0 L168 1057 L317 1057 L319 932 Q402 994 458 1023 Q555 1073 651 1073 Q730 1073 796 1040 Q860 1008 890 933 Q920 858 920 731 L920 0 Z M847 1360 Q757 1239 657 1239 Q637 1239 619 1243 Q584 1251 530 1274 Q451 1309 410 1309 Q391 1309 375 1300 Q345 1283 311 1237 L217 1313 Q312 1446 422 1446 Q440 1446 457 1442 Q492 1434 560 1403 Q620 1376 654 1376 Q699 1376 761 1446 L847 1360 Z " />
<glyph glyph-name="oacute" unicode="&#xf3;" horiz-adv-x="1071" d="M546 1083 Q666 1083 758 1031 Q844 983 885 902 Q964 747 964 529 Q964 -27 530 -27 Q406 -27 311 24 Q227 69 185 152 Q108 305 108 518 Q108 770 198 910 Q309 1083 546 1083 Z M536 952 Q467 952 415 923 Q359 890 333 838 Q271 711 271 521 Q271 339 310 246 Q369 104 532 104 Q616 104 673 142 Q739 185 769.5 277 Q800 369 800 522 Q800 690 772 778 Q718 952 536 952 Z M756 1477 L588 1192 L440 1192 L561 1477 L756 1477 Z " />
<glyph glyph-name="ograve" unicode="&#xf2;" horiz-adv-x="1071" d="M546 1083 Q666 1083 758 1031 Q844 983 885 902 Q964 747 964 529 Q964 -27 530 -27 Q406 -27 311 24 Q227 69 185 152 Q108 305 108 518 Q108 770 198 910 Q309 1083 546 1083 Z M536 952 Q467 952 415 923 Q359 890 333 838 Q271 711 271 521 Q271 339 310 246 Q369 104 532 104 Q616 104 673 142 Q739 185 769.5 277 Q800 369 800 522 Q800 690 772 778 Q718 952 536 952 Z M634 1192 L490 1192 L318 1477 L517 1477 L634 1192 Z " />
<glyph glyph-name="ocircumflex" unicode="&#xf4;" horiz-adv-x="1071" d="M546 1083 Q666 1083 758 1031 Q844 983 885 902 Q964 747 964 529 Q964 -27 530 -27 Q406 -27 311 24 Q227 69 185 152 Q108 305 108 518 Q108 770 198 910 Q309 1083 546 1083 Z M536 952 Q467 952 415 923 Q359 890 333 838 Q271 711 271 521 Q271 339 310 246 Q369 104 532 104 Q616 104 673 142 Q739 185 769.5 277 Q800 369 800 522 Q800 690 772 778 Q718 952 536 952 Z M822 1190 L680 1190 L539 1382 L402 1190 L264 1190 L430 1477 L654 1477 L822 1190 Z " />
<glyph glyph-name="odieresis" unicode="&#xf6;" horiz-adv-x="1071" d="M546 1083 Q666 1083 758 1031 Q844 983 885 902 Q964 747 964 529 Q964 -27 530 -27 Q406 -27 311 24 Q227 69 185 152 Q108 305 108 518 Q108 770 198 910 Q309 1083 546 1083 Z M536 952 Q467 952 415 923 Q359 890 333 838 Q271 711 271 521 Q271 339 310 246 Q369 104 532 104 Q616 104 673 142 Q739 185 769.5 277 Q800 369 800 522 Q800 690 772 778 Q718 952 536 952 Z M784 1204 L616 1204 L616 1413 L784 1413 L784 1204 Z M444 1204 L276 1204 L276 1413 L444 1413 L444 1204 Z " />
<glyph glyph-name="otilde" unicode="&#xf5;" horiz-adv-x="1071" d="M546 1083 Q666 1083 758 1031 Q844 983 885 902 Q964 747 964 529 Q964 -27 530 -27 Q406 -27 311 24 Q227 69 185 152 Q108 305 108 518 Q108 770 198 910 Q309 1083 546 1083 Z M536 952 Q467 952 415 923 Q359 890 333 838 Q271 711 271 521 Q271 339 310 246 Q369 104 532 104 Q616 104 673 142 Q739 185 769.5 277 Q800 369 800 522 Q800 690 772 778 Q718 952 536 952 Z M852 1360 Q762 1239 662 1239 Q642 1239 624 1243 Q588 1251 535 1274 Q456 1309 415 1309 Q396 1309 380 1300 Q350 1283 316 1237 L222 1313 Q317 1446 427 1446 Q445 1446 462 1442 Q497 1434 565 1403 Q625 1376 659 1376 Q704 1376 766 1446 L852 1360 Z " />
<glyph glyph-name="uacute" unicode="&#xfa;" horiz-adv-x="1081" d="M911 0 L762 0 L760 125 Q677 62 620 33 Q522 -18 427 -18 Q347 -18 282 15 Q221 46 192 112 Q160 186 160 324 L160 1057 L317 1057 L317 301 Q317 206 346 163 Q382 111 466 111 Q581 111 754 240 L754 1057 L911 1057 L911 0 Z M731 1477 L563 1192 L415 1192 L536 1477 L731 1477 Z " />
<glyph glyph-name="ugrave" unicode="&#xf9;" horiz-adv-x="1081" d="M911 0 L762 0 L760 125 Q677 62 620 33 Q522 -18 427 -18 Q347 -18 282 15 Q221 46 192 112 Q160 186 160 324 L160 1057 L317 1057 L317 301 Q317 206 346 163 Q382 111 466 111 Q581 111 754 240 L754 1057 L911 1057 L911 0 Z M624 1192 L480 1192 L308 1477 L507 1477 L624 1192 Z " />
<glyph glyph-name="ucircumflex" unicode="&#xfb;" horiz-adv-x="1081" d="M911 0 L762 0 L760 125 Q677 62 620 33 Q522 -18 427 -18 Q347 -18 282 15 Q221 46 192 112 Q160 186 160 324 L160 1057 L317 1057 L317 301 Q317 206 346 163 Q382 111 466 111 Q581 111 754 240 L754 1057 L911 1057 L911 0 Z M815 1190 L673 1190 L532 1382 L395 1190 L257 1190 L423 1477 L647 1477 L815 1190 Z " />
<glyph glyph-name="udieresis" unicode="&#xfc;" horiz-adv-x="1081" d="M911 0 L762 0 L760 125 Q677 62 620 33 Q522 -18 427 -18 Q347 -18 282 15 Q221 46 192 112 Q160 186 160 324 L160 1057 L317 1057 L317 301 Q317 206 346 163 Q382 111 466 111 Q581 111 754 240 L754 1057 L911 1057 L911 0 Z M789 1204 L621 1204 L621 1413 L789 1413 L789 1204 Z M449 1204 L281 1204 L281 1413 L449 1413 L449 1204 Z " />
<glyph glyph-name="dagger" unicode="&#x2020;" horiz-adv-x="1071" d="M987 776 L612 776 L612 -365 L457 -365 L457 776 L84 776 L84 922 L457 922 L457 1366 L612 1366 L612 922 L987 922 L987 776 Z " />
<glyph glyph-name="degree" unicode="&#xb0;" horiz-adv-x="854" d="M429 1502 Q501 1502 558 1479 Q642 1446 688 1375.5 Q734 1305 734 1211 Q734 1141 710 1086 Q676 1008 601.5 964.5 Q527 921 427 921 Q321 921 244 974 Q124 1056 124 1211 Q124 1343 209 1422 Q296 1502 429 1502 Z M429 1387 Q352 1387 304 1338.5 Q256 1290 256 1212 Q256 1134 304 1085 Q352 1036 428 1036 Q504 1036 553 1085.5 Q602 1135 602 1212 Q602 1289 553.5 1338 Q505 1387 429 1387 Z " />
<glyph glyph-name="cent" unicode="&#xa2;" horiz-adv-x="1085" d="M969 440 Q941 332 854.5 254.5 Q768 177 647 154 L647 -66 L514 -66 L514 158 Q356 179 267 283 Q147 424 147 683 Q147 972 293 1126 Q374 1212 514 1235 L514 1434 L647 1434 L647 1237 Q770 1219 855 1140 Q940 1060 965 938 L819 899 Q784 1073 647 1100 L647 291 Q784 328 827 489 L969 440 Z M512 289 L512 1106 Q313 1041 313 685 Q313 533 360 420 Q399 324 512 289 Z " />
<glyph glyph-name="sterling" unicode="&#xa3;" horiz-adv-x="1085" d="M997 285 Q986 161 944 95 Q868 -27 689 -27 Q508 -27 291 102 Q237 37 156 -27 L70 59 Q156 139 201 209 Q297 360 297 545 Q297 573 294 593 Q293 604 289 618 L127 618 L127 748 L274 748 Q193 996 193 1082 Q193 1154 225 1216 Q272 1305 374 1353 Q461 1393 578 1393 Q694 1393 783 1351 Q858 1316 900.5 1249.5 Q943 1183 965 1067 L819 1047 Q800 1139 765 1187 Q704 1270 578 1270 Q527 1270 480 1255 Q342 1211 342 1072 Q342 1007 383 880 Q413 787 420 748 L686 748 L686 618 L432 618 Q436 572 436 528 Q436 368 356 201 Q531 100 670 100 Q730 100 775 124 Q845 162 848 285 L997 285 Z " />
<glyph glyph-name="section" unicode="&#xa7;" horiz-adv-x="1184" d="M860 172 Q933 117 965 56.5 Q997 -4 997 -88 Q997 -171 961 -234 Q927 -293 871 -322 Q757 -381 607 -381 Q467 -381 362 -330 Q289 -294 239.5 -219.5 Q190 -145 172 -43 L340 -8 Q352 -123 422 -190.5 Q492 -258 600 -258 Q692 -258 757 -222 Q791 -204 811.5 -169 Q832 -134 832 -96 Q832 -56 816 -31 Q770 43 651 121 L336 328 Q228 399 185 451 Q123 526 123 631 Q123 727 171.5 786.5 Q220 846 344 903 Q238 999 238 1124 Q238 1195 269 1249 Q307 1317 393 1356 Q479 1395 590 1395 Q730 1395 826 1342 Q886 1308 933.5 1240.5 Q981 1173 985 1114 L817 1083 Q770 1272 594 1272 Q501 1272 450 1234.5 Q399 1197 399 1129 Q399 1099 410 1072 Q423 1039 454.5 1010.5 Q486 982 559 938 L844 764 Q1061 632 1061 455 Q1061 444 1060 433 Q1054 345 1011 289 Q968 233 860 172 Z M438 829 Q356 795 320.5 753 Q285 711 285 647 Q285 617 296 589 Q308 557 333.5 532 Q359 507 428 461 L758 240 Q897 311 897 427 Q897 442 895 456 Q877 558 729 649 L438 829 Z " />
<glyph glyph-name="bullet" unicode="&#x2022;" horiz-adv-x="780" d="M392 828 Q420 828 442 819 Q477 804 498 771.5 Q519 739 519 700 Q519 647 482 610 Q445 573 392 573 Q338 573 301 610 Q264 647 264 701 Q264 754 301 791 Q338 828 392 828 Z " />
<glyph glyph-name="paragraph" unicode="&#xb6;" horiz-adv-x="1081" d="M1030 1255 L909 1255 L909 -360 L772 -360 L772 1255 L584 1255 L584 -360 L446 -360 L446 643 L416 643 Q254 643 149 741 Q41 842 41 1006 Q41 1114 87 1197 Q127 1269 195 1304 Q318 1366 489 1366 L1030 1366 L1030 1255 Z " />
<glyph glyph-name="germandbls" unicode="&#xdf;" horiz-adv-x="1124" d="M516 4 L543 145 Q651 111 721 111 Q790 111 839 138 Q907 175 907 267 Q907 349 829 437 Q809 459 702 578 Q606 683 606 805 Q606 880 680 1004 Q754 1128 754 1192 Q754 1242 730 1282 Q680 1364 546 1364 Q427 1364 376 1305 Q326 1248 326 1139 L326 -365 L168 -365 L168 1139 Q168 1317 268 1409 Q365 1499 543 1499 Q700 1499 796 1426 Q905 1343 905 1205 Q905 1149 889.5 1106 Q874 1063 820 967 Q766 872 766 827 Q766 750 863 639 Q978 505 992 488 Q1071 391 1071 274 Q1071 -25 719 -25 Q647 -25 582 -14 Q550 -8 516 4 Z " />
<glyph glyph-name="registered" unicode="&#xae;" horiz-adv-x="1391" d="M915 635 L807 635 L696 868 L608 868 L608 635 L510 635 L510 1192 L700 1192 Q897 1192 897 1036 Q897 975 872.5 940 Q848 905 793 885 L915 635 Z M608 1106 L608 954 L688 954 Q797 954 797 1033 Q797 1037 797 1041 Q794 1079 772 1092.5 Q750 1106 692 1106 L608 1106 Z M693 1487 Q831 1487 936 1441 Q1094 1372 1183 1226 Q1266 1090 1266 902 Q1266 694 1163 548 Q1005 324 695 324 Q561 324 449 370 Q296 433 206 585 Q125 722 125 906 Q125 1168 282 1325 Q444 1487 693 1487 Z M692 1376 Q583 1376 494 1338 Q374 1286 307 1169 Q244 1062 244 910 Q244 802 278 710 Q326 581 443 504 Q548 434 695 434 Q805 434 891 472 Q1015 526 1084 646 Q1147 755 1147 908 Q1147 1075 1066 1192 Q938 1376 692 1376 Z " />
<glyph glyph-name="copyright" unicode="&#xa9;" horiz-adv-x="1470" d="M1061 551 Q1049 430 996 354 Q909 231 740 231 Q574 231 487 329 Q443 379 417 471.5 Q391 564 391 670 Q391 870 465 993 Q557 1145 740 1145 Q821 1145 885 1113 Q953 1080 993 1014 Q1033 948 1057 829 L905 811 Q895 905 864 956 Q824 1020 738 1020 Q694 1020 658 1000 Q616 976 598 937 Q549 831 549 682 Q549 358 741 358 Q787 358 822 377 Q899 417 911 571 L1061 551 Z M733 1432 Q910 1432 1046 1373 Q1249 1285 1364 1096 Q1470 922 1470 685 Q1470 416 1337 227 Q1135 -61 735 -61 Q404 -61 202 147 Q0 354 0 686 Q0 1023 203 1225 Q412 1432 733 1432 Z M733 1305 Q587 1305 476 1256 Q313 1185 224 1032 Q141 891 141 690 Q141 549 187 428 Q250 259 404 157 Q543 66 736 66 Q880 66 993 116 Q1155 188 1246 346 Q1329 489 1329 690 Q1329 907 1223 1062 Q1056 1305 733 1305 Z " />
<glyph glyph-name="trademark" unicode="&#x2122;" horiz-adv-x="1473" d="M1348 594 L1233 594 L1233 1115 Q1233 1165 1243 1319 Q1217 1182 1200 1124 L1049 604 L940 604 L788 1126 L752 1280 L745 1309 Q760 1162 760 1116 L760 594 L645 594 L645 1415 L817 1415 L940 989 Q980 850 999 715 Q1019 871 1053 989 L1174 1415 L1348 1415 L1348 594 Z M541 1317 L328 1317 L328 594 L213 594 L213 1317 L0 1317 L0 1415 L541 1415 L541 1317 Z " />
<glyph glyph-name="acute" unicode="&#xb4;" horiz-adv-x="1024" d="M670 1477 L502 1192 L354 1192 L475 1477 L670 1477 Z " />
<glyph glyph-name="dieresis" unicode="&#xa8;" horiz-adv-x="1024" d="M766 1204 L598 1204 L598 1413 L766 1413 L766 1204 Z M426 1204 L258 1204 L258 1413 L426 1413 L426 1204 Z " />
<glyph glyph-name="notequal" unicode="&#x2260;" horiz-adv-x="1024" d="M956 303 L479 303 L365 70 L223 70 L336 303 L70 303 L70 432 L395 432 L485 623 L68 623 L68 752 L545 752 L655 981 L797 981 L686 752 L954 752 L954 623 L629 623 L537 432 L956 432 L956 303 Z " />
<glyph glyph-name="AE" unicode="&#xc6;" horiz-adv-x="1599" d="M1538 0 L764 0 L764 383 L369 383 L172 0 L-20 0 L702 1366 L1491 1366 L1491 1227 L930 1227 L930 770 L1376 770 L1376 631 L930 631 L930 139 L1538 139 L1538 0 Z M772 1182 L434 526 L764 526 L764 611 Q764 668 770 1081 L772 1182 Z " />
<glyph glyph-name="Oslash" unicode="&#xd8;" horiz-adv-x="1298" d="M1243 1376 Q1170 1284 1075 1159 Q1114 1091 1133 1038 Q1186 890 1186 687 Q1186 389 1068 199 Q926 -29 649 -29 Q548 -29 465 3 Q394 29 322 90 Q255 -13 190 -109 L57 -12 Q113 61 221 211 Q182 281 162 337 Q111 484 111 682 Q111 840 148 981 Q197 1166 322 1279 Q450 1395 652 1395 Q837 1395 973 1282 L984 1299 L1028 1365 L1084 1448 L1104 1477 L1243 1376 Z M881 1147 Q787 1260 644 1260 Q499 1260 413 1160 Q360 1098 327.5 968.5 Q295 839 295 688 Q295 509 336 371 L381 432 Q617 756 677.5 842.5 Q738 929 881 1147 Z M958 997 Q705 661 412 221 Q507 106 650 106 Q795 106 882 206 Q942 273 974 421 Q1001 543 1001 678 Q1001 861 958 997 Z " />
<glyph glyph-name="infinity" unicode="&#x221e;" horiz-adv-x="1364" d="M686 436 Q616 344 559 300 Q454 219 337 219 Q273 219 216 244 Q132 280 84.5 356.5 Q37 433 37 532 Q37 668 122 757 Q209 846 336 846 Q433 846 513 796 Q593 746 680 629 Q747 720 803 764 Q906 846 1027 846 Q1092 846 1149 822 Q1233 785 1280 708.5 Q1327 632 1327 530 Q1327 422 1271 343 Q1183 219 1027 219 Q929 219 850 269 Q771 319 686 436 Z M754 532 Q816 445 845 416 Q914 348 1004 348 Q1083 348 1132.5 399.5 Q1182 451 1182 534 Q1182 543 1181 551 Q1176 621 1125.5 669 Q1075 717 1005 717 Q935 717 877 674.5 Q819 632 754 532 Z M610 532 Q556 612 512 651 Q437 717 355 717 Q319 717 287 703 Q238 682 210 636 Q182 590 182 533 Q182 453 233 400.5 Q284 348 361 348 Q433 348 481.5 384 Q530 420 610 532 Z " />
<glyph glyph-name="plusminus" unicode="&#xb1;" horiz-adv-x="1024" d="M954 561 L582 561 L582 205 L442 205 L442 561 L70 561 L70 690 L442 690 L442 1042 L582 1042 L582 690 L954 690 L954 561 Z M954 -10 L70 -10 L70 121 L954 121 L954 -10 Z " />
<glyph glyph-name="lessequal" unicode="&#x2264;" horiz-adv-x="1024" d="M950 215 L74 567 L74 690 L950 1042 L950 909 L223 629 L950 348 L950 215 Z M952 -12 L72 -12 L72 119 L952 119 L952 -12 Z " />
<glyph glyph-name="greaterequal" unicode="&#x2265;" horiz-adv-x="1024" d="M950 567 L74 215 L74 348 L799 629 L74 909 L74 1042 L950 690 L950 567 Z M952 -12 L72 -12 L72 119 L952 119 L952 -12 Z " />
<glyph glyph-name="yen" unicode="&#xa5;" horiz-adv-x="1085" d="M1059 1366 L766 844 L991 844 L991 737 L705 737 L621 588 L621 555 L991 555 L991 449 L621 449 L621 0 L457 0 L457 449 L88 449 L88 555 L457 555 L457 588 L373 737 L88 737 L88 844 L313 844 L27 1366 L207 1366 L442 940 Q501 833 543 711 Q571 809 647 944 L885 1366 L1059 1366 Z " />
<glyph glyph-name="mu" unicode="&#xb5;" horiz-adv-x="1083" d="M911 0 L770 0 L770 111 Q688 -16 543 -16 Q400 -16 311 111 L311 -362 L164 -362 L164 1057 L311 1057 L311 303 Q348 221 411 173 Q474 125 545 125 Q630 125 694 191 Q723 220 746.5 255 Q770 290 770 303 L770 1057 L911 1057 L911 0 Z " />
<glyph glyph-name="partialdiff" unicode="&#x2202;" horiz-adv-x="1034" d="M772 702 Q763 876 745 959 Q700 1157 602 1227 Q536 1274 448 1274 Q325 1274 215 1178 L127 1272 Q182 1329 268 1361 Q354 1393 451 1393 Q572 1393 666 1340 Q764 1284 809 1192 Q920 966 920 642 Q920 396 873 252 Q783 -27 504 -27 Q404 -27 323 12 Q217 62 158 173 Q104 275 104 432 Q104 547 134.5 637.5 Q165 728 220 777 Q316 862 464 862 Q555 862 624 829 Q697 795 772 702 Z M770 547 Q725 627 684 666 Q607 741 495 741 Q423 741 369 709 Q250 641 250 426 Q250 297 297 204 Q323 153 379 122.5 Q435 92 504 92 Q653 92 719 223 Q770 324 770 477 L770 547 Z " />
<glyph glyph-name="summation" unicode="&#x2211;" horiz-adv-x="1026" d="M942 0 L53 0 L53 137 L408 715 L53 1231 L53 1366 L936 1366 L936 1239 L207 1239 L567 713 L205 129 L942 129 L942 0 Z " />
<glyph glyph-name="product" unicode="&#x220f;" horiz-adv-x="1290" d="M1202 1237 L1071 1237 L1071 0 L926 0 L926 1237 L389 1237 L389 0 L246 0 L246 1237 L88 1237 L88 1366 L1202 1366 L1202 1237 Z " />
<glyph glyph-name="pi" unicode="&#x3c0;" horiz-adv-x="1083" d="M1014 928 L864 928 L864 0 L725 0 L725 928 L365 928 L365 0 L223 0 L223 928 L72 928 L72 1057 L1014 1057 L1014 928 Z " />
<glyph glyph-name="integral" unicode="&#x222b;" horiz-adv-x="1024" d="M823 1370 L791 1245 Q742 1266 699 1266 Q618 1266 595 1188 Q584 1150 584 1042 L584 -12 Q584 -184 542 -261 Q486 -365 327 -365 Q296 -365 268 -360 Q240 -356 201 -344 L231 -219 Q281 -240 325 -240 Q407 -240 428 -164 Q438 -128 438 -23 L438 1053 Q438 1216 480 1292 Q536 1393 686 1393 Q746 1393 823 1370 Z " />
<glyph glyph-name="ordfeminine" unicode="&#xaa;" horiz-adv-x="864" d="M682 834 L571 834 L569 895 Q496 821 383 821 Q334 821 293 836 Q243 855 212.5 901.5 Q182 948 182 1006 Q182 1155 357 1210 Q430 1233 565 1251 L565 1294 Q565 1405 446 1405 Q396 1405 350 1379 Q304 1353 283 1313 L193 1370 Q220 1416 247 1439 Q318 1499 449 1499 Q534 1499 599 1466 Q682 1424 682 1300 L682 834 Z M565 1004 L565 1167 Q460 1153 415 1138 Q301 1099 301 1010 Q301 979 315 955 Q337 915 397 915 Q482 915 565 1004 Z M682 598 L184 598 L184 709 L682 709 L682 598 Z " />
<glyph glyph-name="ordmasculine" unicode="&#xba;" horiz-adv-x="862" d="M438 1499 Q523 1499 586 1464 Q713 1393 713 1161 Q713 1120 709 1082 Q680 817 427 817 Q356 817 299 844 Q150 913 150 1156 Q150 1287 198 1379 Q261 1499 438 1499 Z M434 1405 Q389 1405 357 1386 Q272 1337 272 1157 Q272 911 432 911 Q592 911 592 1155 Q592 1405 434 1405 Z M713 598 L156 598 L156 707 L713 707 L713 598 Z " />
<glyph glyph-name="Omega" unicode="&#x2126;" horiz-adv-x="1405" d="M1358 0 L805 0 L805 119 Q963 210 1041 297 Q1204 478 1204 738 Q1204 859 1166 960 Q1111 1106 993 1190 Q878 1272 714 1272 Q596 1272 501 1230 Q356 1167 273 1023 Q201 898 201 733 Q201 440 409 250 Q474 191 600 119 L600 0 L47 0 L47 131 L424 131 Q285 211 215 291 Q59 470 59 736 Q59 1015 250 1204 Q441 1393 717 1393 Q993 1393 1171 1205 Q1346 1021 1346 743 Q1346 539 1255 381 Q1209 303 1149.5 248.5 Q1090 194 981 131 L1358 131 L1358 0 Z " />
<glyph glyph-name="ae" unicode="&#xe6;" horiz-adv-x="1602" d="M1497 240 Q1472 177 1433 130 Q1307 -27 1097 -27 Q973 -27 875 28 Q809 66 756 158 Q694 86 640 50 Q528 -25 392 -25 Q320 -25 260 -1 Q184 29 139 103 Q94 177 94 270 Q94 371 140 445 Q196 534 316.5 584.5 Q437 635 684 672 Q687 708 691 743 Q693 765 693 778 Q693 810 683 837 Q662 891 609 922.5 Q556 954 484 954 Q313 954 233 807 L109 885 Q158 958 206 995 Q318 1083 489 1083 Q607 1083 697 1036 Q750 1008 793 938 Q832 990 869 1016 Q961 1083 1099 1083 Q1308 1083 1407 928 Q1489 800 1489 600 L1489 506 L836 506 Q838 322 882 232 Q944 104 1096 104 Q1192 104 1252.5 151.5 Q1313 199 1356 307 L1497 240 Z M1327 635 Q1316 952 1092 952 Q977 952 915 875.5 Q853 799 836 635 L1327 635 Z M700 270 Q676 365 676 495 L677 539 Q677 544 678 557 Q514 531 433 501 Q254 433 254 279 Q254 238 268 201 Q307 100 418 100 Q548 100 700 270 Z " />
<glyph glyph-name="oslash" unicode="&#xf8;" horiz-adv-x="1071" d="M1053 1083 L893 885 Q963 739 963 526 Q963 312 884 156 Q843 74 758 27 Q661 -27 533 -27 Q449 -27 373 0 Q319 20 262 70 L131 -106 L18 -23 Q89 62 180 178 Q111 323 111 527 Q111 772 203 914 Q313 1083 545 1083 Q702 1083 809 993 L938 1165 L1053 1083 Z M719 874 Q654 952 542 952 Q426 952 360 877 Q321 831 296.5 733.5 Q272 636 272 523 Q272 410 293 322 Q536 633 719 874 Z M780 741 Q558 457 352 186 Q421 104 534 104 Q697 104 758 248 Q799 346 799 522 Q799 649 780 741 Z " />
<glyph glyph-name="questiondown" unicode="&#xbf;" horiz-adv-x="813" d="M352 1049 L492 1049 L492 975 Q492 842 418 721 Q411 710 298 537 Q209 399 209 307 Q209 248 234 202 Q274 129 383 129 Q456 129 503 162.5 Q550 196 584 272 L719 205 Q682 114 586.5 57 Q491 0 376 0 Q57 0 57 305 Q57 322 58 336 Q67 447 151 566 Q269 735 276 745 Q352 859 352 981 L352 1049 Z M330 1393 L508 1393 L508 1155 L330 1155 L330 1393 Z " />
<glyph glyph-name="exclamdown" unicode="&#xa1;" horiz-adv-x="600" d="M354 1128 L176 1128 L176 1366 L354 1366 L354 1128 Z M358 0 L176 0 L209 1020 L322 1020 L358 0 Z " />
<glyph glyph-name="logicalnot" unicode="&#xac;" horiz-adv-x="1024" d="M954 0 L815 0 L815 481 L70 481 L70 612 L954 612 L954 0 Z " />
<glyph glyph-name="radical" unicode="&#x221a;" horiz-adv-x="1278" d="M1298 1442 L893 1442 L494 0 L322 0 L147 616 L-20 616 L-20 748 L264 748 Q340 494 401 195 L414 195 Q515 655 774 1571 L1298 1571 L1298 1442 Z " />
<glyph glyph-name="florin" unicode="&#x192;" horiz-adv-x="1085" d="M920 1450 L889 1325 Q851 1333 816 1333 Q733 1333 696 1291 Q659 1249 643 1137 L616 944 L836 944 L836 809 L598 809 L446 -264 L289 -264 L440 809 L268 809 L268 944 L459 944 Q463 979 465 996 Q487 1172 488 1184 Q493 1234 516.5 1288.5 Q540 1343 573 1379 Q647 1460 802 1460 Q856 1460 920 1450 Z " />
<glyph glyph-name="approxequal" unicode="&#x2248;" horiz-adv-x="1024" d="M961 764 Q851 555 698 555 Q630 555 503 618 Q377 680 313 680 Q274 680 242 661 Q190 629 141 547 L63 594 Q110 683 148 726 Q220 807 317 807 Q387 807 515 744 Q643 682 709 682 Q802 682 881 811 L961 764 Z M961 483 Q850 276 697 276 Q671 276 644 283 Q585 298 503 338 Q377 401 313 401 Q220 401 141 266 L63 315 Q182 528 321 528 Q388 528 515 464 Q642 401 709 401 Q802 401 881 530 L961 483 Z " />
<glyph glyph-name="increment" unicode="&#x2206;" horiz-adv-x="1249" d="M1249 0 L0 0 L549 1366 L698 1366 L1249 0 Z M1044 131 L623 1196 L203 131 L1044 131 Z " />
<glyph glyph-name="guillemotleft" unicode="&#xab;" horiz-adv-x="1051" d="M909 991 L719 526 L907 63 L791 43 L539 526 L788 1010 L909 991 Z M512 991 L322 526 L510 63 L391 43 L141 526 L391 1010 L512 991 Z " />
<glyph glyph-name="guillemotright" unicode="&#xbb;" horiz-adv-x="1051" d="M909 526 L659 43 L543 63 L731 526 L539 991 L662 1010 L909 526 Z M512 526 L260 43 L143 63 L332 526 L141 991 L262 1010 L512 526 Z " />
<glyph glyph-name="ellipsis" unicode="&#x2026;" horiz-adv-x="1290" d="M1165 0 L985 0 L985 238 L1165 238 L1165 0 Z M733 0 L553 0 L553 238 L733 238 L733 0 Z M305 0 L127 0 L127 238 L305 238 L305 0 Z " />
<glyph glyph-name="Agrave" unicode="&#xc0;" horiz-adv-x="1071" d="M1055 0 L877 0 L766 391 L299 391 L190 0 L18 0 L428 1366 L645 1366 L1055 0 Z M731 530 L586 1040 L532 1231 L479 1040 L334 530 L731 530 Z M622 1489 L471 1489 L250 1741 L450 1741 L622 1489 Z " />
<glyph glyph-name="Atilde" unicode="&#xc3;" horiz-adv-x="1071" d="M1055 0 L877 0 L766 391 L299 391 L190 0 L18 0 L428 1366 L645 1366 L1055 0 Z M731 530 L586 1040 L532 1231 L479 1040 L334 530 L731 530 Z M858 1608 Q767 1485 664 1485 Q646 1485 628 1489 Q591 1497 540 1519 Q459 1554 420 1554 Q374 1554 320 1483 L224 1561 Q320 1694 431 1694 Q449 1694 466 1690 Q500 1682 568 1650 Q627 1622 662 1622 Q680 1622 695 1629 Q728 1646 770 1694 L858 1608 Z " />
<glyph glyph-name="Otilde" unicode="&#xd5;" horiz-adv-x="1298" d="M651 1395 Q784 1395 882 1345 Q1029 1269 1109 1100 Q1186 937 1186 685 Q1186 408 1089 232 Q945 -29 650 -29 Q400 -29 257 162 Q113 355 113 683 Q113 1017 256 1204 Q402 1395 651 1395 Z M647 1260 Q561 1260 497 1223 Q295 1105 295 685 Q295 528 329 393 Q363 260 449 181 Q529 107 650 107 Q734 107 798 143 Q1004 258 1004 681 L1003 746 Q1003 839 977 941 Q951 1043 910 1108 Q816 1260 647 1260 Z M958 1608 Q867 1485 764 1485 Q746 1485 728 1489 Q690 1498 639 1519 Q559 1554 520 1554 Q472 1554 420 1483 L324 1561 Q420 1694 531 1694 Q549 1694 565 1690 Q599 1682 668 1650 Q727 1622 762 1622 Q780 1622 794 1629 Q828 1646 870 1694 L958 1608 Z " />
<glyph glyph-name="OE" unicode="&#x152;" horiz-adv-x="1810" d="M1749 0 L932 0 L932 96 Q800 -27 620 -27 Q351 -27 219 205 Q113 391 113 680 Q113 971 224 1160 Q361 1393 629 1393 Q729 1393 815 1357 Q873 1332 932 1272 L932 1366 L1704 1366 L1704 1227 L1094 1227 L1094 772 L1585 772 L1585 633 L1094 633 L1094 139 L1749 139 L1749 0 Z M928 246 L928 1118 Q812 1260 652 1260 Q449 1260 359 1057 Q295 913 295 667 Q295 423 378 253 Q412 184 481.5 144 Q551 104 636 104 Q719 104 787 137 Q855 170 928 246 Z " />
<glyph glyph-name="oe" unicode="&#x153;" horiz-adv-x="1725" d="M882 151 Q839 86 798 54 Q696 -27 530 -27 Q406 -27 312 24 Q228 69 186 152 Q109 306 109 518 Q109 767 199 910 Q308 1083 546 1083 Q667 1083 766 1029 Q834 992 889 903 Q935 970 980 1004 Q1082 1083 1229 1083 Q1431 1083 1531 933 Q1617 804 1617 596 L1617 506 L964 506 Q968 395 980 336 Q992 277 1024 217 Q1084 104 1224 104 Q1315 104 1376 151.5 Q1437 199 1484 307 L1625 240 Q1577 138 1525 86 Q1411 -27 1223 -27 Q1106 -27 1011 23 Q940 61 882 151 Z M1455 635 Q1452 765 1410 840 Q1348 952 1223 952 Q1157 952 1105 924 Q1042 890 1009.5 823.5 Q977 757 964 635 L1455 635 Z M537 952 Q468 952 416 923 Q360 890 334 838 Q272 711 272 521 Q272 339 311 246 Q370 104 533 104 Q617 104 674 142 Q740 185 770.5 277 Q801 369 801 522 Q801 690 773 778 Q719 952 537 952 Z " />
<glyph glyph-name="endash" unicode="&#x2013;" horiz-adv-x="750" d="M750 471 L0 471 L0 623 L750 623 L750 471 Z " />
<glyph glyph-name="emdash" unicode="&#x2014;" horiz-adv-x="1331" d="M1331 471 L0 471 L0 623 L1331 623 L1331 471 Z " />
<glyph glyph-name="quotedblleft" unicode="&#x201c;" horiz-adv-x="770" d="M653 1417 L580 1143 L643 1143 L643 905 L465 905 L465 1139 L590 1417 L653 1417 Z M319 1417 L246 1143 L311 1143 L311 905 L131 905 L131 1139 L258 1417 L319 1417 Z " />
<glyph glyph-name="quotedblright" unicode="&#x201d;" horiz-adv-x="770" d="M637 1184 L512 905 L451 905 L522 1178 L459 1178 L459 1417 L637 1417 L637 1184 Z M305 1184 L180 905 L117 905 L190 1178 L127 1178 L127 1417 L305 1417 L305 1184 Z " />
<glyph glyph-name="quoteleft" unicode="&#x2018;" horiz-adv-x="430" d="M311 1417 L240 1143 L303 1143 L303 905 L125 905 L125 1139 L250 1417 L311 1417 Z " />
<glyph glyph-name="quoteright" unicode="&#x2019;" horiz-adv-x="430" d="M307 1184 L180 905 L119 905 L193 1178 L127 1178 L127 1417 L307 1417 L307 1184 Z " />
<glyph glyph-name="divide" unicode="&#xf7;" horiz-adv-x="1022" d="M596 754 L428 754 L428 965 L596 965 L596 754 Z M954 459 L68 459 L68 590 L954 590 L954 459 Z M596 84 L428 84 L428 293 L596 293 L596 84 Z " />
<glyph glyph-name="lozenge" unicode="&#x25ca;" horiz-adv-x="1092" d="M1075 682 L549 -53 L16 682 L549 1419 L1075 682 Z M915 682 Q781 868 549 1202 Q446 1049 176 682 Q311 500 549 164 L579 207 Q684 360 915 682 Z " />
<glyph glyph-name="ydieresis" unicode="&#xff;" horiz-adv-x="872" d="M854 1057 L496 -90 Q448 -245 384 -303 Q310 -371 152 -371 Q110 -371 75 -366 Q53 -363 29 -356 L45 -229 Q97 -242 143 -242 Q261 -242 308 -146 Q326 -112 365 20 L12 1057 L186 1057 L362 500 Q370 476 387 424 Q432 289 444 193 Q465 287 528 506 L688 1057 L854 1057 Z M693 1204 L525 1204 L525 1413 L693 1413 L693 1204 Z M353 1204 L185 1204 L185 1413 L353 1413 L353 1204 Z " />
<glyph glyph-name="Ydieresis" unicode="&#x178;" horiz-adv-x="1012" d="M1022 1366 L584 588 L584 0 L420 0 L420 588 L-10 1366 L172 1366 L371 999 Q444 864 469 809 Q494 754 512 688 Q540 795 651 999 L850 1366 L1022 1366 Z M768 1481 L600 1481 L600 1690 L768 1690 L768 1481 Z M426 1481 L258 1481 L258 1690 L426 1690 L426 1481 Z " />
<glyph glyph-name="fraction" unicode="&#x2044;" horiz-adv-x="184" d="M510 1393 L-199 -27 L-326 -27 L383 1393 L510 1393 Z " />
<glyph glyph-name="Euro" unicode="&#x20ac;" horiz-adv-x="1085" d="M1075 1188 L932 1114 Q897 1171 865 1199 Q794 1260 687 1260 Q555 1260 478 1173 Q401 1086 365 897 L799 897 L799 768 L350 768 Q348 706 348 635 L348 614 L799 614 L799 485 L358 485 Q373 387 391 334 Q409 281 444 229 Q526 106 690 106 Q771 106 827.5 135.5 Q884 165 930 231 L1061 137 Q1012 76 968 46 Q858 -29 692 -29 Q415 -29 286 162 Q241 228 218 295.5 Q195 363 176 485 L14 485 L14 614 L168 614 L168 678 Q168 735 170 768 L14 768 L14 897 L186 897 Q222 1084 303 1199 Q442 1395 690 1395 Q821 1395 912 1346 Q1003 1297 1075 1188 Z " />
<glyph glyph-name="guilsinglleft" unicode="&#x2039;" horiz-adv-x="653" d="M512 991 L322 526 L510 63 L393 43 L141 526 L391 1010 L512 991 Z " />
<glyph glyph-name="guilsinglright" unicode="&#x203a;" horiz-adv-x="653" d="M512 526 L260 43 L143 63 L332 526 L141 991 L262 1010 L512 526 Z " />
<glyph glyph-name="fi" unicode="&#xfb01;" horiz-adv-x="1067" d="M598 1473 L584 1346 Q526 1360 474 1360 Q430 1360 397 1344 Q346 1319 346 1198 L346 1057 L561 1057 L561 920 L346 920 L346 0 L188 0 L188 920 L18 920 L18 1057 L188 1057 L188 1208 Q188 1359 264 1427 Q333 1487 449 1487 Q498 1487 598 1473 Z M897 1202 L717 1202 L717 1415 L897 1415 L897 1202 Z M887 0 L729 0 L729 1057 L887 1057 L887 0 Z " />
<glyph glyph-name="fl" unicode="&#xfb02;" horiz-adv-x="1055" d="M598 1473 L584 1346 Q526 1360 474 1360 Q430 1360 397 1344 Q346 1319 346 1198 L346 1057 L561 1057 L561 920 L346 920 L346 0 L188 0 L188 920 L18 920 L18 1057 L188 1057 L188 1208 Q188 1359 264 1427 Q333 1487 449 1487 Q498 1487 598 1473 Z M887 0 L729 0 L729 1415 L887 1415 L887 0 Z " />
<glyph glyph-name="daggerdbl" unicode="&#x2021;" horiz-adv-x="1071" d="M987 135 L612 135 L612 -365 L457 -365 L457 135 L84 135 L84 289 L457 289 L457 778 L84 778 L84 932 L457 932 L457 1366 L614 1366 L614 932 L987 932 L987 778 L614 778 L614 289 L987 289 L987 135 Z " />
<glyph glyph-name="middot" unicode="&#xb7;" horiz-adv-x="432" d="M305 453 L127 453 L127 692 L305 692 L305 453 Z " />
<glyph glyph-name="quotesinglbase" unicode="&#x201a;" horiz-adv-x="430" d="M307 4 L180 -274 L119 -274 L193 0 L127 0 L127 238 L307 238 L307 4 Z " />
<glyph glyph-name="quotedblbase" unicode="&#x201e;" horiz-adv-x="770" d="M637 4 L512 -274 L451 -274 L522 0 L459 0 L459 238 L637 238 L637 4 Z M305 4 L180 -274 L117 -274 L190 0 L127 0 L127 238 L305 238 L305 4 Z " />
<glyph glyph-name="perthousand" unicode="&#x2030;" horiz-adv-x="2398" d="M1979 827 Q2055 827 2110 795 Q2255 711 2255 414 Q2255 -25 1968 -25 Q1849 -25 1781 52 Q1744 95 1719 192 Q1694 289 1694 394 Q1694 576 1756 705 Q1784 761 1843.5 794 Q1903 827 1979 827 Z M1976 723 Q1943 723 1920 709 Q1885 688 1872 659 Q1825 553 1825 395 Q1825 296 1844.5 216.5 Q1864 137 1894 109 Q1929 78 1974 78 Q2027 78 2062 119 Q2090 151 2107 227.5 Q2124 304 2124 396 Q2124 723 1976 723 Z M1299 827 Q1375 827 1430 795 Q1575 711 1575 413 Q1575 -25 1290 -25 Q1170 -25 1101 52 Q1064 95 1039 193 Q1014 291 1014 394 Q1014 576 1076 705 Q1104 761 1163.5 794 Q1223 827 1299 827 Z M1296 723 Q1263 723 1239 709 Q1205 688 1192 659 Q1145 553 1145 394 Q1145 295 1164.5 216 Q1184 137 1214 109 Q1249 78 1294 78 Q1347 78 1382 119 Q1410 151 1427 227 Q1444 303 1444 395 Q1444 723 1296 723 Z M1276 1393 L567 -27 L442 -27 L1151 1393 L1276 1393 Z M428 1395 Q505 1395 560 1363 Q705 1280 705 983 Q705 545 420 545 Q299 545 230 623 Q193 665 168 761.5 Q143 858 143 961 Q143 1144 206 1272 Q233 1329 293 1362 Q353 1395 428 1395 Z M426 1294 Q393 1294 369 1279 Q274 1221 274 967 Q274 867 293.5 786.5 Q313 706 344 678 Q378 647 424 647 Q477 647 511 688 Q539 720 556 797 Q573 874 573 966 Q573 1294 426 1294 Z " />
<glyph glyph-name="Acircumflex" unicode="&#xc2;" horiz-adv-x="1071" d="M1055 0 L877 0 L766 391 L299 391 L190 0 L18 0 L428 1366 L645 1366 L1055 0 Z M731 530 L586 1040 L532 1231 L479 1040 L334 530 L731 530 Z M834 1482 L695 1482 L535 1656 L381 1482 L244 1482 L424 1751 L652 1751 L834 1482 Z " />
<glyph glyph-name="Ecircumflex" unicode="&#xca;" horiz-adv-x="1067" d="M1006 0 L170 0 L170 1366 L958 1366 L958 1227 L336 1227 L336 772 L840 772 L840 633 L336 633 L336 139 L1006 139 L1006 0 Z M864 1482 L725 1482 L565 1656 L411 1482 L274 1482 L454 1751 L682 1751 L864 1482 Z " />
<glyph glyph-name="Aacute" unicode="&#xc1;" horiz-adv-x="1071" d="M1055 0 L877 0 L766 391 L299 391 L190 0 L18 0 L428 1366 L645 1366 L1055 0 Z M731 530 L586 1040 L532 1231 L479 1040 L334 530 L731 530 Z M798 1741 L577 1489 L426 1489 L598 1741 L798 1741 Z " />
<glyph glyph-name="Edieresis" unicode="&#xcb;" horiz-adv-x="1067" d="M1006 0 L170 0 L170 1366 L958 1366 L958 1227 L336 1227 L336 772 L840 772 L840 633 L336 633 L336 139 L1006 139 L1006 0 Z M813 1481 L645 1481 L645 1690 L813 1690 L813 1481 Z M471 1481 L303 1481 L303 1690 L471 1690 L471 1481 Z " />
<glyph glyph-name="Egrave" unicode="&#xc8;" horiz-adv-x="1067" d="M1006 0 L170 0 L170 1366 L958 1366 L958 1227 L336 1227 L336 772 L840 772 L840 633 L336 633 L336 139 L1006 139 L1006 0 Z M683 1489 L532 1489 L311 1741 L511 1741 L683 1489 Z " />
<glyph glyph-name="Iacute" unicode="&#xcd;" horiz-adv-x="506" d="M336 0 L170 0 L170 1366 L336 1366 L336 0 Z M513 1741 L292 1489 L141 1489 L313 1741 L513 1741 Z " />
<glyph glyph-name="Icircumflex" unicode="&#xce;" horiz-adv-x="506" d="M467 1482 L348 1482 L248 1675 L154 1482 L37 1482 L158 1767 L342 1767 L467 1482 Z M336 0 L170 0 L170 1366 L336 1366 L336 0 Z " />
<glyph glyph-name="Idieresis" unicode="&#xcf;" horiz-adv-x="506" d="M465 1483 L303 1483 L303 1692 L465 1692 L465 1483 Z M207 1483 L47 1483 L47 1692 L207 1692 L207 1483 Z M336 0 L170 0 L170 1366 L336 1366 L336 0 Z " />
<glyph glyph-name="Igrave" unicode="&#xcc;" horiz-adv-x="506" d="M336 0 L170 0 L170 1366 L336 1366 L336 0 Z M345 1489 L194 1489 L-27 1741 L173 1741 L345 1489 Z " />
<glyph glyph-name="Oacute" unicode="&#xd3;" horiz-adv-x="1298" d="M651 1395 Q784 1395 882 1345 Q1029 1269 1109 1100 Q1186 937 1186 685 Q1186 408 1089 232 Q945 -29 650 -29 Q400 -29 257 162 Q113 355 113 683 Q113 1017 256 1204 Q402 1395 651 1395 Z M647 1260 Q561 1260 497 1223 Q295 1105 295 685 Q295 528 329 393 Q363 260 449 181 Q529 107 650 107 Q734 107 798 143 Q1004 258 1004 681 L1003 746 Q1003 839 977 941 Q951 1043 910 1108 Q816 1260 647 1260 Z M909 1741 L688 1489 L537 1489 L709 1741 L909 1741 Z " />
<glyph glyph-name="Ocircumflex" unicode="&#xd4;" horiz-adv-x="1298" d="M651 1395 Q784 1395 882 1345 Q1029 1269 1109 1100 Q1186 937 1186 685 Q1186 408 1089 232 Q945 -29 650 -29 Q400 -29 257 162 Q113 355 113 683 Q113 1017 256 1204 Q402 1395 651 1395 Z M647 1260 Q561 1260 497 1223 Q295 1105 295 685 Q295 528 329 393 Q363 260 449 181 Q529 107 650 107 Q734 107 798 143 Q1004 258 1004 681 L1003 746 Q1003 839 977 941 Q951 1043 910 1108 Q816 1260 647 1260 Z M954 1482 L815 1482 L655 1656 L501 1482 L364 1482 L544 1751 L772 1751 L954 1482 Z " />
<glyph glyph-name="Ograve" unicode="&#xd2;" horiz-adv-x="1298" d="M651 1395 Q784 1395 882 1345 Q1029 1269 1109 1100 Q1186 937 1186 685 Q1186 408 1089 232 Q945 -29 650 -29 Q400 -29 257 162 Q113 355 113 683 Q113 1017 256 1204 Q402 1395 651 1395 Z M647 1260 Q561 1260 497 1223 Q295 1105 295 685 Q295 528 329 393 Q363 260 449 181 Q529 107 650 107 Q734 107 798 143 Q1004 258 1004 681 L1003 746 Q1003 839 977 941 Q951 1043 910 1108 Q816 1260 647 1260 Z M747 1489 L596 1489 L375 1741 L575 1741 L747 1489 Z " />
<glyph glyph-name="Uacute" unicode="&#xda;" horiz-adv-x="1268" d="M170 1366 L336 1366 L336 487 Q336 302 386 218 Q451 109 634 109 Q732 109 807 146 Q872 179 902 262 Q932 345 932 492 L932 1366 L1098 1366 L1098 463 Q1098 256 1024 143 Q915 -27 628 -27 Q495 -27 385 18 Q170 107 170 463 L170 1366 Z M864 1741 L643 1489 L492 1489 L664 1741 L864 1741 Z " />
<glyph glyph-name="Ucircumflex" unicode="&#xdb;" horiz-adv-x="1268" d="M170 1366 L336 1366 L336 487 Q336 302 386 218 Q451 109 634 109 Q732 109 807 146 Q872 179 902 262 Q932 345 932 492 L932 1366 L1098 1366 L1098 463 Q1098 256 1024 143 Q915 -27 628 -27 Q495 -27 385 18 Q170 107 170 463 L170 1366 Z M929 1482 L790 1482 L630 1656 L476 1482 L339 1482 L519 1751 L747 1751 L929 1482 Z " />
<glyph glyph-name="Ugrave" unicode="&#xd9;" horiz-adv-x="1268" d="M170 1366 L336 1366 L336 487 Q336 302 386 218 Q451 109 634 109 Q732 109 807 146 Q872 179 902 262 Q932 345 932 492 L932 1366 L1098 1366 L1098 463 Q1098 256 1024 143 Q915 -27 628 -27 Q495 -27 385 18 Q170 107 170 463 L170 1366 Z M733 1489 L582 1489 L361 1741 L561 1741 L733 1489 Z " />
<glyph glyph-name="dotlessi" unicode="&#x131;" horiz-adv-x="516" d="M338 0 L180 0 L180 1057 L338 1057 L338 0 Z " />
<glyph glyph-name="circumflex" unicode="&#x2c6;" horiz-adv-x="1024" d="M791 1190 L649 1190 L508 1382 L371 1190 L233 1190 L399 1477 L623 1477 L791 1190 Z " />
<glyph glyph-name="tilde" unicode="&#x2dc;" horiz-adv-x="1024" d="M827 1360 Q738 1239 637 1239 Q617 1239 599 1243 Q563 1251 510 1274 Q431 1309 390 1309 Q371 1309 355 1300 Q325 1283 291 1237 L197 1313 Q292 1446 402 1446 Q420 1446 437 1442 Q472 1434 540 1403 Q600 1376 634 1376 Q679 1376 741 1446 L827 1360 Z " />
<glyph glyph-name="overscore" unicode="&#xaf;" horiz-adv-x="1024" d="M793 1268 L231 1268 L231 1417 L793 1417 L793 1268 Z " />
<glyph glyph-name="breve" unicode="&#x2d8;" horiz-adv-x="1024" d="M772 1450 Q767 1359 722 1304 Q651 1217 512 1217 Q395 1217 326.5 1278 Q258 1339 252 1450 L381 1450 Q397 1335 512 1335 Q570 1335 606 1366.5 Q642 1398 643 1450 L772 1450 Z " />
<glyph glyph-name="dotaccent" unicode="&#x2d9;" horiz-adv-x="1024" d="M602 1204 L422 1204 L422 1413 L602 1413 L602 1204 Z " />
<glyph glyph-name="ring" unicode="&#x2da;" horiz-adv-x="1024" d="M511 1532 Q555 1532 590 1518 Q645 1496 677 1450 Q709 1404 709 1347 Q709 1269 652 1216 Q595 1163 510 1163 Q426 1163 370.5 1215 Q315 1267 315 1346 Q315 1425 371 1478.5 Q427 1532 511 1532 Z M515 1442 Q492 1442 475 1435 Q416 1411 416 1348 Q416 1307 444 1279 Q472 1251 512 1251 Q533 1251 550 1258 Q608 1283 608 1346 Q608 1442 515 1442 Z " />
<glyph glyph-name="cedilla" unicode="&#xb8;" horiz-adv-x="1024" d="M319 -381 L336 -293 Q436 -313 477 -313 Q522 -313 553 -298 Q580 -284 580 -251 Q580 -190 464 -190 L455 -190 Q450 -190 420 -193 L508 18 L604 18 L549 -113 Q631 -115 668 -146 Q705 -177 705 -245 Q705 -408 488 -408 Q415 -408 319 -381 Z " />
<glyph glyph-name="hungarumlaut" unicode="&#x2dd;" horiz-adv-x="1024" d="M817 1477 L651 1192 L514 1192 L635 1477 L817 1477 Z M510 1477 L344 1192 L207 1192 L328 1477 L510 1477 Z " />
<glyph glyph-name="ogonek" unicode="&#x2db;" horiz-adv-x="1024" d="M702 -324 Q613 -360 531 -360 Q449 -360 390 -329 Q322 -293 322 -204 Q322 -66 508 27 L698 31 L698 16 Q575 -23 523 -64.5 Q471 -106 471 -165 Q471 -185 480 -201 Q500 -236 559 -236 Q610 -236 672 -205 L702 -324 Z " />
<glyph glyph-name="caron" unicode="&#x2c7;" horiz-adv-x="1024" d="M791 1477 L637 1190 L389 1190 L233 1477 L373 1477 L516 1284 L651 1477 L791 1477 Z " />
<glyph glyph-name="nbspace" unicode="&#xa0;" horiz-adv-x="492" d="" />
<glyph glyph-name="currency" unicode="&#xa4;" horiz-adv-x="1264" d="M1204 219 L1104 117 L911 309 Q768 213 632 213 Q568 213 505 232 Q435 254 354 307 L162 117 L61 219 L254 410 Q158 546 158 681 Q158 744 177 806 Q198 875 252 956 L57 1149 L160 1251 L354 1061 Q498 1155 633 1155 Q765 1155 907 1061 L1100 1251 L1202 1149 L1012 956 Q1106 811 1106 682 Q1106 558 1012 410 L1204 219 Z M635 991 Q565 991 507 965 Q423 927 374.5 852 Q326 777 326 683 Q326 619 348 565 Q384 480 461 428.5 Q538 377 630 377 Q694 377 748 399 Q834 435 886 512.5 Q938 590 938 682 Q938 784 879 863 Q785 991 635 991 Z " />
<glyph glyph-name="brokenbar" unicode="&#xa6;" horiz-adv-x="1024" d="M582 737 L442 737 L442 1366 L582 1366 L582 737 Z M582 -369 L442 -369 L442 266 L582 266 L582 -369 Z " />
<glyph glyph-name="uni00AD" unicode="&#xad;" horiz-adv-x="551" d="M551 471 L0 471 L0 623 L551 623 L551 471 Z " />
<glyph glyph-name="twosuperior" unicode="&#xb2;" horiz-adv-x="682" d="M619 590 L45 590 L45 645 Q45 762 159 877 Q184 902 325 1007 Q419 1076 451.5 1117 Q484 1158 484 1205 Q484 1240 466 1269 Q432 1325 339 1325 Q202 1325 170 1165 L47 1194 Q61 1285 117 1342 Q199 1427 347 1427 Q448 1427 523 1388 Q616 1339 616 1210 Q616 1154 595 1107 Q560 1030 488 982 Q298 855 247 802 Q199 750 188 696 Q223 698 276 698 L619 698 L619 590 Z " />
<glyph glyph-name="threesuperior" unicode="&#xb3;" horiz-adv-x="682" d="M39 725 L137 793 Q191 680 318 680 Q354 680 386 692 Q473 723 473 824 Q473 938 368 960 Q329 968 203 969 L203 1073 Q305 1073 351 1084 Q453 1109 453 1210 Q453 1246 437 1274 Q410 1323 334 1323 Q248 1323 166 1229 L158 1235 L127 1260 L90 1292 L76 1303 Q119 1352 155 1376 Q233 1427 341 1427 Q428 1427 494 1392 Q584 1343 584 1213 Q584 1144 557 1100 Q530 1056 469 1028 Q521 1008 547 984 Q608 928 608 819 Q608 806 607 795 Q599 696 523 636 Q446 575 326 575 Q231 575 155 614.5 Q79 654 39 725 Z " />
<glyph glyph-name="onesuperior" unicode="&#xb9;" horiz-adv-x="682" d="M598 588 L96 588 L96 692 L283 692 L283 1280 L154 1219 L109 1315 L313 1413 L416 1413 L416 692 L598 692 L598 588 Z " />
<glyph glyph-name="onequarter" unicode="&#xbc;" horiz-adv-x="1581" d="M1477 195 L1358 195 L1358 0 L1233 0 L1233 195 L868 195 L868 276 L1206 821 L1358 821 L1358 293 L1477 293 L1477 195 Z M1237 676 L1010 293 L1235 293 L1235 430 Q1235 579 1237 676 Z M1274 1393 L565 -27 L438 -27 L1147 1393 L1274 1393 Z M555 539 L55 539 L55 645 L240 645 L240 1233 L113 1171 L68 1268 L272 1366 L375 1366 L375 645 L555 645 L555 539 Z " />
<glyph glyph-name="onehalf" unicode="&#xbd;" horiz-adv-x="1581" d="M1516 0 L942 0 L942 55 Q942 151 995.5 219.5 Q1049 288 1222 417 Q1315 485 1348 526.5 Q1381 568 1381 615 Q1381 650 1363 679 Q1329 735 1236 735 Q1164 735 1124 697.5 Q1084 660 1067 576 L944 604 Q959 695 1014 752 Q1098 838 1243 838 Q1344 838 1420 798 Q1513 749 1513 621 Q1513 565 1492 517 Q1470 468 1434.5 433.5 Q1399 399 1309 339 Q1193 262 1145 212 Q1097 162 1085 107 Q1119 109 1174 109 L1516 109 L1516 0 Z M1214 1397 L506 -23 L381 -23 L1087 1397 L1214 1397 Z M545 539 L45 539 L45 647 L229 647 L229 1233 L102 1169 L57 1268 L262 1366 L365 1366 L365 647 L545 647 L545 539 Z " />
<glyph glyph-name="threequarters" unicode="&#xbe;" horiz-adv-x="1569" d="M1530 195 L1411 195 L1411 0 L1286 0 L1286 195 L922 195 L922 276 L1260 821 L1411 821 L1411 293 L1530 293 L1530 195 Z M1288 676 L1063 293 L1286 293 Q1286 525 1288 676 Z M1270 1393 L561 -27 L436 -27 L1143 1393 L1270 1393 Z M49 678 L147 745 Q213 633 330 633 Q365 633 394 644 Q483 677 483 777 Q483 892 379 913 Q338 922 213 922 L213 1026 Q317 1026 363 1037 Q463 1060 463 1163 Q463 1199 448 1227 Q420 1276 344 1276 Q257 1276 174 1182 Q138 1213 86 1255 Q129 1305 165 1328 Q243 1380 352 1380 Q438 1380 504 1345 Q594 1297 594 1166 Q594 1096 567 1052.5 Q540 1009 479 981 Q531 962 557 938 Q618 882 618 772 Q618 760 617 748 Q609 646 531 587 Q453 528 326 528 Q274 528 224 540 Q132 562 49 678 Z " />
<glyph glyph-name="Eth" unicode="&#xd0;" horiz-adv-x="1249" d="M170 639 L23 639 L23 776 L170 776 L170 1366 L514 1366 Q841 1366 992 1201 Q1137 1042 1137 695 Q1137 515 1102 378.5 Q1067 242 1002 165 Q862 0 506 0 L170 0 L170 639 Z M709 776 L709 639 L336 639 L336 139 L446 139 Q738 139 847 255 Q888 300 907 354 Q956 501 956 680 Q956 976 846 1105 Q742 1227 520 1227 L336 1227 L336 776 L709 776 Z " />
<glyph glyph-name="multiply" unicode="&#xd7;" horiz-adv-x="1024" d="M900 239 L802 140 L509 433 L217 140 L124 233 L416 525 L124 818 L222 916 L515 624 L807 916 L900 824 L608 531 L900 239 Z " />
<glyph glyph-name="Yacute" unicode="&#xdd;" horiz-adv-x="1012" d="M1022 1366 L584 588 L584 0 L420 0 L420 588 L-10 1366 L172 1366 L371 999 Q444 864 469 809 Q494 754 512 688 Q540 795 651 999 L850 1366 L1022 1366 Z M748 1741 L527 1489 L376 1489 L548 1741 L748 1741 Z " />
<glyph glyph-name="Thorn" unicode="&#xde;" horiz-adv-x="1071" d="M336 1105 L586 1105 Q799 1105 906 1024 Q1026 933 1026 721 Q1026 327 551 327 L336 327 L336 0 L170 0 L170 1366 L336 1366 L336 1105 Z M336 966 L336 466 L528 466 Q691 466 768 526 Q844 585 844 718 Q844 735 843 752 Q834 866 765 916 Q696 966 545 966 L336 966 Z " />
<glyph glyph-name="eth" unicode="&#xf0;" horiz-adv-x="1061" d="M702 1022 Q627 1183 516 1274 L367 1155 L307 1229 L438 1333 Q369 1372 233 1407 L270 1507 Q430 1474 537 1413 L678 1530 L741 1454 L621 1354 Q733 1256 788 1168 Q861 1051 904 864 Q942 702 942 529 Q942 460 936 395 Q926 290 889.5 203.5 Q853 117 798 67 Q695 -27 528 -27 Q298 -27 191 151 Q106 293 106 523 Q106 654 138 769 Q174 896 266 976 Q365 1063 530 1063 Q582 1063 630 1051 Q665 1042 702 1022 Z M527 938 Q458 938 407 908 Q353 876 327 826 Q266 703 266 525 Q266 356 313 251 Q381 100 531 100 Q608 100 662 136 Q727 179 756.5 269 Q786 359 786 515 Q786 938 527 938 Z " />
<glyph glyph-name="yacute" unicode="&#xfd;" horiz-adv-x="872" d="M854 1057 L496 -90 Q448 -245 384 -303 Q310 -371 152 -371 Q110 -371 75 -366 Q53 -363 29 -356 L45 -229 Q97 -242 143 -242 Q261 -242 308 -146 Q326 -112 365 20 L12 1057 L186 1057 L362 500 Q370 476 387 424 Q432 289 444 193 Q465 287 528 506 L688 1057 L854 1057 Z M637 1477 L469 1192 L321 1192 L442 1477 L637 1477 Z " />
<glyph glyph-name="thorn" unicode="&#xfe;" horiz-adv-x="1096" d="M326 102 L326 -365 L168 -365 L168 1415 L326 1415 L326 932 Q402 1009 470 1041 Q538 1073 625 1073 Q722 1073 797 1029 Q875 984 911 912 Q987 758 987 537 Q987 309 921 175 Q825 -18 619 -18 Q544 -18 485 6 Q426 30 326 102 Z M326 795 L326 231 Q444 111 571 111 Q671 111 731 180 Q769 223 793 320 Q817 417 817 528 Q817 944 578 944 Q453 944 326 795 Z " />
<glyph glyph-name="Amacron" unicode="&#x100;" horiz-adv-x="1071" d="M1055 0 L877 0 L766 391 L299 391 L190 0 L18 0 L428 1366 L645 1366 L1055 0 Z M731 530 L586 1040 L532 1231 L479 1040 L334 530 L731 530 Z M809 1505 L247 1505 L247 1657 L809 1657 L809 1505 Z " />
<glyph glyph-name="amacron" unicode="&#x101;" horiz-adv-x="1008" d="M848 0 L700 0 L700 127 Q579 -18 391 -18 Q254 -18 174 63 Q94 145 94 273 Q94 514 365 609 Q481 650 692 676 L692 752 Q692 845 638 898 Q581 954 481 954 Q399 954 341.5 920 Q284 886 233 807 L100 889 Q151 961 198 997 Q311 1083 487 1083 Q618 1083 715 1032 Q848 962 848 762 L848 0 Z M692 266 L692 561 Q535 542 447 512 Q254 444 254 285 Q254 244 268 208 Q308 109 426 109 Q580 109 692 266 Z M780 1268 L218 1268 L218 1417 L780 1417 L780 1268 Z " />
<glyph glyph-name="Abreve" unicode="&#x102;" horiz-adv-x="1071" d="M1055 0 L877 0 L766 391 L299 391 L190 0 L18 0 L428 1366 L645 1366 L1055 0 Z M731 530 L586 1040 L532 1231 L479 1040 L334 530 L731 530 Z M787 1696 Q782 1605 737 1549 Q665 1462 527 1462 Q410 1462 341.5 1523.5 Q273 1585 267 1696 L396 1696 Q412 1581 527 1581 Q585 1581 620.5 1612 Q656 1643 658 1696 L787 1696 Z " />
<glyph glyph-name="abreve" unicode="&#x103;" horiz-adv-x="1008" d="M848 0 L700 0 L700 127 Q579 -18 391 -18 Q254 -18 174 63 Q94 145 94 273 Q94 514 365 609 Q481 650 692 676 L692 752 Q692 845 638 898 Q581 954 481 954 Q399 954 341.5 920 Q284 886 233 807 L100 889 Q151 961 198 997 Q311 1083 487 1083 Q618 1083 715 1032 Q848 962 848 762 L848 0 Z M692 266 L692 561 Q535 542 447 512 Q254 444 254 285 Q254 244 268 208 Q308 109 426 109 Q580 109 692 266 Z M757 1450 Q753 1360 707 1304 Q636 1217 497 1217 Q380 1217 311.5 1278 Q243 1339 237 1450 L366 1450 Q383 1335 497 1335 Q555 1335 591 1366.5 Q627 1398 628 1450 L757 1450 Z " />
<glyph glyph-name="Aogonek" unicode="&#x104;" horiz-adv-x="1071" d="M1102 -324 Q1012 -360 929 -360 Q848 -360 789 -329 Q721 -293 721 -202 Q721 -83 872 10 L766 391 L297 391 L190 0 L18 0 L428 1366 L645 1366 L1055 0 Q1038 0 1012 -11 Q945 -37 907.5 -77 Q870 -117 870 -163 Q870 -184 879 -201 Q898 -236 959 -236 Q1010 -236 1071 -205 L1102 -324 Z M731 530 L532 1231 L334 530 L731 530 Z " />
<glyph glyph-name="aogonek" unicode="&#x105;" horiz-adv-x="1008" d="M848 0 L842 0 L848 0 L842 0 Q761 -17 713.5 -60.5 Q666 -104 666 -161 Q666 -236 754 -236 Q806 -236 866 -205 L897 -324 Q807 -360 725 -360 Q643 -360 584 -329 Q516 -293 516 -203 Q516 -66 698 26 L698 125 Q577 -18 391 -18 Q319 -18 259 6 Q184 36 139 108.5 Q94 181 94 273 Q94 513 363 608 Q477 648 689 675 L692 676 L692 756 Q692 846 636 900 Q579 954 481 954 Q400 954 342 920 Q284 886 233 807 L100 889 Q151 961 198 997 Q311 1083 487 1083 Q616 1083 714 1033 Q814 981 840 839 Q850 784 850 641 L848 383 L848 123 L848 0 Z M692 266 L692 561 Q535 542 447 512 Q254 444 254 285 Q254 244 268 208 Q308 109 426 109 Q580 109 692 266 Z " />
<glyph glyph-name="Cacute" unicode="&#x106;" horiz-adv-x="1208" d="M1112 426 Q1099 312 1064 234 Q948 -29 629 -29 Q483 -29 367 35 Q261 94 210 194 Q113 387 113 657 Q113 848 161 1018 Q211 1193 338 1296 Q459 1395 639 1395 Q948 1395 1063 1115 Q1093 1042 1106 942 L938 924 Q929 1005 907 1066 Q834 1260 634 1260 Q552 1260 487 1223 Q411 1180 379 1113 Q293 930 293 675 Q293 431 374 257 Q406 189 477 148 Q548 107 634 107 Q907 107 946 449 L1112 426 Z M862 1741 L641 1489 L490 1489 L662 1741 L862 1741 Z " />
<glyph glyph-name="cacute" unicode="&#x107;" horiz-adv-x="977" d="M920 276 Q901 203 869 150 Q760 -27 531 -27 Q416 -27 333 17 Q219 79 160 219 Q109 339 109 513 Q109 744 199 897 Q309 1083 531 1083 Q637 1083 723 1039 Q864 967 907 770 L752 731 Q729 826 691 876 Q633 952 527 952 Q424 952 362 881 Q324 838 299 736.5 Q274 635 274 523 Q274 399 301.5 300 Q329 201 375 159 Q436 104 528 104 Q621 104 677.5 156 Q734 208 766 322 L920 276 Z M725 1477 L557 1192 L409 1192 L530 1477 L725 1477 Z " />
<glyph glyph-name="Ccircumflex" unicode="&#x108;" horiz-adv-x="1208" d="M1112 426 Q1099 312 1064 234 Q948 -29 629 -29 Q483 -29 367 35 Q261 94 210 194 Q113 387 113 657 Q113 848 161 1018 Q211 1193 338 1296 Q459 1395 639 1395 Q948 1395 1063 1115 Q1093 1042 1106 942 L938 924 Q929 1005 907 1066 Q834 1260 634 1260 Q552 1260 487 1223 Q411 1180 379 1113 Q293 930 293 675 Q293 431 374 257 Q406 189 477 148 Q548 107 634 107 Q907 107 946 449 L1112 426 Z M917 1482 L775 1482 L634 1674 L497 1482 L359 1482 L525 1769 L749 1769 L917 1482 Z " />
<glyph glyph-name="ccircumflex" unicode="&#x109;" horiz-adv-x="977" d="M920 276 Q901 203 869 150 Q760 -27 531 -27 Q416 -27 333 17 Q219 79 160 219 Q109 339 109 513 Q109 744 199 897 Q309 1083 531 1083 Q637 1083 723 1039 Q864 967 907 770 L752 731 Q729 826 691 876 Q633 952 527 952 Q424 952 362 881 Q324 838 299 736.5 Q274 635 274 523 Q274 399 301.5 300 Q329 201 375 159 Q436 104 528 104 Q621 104 677.5 156 Q734 208 766 322 L920 276 Z M794 1190 L652 1190 L511 1382 L374 1190 L236 1190 L402 1477 L626 1477 L794 1190 Z " />
<glyph glyph-name="Cdotaccent" unicode="&#x10a;" horiz-adv-x="1208" d="M1112 426 Q1099 312 1064 234 Q948 -29 629 -29 Q483 -29 367 35 Q261 94 210 194 Q113 387 113 657 Q113 848 161 1018 Q211 1193 338 1296 Q459 1395 639 1395 Q948 1395 1063 1115 Q1093 1042 1106 942 L938 924 Q929 1005 907 1066 Q834 1260 634 1260 Q552 1260 487 1223 Q411 1180 379 1113 Q293 930 293 675 Q293 431 374 257 Q406 189 477 148 Q548 107 634 107 Q907 107 946 449 L1112 426 Z M725 1484 L545 1484 L545 1693 L725 1693 L725 1484 Z " />
<glyph glyph-name="cdotaccent" unicode="&#x10b;" horiz-adv-x="977" d="M920 276 Q901 203 869 150 Q760 -27 531 -27 Q416 -27 333 17 Q219 79 160 219 Q109 339 109 513 Q109 744 199 897 Q309 1083 531 1083 Q637 1083 723 1039 Q864 967 907 770 L752 731 Q729 826 691 876 Q633 952 527 952 Q424 952 362 881 Q324 838 299 736.5 Q274 635 274 523 Q274 399 301.5 300 Q329 201 375 159 Q436 104 528 104 Q621 104 677.5 156 Q734 208 766 322 L920 276 Z M605 1204 L425 1204 L425 1413 L605 1413 L605 1204 Z " />
<glyph glyph-name="Ccaron" unicode="&#x10c;" horiz-adv-x="1208" d="M1112 426 Q1099 312 1064 234 Q948 -29 629 -29 Q483 -29 367 35 Q261 94 210 194 Q113 387 113 657 Q113 848 161 1018 Q211 1193 338 1296 Q459 1395 639 1395 Q948 1395 1063 1115 Q1093 1042 1106 942 L938 924 Q929 1005 907 1066 Q834 1260 634 1260 Q552 1260 487 1223 Q411 1180 379 1113 Q293 930 293 675 Q293 431 374 257 Q406 189 477 148 Q548 107 634 107 Q907 107 946 449 L1112 426 Z M933 1753 L753 1482 L525 1482 L343 1753 L482 1753 L642 1577 L796 1753 L933 1753 Z " />
<glyph glyph-name="ccaron" unicode="&#x10d;" horiz-adv-x="977" d="M920 276 Q901 203 869 150 Q760 -27 531 -27 Q416 -27 333 17 Q219 79 160 219 Q109 339 109 513 Q109 744 199 897 Q309 1083 531 1083 Q637 1083 723 1039 Q864 967 907 770 L752 731 Q729 826 691 876 Q633 952 527 952 Q424 952 362 881 Q324 838 299 736.5 Q274 635 274 523 Q274 399 301.5 300 Q329 201 375 159 Q436 104 528 104 Q621 104 677.5 156 Q734 208 766 322 L920 276 Z M805 1477 L651 1190 L403 1190 L247 1477 L387 1477 L530 1284 L665 1477 L805 1477 Z " />
<glyph glyph-name="Dcaron" unicode="&#x10e;" horiz-adv-x="1249" d="M170 0 L170 1366 L514 1366 Q841 1366 992 1201 Q1137 1042 1137 714 Q1137 373 1039 216 Q983 125 897 79 Q751 0 506 0 L170 0 Z M336 1227 L336 139 L446 139 Q739 139 847 255 Q956 373 956 689 Q956 936 878 1061 Q775 1227 520 1227 L336 1227 Z M829 1753 L649 1482 L421 1482 L239 1753 L378 1753 L538 1577 L692 1753 L829 1753 Z " />
<glyph glyph-name="dcaron" unicode="&#x10f;" horiz-adv-x="1096" d="M928 0 L776 0 L772 123 Q693 47 624.5 14.5 Q556 -18 475 -18 Q390 -18 320 20 Q109 133 109 524 Q109 785 209 930 Q307 1073 485 1073 Q641 1073 770 952 L770 1415 L928 1415 L928 0 Z M770 256 L770 829 Q634 946 522 946 Q463 946 415 919 Q360 887 337 837 Q276 706 276 524 Q276 347 336 222 Q359 173 411 143 Q463 113 523 113 Q645 113 770 256 Z M1208 1184 L1081 905 L1020 905 L1094 1178 L1028 1178 L1028 1417 L1208 1417 L1208 1184 Z " />
<glyph glyph-name="Dcroat" unicode="&#x110;" horiz-adv-x="1249" d="M170 639 L23 639 L23 776 L170 776 L170 1366 L514 1366 Q841 1366 992 1201 Q1137 1042 1137 695 Q1137 515 1102 378.5 Q1067 242 1002 165 Q862 0 506 0 L170 0 L170 639 Z M709 776 L709 639 L336 639 L336 139 L446 139 Q738 139 847 255 Q888 300 907 354 Q956 501 956 680 Q956 976 846 1105 Q742 1227 520 1227 L336 1227 L336 776 L709 776 Z " />
<glyph glyph-name="dcroat" unicode="&#x111;" horiz-adv-x="1096" d="M1065 1184 L928 1184 L928 0 L776 0 L772 123 Q696 47 627.5 14.5 Q559 -18 475 -18 Q377 -18 302 28 Q109 147 109 524 Q109 749 180 889 Q273 1073 481 1073 Q560 1073 633 1044 Q702 1016 770 952 L770 1184 L459 1184 L459 1323 L770 1323 L770 1477 L928 1477 L928 1323 L1065 1323 L1065 1184 Z M770 256 L770 829 Q635 946 522 946 Q463 946 415 919 Q360 887 337 837 Q276 706 276 524 Q276 347 336 222 Q359 173 411 143 Q463 113 523 113 Q645 113 770 256 Z " />
<glyph glyph-name="Emacron" unicode="&#x112;" horiz-adv-x="1067" d="M1006 0 L170 0 L170 1366 L958 1366 L958 1227 L336 1227 L336 772 L840 772 L840 633 L336 633 L336 139 L1006 139 L1006 0 Z M840 1505 L278 1505 L278 1657 L840 1657 L840 1505 Z " />
<glyph glyph-name="emacron" unicode="&#x113;" horiz-adv-x="1036" d="M936 240 Q888 138 836 86 Q723 -27 528 -27 Q410 -27 316 25 Q230 73 188 156 Q109 312 109 527 Q109 675 150 803 Q192 934 304 1013 Q404 1083 542 1083 Q649 1083 725 1042 Q827 986 881 861 Q928 753 928 596 L928 506 L274 506 Q278 394 290 335.5 Q302 277 334 217 Q395 104 535 104 Q626 104 687 151.5 Q748 199 795 307 L936 240 Z M766 635 Q762 764 721 840 Q660 952 533 952 Q418 952 355 875.5 Q292 799 274 635 L766 635 Z M804 1268 L242 1268 L242 1417 L804 1417 L804 1268 Z " />
<glyph glyph-name="Ebreve" unicode="&#x114;" horiz-adv-x="1067" d="M1006 0 L170 0 L170 1366 L958 1366 L958 1227 L336 1227 L336 772 L840 772 L840 633 L336 633 L336 139 L1006 139 L1006 0 Z M827 1696 Q823 1605 777 1549 Q706 1462 567 1462 Q450 1462 382 1523.5 Q314 1585 307 1696 L436 1696 Q452 1581 567 1581 Q626 1581 661 1612 Q696 1643 698 1696 L827 1696 Z " />
<glyph glyph-name="ebreve" unicode="&#x115;" horiz-adv-x="1036" d="M936 240 Q888 138 836 86 Q723 -27 528 -27 Q410 -27 316 25 Q230 73 188 156 Q109 312 109 527 Q109 675 150 803 Q192 934 304 1013 Q404 1083 542 1083 Q649 1083 725 1042 Q827 986 881 861 Q928 753 928 596 L928 506 L274 506 Q278 394 290 335.5 Q302 277 334 217 Q395 104 535 104 Q626 104 687 151.5 Q748 199 795 307 L936 240 Z M766 635 Q762 764 721 840 Q660 952 533 952 Q418 952 355 875.5 Q292 799 274 635 L766 635 Z M783 1450 Q778 1359 733 1304 Q661 1217 523 1217 Q463 1217 411 1235 Q272 1284 262 1450 L391 1450 Q407 1335 522 1335 Q580 1335 616 1366.5 Q652 1398 653 1450 L783 1450 Z " />
<glyph glyph-name="Edotaccent" unicode="&#x116;" horiz-adv-x="1067" d="M1006 0 L170 0 L170 1366 L958 1366 L958 1227 L336 1227 L336 772 L840 772 L840 633 L336 633 L336 139 L1006 139 L1006 0 Z M663 1479 L483 1479 L483 1688 L663 1688 L663 1479 Z " />
<glyph glyph-name="edotaccent" unicode="&#x117;" horiz-adv-x="1036" d="M936 240 Q888 138 836 86 Q723 -27 528 -27 Q410 -27 316 25 Q230 73 188 156 Q109 312 109 527 Q109 675 150 803 Q192 934 304 1013 Q404 1083 542 1083 Q649 1083 725 1042 Q827 986 881 861 Q928 753 928 596 L928 506 L274 506 Q278 394 290 335.5 Q302 277 334 217 Q395 104 535 104 Q626 104 687 151.5 Q748 199 795 307 L936 240 Z M766 635 Q762 764 721 840 Q660 952 533 952 Q418 952 355 875.5 Q292 799 274 635 L766 635 Z M624 1204 L444 1204 L444 1413 L624 1413 L624 1204 Z " />
<glyph glyph-name="Eogonek" unicode="&#x118;" horiz-adv-x="1067" d="M1053 -324 Q963 -360 880 -360 Q799 -360 740 -329 Q672 -293 672 -203 Q672 -90 809 0 L170 0 L170 1366 L958 1366 L958 1227 L336 1227 L336 772 L840 772 L840 633 L336 633 L336 139 L1006 139 L1006 0 L1002 0 Q985 0 946 -18 Q821 -76 821 -163 Q821 -185 830 -201 Q849 -236 909 -236 Q960 -236 1022 -205 L1053 -324 Z " />
<glyph glyph-name="eogonek" unicode="&#x119;" horiz-adv-x="1036" d="M936 240 Q855 35 668 -8 Q630 -19 573 -64 Q518 -106 518 -164 Q518 -185 527 -201 Q546 -236 606 -236 Q658 -236 719 -205 L750 -324 Q660 -360 578 -360 Q496 -360 437 -329 Q369 -293 369 -203 Q369 -106 471 -23 Q355 -4 294 40 Q109 174 109 528 Q109 656 140 771 Q178 911 281 998 Q383 1083 537 1083 Q740 1083 842 933 Q928 806 928 596 L928 506 L274 506 Q278 394 290.5 335.5 Q303 277 334 217 Q395 104 535 104 Q628 104 689 151.5 Q750 199 795 307 L936 240 Z M766 635 Q763 743 730 816 Q668 952 530 952 Q469 952 422 927 Q296 860 274 635 L766 635 Z " />
<glyph glyph-name="Ecaron" unicode="&#x11a;" horiz-adv-x="1067" d="M1006 0 L170 0 L170 1366 L958 1366 L958 1227 L336 1227 L336 772 L840 772 L840 633 L336 633 L336 139 L1006 139 L1006 0 Z M878 1753 L698 1482 L470 1482 L288 1753 L427 1753 L587 1577 L741 1753 L878 1753 Z " />
<glyph glyph-name="ecaron" unicode="&#x11b;" horiz-adv-x="1036" d="M936 240 Q888 138 836 86 Q723 -27 528 -27 Q410 -27 316 25 Q230 73 188 156 Q109 312 109 527 Q109 675 150 803 Q192 934 304 1013 Q404 1083 542 1083 Q649 1083 725 1042 Q827 986 881 861 Q928 753 928 596 L928 506 L274 506 Q278 394 290 335.5 Q302 277 334 217 Q395 104 535 104 Q626 104 687 151.5 Q748 199 795 307 L936 240 Z M766 635 Q762 764 721 840 Q660 952 533 952 Q418 952 355 875.5 Q292 799 274 635 L766 635 Z M807 1477 L653 1190 L405 1190 L249 1477 L389 1477 L533 1284 L667 1477 L807 1477 Z " />
<glyph glyph-name="Gcircumflex" unicode="&#x11c;" horiz-adv-x="1270" d="M1126 961 L954 940 Q930 1078 878 1152 Q800 1262 644 1262 Q557 1262 489 1224 Q411 1180 378 1109 Q293 924 293 670 Q293 433 373 263 Q404 196 475 155.5 Q546 115 631 115 Q724 115 799 157 Q874 199 954 297 L954 524 L651 524 L651 664 L1116 664 L1116 0 L983 0 L969 143 L957 132 Q895 76 881 63 Q838 22 763 -3.5 Q688 -29 610 -29 Q368 -29 239 154 Q113 333 113 659 Q113 1003 249 1197 Q388 1395 649 1395 Q847 1395 968.5 1284.5 Q1090 1174 1126 961 Z M913 1482 L771 1482 L630 1674 L493 1482 L355 1482 L521 1769 L745 1769 L913 1482 Z " />
<glyph glyph-name="gcircumflex" unicode="&#x11d;" horiz-adv-x="1040" d="M989 981 L987 981 Q986 981 983 981 Q978 981 971 982 Q968 982 965 982 Q954 983 942 983 Q907 983 874 970 Q848 960 821 938 Q901 831 901 701 Q901 537 794 434 Q688 332 523 332 Q483 332 445 339 Q402 346 346 367 Q274 338 274 296 Q274 252 340 232 Q359 226 498 197 L684 158 Q827 128 894 82 Q989 17 989 -108 Q989 -188 952 -246 Q853 -399 526 -399 Q427 -399 341 -383 Q209 -359 139.5 -297 Q70 -235 70 -142 Q70 -72 106 -19 Q154 50 266 102 Q131 145 131 256 Q131 288 143 313 Q172 373 276 401 Q224 434 198 467 Q129 555 129 707 Q129 794 160 868 Q200 966 296 1024.5 Q392 1083 512 1083 Q644 1083 756 1006 Q807 1072 848.5 1091 Q890 1110 989 1114 L989 981 Z M513 961 Q456 961 414 940 Q293 881 293 709 Q293 650 310 598 Q332 531 385.5 494 Q439 457 514 457 Q568 457 613 477 Q731 530 731 704 Q731 822 672 891.5 Q613 961 513 961 Z M377 66 Q213 -16 213 -121 Q213 -151 227 -176 Q248 -210 277 -224 Q378 -268 524 -268 Q669 -268 744 -231 Q819 -194 819 -123 Q819 -111 817 -102 Q797 -14 592 25 L377 66 Z M809 1190 L667 1190 L525 1382 L389 1190 L250 1190 L417 1477 L640 1477 L809 1190 Z " />
<glyph glyph-name="Gbreve" unicode="&#x11e;" horiz-adv-x="1270" d="M1126 961 L954 940 Q930 1078 878 1152 Q800 1262 644 1262 Q557 1262 489 1224 Q411 1180 378 1109 Q293 924 293 670 Q293 433 373 263 Q404 196 475 155.5 Q546 115 631 115 Q724 115 799 157 Q874 199 954 297 L954 524 L651 524 L651 664 L1116 664 L1116 0 L983 0 L969 143 L957 132 Q895 76 881 63 Q838 22 763 -3.5 Q688 -29 610 -29 Q368 -29 239 154 Q113 333 113 659 Q113 1003 249 1197 Q388 1395 649 1395 Q847 1395 968.5 1284.5 Q1090 1174 1126 961 Z M905 1696 Q900 1605 855 1549 Q784 1462 645 1462 Q528 1462 460 1523.5 Q392 1585 385 1696 L514 1696 Q530 1581 645 1581 Q703 1581 739 1613 Q775 1645 776 1696 L905 1696 Z " />
<glyph glyph-name="gbreve" unicode="&#x11f;" horiz-adv-x="1040" d="M989 981 L987 981 Q986 981 983 981 Q978 981 971 982 Q968 982 965 982 Q954 983 942 983 Q907 983 874 970 Q848 960 821 938 Q901 831 901 701 Q901 537 794 434 Q688 332 523 332 Q483 332 445 339 Q402 346 346 367 Q274 338 274 296 Q274 252 340 232 Q359 226 498 197 L684 158 Q827 128 894 82 Q989 17 989 -108 Q989 -188 952 -246 Q853 -399 526 -399 Q427 -399 341 -383 Q209 -359 139.5 -297 Q70 -235 70 -142 Q70 -72 106 -19 Q154 50 266 102 Q131 145 131 256 Q131 288 143 313 Q172 373 276 401 Q224 434 198 467 Q129 555 129 707 Q129 794 160 868 Q200 966 296 1024.5 Q392 1083 512 1083 Q644 1083 756 1006 Q807 1072 848.5 1091 Q890 1110 989 1114 L989 981 Z M513 961 Q456 961 414 940 Q293 881 293 709 Q293 650 310 598 Q332 531 385.5 494 Q439 457 514 457 Q568 457 613 477 Q731 530 731 704 Q731 822 672 891.5 Q613 961 513 961 Z M377 66 Q213 -16 213 -121 Q213 -151 227 -176 Q248 -210 277 -224 Q378 -268 524 -268 Q669 -268 744 -231 Q819 -194 819 -123 Q819 -111 817 -102 Q797 -14 592 25 L377 66 Z M786 1450 Q782 1359 736 1304 Q665 1217 527 1217 Q409 1217 341.5 1278 Q274 1339 266 1450 L395 1450 Q412 1335 526 1335 Q555 1335 580 1344 Q655 1370 657 1450 L786 1450 Z " />
<glyph glyph-name="Gdotaccent" unicode="&#x120;" horiz-adv-x="1270" d="M1126 961 L954 940 Q930 1078 878 1152 Q800 1262 644 1262 Q557 1262 489 1224 Q411 1180 378 1109 Q293 924 293 670 Q293 433 373 263 Q404 196 475 155.5 Q546 115 631 115 Q724 115 799 157 Q874 199 954 297 L954 524 L651 524 L651 664 L1116 664 L1116 0 L983 0 L969 143 L957 132 Q895 76 881 63 Q838 22 763 -3.5 Q688 -29 610 -29 Q368 -29 239 154 Q113 333 113 659 Q113 1003 249 1197 Q388 1395 649 1395 Q847 1395 968.5 1284.5 Q1090 1174 1126 961 Z M730 1484 L550 1484 L550 1693 L730 1693 L730 1484 Z " />
<glyph glyph-name="gdotaccent" unicode="&#x121;" horiz-adv-x="1040" d="M989 981 L987 981 Q986 981 983 981 Q978 981 971 982 Q968 982 965 982 Q954 983 942 983 Q907 983 874 970 Q848 960 821 938 Q901 831 901 701 Q901 537 794 434 Q688 332 523 332 Q483 332 445 339 Q402 346 346 367 Q274 338 274 296 Q274 252 340 232 Q359 226 498 197 L684 158 Q827 128 894 82 Q989 17 989 -108 Q989 -188 952 -246 Q853 -399 526 -399 Q427 -399 341 -383 Q209 -359 139.5 -297 Q70 -235 70 -142 Q70 -72 106 -19 Q154 50 266 102 Q131 145 131 256 Q131 288 143 313 Q172 373 276 401 Q224 434 198 467 Q129 555 129 707 Q129 794 160 868 Q200 966 296 1024.5 Q392 1083 512 1083 Q644 1083 756 1006 Q807 1072 848.5 1091 Q890 1110 989 1114 L989 981 Z M513 961 Q456 961 414 940 Q293 881 293 709 Q293 650 310 598 Q332 531 385.5 494 Q439 457 514 457 Q568 457 613 477 Q731 530 731 704 Q731 822 672 891.5 Q613 961 513 961 Z M377 66 Q213 -16 213 -121 Q213 -151 227 -176 Q248 -210 277 -224 Q378 -268 524 -268 Q669 -268 744 -231 Q819 -194 819 -123 Q819 -111 817 -102 Q797 -14 592 25 L377 66 Z M620 1204 L440 1204 L440 1413 L620 1413 L620 1204 Z " />
<glyph glyph-name="Gcommaaccent" unicode="&#x122;" horiz-adv-x="1270" d="M1126 961 L954 940 Q930 1078 878 1152 Q800 1262 644 1262 Q557 1262 489 1224 Q411 1180 378 1109 Q293 924 293 670 Q293 433 373 263 Q404 196 475 155.5 Q546 115 631 115 Q724 115 799 157 Q874 199 954 297 L954 524 L651 524 L651 664 L1116 664 L1116 0 L983 0 L969 143 L957 132 Q895 76 881 63 Q838 22 763 -3.5 Q688 -29 610 -29 Q368 -29 239 154 Q113 333 113 659 Q113 1003 249 1197 Q388 1395 649 1395 Q847 1395 968.5 1284.5 Q1090 1174 1126 961 Z M717 -317 L625 -512 L575 -512 L625 -322 L573 -322 L573 -131 L717 -131 L717 -317 Z " />
<glyph glyph-name="gcommaaccent" unicode="&#x123;" horiz-adv-x="1040" d="M989 981 L987 981 Q986 981 983 981 Q978 981 971 982 Q968 982 965 982 Q954 983 942 983 Q907 983 874 970 Q848 960 821 938 Q901 831 901 701 Q901 537 794 434 Q688 332 523 332 Q483 332 445 339 Q402 346 346 367 Q274 338 274 296 Q274 252 340 232 Q359 226 498 197 L684 158 Q827 128 894 82 Q989 17 989 -108 Q989 -188 952 -246 Q853 -399 526 -399 Q427 -399 341 -383 Q209 -359 139.5 -297 Q70 -235 70 -142 Q70 -72 106 -19 Q154 50 266 102 Q131 145 131 256 Q131 288 143 313 Q172 373 276 401 Q224 434 198 467 Q129 555 129 707 Q129 794 160 868 Q200 966 296 1024.5 Q392 1083 512 1083 Q644 1083 756 1006 Q807 1072 848.5 1091 Q890 1110 989 1114 L989 981 Z M513 961 Q456 961 414 940 Q293 881 293 709 Q293 650 310 598 Q332 531 385.5 494 Q439 457 514 457 Q568 457 613 477 Q731 530 731 704 Q731 822 672 891.5 Q613 961 513 961 Z M377 66 Q213 -16 213 -121 Q213 -151 227 -176 Q248 -210 277 -224 Q378 -268 524 -268 Q669 -268 744 -231 Q819 -194 819 -123 Q819 -111 817 -102 Q797 -14 592 25 L377 66 Z M598 1696 L527 1422 L590 1422 L590 1184 L412 1184 L412 1418 L537 1696 L598 1696 Z " />
<glyph glyph-name="Hcircumflex" unicode="&#x124;" horiz-adv-x="1288" d="M1118 0 L952 0 L952 649 L336 649 L336 0 L170 0 L170 1366 L336 1366 L336 788 L952 788 L952 1366 L1118 1366 L1118 0 Z M923 1482 L781 1482 L640 1674 L503 1482 L365 1482 L531 1769 L755 1769 L923 1482 Z " />
<glyph glyph-name="hcircumflex" unicode="&#x125;" horiz-adv-x="1079" d="M920 0 L762 0 L762 745 Q762 844 733 890 Q697 946 607 946 Q483 946 326 815 L326 0 L168 0 L168 1415 L326 1415 L326 936 Q422 1013 494 1044 Q566 1075 647 1075 Q730 1075 797 1040 Q861 1007 890.5 929 Q920 851 920 713 L920 0 Z M534 1456 L392 1456 L251 1648 L114 1456 L-24 1456 L142 1743 L366 1743 L534 1456 Z " />
<glyph glyph-name="Hbar" unicode="&#x126;" horiz-adv-x="1288" d="M170 1003 L13 1003 L13 1152 L170 1152 L170 1366 L336 1366 L336 1152 L952 1152 L952 1366 L1118 1366 L1118 1152 L1269 1152 L1269 1003 L1118 1003 L1118 0 L952 0 L952 649 L336 649 L336 0 L170 0 L170 1003 Z M336 1003 L336 788 L952 788 L952 1003 L336 1003 Z " />
<glyph glyph-name="hbar" unicode="&#x127;" horiz-adv-x="1079" d="M168 1156 L39 1156 L39 1294 L168 1294 L168 1415 L326 1415 L326 1294 L601 1294 L601 1156 L326 1156 L326 936 Q424 1013 495 1044 Q566 1075 646 1075 Q730 1075 797 1040 Q861 1007 890.5 928.5 Q920 850 920 713 L920 0 L762 0 L762 745 Q762 844 733 890 Q697 946 607 946 Q484 946 326 815 L326 0 L168 0 L168 1156 Z " />
<glyph glyph-name="Itilde" unicode="&#x128;" horiz-adv-x="506" d="M336 0 L170 0 L170 1366 L336 1366 L336 0 Z M568 1669 Q479 1548 377 1548 Q358 1548 340 1552 Q301 1561 251 1583 Q172 1618 131 1618 Q112 1618 96 1609 Q66 1593 32 1546 L-62 1622 Q32 1755 143 1755 Q160 1755 178 1751 Q212 1744 263 1720 Q340 1685 375 1685 Q419 1685 482 1755 L568 1669 Z " />
<glyph glyph-name="itilde" unicode="&#x129;" horiz-adv-x="516" d="M338 0 L180 0 L180 1057 L338 1057 L338 0 Z M574 1360 Q485 1239 384 1239 Q364 1239 346 1243 Q310 1251 257 1274 Q178 1309 137 1309 Q118 1309 102 1300 Q72 1283 38 1237 L-56 1313 Q39 1446 149 1446 Q167 1446 184 1442 Q219 1434 287 1403 Q347 1376 381 1376 Q426 1376 488 1446 L574 1360 Z " />
<glyph glyph-name="Imacron" unicode="&#x12a;" horiz-adv-x="506" d="M503 1505 L3 1505 L3 1657 L503 1657 L503 1505 Z M336 0 L170 0 L170 1366 L336 1366 L336 0 Z " />
<glyph glyph-name="imacron" unicode="&#x12b;" horiz-adv-x="516" d="M519 1268 L-1 1268 L-1 1417 L519 1417 L519 1268 Z M338 0 L180 0 L180 1057 L338 1057 L338 0 Z " />
<glyph glyph-name="Ibreve" unicode="&#x12c;" horiz-adv-x="506" d="M336 0 L170 0 L170 1366 L336 1366 L336 0 Z M518 1696 Q514 1605 468 1549 Q396 1462 258 1462 Q141 1462 73 1523.5 Q5 1585 -2 1696 L127 1696 Q143 1581 258 1581 Q316 1581 351.5 1612 Q387 1643 389 1696 L518 1696 Z " />
<glyph glyph-name="ibreve" unicode="&#x12d;" horiz-adv-x="516" d="M338 0 L180 0 L180 1057 L338 1057 L338 0 Z M519 1450 Q514 1359 469 1304 Q398 1217 259 1217 Q142 1217 73.5 1278 Q5 1339 -1 1450 L128 1450 Q144 1335 259 1335 Q317 1335 353 1366.5 Q389 1398 390 1450 L519 1450 Z " />
<glyph glyph-name="Iogonek" unicode="&#x12e;" horiz-adv-x="506" d="M383 -324 Q293 -360 211 -360 Q129 -360 70 -329 Q2 -293 2 -204 Q2 -74 170 18 L170 1366 L336 1366 L336 0 L329 0 Q269 0 210.5 -54 Q152 -108 152 -164 Q152 -185 161 -201 Q180 -236 240 -236 Q290 -236 352 -205 L383 -324 Z " />
<glyph glyph-name="iogonek" unicode="&#x12f;" horiz-adv-x="516" d="M348 1222 L168 1222 L168 1415 L348 1415 L348 1222 Z M385 -324 Q295 -360 213 -360 Q131 -360 72 -329 Q4 -293 4 -204 Q4 -70 180 23 L180 1057 L338 1057 L338 0 L331 0 Q271 0 212.5 -54 Q154 -108 154 -164 Q154 -185 163 -201 Q182 -236 242 -236 Q293 -236 354 -205 L385 -324 Z " />
<glyph glyph-name="Idot" unicode="&#x130;" horiz-adv-x="506" d="M336 0 L170 0 L170 1366 L336 1366 L336 0 Z M343 1479 L163 1479 L163 1688 L343 1688 L343 1479 Z " />
<glyph glyph-name="IJ" unicode="&#x132;" horiz-adv-x="1303" d="M336 0 L170 0 L170 1366 L336 1366 L336 0 Z M518 43 L580 178 Q704 107 796 107 Q850 107 890 130 Q931 153 949 213 Q967 273 967 387 L967 1366 L1133 1366 L1133 340 Q1133 169 1077 84 Q1002 -31 800 -31 Q641 -31 518 43 Z " />
<glyph glyph-name="ij" unicode="&#x133;" horiz-adv-x="1032" d="M348 1222 L168 1222 L168 1415 L348 1415 L348 1222 Z M338 0 L180 0 L180 1057 L338 1057 L338 0 Z M864 1222 L684 1222 L684 1415 L864 1415 L864 1222 Z M453 -348 L469 -223 Q528 -242 577 -242 Q644 -242 669.5 -203 Q695 -164 695 -61 L695 1057 L854 1057 L854 -37 Q854 -173 820 -246 Q764 -369 597 -369 Q520 -369 453 -348 Z " />
<glyph glyph-name="Jcircumflex" unicode="&#x134;" horiz-adv-x="797" d="M12 43 L74 178 Q198 107 289 107 Q344 107 384 130 Q425 153 443 213 Q461 273 461 387 L461 1366 L627 1366 L627 340 Q627 169 571 84 Q496 -31 294 -31 Q135 -31 12 43 Z M814 1482 L672 1482 L531 1674 L394 1482 L256 1482 L422 1769 L646 1769 L814 1482 Z " />
<glyph glyph-name="jcircumflex" unicode="&#x135;" horiz-adv-x="516" d="M-63 -348 L-47 -223 Q13 -242 61 -242 Q128 -242 153.5 -202.5 Q179 -163 179 -61 L179 1057 L338 1057 L338 -37 Q338 -173 304 -246 Q248 -369 82 -369 Q3 -369 -63 -348 Z M531 1179 L389 1179 L248 1371 L111 1179 L-27 1179 L139 1466 L363 1466 L531 1179 Z " />
<glyph glyph-name="Kcommaaccent" unicode="&#x136;" horiz-adv-x="1055" d="M1085 0 L897 0 L502 692 L338 477 L338 0 L170 0 L170 1366 L338 1366 L338 702 L809 1366 L1001 1366 L608 823 L1085 0 Z M670 -317 L578 -512 L528 -512 L578 -322 L526 -322 L526 -131 L670 -131 L670 -317 Z " />
<glyph glyph-name="kcommaaccent" unicode="&#x137;" horiz-adv-x="971" d="M973 0 L793 0 L481 555 L326 393 L326 0 L168 0 L168 1415 L326 1415 L326 571 L737 1055 L926 1055 L584 662 L973 0 Z M617 -317 L525 -512 L475 -512 L525 -322 L473 -322 L473 -131 L617 -131 L617 -317 Z " />
<glyph glyph-name="Lacute" unicode="&#x139;" horiz-adv-x="954" d="M961 0 L170 0 L170 1366 L336 1366 L336 139 L961 139 L961 0 Z M542 1741 L321 1489 L170 1489 L342 1741 L542 1741 Z " />
<glyph glyph-name="lacute" unicode="&#x13a;" horiz-adv-x="494" d="M326 0 L168 0 L168 1415 L326 1415 L326 0 Z M529 1741 L308 1489 L157 1489 L329 1741 L529 1741 Z " />
<glyph glyph-name="Lcommaaccent" unicode="&#x13b;" horiz-adv-x="954" d="M961 0 L170 0 L170 1366 L336 1366 L336 139 L961 139 L961 0 Z M637 -317 L545 -512 L495 -512 L545 -322 L493 -322 L493 -131 L637 -131 L637 -317 Z " />
<glyph glyph-name="lcommaaccent" unicode="&#x13c;" d="M319 -317 L227 -512 L177 -512 L227 -322 L175 -322 L175 -131 L319 -131 L319 -317 Z M326 0 L168 0 L168 1415 L326 1415 L326 0 Z " />
<glyph glyph-name="Lcaron" unicode="&#x13d;" horiz-adv-x="954" d="M961 0 L170 0 L170 1366 L336 1366 L336 139 L961 139 L961 0 Z M762 1133 L635 854 L574 854 L648 1127 L582 1127 L582 1366 L762 1366 L762 1133 Z " />
<glyph glyph-name="lcaron" unicode="&#x13e;" horiz-adv-x="494" d="M326 0 L168 0 L168 1415 L326 1415 L326 0 Z M606 1184 L479 905 L418 905 L492 1178 L426 1178 L426 1417 L606 1417 L606 1184 Z " />
<glyph glyph-name="Ldot" unicode="&#x13f;" horiz-adv-x="954" d="M961 0 L170 0 L170 1366 L336 1366 L336 139 L961 139 L961 0 Z M701 538 L523 538 L523 777 L701 777 L701 538 Z " />
<glyph glyph-name="ldot" unicode="&#x140;" horiz-adv-x="672" d="M326 0 L168 0 L168 1415 L326 1415 L326 0 Z M597 552 L419 552 L419 791 L597 791 L597 552 Z " />
<glyph glyph-name="Lslash" unicode="&#x141;" horiz-adv-x="954" d="M961 0 L170 0 L170 549 L39 451 L39 594 L170 690 L170 1366 L336 1366 L336 786 L672 1030 L672 887 L336 645 L336 139 L961 139 L961 0 Z " />
<glyph glyph-name="lslash" unicode="&#x142;" horiz-adv-x="494" d="M471 891 L319 780 L319 0 L162 0 L162 686 L23 578 L23 719 L162 819 L162 1415 L319 1415 L319 913 L471 1030 L471 891 Z " />
<glyph glyph-name="Nacute" unicode="&#x143;" horiz-adv-x="1286" d="M1116 0 L907 0 L414 971 Q405 990 388 1020 Q337 1116 324 1174 Q334 1108 334 1036 L334 0 L170 0 L170 1366 L387 1366 L887 373 Q915 318 965 190 Q954 278 954 356 L954 1366 L1116 1366 L1116 0 Z M862 1741 L641 1489 L490 1489 L662 1741 L862 1741 Z " />
<glyph glyph-name="nacute" unicode="&#x144;" horiz-adv-x="1079" d="M920 0 L762 0 L762 756 Q762 946 610 946 Q496 946 326 815 L326 0 L168 0 L168 1057 L317 1057 L319 932 Q402 994 458 1023 Q555 1073 651 1073 Q730 1073 796 1040 Q860 1008 890 933 Q920 858 920 731 L920 0 Z M750 1477 L582 1192 L434 1192 L555 1477 L750 1477 Z " />
<glyph glyph-name="Ncommaaccent" unicode="&#x145;" horiz-adv-x="1286" d="M1116 0 L907 0 L414 971 Q405 990 388 1020 Q337 1116 324 1174 Q334 1108 334 1036 L334 0 L170 0 L170 1366 L387 1366 L887 373 Q915 318 965 190 Q954 278 954 356 L954 1366 L1116 1366 L1116 0 Z M717 -317 L625 -512 L575 -512 L625 -322 L573 -322 L573 -131 L717 -131 L717 -317 Z " />
<glyph glyph-name="ncommaaccent" unicode="&#x146;" horiz-adv-x="1079" d="M920 0 L762 0 L762 756 Q762 946 610 946 Q496 946 326 815 L326 0 L168 0 L168 1057 L317 1057 L319 932 Q402 994 458 1023 Q555 1073 651 1073 Q730 1073 796 1040 Q860 1008 890 933 Q920 858 920 731 L920 0 Z M625 -317 L533 -512 L483 -512 L533 -322 L481 -322 L481 -131 L625 -131 L625 -317 Z " />
<glyph glyph-name="Ncaron" unicode="&#x147;" horiz-adv-x="1286" d="M1116 0 L907 0 L414 971 Q405 990 388 1020 Q337 1116 324 1174 Q334 1108 334 1036 L334 0 L170 0 L170 1366 L387 1366 L887 373 Q915 318 965 190 Q954 278 954 356 L954 1366 L1116 1366 L1116 0 Z M946 1753 L766 1482 L538 1482 L356 1753 L495 1753 L655 1577 L809 1753 L946 1753 Z " />
<glyph glyph-name="ncaron" unicode="&#x148;" horiz-adv-x="1079" d="M920 0 L762 0 L762 756 Q762 946 610 946 Q496 946 326 815 L326 0 L168 0 L168 1057 L317 1057 L319 932 Q402 994 458 1023 Q555 1073 651 1073 Q730 1073 796 1040 Q860 1008 890 933 Q920 858 920 731 L920 0 Z M813 1477 L659 1190 L411 1190 L255 1477 L395 1477 L538 1284 L673 1477 L813 1477 Z " />
<glyph glyph-name="napostrophe" unicode="&#x149;" horiz-adv-x="1216" d="M1058 0 L900 0 L900 756 Q900 946 748 946 Q634 946 464 815 L464 0 L306 0 L306 1057 L455 1057 L457 932 Q540 994 596 1023 Q693 1073 789 1073 Q868 1073 934 1040 Q998 1008 1028 933.5 Q1058 859 1058 731 L1058 0 Z M223 1129 L96 850 L35 850 L109 1123 L43 1123 L43 1362 L223 1362 L223 1129 Z " />
<glyph glyph-name="Omacron" unicode="&#x14c;" horiz-adv-x="1298" d="M651 1395 Q784 1395 882 1345 Q1029 1269 1109 1100 Q1186 937 1186 685 Q1186 408 1089 232 Q945 -29 650 -29 Q400 -29 257 162 Q113 355 113 683 Q113 1017 256 1204 Q402 1395 651 1395 Z M647 1260 Q561 1260 497 1223 Q295 1105 295 685 Q295 528 329 393 Q363 260 449 181 Q529 107 650 107 Q734 107 798 143 Q1004 258 1004 681 L1003 746 Q1003 839 977 941 Q951 1043 910 1108 Q816 1260 647 1260 Z M926 1505 L364 1505 L364 1657 L926 1657 L926 1505 Z " />
<glyph glyph-name="omacron" unicode="&#x14d;" horiz-adv-x="1071" d="M546 1083 Q666 1083 758 1031 Q844 983 885 902 Q964 747 964 529 Q964 -27 530 -27 Q406 -27 311 24 Q227 69 185 152 Q108 305 108 518 Q108 770 198 910 Q309 1083 546 1083 Z M536 952 Q467 952 415 923 Q359 890 333 838 Q271 711 271 521 Q271 339 310 246 Q369 104 532 104 Q616 104 673 142 Q739 185 769.5 277 Q800 369 800 522 Q800 690 772 778 Q718 952 536 952 Z M810 1268 L248 1268 L248 1417 L810 1417 L810 1268 Z " />
<glyph glyph-name="Obreve" unicode="&#x14e;" horiz-adv-x="1298" d="M651 1395 Q784 1395 882 1345 Q1029 1269 1109 1100 Q1186 937 1186 685 Q1186 408 1089 232 Q945 -29 650 -29 Q400 -29 257 162 Q113 355 113 683 Q113 1017 256 1204 Q402 1395 651 1395 Z M647 1260 Q561 1260 497 1223 Q295 1105 295 685 Q295 528 329 393 Q363 260 449 181 Q529 107 650 107 Q734 107 798 143 Q1004 258 1004 681 L1003 746 Q1003 839 977 941 Q951 1043 910 1108 Q816 1260 647 1260 Z M912 1696 Q908 1605 862 1549 Q791 1462 653 1462 Q593 1462 540 1481 Q402 1530 392 1696 L522 1696 Q536 1581 653 1581 Q711 1581 746.5 1612.5 Q782 1644 783 1696 L912 1696 Z " />
<glyph glyph-name="obreve" unicode="&#x14f;" horiz-adv-x="1071" d="M546 1083 Q666 1083 758 1031 Q844 983 885 902 Q964 747 964 529 Q964 -27 530 -27 Q406 -27 311 24 Q227 69 185 152 Q108 305 108 518 Q108 770 198 910 Q309 1083 546 1083 Z M536 952 Q467 952 415 923 Q359 890 333 838 Q271 711 271 521 Q271 339 310 246 Q369 104 532 104 Q616 104 673 142 Q739 185 769.5 277 Q800 369 800 522 Q800 690 772 778 Q718 952 536 952 Z M796 1450 Q791 1359 746 1304 Q675 1217 536 1217 Q477 1217 424 1235 Q286 1284 276 1450 L405 1450 Q421 1335 535 1335 Q565 1335 590 1344 Q666 1370 667 1450 L796 1450 Z " />
<glyph glyph-name="Ohungarumlaut" unicode="&#x150;" horiz-adv-x="1298" d="M651 1395 Q784 1395 882 1345 Q1029 1269 1109 1100 Q1186 937 1186 685 Q1186 408 1089 232 Q945 -29 650 -29 Q400 -29 257 162 Q113 355 113 683 Q113 1017 256 1204 Q402 1395 651 1395 Z M647 1260 Q561 1260 497 1223 Q295 1105 295 685 Q295 528 329 393 Q363 260 449 181 Q529 107 650 107 Q734 107 798 143 Q1004 258 1004 681 L1003 746 Q1003 839 977 941 Q951 1043 910 1108 Q816 1260 647 1260 Z M1010 1774 L844 1489 L707 1489 L828 1774 L1010 1774 Z M703 1774 L537 1489 L400 1489 L521 1774 L703 1774 Z " />
<glyph glyph-name="ohungarumlaut" unicode="&#x151;" horiz-adv-x="1071" d="M546 1083 Q666 1083 758 1031 Q844 983 885 902 Q964 747 964 529 Q964 -27 530 -27 Q406 -27 311 24 Q227 69 185 152 Q108 305 108 518 Q108 770 198 910 Q309 1083 546 1083 Z M536 952 Q467 952 415 923 Q359 890 333 838 Q271 711 271 521 Q271 339 310 246 Q369 104 532 104 Q616 104 673 142 Q739 185 769.5 277 Q800 369 800 522 Q800 690 772 778 Q718 952 536 952 Z M912 1477 L746 1192 L609 1192 L730 1477 L912 1477 Z M605 1477 L439 1192 L302 1192 L423 1477 L605 1477 Z " />
<glyph glyph-name="Racute" unicode="&#x154;" horiz-adv-x="1155" d="M1081 0 L889 0 L619 608 L336 608 L336 0 L170 0 L170 1366 L584 1366 Q807 1366 919 1296 Q1057 1210 1057 999 Q1057 854 986 760.5 Q915 667 780 635 L1081 0 Z M336 1227 L336 748 L559 748 Q722 748 796 800 Q874 855 874 990 Q874 1122 804.5 1174.5 Q735 1227 559 1227 L336 1227 Z M787 1741 L566 1489 L415 1489 L587 1741 L787 1741 Z " />
<glyph glyph-name="racute" unicode="&#x155;" horiz-adv-x="711" d="M690 913 Q646 912 600 905 Q451 880 326 637 L326 0 L168 0 L168 1057 L322 1057 L322 838 Q381 935 424 980.5 Q467 1026 521 1048 Q602 1082 690 1081 L690 913 Z M587 1477 L419 1192 L271 1192 L392 1477 L587 1477 Z " />
<glyph glyph-name="Rcommaaccent" unicode="&#x156;" horiz-adv-x="1155" d="M1081 0 L889 0 L619 608 L336 608 L336 0 L170 0 L170 1366 L584 1366 Q807 1366 919 1296 Q1057 1210 1057 999 Q1057 854 986 760.5 Q915 667 780 635 L1081 0 Z M336 1227 L336 748 L559 748 Q722 748 796 800 Q874 855 874 990 Q874 1122 804.5 1174.5 Q735 1227 559 1227 L336 1227 Z M673 -317 L581 -512 L531 -512 L581 -322 L529 -322 L529 -131 L673 -131 L673 -317 Z " />
<glyph glyph-name="rcommaaccent" unicode="&#x157;" horiz-adv-x="711" d="M690 913 Q646 912 600 905 Q451 880 326 637 L326 0 L168 0 L168 1057 L322 1057 L322 838 Q381 935 424 980.5 Q467 1026 521 1048 Q602 1082 690 1081 L690 913 Z M318 -317 L226 -512 L176 -512 L226 -322 L174 -322 L174 -131 L318 -131 L318 -317 Z " />
<glyph glyph-name="Rcaron" unicode="&#x158;" horiz-adv-x="1155" d="M1081 0 L889 0 L619 608 L336 608 L336 0 L170 0 L170 1366 L584 1366 Q807 1366 919 1296 Q1057 1210 1057 999 Q1057 854 986 760.5 Q915 667 780 635 L1081 0 Z M336 1227 L336 748 L559 748 Q722 748 796 800 Q874 855 874 990 Q874 1122 804.5 1174.5 Q735 1227 559 1227 L336 1227 Z M841 1753 L660 1482 L432 1482 L250 1753 L389 1753 L549 1577 L703 1753 L841 1753 Z " />
<glyph glyph-name="rcaron" unicode="&#x159;" horiz-adv-x="711" d="M691 913 Q647 912 601 905 Q452 880 327 637 L327 0 L169 0 L169 1057 L323 1057 L323 838 Q382 935 425 980.5 Q468 1026 522 1048 Q601 1082 691 1081 L691 913 Z M689 1477 L535 1190 L287 1190 L131 1477 L271 1477 L414 1284 L549 1477 L689 1477 Z " />
<glyph glyph-name="Sacute" unicode="&#x15a;" horiz-adv-x="1116" d="M61 350 L223 401 Q249 285 296 223 Q383 109 557 109 Q670 109 749 161 Q842 222 842 333 Q842 454 724 530 Q684 556 546 615 Q345 699 276 748 Q109 864 109 1056 Q109 1231 239 1320 Q348 1395 522 1395 Q886 1395 977 1053 L813 1010 Q784 1108 742 1159 Q663 1255 515 1255 Q382 1255 326 1192 Q283 1143 283 1069 Q283 948 410 872 Q481 830 700 737 Q809 691 853.5 663.5 Q898 636 937 591 Q1014 501 1014 353 Q1014 231 965 146 Q922 69 851 33 Q726 -31 555 -31 Q344 -31 228 58.5 Q112 148 61 350 Z M762 1741 L541 1489 L390 1489 L562 1741 L762 1741 Z " />
<glyph glyph-name="sacute" unicode="&#x15b;" horiz-adv-x="889" d="M51 207 L186 274 Q217 207 250 173 Q321 100 453 100 Q532 100 593 132 Q661 168 661 250 Q661 355 516 427 Q292 538 278 544 Q194 583 147 653 Q100 723 100 810 Q100 875 126 927 Q162 1001 246 1042 Q328 1083 442 1083 Q637 1083 738 975 Q767 944 799 887 L664 821 Q639 872 613 898 Q553 956 439 956 Q369 956 315 928 Q256 897 256 825 Q256 780 276 752 Q329 678 539 587 Q636 545 679.5 519 Q723 493 752 459 Q821 379 821 266 Q821 179 784 114 Q750 55 694 26 Q589 -27 456 -27 Q345 -27 256.5 6.5 Q168 40 116 100 Q85 138 51 207 Z M653 1477 L485 1192 L337 1192 L458 1477 L653 1477 Z " />
<glyph glyph-name="Scircumflex" unicode="&#x15c;" horiz-adv-x="1116" d="M61 350 L223 401 Q249 285 296 223 Q383 109 557 109 Q670 109 749 161 Q842 222 842 333 Q842 454 724 530 Q684 556 546 615 Q345 699 276 748 Q109 864 109 1056 Q109 1231 239 1320 Q348 1395 522 1395 Q886 1395 977 1053 L813 1010 Q784 1108 742 1159 Q663 1255 515 1255 Q382 1255 326 1192 Q283 1143 283 1069 Q283 948 410 872 Q481 830 700 737 Q809 691 853.5 663.5 Q898 636 937 591 Q1014 501 1014 353 Q1014 231 965 146 Q922 69 851 33 Q726 -31 555 -31 Q344 -31 228 58.5 Q112 148 61 350 Z M817 1482 L675 1482 L534 1674 L397 1482 L259 1482 L425 1769 L649 1769 L817 1482 Z " />
<glyph glyph-name="scircumflex" unicode="&#x15d;" horiz-adv-x="889" d="M51 207 L186 274 Q217 207 250 173 Q321 100 453 100 Q532 100 593 132 Q661 168 661 250 Q661 355 516 427 Q292 538 278 544 Q194 583 147 653 Q100 723 100 810 Q100 875 126 927 Q162 1001 246 1042 Q328 1083 442 1083 Q637 1083 738 975 Q767 944 799 887 L664 821 Q639 872 613 898 Q553 956 439 956 Q369 956 315 928 Q256 897 256 825 Q256 780 276 752 Q329 678 539 587 Q636 545 679.5 519 Q723 493 752 459 Q821 379 821 266 Q821 179 784 114 Q750 55 694 26 Q589 -27 456 -27 Q345 -27 256.5 6.5 Q168 40 116 100 Q85 138 51 207 Z M715 1190 L573 1190 L432 1382 L295 1190 L157 1190 L323 1477 L547 1477 L715 1190 Z " />
<glyph glyph-name="Scedilla" unicode="&#x15e;" horiz-adv-x="1116" d="M594 -30 L560 -113 Q643 -115 679.5 -146 Q716 -177 716 -245 Q716 -263 713 -279 Q690 -408 499 -408 Q426 -408 330 -381 L347 -293 Q448 -313 488 -313 Q533 -313 564 -298 Q591 -284 591 -251 Q591 -190 475 -190 Q460 -190 431 -193 L499 -29 Q323 -15 226 61 Q112 149 61 350 L223 401 Q249 285 296 223 Q383 109 557 109 Q670 109 749 161 Q842 222 842 333 Q842 454 724 530 Q684 556 546 615 Q345 699 276 748 Q109 864 109 1056 Q109 1231 239 1320 Q348 1395 522 1395 Q886 1395 977 1053 L813 1010 Q784 1108 742 1159 Q663 1255 515 1255 Q382 1255 326 1192 Q283 1143 283 1069 Q283 948 410 872 Q481 830 700 737 Q809 691 853.5 663.5 Q898 636 937 591 Q1014 501 1014 353 Q1014 -13 594 -30 Z " />
<glyph glyph-name="scedilla" unicode="&#x15f;" horiz-adv-x="889" d="M488 -26 L452 -113 Q608 -117 608 -244 Q608 -408 391 -408 Q317 -408 222 -381 L239 -293 Q339 -313 380 -313 Q425 -313 456 -298 Q483 -284 483 -251 Q483 -190 367 -190 L358 -190 Q353 -190 323 -193 L393 -24 Q262 -11 184 41.5 Q106 94 51 207 L186 274 Q217 207 250 173 Q321 100 453 100 Q532 100 593 132 Q661 168 661 250 Q661 355 516 427 Q292 538 278 544 Q194 583 147 653 Q100 723 100 810 Q100 875 126 927 Q162 1001 246 1042 Q328 1083 442 1083 Q637 1083 738 975 Q767 944 799 887 L664 821 Q639 872 613 898 Q553 956 439 956 Q369 956 315 928 Q256 897 256 825 Q256 780 276 752 Q329 678 539 587 Q636 545 679.5 519 Q723 493 752 459 Q821 379 821 266 Q821 -6 488 -26 Z " />
<glyph glyph-name="Scaron" unicode="&#x160;" horiz-adv-x="1116" d="M61 350 L223 401 Q249 285 296 223 Q383 109 557 109 Q670 109 749 161 Q842 222 842 333 Q842 454 724 530 Q684 556 546 615 Q345 699 276 748 Q109 864 109 1056 Q109 1231 239 1320 Q348 1395 522 1395 Q886 1395 977 1053 L813 1010 Q784 1108 742 1159 Q663 1255 515 1255 Q382 1255 326 1192 Q283 1143 283 1069 Q283 948 410 872 Q481 830 700 737 Q809 691 853.5 663.5 Q898 636 937 591 Q1014 501 1014 353 Q1014 231 965 146 Q922 69 851 33 Q726 -31 555 -31 Q344 -31 228 58.5 Q112 148 61 350 Z M838 1753 L658 1482 L430 1482 L248 1753 L387 1753 L547 1577 L701 1753 L838 1753 Z " />
<glyph glyph-name="scaron" unicode="&#x161;" horiz-adv-x="889" d="M51 207 L186 274 Q217 207 250 173 Q321 100 453 100 Q532 100 593 132 Q661 168 661 250 Q661 355 516 427 Q292 538 278 544 Q194 583 147 653 Q100 723 100 810 Q100 875 126 927 Q162 1001 246 1042 Q328 1083 442 1083 Q637 1083 738 975 Q767 944 799 887 L664 821 Q639 872 613 898 Q553 956 439 956 Q369 956 315 928 Q256 897 256 825 Q256 780 276 752 Q329 678 539 587 Q636 545 679.5 519 Q723 493 752 459 Q821 379 821 266 Q821 179 784 114 Q750 55 694 26 Q589 -27 456 -27 Q345 -27 256.5 6.5 Q168 40 116 100 Q85 138 51 207 Z M724 1477 L570 1190 L322 1190 L166 1477 L306 1477 L449 1284 L584 1477 L724 1477 Z " />
<glyph glyph-name="Tcommaaccent" unicode="&#x162;" horiz-adv-x="934" d="M938 1227 L549 1227 L549 0 L383 0 L383 1227 L-4 1227 L-4 1366 L938 1366 L938 1227 Z M539 -317 L447 -512 L397 -512 L447 -322 L395 -322 L395 -131 L539 -131 L539 -317 Z " />
<glyph glyph-name="tcommaaccent" unicode="&#x163;" horiz-adv-x="639" d="M635 10 Q525 -16 449 -16 Q378 -16 321 5 Q209 47 209 227 L209 920 L37 920 L37 1057 L209 1057 L209 1337 L369 1384 L369 1057 L627 1057 L627 920 L369 920 L369 227 Q369 164 393.5 139.5 Q418 115 482 115 Q543 115 616 139 L635 10 Z M428 -317 L336 -512 L286 -512 L336 -322 L284 -322 L284 -131 L428 -131 L428 -317 Z " />
<glyph glyph-name="Tcaron" unicode="&#x164;" horiz-adv-x="934" d="M938 1227 L549 1227 L549 0 L383 0 L383 1227 L-4 1227 L-4 1366 L938 1366 L938 1227 Z M759 1753 L579 1482 L351 1482 L169 1753 L308 1753 L468 1577 L622 1753 L759 1753 Z " />
<glyph glyph-name="tcaron" unicode="&#x165;" horiz-adv-x="639" d="M635 10 Q525 -16 449 -16 Q378 -16 321 5 Q209 47 209 227 L209 920 L37 920 L37 1057 L209 1057 L209 1337 L369 1384 L369 1057 L627 1057 L627 920 L369 920 L369 227 Q369 164 393.5 139.5 Q418 115 482 115 Q543 115 616 139 L635 10 Z M657 1434 L530 1155 L469 1155 L543 1428 L477 1428 L477 1667 L657 1667 L657 1434 Z " />
<glyph glyph-name="Tbar" unicode="&#x166;" horiz-adv-x="934" d="M549 881 L806 881 L806 732 L549 732 L549 0 L383 0 L383 732 L146 732 L146 881 L383 881 L383 1227 L-4 1227 L-4 1366 L938 1366 L938 1227 L549 1227 L549 881 Z " />
<glyph glyph-name="tbar" unicode="&#x167;" horiz-adv-x="639" d="M209 602 L37 602 L37 736 L209 736 L209 920 L37 920 L37 1057 L209 1057 L209 1337 L369 1384 L369 1057 L627 1057 L627 920 L369 920 L369 736 L617 736 L617 602 L369 602 L369 227 Q369 164 393.5 139.5 Q418 115 482 115 Q544 115 616 139 L635 10 Q525 -16 449 -16 Q378 -16 321 5 Q209 47 209 227 L209 602 Z " />
<glyph glyph-name="Utilde" unicode="&#x168;" horiz-adv-x="1268" d="M170 1366 L336 1366 L336 487 Q336 302 386 218 Q451 109 634 109 Q732 109 807 146 Q872 179 902 262 Q932 345 932 492 L932 1366 L1098 1366 L1098 463 Q1098 256 1024 143 Q915 -27 628 -27 Q495 -27 385 18 Q170 107 170 463 L170 1366 Z M949 1669 Q860 1548 758 1548 Q739 1548 721 1552 Q683 1561 614 1591 Q553 1618 512 1618 Q493 1618 477 1609 Q447 1592 413 1546 L319 1622 Q413 1755 524 1755 Q542 1755 559 1751 Q593 1744 645 1720 Q721 1685 756 1685 Q800 1685 863 1755 L949 1669 Z " />
<glyph glyph-name="utilde" unicode="&#x169;" horiz-adv-x="1081" d="M911 0 L762 0 L760 125 Q677 62 620 33 Q522 -18 427 -18 Q347 -18 282 15 Q221 46 192 112 Q160 186 160 324 L160 1057 L317 1057 L317 301 Q317 206 346 163 Q382 111 466 111 Q581 111 754 240 L754 1057 L911 1057 L911 0 Z M850 1360 Q761 1239 660 1239 Q641 1239 622 1243 Q587 1251 534 1274 Q455 1309 414 1309 Q394 1309 378 1300 Q348 1283 314 1237 L220 1313 Q316 1446 425 1446 Q443 1446 460 1442 Q495 1434 564 1403 Q624 1376 658 1376 Q704 1376 764 1446 L850 1360 Z " />
<glyph glyph-name="Umacron" unicode="&#x16a;" horiz-adv-x="1268" d="M170 1366 L336 1366 L336 487 Q336 302 386 218 Q451 109 634 109 Q732 109 807 146 Q872 179 902 262 Q932 345 932 492 L932 1366 L1098 1366 L1098 463 Q1098 256 1024 143 Q915 -27 628 -27 Q495 -27 385 18 Q170 107 170 463 L170 1366 Z M915 1505 L353 1505 L353 1657 L915 1657 L915 1505 Z " />
<glyph glyph-name="umacron" unicode="&#x16b;" horiz-adv-x="1081" d="M911 0 L762 0 L760 125 Q677 62 620 33 Q522 -18 427 -18 Q347 -18 282 15 Q221 46 192 112 Q160 186 160 324 L160 1057 L317 1057 L317 301 Q317 206 346 163 Q382 111 466 111 Q581 111 754 240 L754 1057 L911 1057 L911 0 Z M819 1268 L257 1268 L257 1417 L819 1417 L819 1268 Z " />
<glyph glyph-name="Ubreve" unicode="&#x16c;" horiz-adv-x="1268" d="M170 1366 L336 1366 L336 487 Q336 302 386 218 Q451 109 634 109 Q732 109 807 146 Q872 179 902 262 Q932 345 932 492 L932 1366 L1098 1366 L1098 463 Q1098 256 1024 143 Q915 -27 628 -27 Q495 -27 385 18 Q170 107 170 463 L170 1366 Z M890 1696 Q886 1605 840 1549 Q769 1462 631 1462 Q514 1462 445.5 1523.5 Q377 1585 371 1696 L500 1696 Q515 1581 631 1581 Q689 1581 724.5 1612 Q760 1643 762 1696 L890 1696 Z " />
<glyph glyph-name="ubreve" unicode="&#x16d;" horiz-adv-x="1081" d="M911 0 L762 0 L760 125 Q677 62 620 33 Q522 -18 427 -18 Q347 -18 282 15 Q221 46 192 112 Q160 186 160 324 L160 1057 L317 1057 L317 301 Q317 206 346 163 Q382 111 466 111 Q581 111 754 240 L754 1057 L911 1057 L911 0 Z M796 1450 Q791 1359 746 1304 Q674 1217 536 1217 Q418 1217 350 1278 Q282 1339 276 1450 L405 1450 Q420 1335 535 1335 Q593 1335 629 1366.5 Q665 1398 667 1450 L796 1450 Z " />
<glyph glyph-name="Uring" unicode="&#x16e;" horiz-adv-x="1268" d="M170 1366 L336 1366 L336 487 Q336 302 386 218 Q451 109 634 109 Q732 109 807 146 Q872 179 902 262 Q932 345 932 492 L932 1366 L1098 1366 L1098 463 Q1098 256 1024 143 Q915 -27 628 -27 Q495 -27 385 18 Q170 107 170 463 L170 1366 Z M632 1800 Q676 1800 712 1786 Q767 1764 799 1718 Q831 1672 831 1616 Q831 1537 774 1484.5 Q717 1432 632 1432 Q548 1432 492.5 1483.5 Q437 1535 437 1614 Q437 1693 493 1746.5 Q549 1800 632 1800 Z M635 1710 Q593 1710 565.5 1683 Q538 1656 538 1616 Q538 1596 545 1579 Q569 1520 634 1520 Q655 1520 672 1527 Q730 1552 730 1614 Q730 1710 635 1710 Z " />
<glyph glyph-name="uring" unicode="&#x16f;" horiz-adv-x="1081" d="M911 0 L762 0 L760 125 Q677 62 620 33 Q522 -18 427 -18 Q347 -18 282 15 Q221 46 192 112 Q160 186 160 324 L160 1057 L317 1057 L317 301 Q317 206 346 163 Q382 111 466 111 Q581 111 754 240 L754 1057 L911 1057 L911 0 Z M535 1532 Q579 1532 614 1518 Q669 1496 701 1450 Q733 1404 733 1347 Q733 1269 676 1216 Q619 1163 534 1163 Q490 1163 454 1177 Q401 1199 370 1244 Q339 1289 339 1346 Q339 1425 395 1478.5 Q451 1532 535 1532 Z M539 1442 Q516 1442 499 1435 Q440 1411 440 1348 Q440 1307 468 1279 Q496 1251 536 1251 Q557 1251 574 1258 Q632 1283 632 1346 Q632 1442 539 1442 Z " />
<glyph glyph-name="Uhungarumlaut" unicode="&#x170;" horiz-adv-x="1268" d="M170 1366 L336 1366 L336 487 Q336 302 386 218 Q451 109 634 109 Q732 109 807 146 Q872 179 902 262 Q932 345 932 492 L932 1366 L1098 1366 L1098 463 Q1098 256 1024 143 Q915 -27 628 -27 Q495 -27 385 18 Q170 107 170 463 L170 1366 Z M989 1774 L823 1489 L686 1489 L807 1774 L989 1774 Z M682 1774 L516 1489 L379 1489 L500 1774 L682 1774 Z " />
<glyph glyph-name="uhungarumlaut" unicode="&#x171;" horiz-adv-x="1081" d="M911 0 L762 0 L760 125 Q677 62 620 33 Q522 -18 427 -18 Q347 -18 282 15 Q221 46 192 112 Q160 186 160 324 L160 1057 L317 1057 L317 301 Q317 206 346 163 Q382 111 466 111 Q581 111 754 240 L754 1057 L911 1057 L911 0 Z M898 1477 L732 1192 L595 1192 L716 1477 L898 1477 Z M590 1477 L424 1192 L288 1192 L408 1477 L590 1477 Z " />
<glyph glyph-name="Uogonek" unicode="&#x172;" horiz-adv-x="1268" d="M844 -205 L874 -324 Q785 -360 703 -360 Q621 -360 562 -329 Q494 -293 494 -204 Q494 -107 594 -27 Q396 -13 301 70 Q170 185 170 483 L170 1366 L336 1366 L336 508 Q336 302 387 216 Q451 109 635 109 Q734 109 808 147 Q873 180 902.5 267 Q932 354 932 512 L932 1366 L1098 1366 L1098 483 Q1096 47 799 -6 Q755 -18 700 -59 Q643 -102 643 -163 Q643 -185 652 -201 Q671 -236 731 -236 Q782 -236 844 -205 Z " />
<glyph glyph-name="uogonek" unicode="&#x173;" horiz-adv-x="1081" d="M952 -324 Q862 -360 780 -360 Q698 -360 639 -329 Q571 -293 571 -204 Q571 -130 614.5 -76 Q658 -22 758 27 L762 27 L760 125 Q677 62 620 33 Q522 -18 427 -18 Q347 -18 282 15 Q221 46 192 112 Q160 186 160 324 L160 1057 L317 1057 L317 301 Q317 206 346 163 Q382 111 466 111 Q581 111 754 240 L754 1057 L911 1057 L911 0 L906 0 Q882 0 846 -18 Q721 -80 721 -163 Q721 -185 730 -201 Q749 -236 809 -236 Q861 -236 922 -205 L952 -324 Z " />
<glyph glyph-name="Wcircumflex" unicode="&#x174;" horiz-adv-x="1528" d="M1499 1366 L1186 0 L1020 0 L799 922 Q772 1034 762 1174 Q749 1028 723 922 L500 0 L336 0 L29 1366 L197 1366 L391 457 Q404 396 424 221 Q439 350 465 457 L682 1366 L852 1366 L1067 457 Q1082 395 1110 221 Q1120 350 1143 457 L1339 1366 L1499 1366 Z M1032 1482 L890 1482 L749 1674 L612 1482 L474 1482 L640 1769 L864 1769 L1032 1482 Z " />
<glyph glyph-name="wcircumflex" unicode="&#x175;" horiz-adv-x="1348" d="M1319 1057 L1042 0 L889 0 L719 625 Q686 745 670 868 Q660 757 623 625 L449 0 L295 0 L27 1057 L190 1057 L340 406 Q366 293 375 195 Q388 313 414 406 L594 1057 L754 1057 L932 406 Q948 346 973 195 Q980 301 1004 406 L1155 1057 L1319 1057 Z M952 1190 L810 1190 L669 1382 L532 1190 L394 1190 L560 1477 L784 1477 L952 1190 Z " />
<glyph glyph-name="Ycircumflex" unicode="&#x176;" horiz-adv-x="1012" d="M1022 1366 L584 588 L584 0 L420 0 L420 588 L-10 1366 L172 1366 L371 999 Q444 864 469 809 Q494 754 512 688 Q540 795 651 999 L850 1366 L1022 1366 Z M785 1482 L643 1482 L502 1674 L365 1482 L227 1482 L393 1769 L617 1769 L785 1482 Z " />
<glyph glyph-name="ycircumflex" unicode="&#x177;" horiz-adv-x="872" d="M854 1057 L496 -90 Q448 -245 384 -303 Q310 -371 152 -371 Q110 -371 75 -366 Q53 -363 29 -356 L45 -229 Q97 -242 143 -242 Q261 -242 308 -146 Q326 -112 365 20 L12 1057 L186 1057 L362 500 Q370 476 387 424 Q432 289 444 193 Q465 287 528 506 L688 1057 L854 1057 Z M712 1190 L570 1190 L429 1382 L292 1190 L154 1190 L320 1477 L544 1477 L712 1190 Z " />
<glyph glyph-name="Zacute" unicode="&#x179;" horiz-adv-x="1026" d="M963 0 L72 0 L72 117 L762 1225 L117 1225 L117 1364 L948 1364 L948 1243 L258 137 L963 137 L963 0 Z M778 1741 L557 1489 L406 1489 L578 1741 L778 1741 Z " />
<glyph glyph-name="zacute" unicode="&#x17a;" horiz-adv-x="854" d="M788 0 L66 0 L66 109 L479 758 Q527 833 592 924 Q499 920 435 920 L119 920 L119 1057 L784 1057 L784 942 L362 274 Q315 200 258 129 L278 129 Q355 131 387 131 L788 131 L788 0 Z M651 1477 L483 1192 L335 1192 L456 1477 L651 1477 Z " />
<glyph glyph-name="Zdotaccent" unicode="&#x17b;" horiz-adv-x="1026" d="M963 0 L72 0 L72 117 L762 1225 L117 1225 L117 1364 L948 1364 L948 1243 L258 137 L963 137 L963 0 Z M631 1479 L451 1479 L451 1688 L631 1688 L631 1479 Z " />
<glyph glyph-name="zdotaccent" unicode="&#x17c;" horiz-adv-x="854" d="M788 0 L66 0 L66 109 L479 758 Q527 833 592 924 Q499 920 435 920 L119 920 L119 1057 L784 1057 L784 942 L362 274 Q315 200 258 129 L278 129 Q355 131 387 131 L788 131 L788 0 Z M550 1204 L370 1204 L370 1413 L550 1413 L550 1204 Z " />
<glyph glyph-name="Zcaron" unicode="&#x17d;" horiz-adv-x="1026" d="M963 0 L72 0 L72 117 L762 1225 L117 1225 L117 1364 L948 1364 L948 1243 L258 137 L963 137 L963 0 Z M827 1753 L647 1482 L419 1482 L237 1753 L376 1753 L536 1577 L690 1753 L827 1753 Z " />
<glyph glyph-name="zcaron" unicode="&#x17e;" horiz-adv-x="854" d="M788 0 L66 0 L66 109 L479 758 Q527 833 592 924 Q499 920 435 920 L119 920 L119 1057 L784 1057 L784 942 L362 274 Q315 200 258 129 L278 129 Q355 131 387 131 L788 131 L788 0 Z M739 1477 L585 1190 L337 1190 L181 1477 L321 1477 L464 1284 L599 1477 L739 1477 Z " />
<glyph glyph-name="longs" unicode="&#x17f;" horiz-adv-x="575" d="M598 1473 L584 1346 Q526 1360 474 1360 Q430 1360 397 1344 Q346 1319 346 1198 L346 0 L188 0 L188 920 L18 920 L18 1057 L188 1057 L188 1208 Q188 1359 264 1427 Q333 1487 449 1487 Q498 1487 598 1473 Z " />
<glyph glyph-name="uni01C4" unicode="&#x1c4;" horiz-adv-x="2275" d="M170 0 L170 1366 L514 1366 Q841 1366 992 1201 Q1137 1042 1137 714 Q1137 373 1039 216 Q983 125 897 79 Q751 0 506 0 L170 0 Z M336 1227 L336 139 L446 139 Q739 139 847 255 Q956 373 956 689 Q956 936 878 1061 Q775 1227 520 1227 L336 1227 Z M2212 0 L1321 0 L1321 117 L2011 1225 L1366 1225 L1366 1364 L2197 1364 L2197 1243 L1507 137 L2212 137 L2212 0 Z M2087 1755 L1907 1484 L1679 1484 L1497 1755 L1636 1755 L1796 1579 L1950 1755 L2087 1755 Z " />
<glyph glyph-name="uni01C5" unicode="&#x1c5;" horiz-adv-x="2103" d="M170 0 L170 1366 L514 1366 Q841 1366 992 1201 Q1137 1042 1137 714 Q1137 373 1039 216 Q983 125 897 79 Q751 0 506 0 L170 0 Z M336 1227 L336 139 L446 139 Q739 139 847 255 Q956 373 956 689 Q956 936 878 1061 Q775 1227 520 1227 L336 1227 Z M2037 0 L1315 0 L1315 109 L1728 758 Q1777 836 1841 924 Q1748 920 1684 920 L1368 920 L1368 1057 L2033 1057 L2033 942 L1611 274 Q1567 204 1507 129 L1527 129 Q1604 131 1636 131 L2037 131 L2037 0 Z M1988 1477 L1834 1190 L1586 1190 L1430 1477 L1570 1477 L1713 1284 L1848 1477 L1988 1477 Z " />
<glyph glyph-name="uni01C6" unicode="&#x1c6;" horiz-adv-x="1950" d="M928 0 L776 0 L772 123 Q693 47 624.5 14.5 Q556 -18 475 -18 Q390 -18 320 20 Q109 133 109 524 Q109 785 209 930 Q307 1073 485 1073 Q641 1073 770 952 L770 1415 L928 1415 L928 0 Z M770 256 L770 829 Q634 946 522 946 Q463 946 415 919 Q360 887 337 837 Q276 706 276 524 Q276 347 336 222 Q359 173 411 143 Q463 113 523 113 Q645 113 770 256 Z M1884 0 L1162 0 L1162 109 L1575 758 Q1618 825 1688 924 Q1595 920 1531 920 L1215 920 L1215 1057 L1880 1057 L1880 942 L1458 274 Q1413 203 1354 129 L1374 129 Q1451 131 1483 131 L1884 131 L1884 0 Z M1835 1477 L1681 1190 L1433 1190 L1277 1477 L1417 1477 L1560 1284 L1695 1477 L1835 1477 Z " />
<glyph glyph-name="uni01C7" unicode="&#x1c7;" horiz-adv-x="1809" d="M961 0 L170 0 L170 1366 L336 1366 L336 139 L961 139 L961 0 Z M1024 43 L1086 178 Q1210 107 1303 107 Q1356 107 1396 130 Q1437 153 1455 213 Q1473 273 1473 387 L1473 1366 L1639 1366 L1639 340 Q1639 169 1583 84 Q1508 -31 1306 -31 Q1147 -31 1024 43 Z " />
<glyph glyph-name="uni01C8" unicode="&#x1c8;" horiz-adv-x="1470" d="M961 0 L170 0 L170 1366 L336 1366 L336 139 L961 139 L961 0 Z M1302 1202 L1122 1202 L1122 1415 L1302 1415 L1302 1202 Z M891 -348 L907 -223 Q966 -242 1015 -242 Q1082 -242 1107.5 -202.5 Q1133 -163 1133 -61 L1133 1057 L1292 1057 L1292 -37 Q1292 -173 1258 -246 Q1201 -369 1035 -369 Q958 -369 891 -348 Z " />
<glyph glyph-name="uni01C9" unicode="&#x1c9;" horiz-adv-x="1010" d="M326 0 L168 0 L168 1415 L326 1415 L326 0 Z M842 1202 L662 1202 L662 1415 L842 1415 L842 1202 Z M431 -348 L447 -223 Q506 -242 555 -242 Q622 -242 647.5 -202.5 Q673 -163 673 -61 L673 1057 L832 1057 L832 -37 Q832 -173 798 -246 Q742 -369 575 -369 Q498 -369 431 -348 Z " />
<glyph glyph-name="uni01CA" unicode="&#x1ca;" horiz-adv-x="2083" d="M1116 0 L907 0 L414 971 Q405 990 388 1020 Q337 1116 324 1174 Q334 1108 334 1036 L334 0 L170 0 L170 1366 L387 1366 L887 373 Q915 318 965 190 Q954 278 954 356 L954 1366 L1116 1366 L1116 0 Z M1298 43 L1360 178 Q1484 107 1577 107 Q1630 107 1670 130 Q1711 153 1729 213 Q1747 273 1747 387 L1747 1366 L1913 1366 L1913 340 Q1913 169 1857 84 Q1782 -31 1580 -31 Q1421 -31 1298 43 Z " />
<glyph glyph-name="uni01CB" unicode="&#x1cb;" horiz-adv-x="1802" d="M1116 0 L907 0 L414 971 Q405 990 388 1020 Q337 1116 324 1174 Q334 1108 334 1036 L334 0 L170 0 L170 1366 L387 1366 L887 373 Q915 318 965 190 Q954 278 954 356 L954 1366 L1116 1366 L1116 0 Z M1634 1202 L1454 1202 L1454 1415 L1634 1415 L1634 1202 Z M1223 -348 L1239 -223 Q1299 -242 1347 -242 Q1414 -242 1439.5 -202.5 Q1465 -163 1465 -61 L1465 1057 L1624 1057 L1624 -37 Q1624 -173 1590 -246 Q1534 -369 1367 -369 Q1290 -369 1223 -348 Z " />
<glyph glyph-name="uni01CC" unicode="&#x1cc;" horiz-adv-x="1595" d="M920 0 L762 0 L762 756 Q762 946 610 946 Q496 946 326 815 L326 0 L168 0 L168 1057 L317 1057 L319 932 Q402 994 458 1023 Q555 1073 651 1073 Q730 1073 796 1040 Q860 1008 890 933 Q920 858 920 731 L920 0 Z M1427 1202 L1247 1202 L1247 1415 L1427 1415 L1427 1202 Z M1016 -348 L1032 -223 Q1091 -242 1140 -242 Q1207 -242 1232.5 -203 Q1258 -164 1258 -61 L1258 1057 L1417 1057 L1417 -37 Q1417 -173 1383 -246 Q1327 -369 1160 -369 Q1083 -369 1016 -348 Z " />
<glyph glyph-name="uni01CD" unicode="&#x1cd;" horiz-adv-x="1071" d="M1055 0 L877 0 L766 391 L299 391 L190 0 L18 0 L428 1366 L645 1366 L1055 0 Z M731 530 L586 1040 L532 1231 L479 1040 L334 530 L731 530 Z M815 1769 L661 1482 L414 1482 L257 1769 L397 1769 L541 1576 L676 1769 L815 1769 Z " />
<glyph glyph-name="uni01CE" unicode="&#x1ce;" horiz-adv-x="1008" d="M848 0 L700 0 L700 127 Q579 -18 391 -18 Q254 -18 174 63 Q94 145 94 273 Q94 514 365 609 Q481 650 692 676 L692 752 Q692 845 638 898 Q581 954 481 954 Q399 954 341.5 920 Q284 886 233 807 L100 889 Q151 961 198 997 Q311 1083 487 1083 Q618 1083 715 1032 Q848 962 848 762 L848 0 Z M692 266 L692 561 Q535 542 447 512 Q254 444 254 285 Q254 244 268 208 Q308 109 426 109 Q580 109 692 266 Z M750 1477 L596 1190 L348 1190 L192 1477 L332 1477 L475 1284 L610 1477 L750 1477 Z " />
<glyph glyph-name="uni01CF" unicode="&#x1cf;" horiz-adv-x="506" d="M336 0 L170 0 L170 1366 L336 1366 L336 0 Z M535 1772 L381 1485 L133 1485 L-23 1772 L117 1772 L260 1579 L395 1772 L535 1772 Z " />
<glyph glyph-name="uni01D0" unicode="&#x1d0;" horiz-adv-x="516" d="M338 0 L180 0 L180 1057 L338 1057 L338 0 Z M538 1477 L384 1190 L136 1190 L-20 1477 L120 1477 L263 1284 L398 1477 L538 1477 Z " />
<glyph glyph-name="uni01D1" unicode="&#x1d1;" horiz-adv-x="1298" d="M651 1395 Q784 1395 882 1345 Q1029 1269 1109 1100 Q1186 937 1186 685 Q1186 408 1089 232 Q945 -29 650 -29 Q400 -29 257 162 Q113 355 113 683 Q113 1017 256 1204 Q402 1395 651 1395 Z M647 1260 Q561 1260 497 1223 Q295 1105 295 685 Q295 528 329 393 Q363 260 449 181 Q529 107 650 107 Q734 107 798 143 Q1004 258 1004 681 L1003 746 Q1003 839 977 941 Q951 1043 910 1108 Q816 1260 647 1260 Z M936 1768 L782 1481 L534 1481 L378 1768 L518 1768 L661 1575 L796 1768 L936 1768 Z " />
<glyph glyph-name="uni01D2" unicode="&#x1d2;" horiz-adv-x="1071" d="M546 1083 Q666 1083 758 1031 Q844 983 885 902 Q964 747 964 529 Q964 -27 530 -27 Q406 -27 311 24 Q227 69 185 152 Q108 305 108 518 Q108 770 198 910 Q309 1083 546 1083 Z M536 952 Q467 952 415 923 Q359 890 333 838 Q271 711 271 521 Q271 339 310 246 Q369 104 532 104 Q616 104 673 142 Q739 185 769.5 277 Q800 369 800 522 Q800 690 772 778 Q718 952 536 952 Z M815 1477 L661 1190 L413 1190 L257 1477 L397 1477 L540 1284 L675 1477 L815 1477 Z " />
<glyph glyph-name="uni01D3" unicode="&#x1d3;" horiz-adv-x="1268" d="M170 1366 L336 1366 L336 487 Q336 302 386 218 Q451 109 634 109 Q732 109 807 146 Q872 179 902 262 Q932 345 932 492 L932 1366 L1098 1366 L1098 463 Q1098 256 1024 143 Q915 -27 628 -27 Q495 -27 385 18 Q170 107 170 463 L170 1366 Z M895 1769 L741 1482 L493 1482 L337 1769 L477 1769 L620 1576 L755 1769 L895 1769 Z " />
<glyph glyph-name="uni01D4" unicode="&#x1d4;" horiz-adv-x="1081" d="M911 0 L762 0 L760 125 Q677 62 620 33 Q522 -18 427 -18 Q347 -18 282 15 Q221 46 192 112 Q160 186 160 324 L160 1057 L317 1057 L317 301 Q317 206 346 163 Q382 111 466 111 Q581 111 754 240 L754 1057 L911 1057 L911 0 Z M815 1477 L661 1190 L413 1190 L257 1477 L396 1477 L540 1284 L675 1477 L815 1477 Z " />
<glyph glyph-name="Gcaron" unicode="&#x1e6;" horiz-adv-x="1270" d="M1126 961 L954 940 Q930 1078 878 1152 Q800 1262 644 1262 Q557 1262 489 1224 Q411 1180 378 1109 Q293 924 293 670 Q293 433 373 263 Q404 196 475 155.5 Q546 115 631 115 Q724 115 799 157 Q874 199 954 297 L954 524 L651 524 L651 664 L1116 664 L1116 0 L983 0 L969 143 L957 132 Q895 76 881 63 Q838 22 763 -3.5 Q688 -29 610 -29 Q368 -29 239 154 Q113 333 113 659 Q113 1003 249 1197 Q388 1395 649 1395 Q847 1395 968.5 1284.5 Q1090 1174 1126 961 Z M924 1769 L770 1482 L522 1482 L366 1769 L506 1769 L649 1576 L784 1769 L924 1769 Z " />
<glyph glyph-name="gcaron" unicode="&#x1e7;" horiz-adv-x="1040" d="M989 981 L987 981 Q986 981 983 981 Q978 981 971 982 Q968 982 965 982 Q954 983 942 983 Q907 983 874 970 Q848 960 821 938 Q901 831 901 701 Q901 537 794 434 Q688 332 523 332 Q483 332 445 339 Q402 346 346 367 Q274 338 274 296 Q274 252 340 232 Q359 226 498 197 L684 158 Q827 128 894 82 Q989 17 989 -108 Q989 -188 952 -246 Q853 -399 526 -399 Q427 -399 341 -383 Q209 -359 139.5 -297 Q70 -235 70 -142 Q70 -72 106 -19 Q154 50 266 102 Q131 145 131 256 Q131 288 143 313 Q172 373 276 401 Q224 434 198 467 Q129 555 129 707 Q129 794 160 868 Q200 966 296 1024.5 Q392 1083 512 1083 Q644 1083 756 1006 Q807 1072 848.5 1091 Q890 1110 989 1114 L989 981 Z M513 961 Q456 961 414 940 Q293 881 293 709 Q293 650 310 598 Q332 531 385.5 494 Q439 457 514 457 Q568 457 613 477 Q731 530 731 704 Q731 822 672 891.5 Q613 961 513 961 Z M377 66 Q213 -16 213 -121 Q213 -151 227 -176 Q248 -210 277 -224 Q378 -268 524 -268 Q669 -268 744 -231 Q819 -194 819 -123 Q819 -111 817 -102 Q797 -14 592 25 L377 66 Z M809 1477 L655 1190 L407 1190 L250 1477 L390 1477 L534 1284 L669 1477 L809 1477 Z " />
<glyph glyph-name="uni01EA" unicode="&#x1ea;" horiz-adv-x="1298" d="M795 -205 L825 -324 Q735 -360 653 -360 Q572 -360 513 -329 Q445 -294 445 -202 Q445 -97 549 -20 Q413 5 316 96 Q113 288 113 683 Q113 1012 256 1204 Q399 1395 652 1395 Q782 1395 882 1345 Q1028 1271 1109 1100 Q1186 937 1186 686 Q1186 646 1184 608 Q1169 332 1043 162 Q967 58 876 18 Q870 15 723 -36 Q594 -81 594 -163 Q594 -184 603 -201 Q623 -236 682 -236 Q733 -236 795 -205 Z M647 1260 Q561 1260 497 1223 Q295 1105 295 685 Q295 528 329 393 Q363 260 449 181 Q529 107 650 107 Q734 107 798 143 Q1004 258 1004 681 L1003 746 Q1003 839 977 941 Q951 1043 910 1108 Q816 1260 647 1260 Z " />
<glyph glyph-name="uni01EB" unicode="&#x1eb;" horiz-adv-x="1071" d="M430 -17 Q360 -3 311 24 Q226 71 185 152 Q108 307 108 518 Q108 767 198 910 Q307 1083 544 1083 Q664 1083 758 1031 Q844 984 885 902 Q964 744 964 518 Q964 457 958 401 Q939 231 863 118 Q822 57 771 33 Q764 29 594 -30 Q471 -73 471 -164 Q471 -185 480 -201 Q500 -236 559 -236 Q610 -236 672 -205 L702 -324 Q612 -360 531 -360 Q449 -360 390 -329 Q322 -293 322 -203 Q322 -98 430 -17 Z M536 952 Q467 952 415 923 Q359 890 333 838 Q271 711 271 521 Q271 339 310 246 Q369 104 531 104 Q616 104 673 142 Q739 185 769.5 277 Q800 369 800 522 Q800 690 772 778 Q718 952 536 952 Z " />
<glyph glyph-name="uni01F1" unicode="&#x1f1;" horiz-adv-x="2275" d="M170 0 L170 1366 L514 1366 Q841 1366 992 1201 Q1137 1042 1137 714 Q1137 373 1039 216 Q983 125 897 79 Q751 0 506 0 L170 0 Z M336 1227 L336 139 L446 139 Q739 139 847 255 Q956 373 956 689 Q956 936 878 1061 Q775 1227 520 1227 L336 1227 Z M2212 0 L1321 0 L1321 117 L2011 1225 L1366 1225 L1366 1364 L2197 1364 L2197 1243 L1507 137 L2212 137 L2212 0 Z " />
<glyph glyph-name="uni01F2" unicode="&#x1f2;" horiz-adv-x="2103" d="M170 0 L170 1366 L514 1366 Q841 1366 992 1201 Q1137 1042 1137 714 Q1137 373 1039 216 Q983 125 897 79 Q751 0 506 0 L170 0 Z M336 1227 L336 139 L446 139 Q739 139 847 255 Q956 373 956 689 Q956 936 878 1061 Q775 1227 520 1227 L336 1227 Z M2037 0 L1315 0 L1315 109 L1728 758 Q1777 836 1841 924 Q1748 920 1684 920 L1368 920 L1368 1057 L2033 1057 L2033 942 L1611 274 Q1567 204 1507 129 L1527 129 Q1604 131 1636 131 L2037 131 L2037 0 Z " />
<glyph glyph-name="uni01F3" unicode="&#x1f3;" horiz-adv-x="1950" d="M928 0 L776 0 L772 123 Q693 47 624.5 14.5 Q556 -18 475 -18 Q390 -18 320 20 Q109 133 109 524 Q109 785 209 930 Q307 1073 485 1073 Q641 1073 770 952 L770 1415 L928 1415 L928 0 Z M770 256 L770 829 Q634 946 522 946 Q463 946 415 919 Q360 887 337 837 Q276 706 276 524 Q276 347 336 222 Q359 173 411 143 Q463 113 523 113 Q645 113 770 256 Z M1884 0 L1162 0 L1162 109 L1575 758 Q1618 825 1688 924 Q1595 920 1531 920 L1215 920 L1215 1057 L1880 1057 L1880 942 L1458 274 Q1413 203 1354 129 L1374 129 Q1451 131 1483 131 L1884 131 L1884 0 Z " />
<glyph glyph-name="uni01F4" unicode="&#x1f4;" horiz-adv-x="1270" d="M1126 961 L954 940 Q930 1078 878 1152 Q800 1262 644 1262 Q557 1262 489 1224 Q411 1180 378 1109 Q293 924 293 670 Q293 433 373 263 Q404 196 475 155.5 Q546 115 631 115 Q724 115 799 157 Q874 199 954 297 L954 524 L651 524 L651 664 L1116 664 L1116 0 L983 0 L969 143 L957 132 Q895 76 881 63 Q838 22 763 -3.5 Q688 -29 610 -29 Q368 -29 239 154 Q113 333 113 659 Q113 1003 249 1197 Q388 1395 649 1395 Q847 1395 968.5 1284.5 Q1090 1174 1126 961 Z M897 1741 L676 1489 L525 1489 L697 1741 L897 1741 Z " />
<glyph glyph-name="uni01F5" unicode="&#x1f5;" horiz-adv-x="1040" d="M989 981 L987 981 Q986 981 983 981 Q978 981 971 982 Q968 982 965 982 Q954 983 942 983 Q907 983 874 970 Q848 960 821 938 Q901 831 901 701 Q901 537 794 434 Q688 332 523 332 Q483 332 445 339 Q402 346 346 367 Q274 338 274 296 Q274 252 340 232 Q359 226 498 197 L684 158 Q827 128 894 82 Q989 17 989 -108 Q989 -188 952 -246 Q853 -399 526 -399 Q427 -399 341 -383 Q209 -359 139.5 -297 Q70 -235 70 -142 Q70 -72 106 -19 Q154 50 266 102 Q131 145 131 256 Q131 288 143 313 Q172 373 276 401 Q224 434 198 467 Q129 555 129 707 Q129 794 160 868 Q200 966 296 1024.5 Q392 1083 512 1083 Q644 1083 756 1006 Q807 1072 848.5 1091 Q890 1110 989 1114 L989 981 Z M513 961 Q456 961 414 940 Q293 881 293 709 Q293 650 310 598 Q332 531 385.5 494 Q439 457 514 457 Q568 457 613 477 Q731 530 731 704 Q731 822 672 891.5 Q613 961 513 961 Z M377 66 Q213 -16 213 -121 Q213 -151 227 -176 Q248 -210 277 -224 Q378 -268 524 -268 Q669 -268 744 -231 Q819 -194 819 -123 Q819 -111 817 -102 Q797 -14 592 25 L377 66 Z M740 1477 L572 1192 L424 1192 L545 1477 L740 1477 Z " />
<glyph glyph-name="Aringacute" unicode="&#x1fa;" horiz-adv-x="1071" d="M1055 0 L877 0 L766 391 L299 391 L190 0 L18 0 L428 1366 L645 1366 L1055 0 Z M731 530 L586 1040 L532 1231 L479 1040 L334 530 L731 530 Z M496 2037 L328 1752 L180 1752 L301 2037 L496 2037 Z M536 1841 Q580 1841 615 1827 Q671 1804 702.5 1758.5 Q734 1713 734 1656 Q734 1577 677 1524.5 Q620 1472 535 1472 Q451 1472 395.5 1524 Q340 1576 340 1655 Q340 1734 396 1787.5 Q452 1841 536 1841 Z M540 1751 Q517 1751 500 1744 Q441 1720 441 1657 Q441 1616 469 1588 Q497 1560 537 1560 Q557 1560 575 1567 Q633 1592 633 1655 Q633 1751 540 1751 Z " />
<glyph glyph-name="aringacute" unicode="&#x1fb;" horiz-adv-x="1008" d="M848 0 L700 0 L700 127 Q579 -18 391 -18 Q254 -18 174 63 Q94 145 94 273 Q94 514 365 609 Q481 650 692 676 L692 752 Q692 845 638 898 Q581 954 481 954 Q399 954 341.5 920 Q284 886 233 807 L100 889 Q151 961 198 997 Q311 1083 487 1083 Q618 1083 715 1032 Q848 962 848 762 L848 0 Z M692 266 L692 561 Q535 542 447 512 Q254 444 254 285 Q254 244 268 208 Q308 109 426 109 Q580 109 692 266 Z M466 1728 L298 1443 L150 1443 L271 1728 L466 1728 Z M469 1489 Q513 1489 549 1475 Q604 1453 636 1407 Q668 1361 668 1304 Q668 1226 611 1173 Q554 1120 469 1120 Q425 1120 389 1134 Q336 1155 305 1200.5 Q274 1246 274 1303 Q274 1382 330 1435.5 Q386 1489 469 1489 Z M473 1399 Q431 1399 403 1372 Q375 1345 375 1305 Q375 1264 403 1236 Q431 1208 471 1208 Q491 1208 509 1215 Q567 1240 567 1303 Q567 1399 473 1399 Z " />
<glyph glyph-name="AEacute" unicode="&#x1fc;" horiz-adv-x="1599" d="M1538 0 L764 0 L764 383 L369 383 L172 0 L-20 0 L702 1366 L1491 1366 L1491 1227 L930 1227 L930 770 L1376 770 L1376 631 L930 631 L930 139 L1538 139 L1538 0 Z M772 1182 L434 526 L764 526 L764 611 Q764 668 770 1081 L772 1182 Z M1336 1741 L1115 1489 L964 1489 L1136 1741 L1336 1741 Z " />
<glyph glyph-name="aeacute" unicode="&#x1fd;" horiz-adv-x="1602" d="M1497 240 Q1472 177 1433 130 Q1307 -27 1097 -27 Q973 -27 875 28 Q809 66 756 158 Q694 86 640 50 Q528 -25 392 -25 Q320 -25 260 -1 Q184 29 139 103 Q94 177 94 270 Q94 371 140 445 Q196 534 316.5 584.5 Q437 635 684 672 Q687 708 691 743 Q693 765 693 778 Q693 810 683 837 Q662 891 609 922.5 Q556 954 484 954 Q313 954 233 807 L109 885 Q158 958 206 995 Q318 1083 489 1083 Q607 1083 697 1036 Q750 1008 793 938 Q832 990 869 1016 Q961 1083 1099 1083 Q1308 1083 1407 928 Q1489 800 1489 600 L1489 506 L836 506 Q838 322 882 232 Q944 104 1096 104 Q1192 104 1252.5 151.5 Q1313 199 1356 307 L1497 240 Z M1327 635 Q1316 952 1092 952 Q977 952 915 875.5 Q853 799 836 635 L1327 635 Z M700 270 Q676 365 676 495 L677 539 Q677 544 678 557 Q514 531 433 501 Q254 433 254 279 Q254 238 268 201 Q307 100 418 100 Q548 100 700 270 Z M1012 1477 L844 1192 L696 1192 L817 1477 L1012 1477 Z " />
<glyph glyph-name="Oslashacute" unicode="&#x1fe;" horiz-adv-x="1298" d="M1243 1376 Q1170 1284 1075 1159 Q1114 1091 1133 1038 Q1186 890 1186 687 Q1186 389 1068 199 Q926 -29 649 -29 Q548 -29 465 3 Q394 29 322 90 Q255 -13 190 -109 L57 -12 Q113 61 221 211 Q182 281 162 337 Q111 484 111 682 Q111 840 148 981 Q197 1166 322 1279 Q450 1395 652 1395 Q837 1395 973 1282 L984 1299 L1028 1365 L1084 1448 L1104 1477 L1243 1376 Z M881 1147 Q787 1260 644 1260 Q499 1260 413 1160 Q360 1098 327.5 968.5 Q295 839 295 688 Q295 509 336 371 L381 432 Q617 756 677.5 842.5 Q738 929 881 1147 Z M958 997 Q705 661 412 221 Q507 106 650 106 Q795 106 882 206 Q942 273 974 421 Q1001 543 1001 678 Q1001 861 958 997 Z M919 1741 L698 1489 L547 1489 L719 1741 L919 1741 Z " />
<glyph glyph-name="oslashacute" unicode="&#x1ff;" horiz-adv-x="1071" d="M1053 1083 L893 885 Q963 739 963 526 Q963 312 884 156 Q843 74 758 27 Q661 -27 533 -27 Q449 -27 373 0 Q319 20 262 70 L131 -106 L18 -23 Q89 62 180 178 Q111 323 111 527 Q111 772 203 914 Q313 1083 545 1083 Q702 1083 809 993 L938 1165 L1053 1083 Z M719 874 Q654 952 542 952 Q426 952 360 877 Q321 831 296.5 733.5 Q272 636 272 523 Q272 410 293 322 Q536 633 719 874 Z M780 741 Q558 457 352 186 Q421 104 534 104 Q697 104 758 248 Q799 346 799 522 Q799 649 780 741 Z M746 1477 L578 1192 L430 1192 L551 1477 L746 1477 Z " />
<glyph glyph-name="uni0200" unicode="&#x200;" horiz-adv-x="1071" d="M1055 0 L877 0 L766 391 L299 391 L190 0 L18 0 L428 1366 L645 1366 L1055 0 Z M731 530 L586 1040 L532 1231 L479 1040 L334 530 L731 530 Z M151 1768 L333 1768 L454 1483 L317 1483 L151 1768 Z M458 1768 L640 1768 L761 1483 L624 1483 L458 1768 Z " />
<glyph glyph-name="uni0201" unicode="&#x201;" horiz-adv-x="1008" d="M848 0 L700 0 L700 127 Q579 -18 391 -18 Q254 -18 174 63 Q94 145 94 273 Q94 514 365 609 Q481 650 692 676 L692 752 Q692 845 638 898 Q581 954 481 954 Q399 954 341.5 920 Q284 886 233 807 L100 889 Q151 961 198 997 Q311 1083 487 1083 Q618 1083 715 1032 Q848 962 848 762 L848 0 Z M692 266 L692 561 Q535 542 447 512 Q254 444 254 285 Q254 244 268 208 Q308 109 426 109 Q580 109 692 266 Z M136 1477 L318 1477 L439 1192 L302 1192 L136 1477 Z M443 1477 L625 1477 L746 1192 L609 1192 L443 1477 Z " />
<glyph glyph-name="uni0202" unicode="&#x202;" horiz-adv-x="1071" d="M797 1480 L669 1480 Q667 1533 631.5 1564 Q596 1595 537 1595 Q422 1595 407 1480 L278 1480 Q283 1571 328 1627 Q400 1714 538 1714 Q597 1714 650 1695 Q790 1646 797 1480 Z M1055 0 L877 0 L766 391 L299 391 L190 0 L18 0 L428 1366 L645 1366 L1055 0 Z M731 530 L586 1040 L532 1231 L479 1040 L334 530 L731 530 Z " />
<glyph glyph-name="uni0203" unicode="&#x203;" horiz-adv-x="1008" d="M758 1209 L629 1209 Q627 1262 591.5 1293 Q556 1324 497 1324 Q456 1324 425 1309 Q377 1285 367 1209 L238 1209 Q243 1300 289 1355 Q360 1443 498 1443 Q558 1443 611 1424 Q750 1375 758 1209 Z M848 0 L700 0 L700 127 Q579 -18 391 -18 Q254 -18 174 63 Q94 145 94 273 Q94 514 365 609 Q481 650 692 676 L692 752 Q692 845 638 898 Q581 954 481 954 Q399 954 341.5 920 Q284 886 233 807 L100 889 Q151 961 198 997 Q311 1083 487 1083 Q618 1083 715 1032 Q848 962 848 762 L848 0 Z M692 266 L692 561 Q535 542 447 512 Q254 444 254 285 Q254 244 268 208 Q308 109 426 109 Q580 109 692 266 Z " />
<glyph glyph-name="uni0204" unicode="&#x204;" horiz-adv-x="1067" d="M1006 0 L170 0 L170 1366 L958 1366 L958 1227 L336 1227 L336 772 L840 772 L840 633 L336 633 L336 139 L1006 139 L1006 0 Z M180 1768 L362 1768 L483 1483 L346 1483 L180 1768 Z M487 1768 L670 1768 L790 1483 L653 1483 L487 1768 Z " />
<glyph glyph-name="uni0205" unicode="&#x205;" horiz-adv-x="1036" d="M180 1475 L362 1475 L483 1190 L346 1190 L180 1475 Z M487 1475 L670 1475 L790 1190 L653 1190 L487 1475 Z M936 240 Q888 138 836 86 Q723 -27 528 -27 Q410 -27 316 25 Q230 73 188 156 Q109 312 109 527 Q109 675 150 803 Q192 934 304 1013 Q404 1083 542 1083 Q649 1083 725 1042 Q827 986 881 861 Q928 753 928 596 L928 506 L274 506 Q278 394 290 335.5 Q302 277 334 217 Q395 104 535 104 Q626 104 687 151.5 Q748 199 795 307 L936 240 Z M766 635 Q762 764 721 840 Q660 952 533 952 Q418 952 355 875.5 Q292 799 274 635 L766 635 Z " />
<glyph glyph-name="uni0206" unicode="&#x206;" horiz-adv-x="1067" d="M1006 0 L170 0 L170 1366 L958 1366 L958 1227 L336 1227 L336 772 L840 772 L840 633 L336 633 L336 139 L1006 139 L1006 0 Z M837 1487 L708 1487 Q706 1540 670.5 1571 Q635 1602 577 1602 Q535 1602 504 1587 Q457 1564 446 1487 L317 1487 Q323 1578 368 1633 Q440 1721 578 1721 Q637 1721 690 1702 Q829 1653 837 1487 Z " />
<glyph glyph-name="uni0207" unicode="&#x207;" horiz-adv-x="1036" d="M837 1195 L709 1195 Q706 1248 670.5 1279 Q635 1310 577 1310 Q462 1310 446 1195 L317 1195 Q323 1286 368 1342 Q440 1429 578 1429 Q637 1429 690 1410 Q829 1361 837 1195 Z M936 240 Q888 138 836 86 Q723 -27 528 -27 Q410 -27 316 25 Q230 73 188 156 Q109 312 109 527 Q109 675 150 803 Q192 934 304 1013 Q404 1083 542 1083 Q649 1083 725 1042 Q827 986 881 861 Q928 753 928 596 L928 506 L274 506 Q278 394 290 335.5 Q302 277 334 217 Q395 104 535 104 Q626 104 687 151.5 Q748 199 795 307 L936 240 Z M766 635 Q762 764 721 840 Q660 952 533 952 Q418 952 355 875.5 Q292 799 274 635 L766 635 Z " />
<glyph glyph-name="uni0208" unicode="&#x208;" horiz-adv-x="506" d="M336 0 L170 0 L170 1366 L336 1366 L336 0 Z M-101 1764 L81 1764 L202 1479 L65 1479 L-101 1764 Z M206 1764 L388 1764 L509 1479 L372 1479 L206 1764 Z " />
<glyph glyph-name="uni0209" unicode="&#x209;" horiz-adv-x="516" d="M-101 1465 L81 1465 L202 1180 L65 1180 L-101 1465 Z M206 1465 L388 1465 L509 1180 L372 1180 L206 1465 Z M338 0 L180 0 L180 1057 L338 1057 L338 0 Z " />
<glyph glyph-name="uni020A" unicode="&#x20a;" horiz-adv-x="506" d="M537 1491 L408 1491 Q406 1544 370.5 1575 Q335 1606 276 1606 Q162 1606 146 1491 L17 1491 Q22 1582 68 1637 Q140 1725 277 1725 Q337 1725 390 1706 Q529 1657 537 1491 Z M336 0 L170 0 L170 1366 L336 1366 L336 0 Z " />
<glyph glyph-name="uni020B" unicode="&#x20b;" horiz-adv-x="516" d="M537 1188 L408 1188 Q406 1241 370.5 1272 Q335 1303 277 1303 Q162 1303 146 1188 L17 1188 Q22 1279 68 1335 Q140 1422 277 1422 Q337 1422 390 1403 Q529 1354 537 1188 Z M337 0 L179 0 L179 1057 L337 1057 L337 0 Z " />
<glyph glyph-name="uni020C" unicode="&#x20c;" horiz-adv-x="1298" d="M651 1395 Q784 1395 882 1345 Q1029 1269 1109 1100 Q1186 937 1186 685 Q1186 408 1089 232 Q945 -29 650 -29 Q400 -29 257 162 Q113 355 113 683 Q113 1017 256 1204 Q402 1395 651 1395 Z M647 1260 Q561 1260 497 1223 Q295 1105 295 685 Q295 528 329 393 Q363 260 449 181 Q529 107 650 107 Q734 107 798 143 Q1004 258 1004 681 L1003 746 Q1003 839 977 941 Q951 1043 910 1108 Q816 1260 647 1260 Z M263 1772 L445 1772 L566 1486 L429 1486 L263 1772 Z M571 1772 L753 1772 L874 1486 L737 1486 L571 1772 Z " />
<glyph glyph-name="uni020D" unicode="&#x20d;" horiz-adv-x="1071" d="M174 1465 L356 1465 L477 1180 L340 1180 L174 1465 Z M481 1465 L663 1465 L784 1180 L647 1180 L481 1465 Z M550 1083 Q670 1083 762 1031 Q848 983 889 902 Q968 747 968 529 Q968 -27 534 -27 Q410 -27 315 24 Q231 69 189 152 Q112 305 112 518 Q112 770 202 910 Q313 1083 550 1083 Z M536 952 Q467 952 415 923 Q271 840 271 521 Q271 339 310 246 Q369 104 531 104 Q616 104 673 142 Q739 185 769.5 277 Q800 369 800 522 Q800 690 772 778 Q718 952 536 952 Z " />
<glyph glyph-name="uni020E" unicode="&#x20e;" horiz-adv-x="1298" d="M651 1395 Q784 1395 882 1345 Q1029 1269 1109 1100 Q1186 937 1186 685 Q1186 408 1089 232 Q945 -29 650 -29 Q400 -29 257 162 Q113 355 113 683 Q113 1017 256 1204 Q402 1395 651 1395 Z M647 1260 Q561 1260 497 1223 Q295 1105 295 685 Q295 528 329 393 Q363 260 449 181 Q529 107 650 107 Q734 107 798 143 Q1004 258 1004 681 L1003 746 Q1003 839 977 941 Q951 1043 910 1108 Q816 1260 647 1260 Z M909 1491 L781 1491 Q779 1544 743.5 1575 Q708 1606 649 1606 Q534 1606 519 1491 L389 1491 Q395 1582 440 1637 Q512 1725 650 1725 Q709 1725 762 1706 Q902 1657 909 1491 Z " />
<glyph glyph-name="uni020F" unicode="&#x20f;" horiz-adv-x="1071" d="M787 1209 L658 1209 Q656 1262 620.5 1293 Q585 1324 526 1324 Q485 1324 454 1309 Q406 1285 396 1209 L267 1209 Q272 1300 318 1355 Q389 1443 527 1443 Q587 1443 639 1424 Q779 1375 787 1209 Z M546 1083 Q666 1083 758 1031 Q844 983 885 902 Q964 747 964 529 Q964 -27 530 -27 Q406 -27 311 24 Q227 69 185 152 Q108 305 108 518 Q108 770 198 910 Q309 1083 546 1083 Z M536 952 Q467 952 415 923 Q359 890 333 838 Q271 711 271 521 Q271 339 310 246 Q369 104 532 104 Q616 104 673 142 Q739 185 769.5 277 Q800 369 800 522 Q800 690 772 778 Q718 952 536 952 Z " />
<glyph glyph-name="uni0210" unicode="&#x210;" horiz-adv-x="1155" d="M1081 0 L889 0 L619 608 L336 608 L336 0 L170 0 L170 1366 L584 1366 Q807 1366 919 1296 Q1057 1210 1057 1000 Q1057 924 1035 856 Q979 682 780 635 L1081 0 Z M336 1227 L336 748 L559 748 Q722 748 796 800 Q874 855 874 990 Q874 1122 804.5 1174.5 Q735 1227 559 1227 L336 1227 Z M141 1761 L323 1761 L444 1476 L307 1476 L141 1761 Z M448 1761 L630 1761 L751 1476 L614 1476 L448 1761 Z " />
<glyph glyph-name="uni0211" unicode="&#x211;" horiz-adv-x="711" d="M32 1468 L214 1468 L335 1183 L198 1183 L32 1468 Z M339 1468 L521 1468 L642 1183 L505 1183 L339 1468 Z M690 913 Q646 913 600 905 Q451 880 326 637 L326 0 L168 0 L168 1057 L322 1057 L322 838 Q379 933 423 980 Q467 1027 521 1049 Q602 1082 690 1081 L690 913 Z " />
<glyph glyph-name="uni0212" unicode="&#x212;" horiz-adv-x="1155" d="M1081 0 L889 0 L619 608 L336 608 L336 0 L170 0 L170 1366 L584 1366 Q807 1366 919 1296 Q1057 1210 1057 999 Q1057 854 986 760.5 Q915 667 780 635 L1081 0 Z M336 1227 L336 748 L559 748 Q722 748 796 800 Q874 855 874 990 Q874 1122 804.5 1174.5 Q735 1227 559 1227 L336 1227 Z M798 1491 L669 1491 Q667 1544 631.5 1575 Q596 1606 537 1606 Q496 1606 465 1591 Q417 1567 407 1491 L278 1491 Q283 1582 329 1637 Q400 1725 538 1725 Q598 1725 650 1706 Q790 1657 798 1491 Z " />
<glyph glyph-name="uni0213" unicode="&#x213;" horiz-adv-x="711" d="M696 1213 L567 1213 Q565 1266 529.5 1297 Q494 1328 436 1328 Q321 1328 305 1213 L176 1213 Q182 1304 227 1359 Q299 1447 437 1447 Q496 1447 549 1428 Q689 1379 696 1213 Z M690 913 Q646 913 600 905 Q451 880 326 637 L326 0 L168 0 L168 1057 L322 1057 L322 838 Q381 935 424 981 Q467 1027 521 1049 Q601 1082 690 1081 L690 913 Z " />
<glyph glyph-name="uni0214" unicode="&#x214;" horiz-adv-x="1268" d="M170 1366 L336 1366 L336 487 Q336 302 386 218 Q451 109 634 109 Q732 109 807 146 Q872 179 902 262 Q932 345 932 492 L932 1366 L1098 1366 L1098 463 Q1098 256 1024 143 Q915 -27 628 -27 Q495 -27 385 18 Q170 107 170 463 L170 1366 Z M249 1764 L431 1764 L552 1479 L415 1479 L249 1764 Z M556 1764 L738 1764 L859 1479 L722 1479 L556 1764 Z " />
<glyph glyph-name="uni0215" unicode="&#x215;" horiz-adv-x="1081" d="M162 1468 L344 1468 L465 1183 L328 1183 L162 1468 Z M469 1468 L651 1468 L772 1183 L635 1183 L469 1468 Z M911 0 L762 0 L760 125 Q677 62 620 33 Q522 -18 427 -18 Q347 -18 282 15 Q221 46 192 112 Q160 186 160 324 L160 1057 L317 1057 L317 301 Q317 206 346 163 Q382 111 466 111 Q581 111 754 240 L754 1057 L911 1057 L911 0 Z " />
<glyph glyph-name="uni0216" unicode="&#x216;" horiz-adv-x="1268" d="M891 1491 L763 1491 Q761 1544 725.5 1575 Q690 1606 631 1606 Q516 1606 501 1491 L372 1491 Q377 1582 422 1637 Q494 1725 632 1725 Q691 1725 744 1706 Q812 1682 850 1626.5 Q888 1571 891 1491 Z M170 1366 L336 1366 L336 487 Q336 302 386 218 Q451 109 634 109 Q732 109 807 146 Q872 179 902 262 Q932 345 932 492 L932 1366 L1098 1366 L1098 463 Q1098 256 1024 143 Q915 -27 628 -27 Q495 -27 385 18 Q170 107 170 463 L170 1366 Z " />
<glyph glyph-name="uni0217" unicode="&#x217;" horiz-adv-x="1081" d="M794 1217 L665 1217 Q663 1270 627.5 1301 Q592 1332 533 1332 Q493 1332 461 1316 Q413 1293 403 1217 L274 1217 Q279 1308 325 1363 Q397 1451 534 1451 Q594 1451 647 1432 Q786 1383 794 1217 Z M911 0 L762 0 L760 125 Q677 62 620 33 Q522 -18 427 -18 Q347 -18 282 15 Q221 46 192 112 Q160 186 160 324 L160 1057 L317 1057 L317 301 Q317 206 346 163 Q382 111 466 111 Q581 111 754 240 L754 1057 L911 1057 L911 0 Z " />
<glyph glyph-name="Scommaaccent" unicode="&#x218;" horiz-adv-x="1116" d="M61 350 L223 401 Q249 285 296 223 Q383 109 557 109 Q670 109 749 161 Q842 222 842 333 Q842 454 724 530 Q684 556 546 615 Q345 699 276 748 Q109 864 109 1056 Q109 1231 239 1320 Q348 1395 522 1395 Q886 1395 977 1053 L813 1010 Q784 1108 742 1159 Q663 1255 515 1255 Q382 1255 326 1192 Q283 1143 283 1069 Q283 948 410 872 Q481 830 700 737 Q809 691 853.5 663.5 Q898 636 937 591 Q1014 501 1014 353 Q1014 231 965 146 Q922 69 851 33 Q726 -31 555 -31 Q344 -31 228 58.5 Q112 148 61 350 Z M610 -317 L518 -512 L468 -512 L518 -322 L466 -322 L466 -131 L610 -131 L610 -317 Z " />
<glyph glyph-name="scommaaccent" unicode="&#x219;" horiz-adv-x="889" d="M51 207 L186 274 Q217 207 250 173 Q321 100 453 100 Q532 100 593 132 Q661 168 661 250 Q661 355 516 427 Q292 538 278 544 Q194 583 147 653 Q100 723 100 810 Q100 875 126 927 Q162 1001 246 1042 Q328 1083 442 1083 Q637 1083 738 975 Q767 944 799 887 L664 821 Q639 872 613 898 Q553 956 439 956 Q369 956 315 928 Q256 897 256 825 Q256 780 276 752 Q329 678 539 587 Q636 545 679.5 519 Q723 493 752 459 Q821 379 821 266 Q821 179 784 114 Q750 55 694 26 Q589 -27 456 -27 Q345 -27 256.5 6.5 Q168 40 116 100 Q85 138 51 207 Z M508 -317 L416 -512 L366 -512 L416 -322 L364 -322 L364 -131 L508 -131 L508 -317 Z " />
<glyph glyph-name="uni021A" unicode="&#x21a;" horiz-adv-x="934" d="M938 1227 L549 1227 L549 0 L383 0 L383 1227 L-4 1227 L-4 1366 L938 1366 L938 1227 Z M539 -317 L447 -512 L397 -512 L447 -322 L395 -322 L395 -131 L539 -131 L539 -317 Z " />
<glyph glyph-name="uni021B" unicode="&#x21b;" horiz-adv-x="639" d="M635 10 Q525 -16 449 -16 Q378 -16 321 5 Q209 47 209 227 L209 920 L37 920 L37 1057 L209 1057 L209 1337 L369 1384 L369 1057 L627 1057 L627 920 L369 920 L369 227 Q369 164 393.5 139.5 Q418 115 482 115 Q543 115 616 139 L635 10 Z M428 -317 L336 -512 L286 -512 L336 -322 L284 -322 L284 -131 L428 -131 L428 -317 Z " />
<glyph glyph-name="uni0226" unicode="&#x226;" horiz-adv-x="1071" d="M1055 0 L877 0 L766 391 L299 391 L190 0 L18 0 L428 1366 L645 1366 L1055 0 Z M731 530 L586 1040 L532 1231 L479 1040 L334 530 L731 530 Z M627 1484 L447 1484 L447 1693 L627 1693 L627 1484 Z " />
<glyph glyph-name="uni0227" unicode="&#x227;" horiz-adv-x="1008" d="M848 0 L700 0 L700 127 Q579 -18 391 -18 Q254 -18 174 63 Q94 145 94 273 Q94 514 365 609 Q481 650 692 676 L692 752 Q692 845 638 898 Q581 954 481 954 Q399 954 341.5 920 Q284 886 233 807 L100 889 Q151 961 198 997 Q311 1083 487 1083 Q618 1083 715 1032 Q848 962 848 762 L848 0 Z M692 266 L692 561 Q535 542 447 512 Q254 444 254 285 Q254 244 268 208 Q308 109 426 109 Q580 109 692 266 Z M561 1204 L381 1204 L381 1413 L561 1413 L561 1204 Z " />
<glyph glyph-name="uni0237" unicode="&#x237;" horiz-adv-x="516" d="M-63 -348 L-47 -223 Q12 -242 61 -242 Q128 -242 153.5 -202.5 Q179 -163 179 -61 L179 1057 L338 1057 L338 -37 Q338 -173 304 -246 Q248 -369 81 -369 Q4 -369 -63 -348 Z " />
<glyph glyph-name="uni02C9" unicode="&#x2c9;" horiz-adv-x="1024" d="M793 1268 L231 1268 L231 1417 L793 1417 L793 1268 Z " />
<glyph glyph-name="uni0312" unicode="&#x312;" horiz-adv-x="954" d="M598 1696 L527 1422 L590 1422 L590 1184 L412 1184 L412 1418 L537 1696 L598 1696 Z " />
<glyph glyph-name="uni0313" unicode="&#x313;" horiz-adv-x="954" d="M762 1133 L635 854 L574 854 L648 1127 L582 1127 L582 1366 L762 1366 L762 1133 Z " />
<glyph glyph-name="uni031B" unicode="&#x31b;" horiz-adv-x="954" d="M762 1133 L635 854 L574 854 L648 1127 L582 1127 L582 1366 L762 1366 L762 1133 Z " />
<glyph glyph-name="commaaccent" unicode="&#x326;" horiz-adv-x="1116" d="M635 -317 L543 -512 L493 -512 L543 -322 L491 -322 L491 -131 L635 -131 L635 -317 Z " />
<glyph glyph-name="uni037E" unicode="&#x37e;" horiz-adv-x="432" d="M350 770 L170 770 L170 1008 L350 1008 L350 770 Z M350 4 L223 -274 L162 -274 L236 0 L170 0 L170 238 L350 238 L350 4 Z " />
<glyph glyph-name="uni0387" unicode="&#x387;" horiz-adv-x="432" d="M305 453 L127 453 L127 692 L305 692 L305 453 Z " />
<glyph glyph-name="uni0394" unicode="&#x394;" horiz-adv-x="1249" d="M1249 0 L0 0 L549 1366 L698 1366 L1249 0 Z M1044 131 L623 1196 L203 131 L1044 131 Z " />
<glyph glyph-name="uni03A9" unicode="&#x3a9;" horiz-adv-x="1405" d="M1358 0 L805 0 L805 119 Q963 210 1041 297 Q1204 478 1204 738 Q1204 859 1166 960 Q1111 1106 993 1190 Q878 1272 714 1272 Q596 1272 501 1230 Q356 1167 273 1023 Q201 898 201 733 Q201 440 409 250 Q474 191 600 119 L600 0 L47 0 L47 131 L424 131 Q285 211 215 291 Q59 470 59 736 Q59 1015 250 1204 Q441 1393 717 1393 Q993 1393 1171 1205 Q1346 1021 1346 743 Q1346 539 1255 381 Q1209 303 1149.5 248.5 Q1090 194 981 131 L1358 131 L1358 0 Z " />
<glyph glyph-name="uni03BC" unicode="&#x3bc;" horiz-adv-x="1083" d="M911 0 L770 0 L770 111 Q688 -16 543 -16 Q400 -16 311 111 L311 -362 L164 -362 L164 1057 L311 1057 L311 303 Q348 221 411 173 Q474 125 545 125 Q630 125 694 191 Q723 220 746.5 255 Q770 290 770 303 L770 1057 L911 1057 L911 0 Z " />
<glyph glyph-name="uni04D4" unicode="&#x4d4;" horiz-adv-x="1599" d="M1538 0 L764 0 L764 383 L369 383 L172 0 L-20 0 L702 1366 L1491 1366 L1491 1227 L930 1227 L930 770 L1376 770 L1376 631 L930 631 L930 139 L1538 139 L1538 0 Z M772 1182 L434 526 L764 526 L764 611 Q764 668 770 1081 L772 1182 Z " />
<glyph glyph-name="uni04D5" unicode="&#x4d5;" horiz-adv-x="1602" d="M1497 240 Q1472 177 1433 130 Q1307 -27 1097 -27 Q973 -27 875 28 Q809 66 756 158 Q694 86 640 50 Q528 -25 392 -25 Q320 -25 260 -1 Q184 29 139 103 Q94 177 94 270 Q94 371 140 445 Q196 534 316.5 584.5 Q437 635 684 672 Q687 708 691 743 Q693 765 693 778 Q693 810 683 837 Q662 891 609 922.5 Q556 954 484 954 Q313 954 233 807 L109 885 Q158 958 206 995 Q318 1083 489 1083 Q607 1083 697 1036 Q750 1008 793 938 Q832 990 869 1016 Q961 1083 1099 1083 Q1308 1083 1407 928 Q1489 800 1489 600 L1489 506 L836 506 Q838 322 882 232 Q944 104 1096 104 Q1192 104 1252.5 151.5 Q1313 199 1356 307 L1497 240 Z M1327 635 Q1316 952 1092 952 Q977 952 915 875.5 Q853 799 836 635 L1327 635 Z M700 270 Q676 365 676 495 L677 539 Q677 544 678 557 Q514 531 433 501 Q254 433 254 279 Q254 238 268 201 Q307 100 418 100 Q548 100 700 270 Z " />
<glyph glyph-name="uni1E02" unicode="&#x1e02;" horiz-adv-x="1157" d="M170 0 L170 1366 L621 1366 Q729 1366 816.5 1337.5 Q904 1309 949 1259 Q1024 1175 1024 1022 Q1024 927 988 852 Q939 747 780 719 Q887 705 955 642 Q1059 545 1059 375 Q1059 233 985 139 Q875 0 643 0 L170 0 Z M336 1227 L336 778 L563 778 Q856 778 856 1012 Q856 1227 602 1227 L336 1227 Z M336 639 L336 139 L592 139 Q877 139 877 389 Q877 518 802 581 Q762 614 709.5 626.5 Q657 639 559 639 L336 639 Z M629 1479 L449 1479 L449 1688 L629 1688 L629 1479 Z " />
<glyph glyph-name="uni1E03" unicode="&#x1e03;" horiz-adv-x="1096" d="M676 1215 L496 1215 L496 1424 L676 1424 L676 1215 Z M326 123 L322 0 L168 0 L168 1415 L326 1415 L326 952 Q384 1008 465 1040.5 Q546 1073 627 1073 Q715 1073 782 1037 Q987 926 987 527 Q987 303 918 171 Q819 -18 620 -18 Q540 -18 473 14 Q406 46 326 123 Z M326 829 L326 256 Q383 194 425 164 Q497 113 572 113 Q632 113 681 142 Q819 223 819 516 Q819 944 577 944 Q460 944 326 829 Z " />
<glyph glyph-name="uni1E0C" unicode="&#x1e0c;" horiz-adv-x="1249" d="M632 -291 L452 -291 L452 -82 L632 -82 L632 -291 Z M170 0 L170 1366 L514 1366 Q841 1366 992 1201 Q1137 1042 1137 714 Q1137 373 1039 216 Q983 125 897 79 Q751 0 506 0 L170 0 Z M336 1227 L336 139 L446 139 Q739 139 847 255 Q956 373 956 689 Q956 936 878 1061 Q775 1227 520 1227 L336 1227 Z " />
<glyph glyph-name="uni1E0D" unicode="&#x1e0d;" horiz-adv-x="1096" d="M632 -291 L452 -291 L452 -82 L632 -82 L632 -291 Z M928 0 L776 0 L772 123 Q693 47 624.5 14.5 Q556 -18 475 -18 Q390 -18 320 20 Q109 133 109 524 Q109 785 209 930 Q307 1073 485 1073 Q641 1073 770 952 L770 1415 L928 1415 L928 0 Z M770 256 L770 829 Q634 946 522 946 Q463 946 415 919 Q360 887 337 837 Q276 706 276 524 Q276 347 336 222 Q359 173 411 143 Q463 113 523 113 Q645 113 770 256 Z " />
<glyph glyph-name="uni1E1E" unicode="&#x1e1e;" horiz-adv-x="965" d="M973 1227 L336 1227 L336 776 L872 776 L872 637 L336 637 L336 0 L170 0 L170 1366 L973 1366 L973 1227 Z M662 1473 L482 1473 L482 1682 L662 1682 L662 1473 Z " />
<glyph glyph-name="uni1E1F" unicode="&#x1e1f;" horiz-adv-x="575" d="M598 1473 L584 1346 Q526 1360 474 1360 Q430 1360 397 1344 Q346 1319 346 1198 L346 1057 L561 1057 L561 920 L346 920 L346 0 L188 0 L188 920 L18 920 L18 1057 L188 1057 L188 1208 Q188 1359 264 1427 Q333 1487 449 1487 Q498 1487 598 1473 Z M398 1513 L218 1513 L218 1722 L398 1722 L398 1513 Z " />
<glyph glyph-name="uni1E24" unicode="&#x1e24;" horiz-adv-x="1288" d="M1118 0 L952 0 L952 649 L336 649 L336 0 L170 0 L170 1366 L336 1366 L336 788 L952 788 L952 1366 L1118 1366 L1118 0 Z M744 -305 L564 -305 L564 -96 L744 -96 L744 -305 Z " />
<glyph glyph-name="uni1E25" unicode="&#x1e25;" horiz-adv-x="1079" d="M636 -305 L456 -305 L456 -96 L636 -96 L636 -305 Z M920 0 L762 0 L762 745 Q762 844 733 890 Q697 946 607 946 Q484 946 326 815 L326 0 L168 0 L168 1415 L326 1415 L326 936 Q423 1013 494.5 1044 Q566 1075 647 1075 Q730 1075 797 1040 Q861 1007 890.5 928.5 Q920 850 920 713 L920 0 Z " />
<glyph glyph-name="uni1E44" unicode="&#x1e44;" horiz-adv-x="1286" d="M1116 0 L907 0 L414 971 Q405 990 388 1020 Q337 1116 324 1174 Q334 1108 334 1036 L334 0 L170 0 L170 1366 L387 1366 L887 373 Q915 318 965 190 Q954 278 954 356 L954 1366 L1116 1366 L1116 0 Z M773 1479 L593 1479 L593 1688 L773 1688 L773 1479 Z " />
<glyph glyph-name="uni1E45" unicode="&#x1e45;" horiz-adv-x="1079" d="M633 1241 L453 1241 L453 1450 L633 1450 L633 1241 Z M920 0 L762 0 L762 756 Q762 946 610 946 Q496 946 326 815 L326 0 L168 0 L168 1057 L317 1057 L319 932 Q402 994 458 1023 Q555 1073 651 1073 Q730 1073 796 1040 Q860 1008 890 933 Q920 858 920 731 L920 0 Z " />
<glyph glyph-name="uni1E5A" unicode="&#x1e5a;" horiz-adv-x="1155" d="M708 -305 L528 -305 L528 -96 L708 -96 L708 -305 Z M1081 0 L889 0 L619 608 L336 608 L336 0 L170 0 L170 1366 L584 1366 Q807 1366 919 1296 Q1057 1210 1057 999 Q1057 854 986 760.5 Q915 667 780 635 L1081 0 Z M336 1227 L336 748 L559 748 Q722 748 796 800 Q874 855 874 990 Q874 1122 804.5 1174.5 Q735 1227 559 1227 L336 1227 Z " />
<glyph glyph-name="uni1E5B" unicode="&#x1e5b;" horiz-adv-x="711" d="M339 -305 L159 -305 L159 -96 L339 -96 L339 -305 Z M689 913 Q645 912 599 905 Q450 880 325 637 L325 0 L167 0 L167 1057 L321 1057 L321 838 Q380 935 423 980.5 Q466 1026 520 1048 Q599 1082 689 1081 L689 913 Z " />
<glyph glyph-name="uni1E62" unicode="&#x1e62;" horiz-adv-x="1116" d="M636 -305 L456 -305 L456 -96 L636 -96 L636 -305 Z M61 350 L223 401 Q249 285 296 223 Q383 109 557 109 Q670 109 749 161 Q842 222 842 333 Q842 454 724 530 Q684 556 546 615 Q345 699 276 748 Q109 864 109 1056 Q109 1231 239 1320 Q348 1395 522 1395 Q886 1395 977 1053 L813 1010 Q784 1108 742 1159 Q663 1255 515 1255 Q382 1255 326 1192 Q283 1143 283 1069 Q283 948 410 872 Q481 830 700 737 Q809 691 853.5 663.5 Q898 636 937 591 Q1014 501 1014 353 Q1014 231 965 146 Q922 69 851 33 Q726 -31 555 -31 Q344 -31 228 58.5 Q112 148 61 350 Z " />
<glyph glyph-name="uni1E63" unicode="&#x1e63;" horiz-adv-x="889" d="M527 -305 L347 -305 L347 -96 L527 -96 L527 -305 Z M51 207 L186 274 Q217 207 250 173 Q321 100 453 100 Q532 100 593 132 Q661 168 661 250 Q661 355 516 427 Q292 538 278 544 Q194 583 147 653 Q100 723 100 810 Q100 875 126 927 Q162 1001 246 1042 Q328 1083 442 1083 Q637 1083 738 975 Q767 944 799 887 L664 821 Q639 872 613 898 Q553 956 439 956 Q369 956 315 928 Q256 897 256 825 Q256 780 276 752 Q329 678 539 587 Q636 545 679.5 519 Q723 493 752 459 Q821 379 821 266 Q821 179 784 114 Q750 55 694 26 Q589 -27 456 -27 Q345 -27 256.5 6.5 Q168 40 116 100 Q85 138 51 207 Z " />
<glyph glyph-name="uni1E6C" unicode="&#x1e6c;" horiz-adv-x="934" d="M553 -305 L373 -305 L373 -96 L553 -96 L553 -305 Z M938 1227 L549 1227 L549 0 L383 0 L383 1227 L-4 1227 L-4 1366 L938 1366 L938 1227 Z " />
<glyph glyph-name="uni1E6D" unicode="&#x1e6d;" horiz-adv-x="639" d="M433 -305 L253 -305 L253 -96 L433 -96 L433 -305 Z M635 10 Q525 -16 449 -16 Q378 -16 321 5 Q209 47 209 227 L209 920 L37 920 L37 1057 L209 1057 L209 1337 L369 1384 L369 1057 L627 1057 L627 920 L369 920 L369 227 Q369 164 393.5 139.5 Q418 115 482 115 Q543 115 616 139 L635 10 Z " />
<glyph glyph-name="Wgrave" unicode="&#x1e80;" horiz-adv-x="1528" d="M1499 1366 L1186 0 L1020 0 L799 922 Q772 1034 762 1174 Q749 1028 723 922 L500 0 L336 0 L29 1366 L197 1366 L391 457 Q404 396 424 221 Q439 350 465 457 L682 1366 L852 1366 L1067 457 Q1082 395 1110 221 Q1120 350 1143 457 L1339 1366 L1499 1366 Z M867 1489 L716 1489 L495 1741 L695 1741 L867 1489 Z " />
<glyph glyph-name="wgrave" unicode="&#x1e81;" horiz-adv-x="1348" d="M1319 1057 L1042 0 L889 0 L719 625 Q686 745 670 868 Q660 757 623 625 L449 0 L295 0 L27 1057 L190 1057 L340 406 Q366 293 375 195 Q388 313 414 406 L594 1057 L754 1057 L932 406 Q948 346 973 195 Q980 301 1004 406 L1155 1057 L1319 1057 Z M778 1192 L634 1192 L462 1477 L661 1477 L778 1192 Z " />
<glyph glyph-name="Wacute" unicode="&#x1e82;" horiz-adv-x="1528" d="M1499 1366 L1186 0 L1020 0 L799 922 Q772 1034 762 1174 Q749 1028 723 922 L500 0 L336 0 L29 1366 L197 1366 L391 457 Q404 396 424 221 Q439 350 465 457 L682 1366 L852 1366 L1067 457 Q1082 395 1110 221 Q1120 350 1143 457 L1339 1366 L1499 1366 Z M1038 1741 L817 1489 L666 1489 L838 1741 L1038 1741 Z " />
<glyph glyph-name="wacute" unicode="&#x1e83;" horiz-adv-x="1348" d="M1319 1057 L1042 0 L889 0 L719 625 Q686 745 670 868 Q660 757 623 625 L449 0 L295 0 L27 1057 L190 1057 L340 406 Q366 293 375 195 Q388 313 414 406 L594 1057 L754 1057 L932 406 Q948 346 973 195 Q980 301 1004 406 L1155 1057 L1319 1057 Z M884 1477 L716 1192 L568 1192 L689 1477 L884 1477 Z " />
<glyph glyph-name="Wdieresis" unicode="&#x1e84;" horiz-adv-x="1528" d="M1499 1366 L1186 0 L1020 0 L799 922 Q772 1034 762 1174 Q749 1028 723 922 L500 0 L336 0 L29 1366 L197 1366 L391 457 Q404 396 424 221 Q439 350 465 457 L682 1366 L852 1366 L1067 457 Q1082 395 1110 221 Q1120 350 1143 457 L1339 1366 L1499 1366 Z M1018 1480 L850 1480 L850 1689 L1018 1689 L1018 1480 Z M678 1480 L510 1480 L510 1689 L678 1689 L678 1480 Z " />
<glyph glyph-name="wdieresis" unicode="&#x1e85;" horiz-adv-x="1348" d="M1319 1057 L1042 0 L889 0 L719 625 Q686 745 670 868 Q660 757 623 625 L449 0 L295 0 L27 1057 L190 1057 L340 406 Q366 293 375 195 Q388 313 414 406 L594 1057 L754 1057 L932 406 Q948 346 973 195 Q980 301 1004 406 L1155 1057 L1319 1057 Z M927 1204 L759 1204 L759 1413 L927 1413 L927 1204 Z M587 1204 L419 1204 L419 1413 L587 1413 L587 1204 Z " />
<glyph glyph-name="uni1E92" unicode="&#x1e92;" horiz-adv-x="1026" d="M592 -305 L412 -305 L412 -96 L592 -96 L592 -305 Z M963 0 L72 0 L72 117 L762 1225 L117 1225 L117 1364 L948 1364 L948 1243 L258 137 L963 137 L963 0 Z " />
<glyph glyph-name="uni1E93" unicode="&#x1e93;" horiz-adv-x="854" d="M527 -305 L347 -305 L347 -96 L527 -96 L527 -305 Z M788 0 L66 0 L66 109 L479 758 Q527 833 592 924 Q499 920 435 920 L119 920 L119 1057 L784 1057 L784 942 L362 274 Q315 200 258 129 L278 129 Q355 131 387 131 L788 131 L788 0 Z " />
<glyph glyph-name="uni1E9E" unicode="&#x1e9e;" horiz-adv-x="1180" d="M759 745 Q1106 661 1106 353 Q1106 295 1092 242 Q1056 108 938 38 Q838 -20 686 -20 Q657 -20 630 -18 Q555 -13 490 6 L520 137 Q590 117 667 117 Q721 117 766 129 Q845 150 889.5 211 Q934 272 934 358 Q934 485 852 556.5 Q770 628 598 653 L598 760 L904 1170 Q773 1260 632 1260 Q538 1260 471 1223 Q324 1140 324 825 L324 0 L158 0 L158 877 Q158 1160 307 1292 Q423 1395 622 1395 Q686 1395 743 1384 Q893 1355 1050 1239 L1050 1129 L759 745 Z " />
<glyph glyph-name="uni2010" unicode="&#x2010;" horiz-adv-x="551" d="M551 471 L0 471 L0 623 L551 623 L551 471 Z " />
<glyph glyph-name="uni2011" unicode="&#x2011;" horiz-adv-x="551" d="M551 471 L0 471 L0 623 L551 623 L551 471 Z " />
<glyph glyph-name="figuredash" unicode="&#x2012;" horiz-adv-x="750" d="M750 471 L0 471 L0 623 L750 623 L750 471 Z " />
<glyph glyph-name="afii00208" unicode="&#x2015;" horiz-adv-x="1331" d="M1331 471 L0 471 L0 623 L1331 623 L1331 471 Z " />
<glyph glyph-name="uni203E" unicode="&#x203e;" horiz-adv-x="1024" d="M793 1268 L231 1268 L231 1417 L793 1417 L793 1268 Z " />
<glyph glyph-name="minus" unicode="&#x2212;" horiz-adv-x="1024" d="M956 481 L70 481 L70 612 L956 612 L956 481 Z " />
<glyph glyph-name="uni2215" unicode="&#x2215;" horiz-adv-x="184" d="M510 1393 L-199 -27 L-326 -27 L383 1393 L510 1393 Z " />
<glyph glyph-name="uni2219" unicode="&#x2219;" horiz-adv-x="432" d="M305 453 L127 453 L127 692 L305 692 L305 453 Z " />
<glyph glyph-name="dotmath" unicode="&#x22c5;" horiz-adv-x="432" d="M305 453 L127 453 L127 692 L305 692 L305 453 Z " />
</font>
</svg>
