<?xml version="1.0" encoding="UTF-8"?>
<svg xmlns="http://www.w3.org/2000/svg" xmlns:xlink="http://www.w3.org/1999/xlink" version="1.2" >
<font id="NDRSansCond Bold">
<font-face  font-family="NDRSansCond" units-per-em="2048" ascent="1536" descent="-512" font-style="normal" font-weight="700" font-stretch="normal" cap-height="1366" x-height="1061" underline-position="-296" underline-thickness="203" />
<missing-glyph  horiz-adv-x="412" d="M41 0 L41 1366 L371 1366 L371 0 L41 0 Z M330 41 L330 1325 L82 1325 L82 41 L330 41 Z " />
<glyph glyph-name="space" unicode="&#x20;" horiz-adv-x="412" d="" />
<glyph glyph-name="exclam" unicode="&#x21;" horiz-adv-x="489" d="M399 1366 L375 414 L193 414 L170 1366 L399 1366 Z M404 0 L168 0 L168 262 L404 262 L404 0 Z " />
<glyph glyph-name="quotedbl" unicode="&#x22;" horiz-adv-x="786" d="M643 1495 L632 987 L467 987 L456 1495 L643 1495 Z M329 1495 L319 987 L153 987 L143 1495 L329 1495 Z " />
<glyph glyph-name="numbersign" unicode="&#x23;" horiz-adv-x="1077" d="M1017 975 L1013 815 L821 815 L788 561 L960 561 L960 401 L768 401 L714 0 L555 0 L608 401 L391 401 L337 0 L178 0 L231 401 L59 401 L59 561 L251 561 L284 815 L112 815 L112 975 L307 975 L358 1366 L518 1366 L466 975 L684 975 L735 1366 L894 1366 L843 975 L1017 975 Z M661 815 L444 815 L411 561 L628 561 L661 815 Z " />
<glyph glyph-name="dollar" unicode="&#x24;" horiz-adv-x="922" d="M604 981 L604 997 Q604 1101 585 1145 Q555 1217 464 1217 Q402 1217 363 1178 Q324 1139 324 1077 Q324 988 460 866 L632 713 Q701 652 736.5 609 Q772 566 801 511 Q850 416 850 316 Q850 165 763 78 Q720 36 662.5 14 Q605 -8 507 -20 L512 -184 L395 -184 L397 -20 Q62 -2 61 342 L61 424 L299 424 L299 389 Q299 280 319 232 Q354 152 459 152 Q608 152 608 303 Q608 416 473 539 Q440 569 295 694 Q278 709 260 724 Q90 865 90 1062 Q90 1110 101 1153 Q126 1255 200 1311 Q274 1367 409 1387 L405 1536 L522 1536 L520 1389 Q830 1370 831 1026 L831 981 L604 981 Z " />
<glyph glyph-name="percent" unicode="&#x25;" horiz-adv-x="1473" d="M909 199 L909 600 Q909 708 970 764.5 Q1031 821 1147 821 Q1380 821 1380 596 L1380 199 Q1380 -23 1142 -23 Q1097 -23 1056 -13 Q986 4 947.5 59.5 Q909 115 909 199 Z M1224 186 L1224 596 Q1224 692 1144 692 Q1065 692 1065 600 L1065 197 Q1065 104 1145 104 Q1159 104 1170 107 Q1224 122 1224 186 Z M1153 1391 L469 -23 L325 -23 L1010 1391 L1153 1391 Z M92 770 L92 1172 Q92 1278 153.5 1334.5 Q215 1391 330 1391 Q563 1391 563 1165 L563 768 Q563 547 325 547 Q280 547 239 557 Q168 574 130 629.5 Q92 685 92 770 Z M407 756 L407 1165 Q407 1262 327 1262 Q248 1262 248 1172 L248 766 Q248 674 327 674 Q341 674 352 677 Q407 692 407 756 Z " />
<glyph glyph-name="ampersand" unicode="&#x26;" horiz-adv-x="1059" d="M1022 0 L766 0 L698 106 Q570 -20 399 -20 Q223 -20 127 85 Q47 173 47 314 Q47 383 66 446 Q115 614 311 760 Q240 861 221 896 Q174 984 174 1089 Q174 1144 187 1195 Q234 1389 491 1389 Q612 1389 693 1342 Q817 1270 817 1112 Q817 1059 801 1008 Q757 868 575 723 L739 444 Q817 557 852 666 L1018 588 Q946 416 838 279 L860 245 Q948 116 1022 0 Z M473 875 Q616 1015 616 1107 Q616 1225 497 1225 Q474 1225 453 1220 Q379 1201 379 1105 Q379 1080 384 1058 Q402 982 473 875 Z M608 254 L409 592 Q282 478 282 330 Q282 253 326 205.5 Q370 158 441 158 Q529 158 608 254 Z " />
<glyph glyph-name="quotesingle" unicode="&#x27;" horiz-adv-x="473" d="M329 1495 L319 987 L153 987 L143 1495 L329 1495 Z " />
<glyph glyph-name="parenleft" unicode="&#x28;" horiz-adv-x="530" d="M483 -66 L286 -66 Q65 343 65 684 Q65 1022 286 1430 L483 1430 Q288 989 288 683 Q288 603 300 516 Q335 266 483 -66 Z " />
<glyph glyph-name="parenright" unicode="&#x29;" horiz-adv-x="530" d="M244 1430 Q360 1213 412.5 1034 Q465 855 465 678 Q465 343 244 -66 L47 -66 Q242 375 242 680 Q242 760 230 848 Q194 1095 47 1430 L244 1430 Z " />
<glyph glyph-name="asterisk" unicode="&#x2a;" horiz-adv-x="788" d="M789 1200 L584 1133 L709 961 L584 870 L459 1044 L332 872 L207 963 L334 1137 L133 1202 L180 1350 L385 1284 L385 1495 L539 1495 L539 1280 L742 1346 L789 1200 Z " />
<glyph glyph-name="plus" unicode="&#x2b;" horiz-adv-x="1024" d="M955 434 L623 434 L623 86 L404 86 L404 434 L70 434 L70 639 L404 639 L404 987 L623 987 L623 639 L955 639 L955 434 Z " />
<glyph glyph-name="comma" unicode="&#x2c;" horiz-adv-x="410" d="M324 14 L157 -295 L63 -295 L172 0 L88 0 L88 262 L324 262 L324 14 Z " />
<glyph glyph-name="hyphen" unicode="&#x2d;" horiz-adv-x="471" d="M471 455 L0 455 L0 676 L471 676 L471 455 Z " />
<glyph glyph-name="period" unicode="&#x2e;" horiz-adv-x="410" d="M321 0 L88 0 L88 262 L321 262 L321 0 Z " />
<glyph glyph-name="slash" unicode="&#x2f;" horiz-adv-x="561" d="M520 1430 L236 -66 L41 -66 L326 1430 L520 1430 Z " />
<glyph glyph-name="zero" unicode="0" horiz-adv-x="922" d="M80 371 L80 1002 Q80 1200 194 1303 Q293 1393 466 1393 Q536 1393 601 1377 Q844 1315 844 993 L844 369 Q844 -25 463 -25 Q388 -25 320 -8 Q80 53 80 371 Z M613 334 L613 1008 Q613 1188 462 1188 Q311 1188 311 1016 L311 350 Q311 180 461 180 Q530 180 571.5 222 Q613 264 613 334 Z " />
<glyph glyph-name="one" unicode="1" horiz-adv-x="922" d="M823 0 L133 0 L133 201 L360 201 L360 1126 L180 1036 L98 1221 L376 1366 L591 1366 L591 201 L823 201 L823 0 Z " />
<glyph glyph-name="two" unicode="2" horiz-adv-x="922" d="M838 0 L84 0 L84 123 Q84 244 146.5 357.5 Q209 471 366 635 Q464 738 525 823 Q596 921 596 1028 Q596 1040 595 1054 Q590 1125 560.5 1155.5 Q531 1186 467 1186 Q389 1186 356 1141 Q323 1096 323 989 L323 926 L96 926 L96 1036 Q96 1213 201 1307 Q298 1393 466 1393 Q644 1393 739 1288 Q822 1198 822 1049 L822 1006 Q822 891 767.5 793 Q713 695 565 542 Q445 419 404.5 359 Q364 299 336 201 L838 201 L838 0 Z " />
<glyph glyph-name="three" unicode="3" horiz-adv-x="922" d="M643 723 Q712 709 748 685.5 Q784 662 807 618 Q840 554 840 416 L840 342 Q840 -23 457 -23 Q255 -23 164 79 Q82 171 82 358 L82 424 L311 424 L311 381 Q311 292 328 252 Q358 182 460 182 Q510 182 545 201 Q580 219 594 264 Q608 309 608 399 L608 420 Q608 543 560 586 Q536 609 495.5 617 Q455 625 369 625 L334 625 L334 803 L375 803 Q475 803 520 822 Q596 854 596 952 L596 1051 Q596 1188 461 1188 Q388 1188 356 1147 Q324 1106 324 1013 L324 973 L90 973 L90 1041 Q90 1391 463 1391 Q531 1391 593 1376 Q703 1349 765 1267 Q827 1185 827 1067 L827 946 Q826 756 643 723 Z " />
<glyph glyph-name="four" unicode="4" horiz-adv-x="922" d="M870 336 L715 336 L715 0 L486 0 L486 336 L51 336 L51 519 L435 1366 L715 1366 L715 535 L870 535 L870 336 Z M512 1155 Q466 1006 437 938 L258 531 L500 531 L500 760 Q500 992 512 1155 Z " />
<glyph glyph-name="five" unicode="5" horiz-adv-x="922" d="M332 854 Q426 934 549 934 Q633 934 696 899 Q833 822 833 594 L833 375 Q833 143 737 56 Q650 -23 457 -23 Q380 -23 312 -7 Q203 20 145.5 108.5 Q88 197 88 338 L88 416 L317 416 L317 383 Q317 290 334 251 Q364 182 461 182 Q540 182 571 224 Q602 266 602 375 L602 570 Q602 731 473 731 Q380 731 313 631 L121 631 L154 1366 L788 1366 L788 1165 L348 1165 L332 854 Z " />
<glyph glyph-name="six" unicode="6" horiz-adv-x="922" d="M321 762 Q426 842 549 842 Q597 842 641 830 Q732 806 781.5 733.5 Q831 661 831 553 L831 326 Q831 -25 457 -25 Q385 -25 321 -9 Q197 21 136 127 Q90 206 90 326 L90 1041 Q90 1391 467 1391 Q831 1391 831 1032 L831 971 L600 971 L600 994 Q600 1082 584 1119 Q556 1184 460 1184 Q431 1184 404 1178 Q360 1167 340.5 1130.5 Q321 1094 321 1022 L321 762 Z M321 584 L321 326 Q321 182 459 182 Q600 182 600 326 L600 483 Q600 639 466 639 Q445 639 425 635 Q369 625 321 584 Z " />
<glyph glyph-name="seven" unicode="7" horiz-adv-x="922" d="M840 1192 Q654 861 575 621 Q482 333 465 0 L225 0 Q270 603 615 1161 L82 1161 L82 1366 L840 1366 L840 1192 Z " />
<glyph glyph-name="eight" unicode="8" horiz-adv-x="922" d="M656 711 Q837 669 838 469 L838 311 Q838 153 739 66 Q640 -23 455 -23 Q84 -23 84 313 L84 469 Q85 656 254 711 Q102 775 102 930 L102 1098 Q102 1262 237 1338 Q329 1391 460 1391 Q534 1391 601 1373 Q698 1347 755 1285 Q823 1211 823 1098 L823 932 Q823 779 656 711 Z M590 940 L590 1082 Q590 1207 459 1207 Q333 1207 333 1080 L333 940 Q333 805 459 805 Q485 805 508 811 Q590 832 590 940 Z M605 330 L605 451 Q605 610 459 610 Q317 610 317 451 L317 330 Q317 159 459 159 Q605 159 605 330 Z " />
<glyph glyph-name="nine" unicode="9" horiz-adv-x="922" d="M600 604 Q492 524 373 524 Q323 524 280 536 Q189 560 139.5 632.5 Q90 705 90 813 L90 1041 Q90 1391 464 1391 Q656 1391 751 1286 Q831 1197 831 1041 L831 325 Q831 -25 454 -25 Q380 -25 314 -9 Q90 46 90 334 L90 395 L321 395 L321 372 Q321 284 337 247 Q364 182 461 182 Q539 182 569.5 217.5 Q600 253 600 344 L600 604 Z M600 782 L600 1041 Q600 1184 462 1184 Q435 1184 410 1178 Q321 1155 321 1041 L321 883 Q321 727 455 727 Q535 727 600 782 Z " />
<glyph glyph-name="colon" unicode="&#x3a;" horiz-adv-x="410" d="M362 756 L129 756 L129 1018 L362 1018 L362 756 Z M362 0 L129 0 L129 262 L362 262 L362 0 Z " />
<glyph glyph-name="semicolon" unicode="&#x3b;" horiz-adv-x="410" d="M361 756 L127 756 L127 1018 L361 1018 L361 756 Z M356 14 L192 -295 L98 -295 L206 0 L123 0 L123 262 L356 262 L356 14 Z " />
<glyph glyph-name="less" unicode="&#x3c;" horiz-adv-x="1024" d="M956 49 L69 445 L69 631 L956 1022 L956 803 L286 537 L956 268 L956 49 Z " />
<glyph glyph-name="equal" unicode="&#x3d;" horiz-adv-x="1024" d="M956 624 L69 624 L69 829 L956 829 L956 624 Z M956 244 L69 244 L69 449 L956 449 L956 244 Z " />
<glyph glyph-name="greater" unicode="&#x3e;" horiz-adv-x="1024" d="M956 445 L69 49 L69 268 L737 537 L69 803 L69 1022 L956 631 L956 445 Z " />
<glyph glyph-name="question" unicode="&#x3f;" horiz-adv-x="829" d="M84 1010 L84 1082 Q84 1389 440 1389 Q511 1389 575 1373 Q671 1349 722.5 1279 Q774 1209 774 1102 L774 1055 Q774 972 744.5 906.5 Q715 841 635 745 Q555 649 527 586.5 Q499 524 499 444 L499 360 L270 360 L270 452 Q270 546 306.5 631 Q343 716 435 838 Q499 921 521.5 966 Q544 1011 544 1053 L544 1098 Q544 1148 513.5 1176.5 Q483 1205 429 1205 Q407 1205 386 1200 Q305 1179 305 1082 L305 1010 L84 1010 Z M498 0 L262 0 L262 262 L498 262 L498 0 Z " />
<glyph glyph-name="at" unicode="&#x40;" horiz-adv-x="2126" d="M1522 -365 Q1264 -428 1058 -428 Q617 -428 381 -166 Q174 63 174 438 Q174 575 205 694 Q285 996 542 1182 Q793 1364 1124 1364 Q1502 1364 1728 1140 Q1941 927 1941 578 Q1941 363 1857 217 Q1739 14 1483 14 Q1446 14 1411 20 Q1337 31 1278 72.5 Q1219 114 1210 162 Q1164 92 1081 52 Q998 12 901 12 Q816 12 751 50 Q594 140 594 387 Q594 505 631.5 618 Q669 731 736 814 Q874 987 1085 987 Q1117 987 1143 982 Q1213 969 1268 913 L1278 983 L1458 983 L1374 475 Q1354 358 1354 307 Q1354 163 1490 163 Q1633 163 1709 297 Q1775 414 1775 582 Q1775 878 1585 1049 Q1410 1206 1122 1206 Q784 1206 565 989 Q350 775 350 438 Q350 85 557 -102 Q739 -266 1056 -266 Q1236 -266 1485 -201 L1522 -365 Z M1237 782 Q1182 844 1097 844 Q1021 844 961 808 Q867 753 819 623 Q778 514 778 384 Q778 349 781 322 Q801 172 933 172 Q966 172 997 181 Q1080 206 1157 307 L1237 782 Z " />
<glyph glyph-name="A" unicode="A" horiz-adv-x="913" d="M903 0 L655 0 L592 340 L313 340 L250 0 L10 0 L293 1366 L616 1366 L903 0 Z M567 532 L564 550 L547 638 Q478 996 450 1190 L435 1101 L408 940 L380 777 L356 638 L341 550 L338 532 L567 532 Z " />
<glyph glyph-name="B" unicode="B" horiz-adv-x="965" d="M621 725 Q726 702 792 627 Q877 528 877 392 Q877 196 764 94 Q660 0 461 0 L98 0 L98 1366 L432 1366 Q840 1366 840 1029 Q840 911 784 833 Q728 755 621 725 Z M340 803 L416 803 Q607 803 607 993 Q607 1028 599 1059 Q571 1169 430 1169 L340 1169 L340 803 Z M340 197 L434 197 Q633 197 633 395 Q633 623 424 623 L340 623 L340 197 Z " />
<glyph glyph-name="C" unicode="C" horiz-adv-x="938" d="M875 483 L875 360 Q875 -23 474 -23 Q84 -23 84 379 L84 983 Q84 1194 200 1300 Q300 1391 475 1391 Q549 1391 617 1373 Q735 1343 799.5 1253 Q864 1163 864 1030 L864 897 L625 897 L625 975 Q625 1088 593 1132 Q561 1176 477 1176 Q446 1176 418 1169 Q328 1147 328 1010 L328 379 Q328 272 360 232 Q392 192 477 192 Q509 192 537 198 Q585 210 605 256 Q625 302 625 403 L625 483 L875 483 Z " />
<glyph glyph-name="D" unicode="D" horiz-adv-x="973" d="M98 1366 L416 1366 Q674 1366 787 1239 Q889 1126 889 887 L889 494 Q889 210 763 96 Q657 0 436 0 L98 0 L98 1366 Z M338 197 L432 197 Q559 197 603 256.5 Q647 316 647 486 L647 921 Q647 1057 599.5 1113 Q552 1169 436 1169 L338 1169 L338 197 Z " />
<glyph glyph-name="E" unicode="E" horiz-adv-x="774" d="M741 0 L98 0 L98 1366 L721 1366 L721 1169 L342 1169 L342 803 L680 803 L680 606 L342 606 L342 197 L741 197 L741 0 Z " />
<glyph glyph-name="F" unicode="F" horiz-adv-x="756" d="M723 1169 L342 1169 L342 803 L672 803 L672 606 L342 606 L342 0 L98 0 L98 1366 L723 1366 L723 1169 Z " />
<glyph glyph-name="G" unicode="G" horiz-adv-x="956" d="M889 0 L686 0 L674 92 Q607 25 550.5 1 Q494 -23 406 -23 Q350 -23 300 -11 Q84 41 84 401 L84 967 Q84 1391 500 1391 Q699 1391 797 1282 Q885 1186 885 1008 L885 940 L649 940 L649 995 Q649 1176 494 1176 Q401 1176 363.5 1127.5 Q326 1079 326 958 L326 403 Q326 282 358.5 235 Q391 188 475 188 Q572 188 653 266 L653 499 L502 499 L502 696 L889 696 L889 0 Z " />
<glyph glyph-name="H" unicode="H" horiz-adv-x="987" d="M889 0 L647 0 L647 622 L340 622 L340 0 L98 0 L98 1366 L340 1366 L340 815 L647 815 L647 1366 L889 1366 L889 0 Z " />
<glyph glyph-name="I" unicode="I" horiz-adv-x="438" d="M340 0 L98 0 L98 1366 L340 1366 L340 0 Z " />
<glyph glyph-name="J" unicode="J" horiz-adv-x="567" d="M469 1366 L469 285 Q469 143 379 63 Q288 -18 129 -18 L106 -18 Q50 -18 8 -14 L8 203 Q18 202 39 200 Q54 199 69 199 Q166 199 198 235 Q227 267 227 338 L227 1366 L469 1366 Z " />
<glyph glyph-name="K" unicode="K" horiz-adv-x="989" d="M1002 0 L729 0 L455 649 L340 479 L340 0 L98 0 L98 1366 L340 1366 L340 823 L676 1366 L960 1366 L629 844 L1002 0 Z " />
<glyph glyph-name="L" unicode="L" horiz-adv-x="721" d="M721 0 L98 0 L98 1366 L340 1366 L340 197 L721 197 L721 0 Z " />
<glyph glyph-name="M" unicode="M" horiz-adv-x="1335" d="M1237 0 L1014 0 L1014 794 Q1014 920 1018 1096 Q870 470 752 10 L584 10 L381 805 Q348 932 317 1096 L319 0 L98 0 L98 1366 L455 1366 Q548 991 672 385 Q704 605 731 717 L889 1366 L1237 1366 L1237 0 Z " />
<glyph glyph-name="N" unicode="N" horiz-adv-x="1044" d="M946 0 L632 0 L481 467 Q371 804 317 993 Q329 810 329 614 L329 0 L98 0 L98 1366 L413 1366 L554 930 Q667 584 728 358 Q716 540 716 791 L716 823 L716 1366 L946 1366 L946 0 Z " />
<glyph glyph-name="O" unicode="O" horiz-adv-x="969" d="M490 -23 L489 -23 L488 -23 L486 -23 Q288 -23 181 96 Q84 205 84 399 L84 955 Q84 1185 207 1298 Q310 1391 486 1391 Q680 1391 785 1274 Q885 1161 885 955 L885 399 Q885 182 761 70 Q659 -23 490 -23 Z M643 383 L643 969 Q643 1176 488 1176 Q460 1176 435 1169 Q326 1142 326 969 L326 383 Q326 193 486 193 Q643 193 643 383 Z " />
<glyph glyph-name="P" unicode="P" horiz-adv-x="895" d="M98 1366 L455 1366 Q675 1366 783 1247 Q875 1146 875 967 Q875 755 748 640 Q639 540 457 540 L340 540 L340 0 L98 0 L98 1366 Z M340 735 L412 735 Q631 735 631 959 Q631 1003 621 1043 Q589 1171 428 1171 L340 1171 L340 735 Z " />
<glyph glyph-name="Q" unicode="Q" horiz-adv-x="965" d="M955 12 L854 -164 Q718 -103 631 6 Q566 -23 476 -23 Q407 -23 342 -6 Q211 28 143 143 Q84 244 84 406 L84 946 Q84 1185 207 1298 Q309 1391 491 1391 Q885 1391 885 946 L885 387 Q885 304 867.5 249 Q850 194 799 121 Q865 50 955 12 Z M643 379 L643 950 Q643 1071 607 1123.5 Q571 1176 489 1176 Q460 1176 434 1169 Q326 1141 326 950 L326 385 Q326 192 483 192 Q643 192 643 379 Z " />
<glyph glyph-name="R" unicode="R" horiz-adv-x="944" d="M944 0 L696 0 L461 588 L342 583 L342 0 L98 0 L98 1366 L451 1366 Q881 1366 881 992 Q881 853 832 768 Q783 683 678 639 L944 0 Z M342 766 L405 766 Q637 766 637 974 Q637 1011 629 1045 Q597 1171 430 1171 L342 1171 L342 766 Z " />
<glyph glyph-name="S" unicode="S" horiz-adv-x="924" d="M604 979 L604 1014 Q604 1087 589 1124 Q559 1194 459 1194 Q431 1194 405 1187 Q322 1167 322 1076 Q322 1028 354 979 Q393 918 536 805 Q717 660 790 550.5 Q863 441 863 313 Q863 278 858 243 Q816 -23 466 -23 Q392 -23 326 -7 Q192 25 124 141 Q74 225 74 346 L74 424 L312 424 L312 365 Q312 267 349.5 222.5 Q387 178 470 178 Q621 178 621 306 Q621 374 570 440.5 Q519 507 394 604 Q265 703 187 795 Q88 911 88 1070 Q88 1100 94 1134 Q139 1391 471 1391 Q541 1391 605 1375 Q730 1344 793 1235 Q842 1151 842 1026 L842 979 L604 979 Z " />
<glyph glyph-name="T" unicode="T" horiz-adv-x="803" d="M803 1169 L523 1169 L523 0 L281 0 L281 1169 L0 1169 L0 1366 L803 1366 L803 1169 Z " />
<glyph glyph-name="U" unicode="U" horiz-adv-x="985" d="M887 1366 L887 387 Q887 174 770 68 Q670 -23 492 -23 Q421 -23 356 -6 Q223 28 154 144 Q98 240 98 387 L98 1366 L340 1366 L340 393 Q340 287 376.5 238.5 Q413 190 494 190 Q520 190 543 196 Q645 221 645 393 L645 1366 L887 1366 Z " />
<glyph glyph-name="V" unicode="V" horiz-adv-x="868" d="M858 1366 L588 0 L270 0 L10 1366 L252 1366 Q322 961 409 409 L430 279 Q477 575 557 1029 L593 1235 L616 1366 L858 1366 Z " />
<glyph glyph-name="W" unicode="W" horiz-adv-x="1386" d="M1376 1366 L1143 0 L882 0 L733 801 Q708 936 696 1118 Q681 932 657 807 L506 0 L250 0 L10 1366 L235 1366 L354 618 Q377 473 395 301 Q414 492 436 618 L569 1366 L821 1366 L954 662 Q988 481 999 301 Q1018 492 1046 676 L1153 1366 L1376 1366 Z " />
<glyph glyph-name="X" unicode="X" horiz-adv-x="891" d="M880 0 L637 0 L493 410 Q464 494 446 555 Q427 479 401 410 L252 0 L10 0 L305 731 L37 1366 L284 1366 Q381 1091 448 889 L560 1222 L608 1366 L850 1366 L594 731 L880 0 Z " />
<glyph glyph-name="Y" unicode="Y" horiz-adv-x="915" d="M905 1366 L582 530 L582 0 L338 0 L338 530 L10 1366 L254 1366 Q339 1115 461 711 Q581 1115 666 1366 L905 1366 Z " />
<glyph glyph-name="Z" unicode="Z" horiz-adv-x="823" d="M772 0 L31 0 L31 172 L512 1169 L66 1169 L66 1366 L772 1366 L772 1194 L289 197 L772 197 L772 0 Z " />
<glyph glyph-name="bracketleft" unicode="&#x5b;" horiz-adv-x="584" d="M530 -66 L94 -66 L94 1430 L530 1430 L530 1235 L319 1235 L319 129 L530 129 L530 -66 Z " />
<glyph glyph-name="backslash" unicode="&#x5c;" horiz-adv-x="561" d="M520 -66 L326 -66 L41 1430 L236 1430 L520 -66 Z " />
<glyph glyph-name="bracketright" unicode="&#x5d;" horiz-adv-x="584" d="M489 -66 L53 -66 L53 129 L264 129 L264 1235 L53 1235 L53 1430 L489 1430 L489 -66 Z " />
<glyph glyph-name="asciicircum" unicode="&#x5e;" horiz-adv-x="1024" d="M960 797 L727 797 L512 1247 L296 797 L63 797 L366 1423 L657 1423 L960 797 Z " />
<glyph glyph-name="underscore" unicode="&#x5f;" horiz-adv-x="1024" d="M1045 -397 L-20 -397 L-20 -194 L1045 -194 L1045 -397 Z " />
<glyph glyph-name="grave" unicode="&#x60;" horiz-adv-x="1024" d="M712 1153 L508 1153 L311 1430 L583 1430 L712 1153 Z " />
<glyph glyph-name="a" unicode="a" horiz-adv-x="864" d="M786 0 L579 0 L571 88 Q463 -12 338 -12 Q214 -12 134.5 64 Q55 140 55 258 L55 303 Q55 462 168 543.5 Q281 625 555 663 L555 778 Q555 846 528 874 Q501 902 436 902 Q361 902 337 870.5 Q313 839 311 737 L92 737 L92 772 Q92 1084 446 1084 Q519 1084 585 1068 Q786 1019 786 776 L786 0 Z M555 242 L555 504 Q407 479 346.5 435.5 Q286 392 286 311 L286 287 Q286 172 403 172 Q471 172 555 242 Z " />
<glyph glyph-name="b" unicode="b" horiz-adv-x="885" d="M315 973 Q389 1038 437 1061 Q485 1084 547 1084 Q621 1084 672 1055 Q813 975 813 723 L813 293 Q813 122 723 38 Q658 -23 557 -23 Q440 -23 309 90 L303 0 L84 0 L84 1423 L315 1423 L315 973 Z M315 258 Q400 184 468 184 Q499 184 522 197 Q581 232 581 334 L581 723 Q581 877 467 877 Q399 877 315 805 L315 258 Z " />
<glyph glyph-name="c" unicode="c" horiz-adv-x="831" d="M770 389 L770 289 Q770 143 676 59 Q583 -23 423 -23 Q246 -23 153 80 Q72 168 72 319 L72 756 Q72 896 162 986 Q261 1084 425 1084 Q595 1084 687 983 Q760 903 760 776 L760 694 L533 694 L533 727 Q533 808 506 844.5 Q479 881 419 881 Q303 881 303 743 L303 346 Q303 253 329.5 216.5 Q356 180 423 180 Q446 180 467 185 Q541 202 541 338 L541 389 L770 389 Z " />
<glyph glyph-name="d" unicode="d" horiz-adv-x="885" d="M801 0 L581 0 L575 86 Q451 -23 328 -23 Q290 -23 255 -14 Q167 9 119.5 89 Q72 169 72 293 L72 748 Q72 1083 332 1083 Q400 1083 447.5 1061 Q495 1039 569 973 L569 1423 L801 1423 L801 0 Z M569 258 L569 805 Q484 876 416 876 Q396 876 379 871 Q303 852 303 723 L303 332 Q303 262 332.5 223 Q362 184 416 184 Q484 184 569 258 Z " />
<glyph glyph-name="e" unicode="e" horiz-adv-x="858" d="M787 336 L787 320 Q787 148 689 59 Q599 -23 431 -23 Q250 -23 156 81 Q72 174 72 338 L72 715 Q72 1084 432 1084 Q505 1084 572 1067 Q787 1014 787 725 L787 467 L299 467 L299 301 Q299 174 432 174 Q459 174 482 180 Q558 199 558 320 L558 336 L787 336 Z M560 649 L560 758 Q560 897 429 897 Q407 897 386 892 Q299 870 299 758 L299 649 L560 649 Z " />
<glyph glyph-name="f" unicode="f" horiz-adv-x="596" d="M656 1448 L642 1256 Q569 1267 525 1267 Q495 1267 469 1261 Q432 1252 415.5 1217.5 Q399 1183 399 1112 L399 1061 L595 1061 L595 881 L399 881 L399 0 L167 0 L167 881 L20 881 L20 1061 L167 1061 L167 1116 Q167 1464 500 1464 Q575 1464 656 1448 Z " />
<glyph glyph-name="g" unicode="g" horiz-adv-x="899" d="M322 362 Q293 331 293 306 Q293 279 323.5 260 Q354 241 432 219 L602 172 Q758 129 823 65.5 Q888 2 888 -107 Q888 -303 724 -397 Q608 -463 434 -463 Q258 -463 143 -397 Q4 -318 4 -168 Q4 -125 17 -85 Q54 25 195 84 Q86 128 86 230 Q86 326 205 403 Q72 462 72 666 L72 772 Q72 921 162 1001 Q253 1082 431 1082 Q475 1082 514 1077 Q600 1067 665 1024 Q751 1114 850 1114 L878 1114 L878 955 Q846 963 818 963 Q807 963 795 960 Q768 953 751 936 Q786 870 786 772 L786 662 Q786 497 701 421 Q617 346 439 346 Q364 346 322 362 Z M565 651 L565 768 Q565 836 530 873 Q495 910 430 910 Q365 910 329 873 Q293 836 293 768 L293 651 Q293 590 329.5 554 Q366 518 429 518 Q453 518 474 524 Q565 548 565 651 Z M303 37 Q215 -11 215 -90 Q215 -115 221 -138 Q256 -264 454 -264 Q665 -264 665 -150 Q665 -99 630.5 -73 Q596 -47 489 -17 L303 37 Z " />
<glyph glyph-name="h" unicode="h" horiz-adv-x="887" d="M801 0 L570 0 L570 758 Q570 867 479 867 Q409 867 315 791 L315 0 L84 0 L84 1423 L315 1423 L315 987 Q453 1082 572 1082 Q801 1082 801 797 L801 0 Z " />
<glyph glyph-name="i" unicode="i" horiz-adv-x="399" d="M315 0 L84 0 L84 1061 L315 1061 L315 0 Z M315 1218 L84 1218 L84 1423 L315 1423 L315 1218 Z " />
<glyph glyph-name="j" unicode="j" horiz-adv-x="399" d="M311 1061 L311 -131 Q311 -449 27 -449 Q-34 -449 -135 -430 L-135 -227 Q-81 -244 -30 -244 Q5 -244 30 -230 Q57 -215 68.5 -180 Q80 -145 80 -76 L80 1061 L311 1061 Z M312 1218 L79 1218 L79 1423 L312 1423 L312 1218 Z " />
<glyph glyph-name="k" unicode="k" horiz-adv-x="897" d="M899 0 L655 0 L444 526 L315 365 L315 0 L84 0 L84 1423 L315 1423 L315 664 L583 1061 L850 1061 L604 711 L899 0 Z " />
<glyph glyph-name="l" unicode="l" horiz-adv-x="399" d="M315 0 L84 0 L84 1423 L315 1423 L315 0 Z " />
<glyph glyph-name="m" unicode="m" horiz-adv-x="1313" d="M1233 0 L1002 0 L1002 735 Q1002 860 910 860 Q838 860 775 774 L775 0 L543 0 L543 745 Q543 860 444 860 Q427 860 411 856 Q364 844 315 789 L315 0 L84 0 L84 1061 L288 1061 L299 963 Q361 1027 416.5 1054 Q472 1081 542 1081 Q622 1081 668.5 1050.5 Q715 1020 750 944 Q853 1081 999 1081 Q1110 1081 1172 1012 Q1233 942 1233 813 L1233 0 Z " />
<glyph glyph-name="n" unicode="n" horiz-adv-x="870" d="M791 0 L560 0 L560 750 Q560 868 470 868 Q393 868 315 791 L315 0 L84 0 L84 1061 L292 1061 L303 963 Q373 1030 426.5 1056.5 Q480 1083 546 1083 Q663 1083 727 1011.5 Q791 940 791 809 L791 0 Z " />
<glyph glyph-name="o" unicode="o" horiz-adv-x="879" d="M72 344 L72 731 Q72 886 169 983 Q270 1084 442 1084 Q628 1084 725 976 Q807 885 807 731 L807 344 Q807 161 699 63 Q604 -23 441 -23 Q258 -23 159 87 Q72 184 72 344 Z M576 324 L576 733 Q576 800 539 840.5 Q502 881 441 881 Q377 881 340 841 Q303 801 303 733 L303 324 Q303 256 339.5 218 Q376 180 440 180 Q464 180 484 185 Q576 210 576 324 Z " />
<glyph glyph-name="p" unicode="p" horiz-adv-x="885" d="M309 975 Q431 1081 555 1081 Q671 1081 739 1004 Q813 921 813 768 L813 315 Q813 -20 552 -20 Q485 -20 438 2 Q391 24 315 90 L315 -440 L84 -440 L84 1061 L303 1061 L309 975 Z M315 258 Q397 187 469 187 Q489 187 507 192 Q583 210 583 340 L583 729 Q583 797 553 836.5 Q523 876 471 876 Q402 876 315 803 L315 258 Z " />
<glyph glyph-name="q" unicode="q" horiz-adv-x="885" d="M801 -440 L569 -440 L569 88 Q493 21 446 -1 Q399 -23 331 -23 Q72 -23 72 313 L72 768 Q72 915 140 998 Q208 1081 329 1081 Q361 1081 391 1075 Q478 1057 575 975 L581 1061 L801 1061 L801 -440 Z M569 256 L569 803 Q479 876 415 876 Q385 876 361 862 Q303 829 303 729 L303 338 Q303 184 417 184 Q485 184 569 256 Z " />
<glyph glyph-name="r" unicode="r" horiz-adv-x="596" d="M598 821 Q487 816 430.5 783 Q374 750 333 668 Q315 630 315 618 L315 0 L84 0 L84 1061 L305 1061 L305 891 Q372 996 429 1033.5 Q486 1071 598 1083 L598 821 Z " />
<glyph glyph-name="s" unicode="s" horiz-adv-x="799" d="M520 762 L520 793 Q520 852 491 879 Q462 906 398 906 Q285 906 285 811 Q285 762 326 722.5 Q367 683 473 629 Q657 535 714 449 Q762 376 762 288 L762 260 Q762 106 630 30 Q538 -23 402 -23 Q203 -23 105 83 Q35 158 35 274 L35 317 L266 317 L266 288 Q266 218 299 185.5 Q332 153 405 153 Q527 153 527 254 Q527 289 510 317 Q478 370 342 440 Q163 532 108 618 Q62 693 62 785 L62 809 Q62 933 141 1003 Q230 1082 404 1082 Q475 1082 538 1066 Q635 1042 689.5 973 Q744 904 744 805 L744 762 L520 762 Z " />
<glyph glyph-name="t" unicode="t" horiz-adv-x="649" d="M619 4 Q530 -14 460 -14 Q404 -14 352 -1 Q168 47 168 293 L168 881 L31 881 L31 1061 L170 1061 L170 1321 L401 1358 L401 1061 L613 1061 L613 881 L401 881 L401 293 Q401 168 519 168 Q542 168 602 179 Q612 181 619 182 L619 4 Z " />
<glyph glyph-name="u" unicode="u" horiz-adv-x="872" d="M789 0 L582 0 L572 92 Q447 -23 312 -23 Q80 -23 80 272 L80 1061 L311 1061 L311 301 Q311 194 399 194 Q471 194 558 270 L558 1061 L789 1061 L789 0 Z " />
<glyph glyph-name="v" unicode="v" horiz-adv-x="784" d="M776 1061 L532 0 L256 0 L8 1061 L244 1061 L348 510 Q376 364 389 233 Q478 720 545 1061 L776 1061 Z " />
<glyph glyph-name="w" unicode="w" horiz-adv-x="1214" d="M1196 1061 L993 0 L733 0 L636 518 Q612 649 604 750 Q592 640 567 518 L460 0 L202 0 L18 1061 L249 1061 L331 471 Q346 367 356 246 Q367 325 392 476 L405 553 L428 680 L450 807 L467 903 L484 1000 L495 1061 L720 1061 L817 471 Q822 442 830 386 Q841 318 847 246 Q866 401 876 471 L964 1061 L1196 1061 Z " />
<glyph glyph-name="x" unicode="x" horiz-adv-x="813" d="M813 0 L565 0 L403 414 L250 0 L2 0 L242 561 L22 1061 L262 1061 L412 696 L559 1061 L801 1061 L573 555 L813 0 Z " />
<glyph glyph-name="y" unicode="y" horiz-adv-x="862" d="M832 1061 L527 -117 Q497 -232 463 -295.5 Q429 -359 378 -395 Q296 -453 139 -453 Q120 -453 109 -452 Q82 -450 27 -441 L27 -256 Q64 -267 112 -267 Q144 -267 174 -261 Q222 -250 249 -215.5 Q276 -181 293 -109 L326 33 L31 1061 L275 1061 Q345 744 441 248 Q456 359 500 573 Q544 794 601 1061 L832 1061 Z " />
<glyph glyph-name="z" unicode="z" horiz-adv-x="778" d="M723 0 L51 0 L51 156 L438 881 L88 881 L88 1061 L700 1061 L700 893 L319 180 L723 180 L723 0 Z " />
<glyph glyph-name="braceleft" unicode="&#x7b;" horiz-adv-x="584" d="M575 -66 L396 -66 Q155 -66 155 184 L155 424 Q155 525 124 566.5 Q93 608 10 616 L10 754 Q90 761 121 799 Q155 839 155 942 L155 1182 Q155 1430 396 1430 L575 1430 L575 1258 L499 1258 Q380 1258 380 1123 L380 911 Q380 809 341 760 Q302 711 202 688 L202 682 Q303 661 341.5 611.5 Q380 562 380 452 L380 243 Q380 106 499 106 L575 106 L575 -66 Z " />
<glyph glyph-name="bar" unicode="&#x7c;" horiz-adv-x="1024" d="M628 -217 L395 -217 L395 1589 L628 1589 L628 -217 Z " />
<glyph glyph-name="braceright" unicode="&#x7d;" horiz-adv-x="584" d="M573 616 Q492 608 461 572 Q428 532 428 424 L428 184 Q428 -66 187 -66 L8 -66 L8 106 L84 106 Q203 106 203 243 L203 452 Q203 571 250 622 Q287 663 381 682 L381 688 Q281 711 242 760 Q203 809 203 911 L203 1123 Q203 1258 84 1258 L8 1258 L8 1430 L187 1430 Q428 1430 428 1182 L428 942 Q428 842 459 802 Q490 762 573 754 L573 616 Z " />
<glyph glyph-name="asciitilde" unicode="&#x7e;" horiz-adv-x="1024" d="M981 629 Q856 375 678 375 Q612 375 501 430 Q389 485 324 485 Q275 485 241.5 460.5 Q208 436 166 369 L43 440 Q107 560 142 602 Q222 698 334 698 Q369 698 393 691 Q445 678 518 643 Q634 588 698 588 Q788 588 854 702 L981 629 Z " />
<glyph glyph-name="Adieresis" unicode="&#xc4;" horiz-adv-x="913" d="M762 1469 L531 1469 L531 1694 L762 1694 L762 1469 Z M393 1469 L162 1469 L162 1694 L393 1694 L393 1469 Z M903 0 L655 0 L592 340 L313 340 L250 0 L10 0 L293 1366 L616 1366 L903 0 Z M567 532 L564 550 L547 638 Q478 996 450 1190 L435 1101 L408 940 L380 777 L356 638 L341 550 L338 532 L567 532 Z " />
<glyph glyph-name="Aring" unicode="&#xc5;" horiz-adv-x="913" d="M454 1798 Q480 1798 505 1791 Q566 1775 601.5 1729 Q637 1683 637 1622 Q637 1550 584 1501 Q531 1452 454 1452 Q376 1452 324 1501 Q272 1550 272 1624 Q272 1698 324.5 1748 Q377 1798 454 1798 Z M454 1691 Q445 1691 437 1689 Q389 1675 389 1625 Q389 1616 391 1608 Q404 1560 454 1560 Q463 1560 472 1562 Q520 1575 520 1626 Q520 1653 501 1672 Q482 1691 454 1691 Z M903 0 L655 0 L592 340 L313 340 L250 0 L10 0 L293 1366 L616 1366 L903 0 Z M567 532 L564 550 L547 638 Q478 996 450 1190 L435 1101 L408 940 L380 777 L356 638 L341 550 L338 532 L567 532 Z " />
<glyph glyph-name="Ccedilla" unicode="&#xc7;" horiz-adv-x="938" d="M428 -21 Q84 1 84 379 L84 983 Q84 1194 200 1300 Q300 1391 475 1391 Q549 1391 617 1373 Q735 1343 799.5 1253 Q864 1163 864 1030 L864 897 L625 897 L625 975 Q625 1088 593 1132 Q561 1176 477 1176 Q446 1176 418 1169 Q328 1147 328 1010 L328 379 Q328 272 360 232 Q392 192 477 192 Q509 192 537 198 Q585 210 605 256 Q625 302 625 403 L625 483 L875 483 L875 360 Q875 133 738 42 Q665 -6 543 -19 L504 -99 Q692 -103 692 -249 Q692 -426 426 -426 Q347 -426 271 -406 L279 -291 Q351 -311 394 -311 Q413 -311 431 -309 Q514 -298 514 -246 Q514 -231 507 -219 Q487 -185 408 -185 Q392 -185 353 -189 L428 -21 Z " />
<glyph glyph-name="Eacute" unicode="&#xc9;" horiz-adv-x="774" d="M653 1718 L454 1441 L252 1441 L381 1718 L653 1718 Z M741 0 L98 0 L98 1366 L721 1366 L721 1169 L342 1169 L342 803 L680 803 L680 606 L342 606 L342 197 L741 197 L741 0 Z " />
<glyph glyph-name="Ntilde" unicode="&#xd1;" horiz-adv-x="1044" d="M844 1569 Q762 1507 726.5 1491 Q691 1475 635 1475 Q624 1475 616 1476 Q582 1479 515 1508 Q444 1538 409 1538 Q403 1538 395 1536 Q353 1528 297 1473 L199 1604 Q315 1716 408 1716 Q426 1716 444 1712 Q471 1707 522 1685 Q593 1655 630 1655 Q674 1655 762 1718 L844 1569 Z M946 0 L632 0 L481 467 Q371 804 317 993 Q329 810 329 614 L329 0 L98 0 L98 1366 L413 1366 L554 930 Q667 584 728 358 Q716 540 716 791 L716 823 L716 1366 L946 1366 L946 0 Z " />
<glyph glyph-name="Odieresis" unicode="&#xd6;" horiz-adv-x="969" d="M789 1469 L556 1469 L556 1694 L789 1694 L789 1469 Z M419 1469 L186 1469 L186 1694 L419 1694 L419 1469 Z M84 399 L84 955 Q84 1185 207 1298 Q310 1391 486 1391 Q680 1391 785 1274 Q885 1161 885 955 L885 399 Q885 182 762 70 Q660 -23 485 -23 Q417 -23 352 -7 Q213 29 142 151 Q84 250 84 399 Z M643 383 L643 969 Q643 1176 488 1176 Q460 1176 435 1169 Q326 1142 326 969 L326 383 Q326 192 484 192 Q643 192 643 383 Z " />
<glyph glyph-name="Udieresis" unicode="&#xdc;" horiz-adv-x="985" d="M788 1469 L555 1469 L555 1694 L788 1694 L788 1469 Z M419 1469 L186 1469 L186 1694 L419 1694 L419 1469 Z M887 1366 L887 387 Q887 174 770 68 Q670 -23 492 -23 Q421 -23 356 -6 Q223 28 154 144 Q98 240 98 387 L98 1366 L340 1366 L340 393 Q340 287 376.5 238.5 Q413 190 494 190 Q520 190 543 196 Q645 221 645 393 L645 1366 L887 1366 Z " />
<glyph glyph-name="aacute" unicode="&#xe1;" horiz-adv-x="864" d="M706 1430 L509 1153 L305 1153 L436 1430 L706 1430 Z M786 0 L579 0 L571 88 Q463 -12 338 -12 Q214 -12 134.5 64 Q55 140 55 258 L55 303 Q55 462 168 543.5 Q281 625 555 663 L555 778 Q555 846 528 874 Q501 902 436 902 Q361 902 337 870.5 Q313 839 311 737 L92 737 L92 772 Q92 1084 446 1084 Q519 1084 585 1068 Q786 1019 786 776 L786 0 Z M555 242 L555 504 Q407 479 346.5 435.5 Q286 392 286 311 L286 287 Q286 172 403 172 Q471 172 555 242 Z " />
<glyph glyph-name="agrave" unicode="&#xe0;" horiz-adv-x="864" d="M585 1153 L380 1153 L184 1430 L456 1430 L585 1153 Z M786 0 L579 0 L571 88 Q463 -12 338 -12 Q214 -12 134.5 64 Q55 140 55 258 L55 303 Q55 462 168 543.5 Q281 625 555 663 L555 778 Q555 846 528 874 Q501 902 436 902 Q361 902 337 870.5 Q313 839 311 737 L92 737 L92 772 Q92 1084 446 1084 Q519 1084 585 1068 Q786 1019 786 776 L786 0 Z M555 242 L555 504 Q407 479 346.5 435.5 Q286 392 286 311 L286 287 Q286 172 403 172 Q471 172 555 242 Z " />
<glyph glyph-name="acircumflex" unicode="&#xe2;" horiz-adv-x="864" d="M729 1151 L534 1151 L444 1317 L350 1151 L163 1151 L323 1430 L571 1430 L729 1151 Z M786 0 L579 0 L571 88 Q463 -12 338 -12 Q214 -12 134.5 64 Q55 140 55 258 L55 303 Q55 462 168 543.5 Q281 625 555 663 L555 778 Q555 846 528 874 Q501 902 436 902 Q361 902 337 870.5 Q313 839 311 737 L92 737 L92 772 Q92 1084 446 1084 Q519 1084 585 1068 Q786 1019 786 776 L786 0 Z M555 242 L555 504 Q407 479 346.5 435.5 Q286 392 286 311 L286 287 Q286 172 403 172 Q471 172 555 242 Z " />
<glyph glyph-name="adieresis" unicode="&#xe4;" horiz-adv-x="864" d="M745 1198 L524 1198 L524 1423 L745 1423 L745 1198 Z M376 1198 L155 1198 L155 1423 L376 1423 L376 1198 Z M786 0 L579 0 L571 88 Q463 -12 338 -12 Q214 -12 134.5 64 Q55 140 55 258 L55 303 Q55 462 168 543.5 Q281 625 555 663 L555 778 Q555 846 528 874 Q501 902 436 902 Q361 902 337 870.5 Q313 839 311 737 L92 737 L92 772 Q92 1084 446 1084 Q519 1084 585 1068 Q786 1019 786 776 L786 0 Z M555 242 L555 504 Q407 479 346.5 435.5 Q286 392 286 311 L286 287 Q286 172 403 172 Q471 172 555 242 Z " />
<glyph glyph-name="atilde" unicode="&#xe3;" horiz-adv-x="864" d="M761 1272 Q687 1216 645.5 1197 Q604 1178 555 1178 Q534 1178 515 1182 Q487 1187 432 1211 Q362 1241 329 1241 Q286 1241 214 1176 L116 1309 Q232 1421 325 1421 Q343 1421 361 1417 Q388 1411 439 1389 Q511 1358 548 1358 Q555 1358 563 1360 Q602 1368 679 1421 L761 1272 Z M786 0 L579 0 L571 88 Q463 -12 338 -12 Q214 -12 134.5 64 Q55 140 55 258 L55 303 Q55 462 168 543.5 Q281 625 555 663 L555 778 Q555 846 528 874 Q501 902 436 902 Q361 902 337 870.5 Q313 839 311 737 L92 737 L92 772 Q92 1084 446 1084 Q519 1084 585 1068 Q786 1019 786 776 L786 0 Z M555 242 L555 504 Q407 479 346.5 435.5 Q286 392 286 311 L286 287 Q286 172 403 172 Q471 172 555 242 Z " />
<glyph glyph-name="aring" unicode="&#xe5;" horiz-adv-x="864" d="M450 1483 Q477 1483 501 1476 Q561 1460 597 1414 Q633 1368 633 1307 Q633 1235 580 1186 Q527 1137 450 1137 Q423 1137 398 1144 Q339 1159 303.5 1204.5 Q268 1250 268 1309 Q268 1383 320.5 1433 Q373 1483 450 1483 Z M450 1377 Q441 1377 432 1375 Q385 1361 385 1311 Q385 1283 403.5 1264 Q422 1245 450 1245 Q459 1245 468 1247 Q516 1260 516 1311 Q516 1339 497 1358 Q478 1377 450 1377 Z M786 0 L579 0 L571 88 Q463 -12 338 -12 Q214 -12 134.5 64 Q55 140 55 258 L55 303 Q55 462 168 543.5 Q281 625 555 663 L555 778 Q555 846 528 874 Q501 902 436 902 Q361 902 337 870.5 Q313 839 311 737 L92 737 L92 772 Q92 1084 446 1084 Q519 1084 585 1068 Q786 1019 786 776 L786 0 Z M555 242 L555 504 Q407 479 346.5 435.5 Q286 392 286 311 L286 287 Q286 172 403 172 Q471 172 555 242 Z " />
<glyph glyph-name="ccedilla" unicode="&#xe7;" horiz-adv-x="827" d="M348 -18 Q215 -1 141.5 87.5 Q68 176 68 319 L68 756 Q68 896 158 986 Q257 1084 421 1084 Q591 1084 683 983 Q756 903 756 776 L756 694 L529 694 L529 727 Q529 808 502 844.5 Q475 881 415 881 Q299 881 299 743 L299 346 Q299 253 325.5 216.5 Q352 180 419 180 Q442 180 463 185 Q537 202 537 338 L537 389 L766 389 L766 289 Q766 154 686.5 73 Q607 -8 461 -21 L424 -98 Q612 -103 612 -249 Q612 -426 346 -426 Q271 -426 190 -406 L199 -291 Q271 -311 313 -311 Q333 -311 351 -309 Q434 -298 434 -246 Q434 -185 328 -185 Q309 -185 272 -189 L348 -18 Z " />
<glyph glyph-name="eacute" unicode="&#xe9;" horiz-adv-x="858" d="M711 1430 L512 1153 L308 1153 L439 1430 L711 1430 Z M787 336 L787 320 Q787 148 689 59 Q599 -23 431 -23 Q250 -23 156 81 Q72 174 72 338 L72 715 Q72 1084 432 1084 Q505 1084 572 1067 Q787 1014 787 725 L787 467 L299 467 L299 301 Q299 174 432 174 Q459 174 482 180 Q558 199 558 320 L558 336 L787 336 Z M560 649 L560 758 Q560 897 429 897 Q407 897 386 892 Q299 870 299 758 L299 649 L560 649 Z " />
<glyph glyph-name="egrave" unicode="&#xe8;" horiz-adv-x="858" d="M570 1153 L367 1153 L168 1430 L441 1430 L570 1153 Z M787 336 L787 320 Q787 148 689 59 Q599 -23 431 -23 Q250 -23 156 81 Q72 174 72 338 L72 715 Q72 1084 432 1084 Q505 1084 572 1067 Q787 1014 787 725 L787 467 L299 467 L299 301 Q299 174 432 174 Q459 174 482 180 Q558 199 558 320 L558 336 L787 336 Z M560 649 L560 758 Q560 897 429 897 Q407 897 386 892 Q299 870 299 758 L299 649 L560 649 Z " />
<glyph glyph-name="ecircumflex" unicode="&#xea;" horiz-adv-x="858" d="M727 1151 L535 1151 L443 1317 L348 1151 L162 1151 L322 1430 L570 1430 L727 1151 Z M787 336 L787 320 Q787 148 689 59 Q599 -23 431 -23 Q250 -23 156 81 Q72 174 72 338 L72 715 Q72 1084 432 1084 Q505 1084 572 1067 Q787 1014 787 725 L787 467 L299 467 L299 301 Q299 174 432 174 Q459 174 482 180 Q558 199 558 320 L558 336 L787 336 Z M560 649 L560 758 Q560 897 429 897 Q407 897 386 892 Q299 870 299 758 L299 649 L560 649 Z " />
<glyph glyph-name="edieresis" unicode="&#xeb;" horiz-adv-x="858" d="M742 1198 L521 1198 L521 1423 L742 1423 L742 1198 Z M373 1198 L152 1198 L152 1423 L373 1423 L373 1198 Z M787 336 L787 320 Q787 148 689 59 Q599 -23 431 -23 Q250 -23 156 81 Q72 174 72 338 L72 715 Q72 1084 432 1084 Q505 1084 572 1067 Q787 1014 787 725 L787 467 L299 467 L299 301 Q299 174 432 174 Q459 174 482 180 Q558 199 558 320 L558 336 L787 336 Z M560 649 L560 758 Q560 897 429 897 Q407 897 386 892 Q299 870 299 758 L299 649 L560 649 Z " />
<glyph glyph-name="iacute" unicode="&#xed;" horiz-adv-x="399" d="M315 0 L84 0 L84 1061 L315 1061 L315 0 Z M487 1430 L289 1153 L86 1153 L215 1430 L487 1430 Z " />
<glyph glyph-name="igrave" unicode="&#xec;" horiz-adv-x="399" d="M315 0 L84 0 L84 1061 L315 1061 L315 0 Z M329 1153 L125 1153 L-72 1430 L200 1430 L329 1153 Z " />
<glyph glyph-name="icircumflex" unicode="&#xee;" horiz-adv-x="399" d="M315 0 L84 0 L84 1061 L315 1061 L315 0 Z M442 1151 L260 1151 L201 1317 L135 1151 L-41 1151 L78 1430 L326 1430 L442 1151 Z " />
<glyph glyph-name="idieresis" unicode="&#xef;" horiz-adv-x="399" d="M315 0 L84 0 L84 1061 L315 1061 L315 0 Z M420 1198 L260 1198 L260 1423 L420 1423 L420 1198 Z M140 1198 L-20 1198 L-20 1423 L140 1423 L140 1198 Z " />
<glyph glyph-name="ntilde" unicode="&#xf1;" horiz-adv-x="870" d="M746 1280 Q671 1222 631.5 1204 Q592 1186 540 1186 Q493 1186 415 1220 Q346 1250 313 1250 Q306 1250 298 1248 Q259 1240 199 1184 L100 1315 Q217 1428 309 1428 Q327 1428 345 1424 Q372 1418 423 1397 Q495 1366 532 1366 Q539 1366 547 1368 Q590 1377 664 1430 L746 1280 Z M791 0 L560 0 L560 750 Q560 868 470 868 Q393 868 315 791 L315 0 L84 0 L84 1061 L292 1061 L303 963 Q373 1030 426.5 1056.5 Q480 1083 546 1083 Q663 1083 727 1011.5 Q791 940 791 809 L791 0 Z " />
<glyph glyph-name="oacute" unicode="&#xf3;" horiz-adv-x="879" d="M705 1430 L508 1153 L303 1153 L432 1430 L705 1430 Z M72 344 L72 731 Q72 886 169 983 Q270 1084 442 1084 Q628 1084 725 976 Q807 885 807 731 L807 344 Q807 161 699 63 Q604 -23 441 -23 Q258 -23 159 87 Q72 184 72 344 Z M576 324 L576 733 Q576 800 539 840.5 Q502 881 441 881 Q377 881 340 841 Q303 801 303 733 L303 324 Q303 256 339.5 218 Q376 180 440 180 Q464 180 484 185 Q576 210 576 324 Z " />
<glyph glyph-name="ograve" unicode="&#xf2;" horiz-adv-x="879" d="M576 1153 L371 1153 L174 1430 L447 1430 L576 1153 Z M72 344 L72 731 Q72 886 169 983 Q270 1084 442 1084 Q628 1084 725 976 Q807 885 807 731 L807 344 Q807 161 699 63 Q604 -23 441 -23 Q258 -23 159 87 Q72 184 72 344 Z M576 324 L576 733 Q576 800 539 840.5 Q502 881 441 881 Q377 881 340 841 Q303 801 303 733 L303 324 Q303 256 339.5 218 Q376 180 440 180 Q464 180 484 185 Q576 210 576 324 Z " />
<glyph glyph-name="ocircumflex" unicode="&#xf4;" horiz-adv-x="879" d="M723 1149 L531 1149 L443 1315 L344 1149 L160 1149 L320 1428 L566 1428 L723 1149 Z M72 344 L72 731 Q72 886 169 983 Q270 1084 442 1084 Q628 1084 725 976 Q807 885 807 731 L807 344 Q807 161 699 63 Q604 -23 441 -23 Q258 -23 159 87 Q72 184 72 344 Z M576 324 L576 733 Q576 800 539 840.5 Q502 881 441 881 Q377 881 340 841 Q303 801 303 733 L303 324 Q303 256 339.5 218 Q376 180 440 180 Q464 180 484 185 Q576 210 576 324 Z " />
<glyph glyph-name="odieresis" unicode="&#xf6;" horiz-adv-x="879" d="M736 1198 L515 1198 L515 1423 L736 1423 L736 1198 Z M367 1198 L146 1198 L146 1423 L367 1423 L367 1198 Z M72 344 L72 731 Q72 886 169 983 Q270 1084 442 1084 Q628 1084 725 976 Q807 885 807 731 L807 344 Q807 161 699 63 Q604 -23 441 -23 Q258 -23 159 87 Q72 184 72 344 Z M576 324 L576 733 Q576 800 539 840.5 Q502 881 441 881 Q377 881 340 841 Q303 801 303 733 L303 324 Q303 256 339.5 218 Q376 180 440 180 Q464 180 484 185 Q576 210 576 324 Z " />
<glyph glyph-name="otilde" unicode="&#xf5;" horiz-adv-x="879" d="M760 1280 Q684 1221 645.5 1203.5 Q607 1186 556 1186 Q509 1186 429 1220 Q360 1250 327 1250 Q321 1250 313 1248 Q274 1240 213 1184 L117 1315 Q229 1428 324 1428 Q341 1428 360 1424 Q387 1418 438 1397 Q509 1366 546 1366 Q554 1366 561 1368 Q604 1377 678 1430 L760 1280 Z M72 344 L72 731 Q72 886 169 983 Q270 1084 442 1084 Q628 1084 725 976 Q807 885 807 731 L807 344 Q807 161 699 63 Q604 -23 441 -23 Q258 -23 159 87 Q72 184 72 344 Z M576 324 L576 733 Q576 800 539 840.5 Q502 881 441 881 Q377 881 340 841 Q303 801 303 733 L303 324 Q303 256 339.5 218 Q376 180 440 180 Q464 180 484 185 Q576 210 576 324 Z " />
<glyph glyph-name="uacute" unicode="&#xfa;" horiz-adv-x="872" d="M789 0 L582 0 L572 92 Q447 -23 312 -23 Q80 -23 80 272 L80 1061 L311 1061 L311 301 Q311 194 399 194 Q471 194 558 270 L558 1061 L789 1061 L789 0 Z M692 1430 L494 1153 L291 1153 L420 1430 L692 1430 Z " />
<glyph glyph-name="ugrave" unicode="&#xf9;" horiz-adv-x="872" d="M789 0 L582 0 L572 92 Q447 -23 312 -23 Q80 -23 80 272 L80 1061 L311 1061 L311 301 Q311 194 399 194 Q471 194 558 270 L558 1061 L789 1061 L789 0 Z M586 1153 L383 1153 L184 1430 L457 1430 L586 1153 Z " />
<glyph glyph-name="ucircumflex" unicode="&#xfb;" horiz-adv-x="872" d="M789 0 L582 0 L572 92 Q447 -23 312 -23 Q80 -23 80 272 L80 1061 L311 1061 L311 301 Q311 194 399 194 Q471 194 558 270 L558 1061 L789 1061 L789 0 Z M719 1149 L526 1149 L436 1315 L340 1149 L154 1149 L313 1428 L561 1428 L719 1149 Z " />
<glyph glyph-name="udieresis" unicode="&#xfc;" horiz-adv-x="872" d="M789 0 L582 0 L572 92 Q447 -23 312 -23 Q80 -23 80 272 L80 1061 L311 1061 L311 301 Q311 194 399 194 Q471 194 558 270 L558 1061 L789 1061 L789 0 Z M731 1198 L510 1198 L510 1423 L731 1423 L731 1198 Z M362 1198 L141 1198 L141 1423 L362 1423 L362 1198 Z " />
<glyph glyph-name="dagger" unicode="&#x2020;" horiz-adv-x="922" d="M850 848 L574 848 L574 -43 L351 -43 L351 848 L72 848 L72 1041 L351 1041 L351 1407 L574 1407 L574 1041 L850 1041 L850 848 Z " />
<glyph glyph-name="degree" unicode="&#xb0;" horiz-adv-x="852" d="M425 1436 Q481 1436 529 1423 Q635 1394 694 1313.5 Q753 1233 753 1117 Q753 979 665 892 Q576 803 426 803 Q277 803 186 893 Q98 982 98 1121 Q98 1258 185 1346 Q275 1436 425 1436 Z M427 1284 Q405 1284 385 1278 Q331 1263 297.5 1219.5 Q264 1176 264 1121 Q264 1099 270 1078 Q284 1025 328 991 Q372 957 427 957 Q450 957 470 963 Q524 977 557.5 1021.5 Q591 1066 591 1122 Q591 1188 542.5 1236 Q494 1284 427 1284 Z " />
<glyph glyph-name="cent" unicode="&#xa2;" horiz-adv-x="922" d="M824 524 L824 444 Q824 315 752.5 237 Q681 159 543 137 L545 -47 L432 -47 L436 135 Q345 145 296 167 Q113 250 113 475 L113 909 Q113 1040 193 1125.5 Q273 1211 416 1235 L412 1403 L524 1403 L522 1235 Q659 1218 738 1136 Q813 1055 813 930 L813 848 L588 848 L588 849 L588 850 Q588 935 572 972 Q545 1034 467 1034 Q344 1034 344 885 L344 504 Q344 336 477 336 Q544 336 569 371 Q594 406 594 499 L594 524 L824 524 Z " />
<glyph glyph-name="sterling" unicode="&#xa3;" horiz-adv-x="922" d="M885 344 L885 289 Q885 115 804 42 Q732 -23 592 -23 Q429 -23 287 98 Q181 1 64 -39 L-8 135 Q92 182 142 239 Q219 327 219 460 Q219 500 212 580 L211 596 L37 596 L37 764 L191 764 Q137 924 137 1055 Q137 1227 230 1310 Q320 1391 509 1391 Q580 1391 641 1376 Q844 1328 844 1035 L844 969 L625 969 L625 1039 Q625 1129 595 1166 Q565 1203 492 1203 Q356 1203 356 1058 Q356 1005 397 810 Q401 788 405 764 L608 764 L608 596 L414 596 Q414 586 416 563 Q418 524 418 491 Q418 356 369 248 Q475 159 549 159 Q587 159 615 174 Q642 189 653 223.5 Q664 258 664 326 L664 344 L885 344 Z " />
<glyph glyph-name="section" unicode="&#xa7;" horiz-adv-x="1004" d="M655 1026 L655 1053 Q655 1202 495 1202 Q350 1202 350 1097 Q350 1070 361 1048 Q373 1027 403 1006 Q433 985 569 903 L686 834 Q815 757 858 708 Q916 642 916 547 Q916 404 754 324 Q838 258 868.5 202 Q899 146 899 60 L899 59 L899 57 L899 54 L899 49 L899 42 L899 35 L899 29 L899 27 Q899 -118 800 -201 Q700 -286 490 -286 Q397 -286 314 -266 Q92 -212 92 62 L92 115 L330 115 L330 66 Q330 -96 497 -96 Q653 -96 653 29 Q653 85 623.5 118 Q594 151 487 215 L281 340 Q190 395 161 423 Q88 492 88 597 Q88 643 104 682 Q140 770 248 831 Q188 862 152.5 926 Q117 990 117 1067 L117 1087 Q117 1258 253 1336 Q352 1393 504 1393 Q585 1393 658 1375 Q768 1347 827.5 1269 Q887 1191 887 1075 L887 1026 L655 1026 Z M631 399 Q693 458 693 514 Q693 542 669.5 566 Q646 590 581 628 Q558 641 503 677 L465 701 Q403 741 369 762 Q317 728 304 712 Q291 696 291 666 Q291 626 318 597.5 Q345 569 432 519 L447 510 Q457 503 480 490 Q547 451 631 399 Z " />
<glyph glyph-name="bullet" unicode="&#x2022;" horiz-adv-x="633" d="M319 829 Q336 829 352 825 Q394 813 420 779 Q446 745 446 700 Q446 648 409 611 Q372 574 319 574 Q301 574 285 578 Q243 589 217 623.5 Q191 658 191 701 Q191 720 195 736 Q207 777 241.5 803 Q276 829 319 829 Z " />
<glyph glyph-name="paragraph" unicode="&#xb6;" horiz-adv-x="1262" d="M1176 1194 L1037 1194 L1037 -440 L847 -440 L847 1194 L661 1194 L661 -440 L471 -440 L471 651 L446 651 Q274 651 171 755 Q76 851 76 1003 Q76 1112 121 1193 Q216 1366 540 1366 L1176 1366 L1176 1194 Z " />
<glyph glyph-name="germandbls" unicode="&#xdf;" horiz-adv-x="961" d="M84 -440 L84 1030 Q84 1265 192 1362 Q286 1446 473 1446 Q665 1446 762 1338 Q846 1245 846 1104 Q846 1067 837 1035 Q826 993 776 918 Q725 839 725 797 Q725 780 731 758 Q746 706 811 597 Q878 485 904 416 Q930 347 930 280 Q930 250 925 218 Q886 -23 609 -23 Q514 -23 415 2 L460 203 Q525 182 581 182 Q604 182 623 187 Q697 204 697 290 Q697 352 602 494 Q535 594 509 653.5 Q483 713 483 766 Q483 774 485 787 Q493 837 550 926 Q617 1029 617 1093 Q617 1108 615 1124 Q606 1186 572.5 1213.5 Q539 1241 474 1241 Q391 1241 353 1195.5 Q315 1150 315 1051 L315 -440 L84 -440 Z " />
<glyph glyph-name="registered" unicode="&#xae;" horiz-adv-x="983" d="M652 840 L558 840 L478 1049 L449 1049 L449 840 L361 840 L361 1333 L486 1333 Q551 1333 587 1297.5 Q623 1262 623 1198 Q623 1176 619 1158 Q605 1100 556 1071 L652 840 Z M449 1130 L467 1130 Q533 1130 533 1195 Q533 1206 530 1217 Q522 1251 467 1251 L449 1251 L449 1130 Z M494 1538 Q563 1538 620 1522 Q769 1482 839 1354 Q903 1239 903 1081 Q903 852 770 731 Q666 635 494 635 Q425 635 367 651 Q222 689 145 819 Q80 930 80 1087 Q80 1171 100 1244 Q138 1386 240 1462 Q342 1538 494 1538 Z M492 1446 Q398 1446 329 1406 Q182 1322 182 1086 Q182 1013 199 949 Q256 727 494 727 Q697 727 768 899 Q801 978 801 1091 Q801 1221 749 1310 Q668 1446 492 1446 Z " />
<glyph glyph-name="copyright" unicode="&#xa9;" horiz-adv-x="1350" d="M938 571 L938 479 Q938 229 670 229 Q416 229 416 495 L416 868 Q416 1139 672 1139 Q721 1139 767 1127 Q845 1107 888.5 1047.5 Q932 988 932 901 L932 809 L779 809 L779 860 Q779 941 755 974.5 Q731 1008 675 1008 Q642 1008 618 995 Q570 969 570 883 L570 499 Q570 423 593.5 391.5 Q617 360 674 360 Q734 360 759.5 396 Q785 432 785 518 L785 571 L938 571 Z M678 1425 Q790 1425 884 1400 Q1130 1335 1245 1128 Q1350 939 1350 673 Q1350 467 1280 306 Q1185 86 978 -3 Q846 -59 679 -59 Q566 -59 469 -33 Q230 30 105 243 Q0 422 0 684 Q0 827 33 947 Q106 1216 317 1337 Q471 1425 678 1425 Z M676 1278 Q522 1278 413 1214 Q166 1067 166 682 Q166 562 194 455 Q234 301 336 206 Q464 88 680 88 Q1012 88 1129 369 Q1184 502 1184 687 Q1184 903 1099 1050 Q966 1278 676 1278 Z " />
<glyph glyph-name="trademark" unicode="&#x2122;" horiz-adv-x="1360" d="M1306 672 L1146 672 L1146 1022 Q1146 1227 1164 1347 L987 682 L874 682 L695 1347 L695 1341 Q711 1162 711 1032 L711 672 L551 672 L551 1497 L789 1497 L887 1165 Q926 1033 934 903 Q941 1020 979 1159 L1068 1497 L1306 1497 L1306 672 Z M512 1376 L342 1376 L342 672 L180 672 L180 1376 L12 1376 L12 1495 L512 1495 L512 1376 Z " />
<glyph glyph-name="acute" unicode="&#xb4;" horiz-adv-x="1024" d="M712 1430 L516 1153 L311 1153 L440 1430 L712 1430 Z " />
<glyph glyph-name="dieresis" unicode="&#xa8;" horiz-adv-x="1024" d="M807 1198 L586 1198 L586 1423 L807 1423 L807 1198 Z M438 1198 L217 1198 L217 1423 L438 1423 L438 1198 Z " />
<glyph glyph-name="notequal" unicode="&#x2260;" horiz-adv-x="1004" d="M946 252 L454 252 L348 41 L172 41 L276 252 L59 252 L59 451 L366 451 L444 606 L57 606 L57 805 L534 805 L645 1030 L821 1030 L710 805 L944 805 L944 606 L620 606 L544 451 L946 451 L946 252 Z " />
<glyph glyph-name="AE" unicode="&#xc6;" horiz-adv-x="1272" d="M1239 0 L643 0 L643 490 L401 490 L256 0 L10 0 L450 1366 L1231 1366 L1231 1169 L880 1169 L880 803 L1192 803 L1192 604 L880 604 L880 197 L1239 197 L1239 0 Z M643 674 L643 1169 L612 1169 L452 674 L643 674 Z " />
<glyph glyph-name="Oslash" unicode="&#xd8;" horiz-adv-x="969" d="M945 1366 L837 1192 Q884 1084 884 955 L884 399 Q884 182 761 70 Q659 -23 483 -23 Q300 -23 190 86 L116 -49 L24 6 L126 178 Q83 274 83 399 L83 955 Q83 1185 207 1298 Q309 1391 485 1391 Q533 1391 576 1384 Q689 1364 775 1284 L851 1415 L945 1366 Z M636 1045 Q608 1176 486 1176 Q438 1176 402 1156 Q325 1113 325 969 L325 512 L362 575 L422 676 L481 778 Q577 942 636 1045 Z M329 330 Q352 192 482 192 Q534 192 570 212 Q642 252 642 383 L642 868 Q477 591 329 330 Z " />
<glyph glyph-name="infinity" unicode="&#x221e;" horiz-adv-x="1346" d="M667 676 Q820 856 996 856 Q1044 856 1089 844 Q1194 815 1256 730.5 Q1318 646 1318 530 Q1318 480 1306 434 Q1277 326 1191 264 Q1108 203 996 203 Q826 203 677 385 Q516 203 347 203 Q300 203 255 215 Q149 244 86.5 329.5 Q24 415 24 532 Q24 674 115 765 Q206 856 344 856 Q390 856 433 844 Q549 811 667 676 Z M782 530 Q873 404 963 404 Q980 404 997 409 Q1040 420 1065.5 453 Q1091 486 1091 530 Q1091 584 1053 620.5 Q1015 657 959 657 Q933 657 907 648 Q838 624 782 530 Z M563 530 Q472 657 382 657 Q327 657 290 620.5 Q253 584 253 530 Q253 476 290 440 Q327 404 382 404 Q416 404 446 418 Q487 438 563 530 Z " />
<glyph glyph-name="plusminus" unicode="&#xb1;" horiz-adv-x="1024" d="M955 557 L623 557 L623 227 L404 227 L404 557 L70 557 L70 762 L404 762 L404 1090 L623 1090 L623 762 L955 762 L955 557 Z M955 -45 L70 -45 L70 160 L955 160 L955 -45 Z " />
<glyph glyph-name="lessequal" unicode="&#x2264;" horiz-adv-x="1024" d="M956 227 L69 574 L69 760 L956 1106 L956 897 L302 668 L956 436 L956 227 Z M956 -55 L69 -55 L69 150 L956 150 L956 -55 Z " />
<glyph glyph-name="greaterequal" unicode="&#x2265;" horiz-adv-x="1024" d="M956 574 L69 227 L69 436 L720 668 L69 897 L69 1106 L956 760 L956 574 Z M956 -55 L69 -55 L69 150 L956 150 L956 -55 Z " />
<glyph glyph-name="yen" unicode="&#xa5;" horiz-adv-x="922" d="M909 1366 L670 750 L821 750 L821 637 L627 637 L586 531 L586 508 L821 508 L821 395 L586 395 L586 0 L342 0 L342 395 L98 395 L98 508 L342 508 L342 531 L299 637 L98 637 L98 750 L256 750 L12 1366 L256 1366 L279 1300 Q373 1029 403.5 928.5 Q434 828 463 690 Q474 796 549 1014 L668 1366 L909 1366 Z " />
<glyph glyph-name="mu" unicode="&#xb5;" horiz-adv-x="1096" d="M981 0 L762 0 L762 113 Q704 -23 545 -23 Q470 -23 422 6.5 Q374 36 334 106 L334 -379 L115 -379 L115 1067 L334 1067 L334 434 Q334 153 548 153 Q612 153 658 179 Q762 237 762 446 L762 1067 L981 1067 L981 0 Z " />
<glyph glyph-name="partialdiff" unicode="&#x2202;" horiz-adv-x="1034" d="M94 1219 Q157 1299 254.5 1345 Q352 1391 458 1391 Q952 1391 952 596 Q952 482 941 383 Q925 249 871 152 Q772 -25 520 -25 Q299 -25 185 101 Q82 215 82 421 Q82 585 147 697 Q246 868 459 868 Q502 868 543 860 Q667 834 735 741 Q714 1227 462 1227 Q348 1227 236 1100 L94 1219 Z M731 561 Q694 630 634.5 668 Q575 706 506 706 Q445 706 399 679 Q295 620 295 427 Q295 359 310 299 Q328 223 382 181 Q436 139 515 139 Q575 139 616 163 Q732 230 732 487 L731 561 Z " />
<glyph glyph-name="summation" unicode="&#x2211;" horiz-adv-x="1092" d="M1034 0 L47 0 L47 204 L408 688 L47 1161 L47 1364 L1020 1364 L1020 1176 L276 1176 L643 688 L274 190 L1034 190 L1034 0 Z " />
<glyph glyph-name="product" unicode="&#x220f;" horiz-adv-x="1409" d="M1340 1161 L1186 1161 L1186 0 L953 0 L953 1161 L459 1161 L459 0 L228 0 L228 1161 L70 1161 L70 1364 L1340 1364 L1340 1161 Z " />
<glyph glyph-name="pi" unicode="&#x3c0;" horiz-adv-x="1096" d="M1053 862 L901 862 L901 0 L680 0 L680 862 L420 862 L420 0 L199 0 L199 862 L43 862 L43 1067 L1053 1067 L1053 862 Z " />
<glyph glyph-name="integral" unicode="&#x222b;" horiz-adv-x="1024" d="M890 1372 L847 1174 Q793 1194 742 1194 Q709 1194 685 1180 Q624 1144 624 1020 L624 88 Q624 -43 615.5 -116 Q607 -189 585 -240 Q519 -397 301 -397 Q224 -397 133 -377 L176 -178 Q232 -198 281 -198 Q317 -198 344 -183 Q374 -166 386.5 -126 Q399 -86 399 -4 L399 907 Q399 1040 407.5 1111.5 Q416 1183 438 1235 Q504 1393 716 1393 Q791 1393 890 1372 Z " />
<glyph glyph-name="ordfeminine" unicode="&#xaa;" horiz-adv-x="688" d="M587 721 L435 721 L431 784 Q385 715 290 715 Q204 715 151 762.5 Q98 810 98 887 L98 913 Q98 1102 417 1138 L417 1196 Q417 1260 350 1260 Q324 1260 307 1251 Q282 1237 282 1187 L282 1163 L122 1163 L122 1194 Q122 1391 359 1391 Q411 1391 456 1380 Q587 1347 587 1196 L587 721 Z M417 881 L417 1022 Q267 991 267 917 L267 903 Q267 846 333 846 Q372 846 417 881 Z M587 524 L98 524 L98 653 L587 653 L587 524 Z " />
<glyph glyph-name="ordmasculine" unicode="&#xba;" horiz-adv-x="690" d="M98 938 L98 1167 Q98 1270 165.5 1330.5 Q233 1391 346 1391 Q391 1391 432 1380 Q587 1339 587 1167 L587 938 Q587 829 522.5 768 Q458 707 344 707 Q299 707 260 717 Q183 738 140.5 795.5 Q98 853 98 938 Z M419 926 L419 1170 Q419 1248 343 1248 Q329 1248 315 1245 Q266 1232 266 1170 L266 926 Q266 850 344 850 Q419 850 419 926 Z M590 524 L98 524 L98 653 L590 653 L590 524 Z " />
<glyph glyph-name="Omega" unicode="&#x2126;" horiz-adv-x="1419" d="M1372 0 L807 0 L807 187 Q953 271 1026 370 Q1133 517 1133 721 Q1133 927 1026 1059 Q909 1205 711 1205 Q593 1205 502 1152 Q400 1094 344 980.5 Q288 867 288 721 Q288 539 365.5 411 Q443 283 612 187 L612 0 L47 0 L47 205 L368 205 Q225 292 159 392 Q67 529 67 735 Q67 841 91 932 Q149 1145 322 1271 Q488 1391 710 1391 Q987 1391 1168 1209 Q1352 1025 1352 739 Q1352 558 1280 430.5 Q1208 303 1051 205 L1372 205 L1372 0 Z " />
<glyph glyph-name="ae" unicode="&#xe6;" horiz-adv-x="1325" d="M1253 336 L1253 320 Q1253 149 1152 58 Q1062 -23 903 -23 Q848 -23 797 -12 Q685 12 616 117 Q476 -12 336 -12 Q213 -12 134 63.5 Q55 139 55 258 L55 303 Q55 462 165.5 542 Q276 622 555 664 L555 755 Q555 833 528 866 Q501 899 439 899 Q412 899 387 893 Q347 884 330 849.5 Q313 815 311 737 L92 737 L92 770 Q92 920 184 1002 Q274 1082 439 1082 Q490 1082 538 1073 Q635 1053 682 971 Q763 1082 918 1082 Q1065 1082 1156 990 Q1253 892 1253 723 L1253 494 L772 494 L772 313 Q772 249 807.5 211.5 Q843 174 903 174 Q969 174 997 210 Q1025 246 1030 336 L1253 336 Z M1034 674 L1034 755 Q1034 895 907 895 Q884 895 864 890 Q772 865 772 755 L772 674 L1034 674 Z M555 242 L555 504 Q400 476 343 435 Q286 394 286 311 L286 287 Q286 235 318.5 203.5 Q351 172 405 172 Q469 172 555 242 Z " />
<glyph glyph-name="oslash" unicode="&#xf8;" horiz-adv-x="879" d="M881 1071 Q826 997 781 933 L768 914 Q807 832 807 731 L807 344 Q807 159 700 63 Q606 -23 441 -23 Q278 -23 174 70 L80 -70 L-4 -12 L117 147 Q72 232 72 344 L72 731 Q72 887 169 983 Q270 1084 442 1084 Q607 1084 711 991 L721 1008 L738 1034 L755 1060 Q779 1098 799 1129 L881 1071 Z M570 782 Q537 881 440 881 Q417 881 398 876 Q303 851 303 733 L303 403 L335 449 L386 520 L437 592 L487 665 L538 737 L570 782 Z M311 268 Q340 180 441 180 Q466 180 489 186 Q576 207 576 324 L576 647 L544 602 L494 530 L443 458 L393 386 L343 314 L311 268 Z " />
<glyph glyph-name="questiondown" unicode="&#xbf;" horiz-adv-x="829" d="M567 1102 L331 1102 L331 1364 L567 1364 L567 1102 Z M745 354 L745 282 Q745 -25 389 -25 Q55 -25 55 262 L55 309 Q55 393 83.5 457.5 Q112 522 193 619 Q272 715 300.5 777.5 Q329 840 329 920 L329 1004 L558 1004 L558 912 Q558 816 522 732 Q486 648 393 526 Q330 444 307 398.5 Q284 353 284 311 L284 266 Q284 215 314 187 Q344 159 399 159 Q458 159 491 191.5 Q524 224 524 282 L524 354 L745 354 Z " />
<glyph glyph-name="exclamdown" unicode="&#xa1;" horiz-adv-x="489" d="M322 1102 L86 1102 L86 1366 L322 1366 L322 1102 Z M317 0 L90 0 L113 950 L297 950 L317 0 Z " />
<glyph glyph-name="logicalnot" unicode="&#xac;" horiz-adv-x="1024" d="M955 0 L736 0 L736 428 L70 428 L70 631 L955 631 L955 0 Z " />
<glyph glyph-name="radical" unicode="&#x221a;" horiz-adv-x="1280" d="M1301 1493 L916 1493 L594 0 L306 0 L164 577 L-20 577 L-20 782 L349 782 Q421 509 445 276 L457 276 Q465 351 494 499 Q526 669 566 870 Q647 1299 730 1696 L1301 1696 L1301 1493 Z " />
<glyph glyph-name="florin" unicode="&#x192;" horiz-adv-x="922" d="M850 1376 L814 1202 Q765 1215 719 1215 Q692 1215 668 1209 Q571 1185 553 1057 L529 881 L766 881 L744 717 L506 717 L355 -440 L123 -440 L275 717 L66 717 L89 881 L297 881 L320 1065 Q360 1391 686 1391 Q773 1391 850 1376 Z " />
<glyph glyph-name="approxequal" unicode="&#x2248;" horiz-adv-x="1004" d="M983 909 Q855 651 673 651 Q643 651 615 658 Q572 668 488 709 Q372 766 306 766 Q293 766 279 764 Q238 757 211.5 734 Q185 711 143 645 L20 719 Q83 836 120 880 Q204 979 318 979 Q388 979 507 922 Q627 866 693 866 Q719 866 743 874 Q804 896 856 983 L983 909 Z M983 483 Q855 225 673 225 Q606 225 488 283 Q372 340 307 340 Q293 340 279 338 Q237 331 211 308 Q185 285 143 219 L20 293 Q83 410 120 454 Q204 553 318 553 Q387 553 507 496 Q627 440 694 440 Q786 440 856 557 L983 483 Z " />
<glyph glyph-name="increment" unicode="&#x2206;" horiz-adv-x="1278" d="M1280 0 L-2 0 L520 1366 L760 1366 L1280 0 Z M963 205 L639 1098 L320 205 L963 205 Z " />
<glyph glyph-name="guillemotleft" unicode="&#xab;" horiz-adv-x="762" d="M725 956 L592 528 L723 96 L537 80 L375 526 L537 973 L725 956 Z M391 956 L258 528 L389 96 L203 80 L41 526 L203 973 L391 956 Z " />
<glyph glyph-name="guillemotright" unicode="&#xbb;" horiz-adv-x="762" d="M721 526 L561 80 L373 96 L504 528 L371 956 L559 973 L721 526 Z M387 526 L227 80 L39 96 L170 528 L37 956 L225 973 L387 526 Z " />
<glyph glyph-name="ellipsis" unicode="&#x2026;" horiz-adv-x="1235" d="M1147 0 L914 0 L914 262 L1147 262 L1147 0 Z M735 0 L502 0 L502 262 L735 262 L735 0 Z M321 0 L88 0 L88 262 L321 262 L321 0 Z " />
<glyph glyph-name="Agrave" unicode="&#xc0;" horiz-adv-x="913" d="M573 1441 L368 1441 L172 1718 L444 1718 L573 1441 Z M903 0 L655 0 L592 340 L313 340 L250 0 L10 0 L293 1366 L616 1366 L903 0 Z M567 532 L564 550 L547 638 Q478 996 450 1190 L435 1101 L408 940 L380 777 L356 638 L341 550 L338 532 L567 532 Z " />
<glyph glyph-name="Atilde" unicode="&#xc3;" horiz-adv-x="913" d="M778 1569 Q694 1506 659.5 1490.5 Q625 1475 569 1475 Q558 1475 550 1476 Q516 1479 449 1508 Q378 1538 343 1538 Q337 1538 329 1536 Q287 1528 231 1473 L133 1604 Q249 1716 342 1716 Q360 1716 378 1712 Q405 1707 456 1685 Q527 1655 564 1655 Q608 1655 696 1718 L778 1569 Z M903 0 L655 0 L592 340 L313 340 L250 0 L10 0 L293 1366 L616 1366 L903 0 Z M567 532 L564 550 L547 638 Q478 996 450 1190 L435 1101 L408 940 L380 777 L356 638 L341 550 L338 532 L567 532 Z " />
<glyph glyph-name="Otilde" unicode="&#xd5;" horiz-adv-x="969" d="M784 1569 Q702 1507 666.5 1491 Q631 1475 575 1475 Q564 1475 556 1476 Q523 1479 456 1508 Q385 1538 350 1538 Q343 1538 335 1536 Q293 1528 238 1473 L139 1604 Q255 1716 348 1716 Q366 1716 384 1712 Q411 1707 462 1685 Q534 1655 570 1655 Q615 1655 702 1718 L784 1569 Z M490 -23 L489 -23 L488 -23 L486 -23 Q288 -23 181 96 Q84 205 84 399 L84 955 Q84 1185 207 1298 Q310 1391 486 1391 Q680 1391 785 1274 Q885 1161 885 955 L885 399 Q885 182 761 70 Q659 -23 490 -23 Z M643 383 L643 969 Q643 1176 488 1176 Q460 1176 435 1169 Q326 1142 326 969 L326 383 Q326 193 486 193 Q643 193 643 383 Z " />
<glyph glyph-name="OE" unicode="&#x152;" horiz-adv-x="1272" d="M1239 0 L623 0 L623 68 Q508 -20 382 -20 Q203 -20 136 97 Q84 188 84 420 L84 989 Q84 1386 374 1386 Q407 1386 438 1380 Q523 1366 623 1302 L623 1366 L1231 1366 L1231 1169 L871 1169 L871 803 L1200 803 L1200 606 L871 606 L871 197 L1239 197 L1239 0 Z M623 244 L623 1114 Q534 1187 458 1187 Q419 1187 390 1171 Q328 1136 328 1022 L328 359 Q328 175 459 175 Q531 175 623 244 Z " />
<glyph glyph-name="oe" unicode="&#x153;" horiz-adv-x="1360" d="M1289 336 L1289 320 Q1289 149 1187 57 Q1099 -23 952 -23 Q803 -23 695 80 Q590 -23 433 -23 Q372 -23 319 -9 Q202 22 137 115 Q72 208 72 344 L72 729 Q72 884 169 980 Q271 1082 443 1082 Q490 1082 531 1074 Q633 1055 695 983 Q790 1082 947 1082 Q1005 1082 1053 1069 Q1164 1039 1226.5 947.5 Q1289 856 1289 723 L1289 467 L807 467 L807 313 Q807 249 842.5 211.5 Q878 174 939 174 Q1005 174 1033.5 210 Q1062 246 1066 336 L1289 336 Z M1070 647 L1070 756 Q1070 895 942 895 Q919 895 897 890 Q807 866 807 756 L807 647 L1070 647 Z M576 324 L576 731 Q576 798 539 838.5 Q502 879 441 879 Q377 879 340 839 Q303 799 303 731 L303 324 Q303 256 339.5 218 Q376 180 440 180 Q464 180 484 185 Q576 210 576 324 Z " />
<glyph glyph-name="endash" unicode="&#x2013;" horiz-adv-x="707" d="M707 455 L0 455 L0 676 L707 676 L707 455 Z " />
<glyph glyph-name="emdash" unicode="&#x2014;" horiz-adv-x="1149" d="M1149 455 L0 455 L0 676 L1149 676 L1149 455 Z " />
<glyph glyph-name="quotedblleft" unicode="&#x201c;" horiz-adv-x="748" d="M684 1421 L575 1126 L657 1126 L657 864 L424 864 L424 1112 L588 1421 L684 1421 Z M348 1421 L239 1126 L321 1126 L321 864 L88 864 L88 1112 L252 1421 L348 1421 Z " />
<glyph glyph-name="quotedblright" unicode="&#x201d;" horiz-adv-x="745" d="M659 1175 L492 864 L398 864 L507 1159 L423 1159 L423 1421 L659 1421 L659 1175 Z M324 1175 L157 864 L63 864 L172 1159 L88 1159 L88 1421 L324 1421 L324 1175 Z " />
<glyph glyph-name="quoteleft" unicode="&#x2018;" horiz-adv-x="410" d="M346 1423 L239 1128 L321 1128 L321 864 L88 864 L88 1112 L252 1423 L346 1423 Z " />
<glyph glyph-name="quoteright" unicode="&#x2019;" horiz-adv-x="410" d="M324 1180 L157 868 L63 868 L172 1163 L88 1163 L88 1425 L324 1425 L324 1180 Z " />
<glyph glyph-name="divide" unicode="&#xf7;" horiz-adv-x="1022" d="M629 768 L396 768 L396 997 L629 997 L629 768 Z M955 442 L68 442 L68 647 L955 647 L955 442 Z M629 92 L396 92 L396 321 L629 321 L629 92 Z " />
<glyph glyph-name="lozenge" unicode="&#x25ca;" horiz-adv-x="1120" d="M1084 682 L565 -53 L37 682 L565 1419 L1084 682 Z M840 682 L649 948 Q576 1051 565 1126 Q555 1090 527.5 1032 Q500 974 481 948 L281 682 L479 422 Q546 334 565 250 Q586 331 653 424 L840 682 Z " />
<glyph glyph-name="ydieresis" unicode="&#xff;" horiz-adv-x="862" d="M832 1061 L527 -117 Q497 -230 463 -294 Q429 -358 378 -394 Q296 -453 138 -453 Q120 -453 109 -452 Q82 -450 27 -441 L27 -256 Q64 -267 112 -267 Q145 -267 175 -261 Q222 -251 247.5 -217.5 Q273 -184 291 -109 L326 33 L31 1061 L275 1061 L389 536 Q421 393 441 248 Q508 639 601 1061 L832 1061 Z M744 1198 L523 1198 L523 1423 L744 1423 L744 1198 Z M375 1198 L154 1198 L154 1423 L375 1423 L375 1198 Z " />
<glyph glyph-name="Ydieresis" unicode="&#x178;" horiz-adv-x="915" d="M774 1469 L543 1469 L543 1694 L774 1694 L774 1469 Z M405 1469 L174 1469 L174 1694 L405 1694 L405 1469 Z M905 1366 L582 530 L582 0 L338 0 L338 530 L10 1366 L254 1366 Q339 1115 461 711 Q581 1115 666 1366 L905 1366 Z " />
<glyph glyph-name="fraction" unicode="&#x2044;" horiz-adv-x="246" d="M537 1391 L-148 -23 L-291 -23 L393 1391 L537 1391 Z " />
<glyph glyph-name="Euro" unicode="&#x20ac;" horiz-adv-x="1167" d="M1148 158 Q1081 68 1001 26 Q890 -33 737 -33 Q490 -33 349 105 Q279 174 242 261.5 Q205 349 182 500 L16 500 L16 631 L174 631 Q172 648 172 662 L172 680 Q172 713 176 760 L16 760 L16 891 L192 891 Q225 1042 268 1123 Q416 1397 736 1397 Q808 1397 872 1383 Q960 1363 1023 1320.5 Q1086 1278 1146 1198 L952 1080 Q875 1211 740 1211 Q676 1211 624 1185 Q497 1121 452 891 L845 891 L845 760 L438 760 Q436 713 436 671 L436 646 L436 631 L845 631 L845 500 L446 500 Q467 366 511 291 Q588 158 742 158 Q780 158 813 167 Q897 190 954 283 L1148 158 Z " />
<glyph glyph-name="guilsinglleft" unicode="&#x2039;" horiz-adv-x="428" d="M391 956 L258 528 L389 96 L203 80 L41 526 L203 973 L391 956 Z " />
<glyph glyph-name="guilsinglright" unicode="&#x203a;" horiz-adv-x="428" d="M387 526 L227 80 L39 96 L170 528 L37 956 L225 973 L387 526 Z " />
<glyph glyph-name="fi" unicode="&#xfb01;" horiz-adv-x="1016" d="M931 1198 L698 1198 L698 1423 L931 1423 L931 1198 Z M931 0 L700 0 L700 1061 L931 1061 L931 0 Z M656 1448 L642 1256 Q569 1267 525 1267 Q495 1267 469 1261 Q432 1252 415.5 1217.5 Q399 1183 399 1112 L399 1061 L595 1061 L595 881 L399 881 L399 0 L167 0 L167 881 L20 881 L20 1061 L167 1061 L167 1116 Q167 1464 500 1464 Q575 1464 656 1448 Z " />
<glyph glyph-name="fl" unicode="&#xfb02;" horiz-adv-x="1016" d="M931 0 L700 0 L700 1423 L931 1423 L931 0 Z M656 1448 L642 1256 Q569 1267 525 1267 Q495 1267 469 1261 Q432 1252 415.5 1217.5 Q399 1183 399 1112 L399 1061 L595 1061 L595 881 L399 881 L399 0 L167 0 L167 881 L20 881 L20 1061 L167 1061 L167 1116 Q167 1464 500 1464 Q575 1464 656 1448 Z " />
<glyph glyph-name="daggerdbl" unicode="&#x2021;" horiz-adv-x="922" d="M850 326 L574 326 L574 -43 L351 -43 L351 326 L72 326 L72 517 L351 517 L351 848 L72 848 L72 1041 L351 1041 L351 1407 L574 1407 L574 1041 L850 1041 L850 848 L574 848 L574 517 L850 517 L850 326 Z " />
<glyph glyph-name="middot" unicode="&#xb7;" horiz-adv-x="410" d="M321 436 L88 436 L88 698 L321 698 L321 436 Z " />
<glyph glyph-name="quotesinglbase" unicode="&#x201a;" horiz-adv-x="410" d="M324 14 L157 -295 L63 -295 L172 0 L88 0 L88 262 L324 262 L324 14 Z " />
<glyph glyph-name="quotedblbase" unicode="&#x201e;" horiz-adv-x="748" d="M660 14 L493 -295 L399 -295 L508 0 L424 0 L424 262 L660 262 L660 14 Z M325 14 L158 -295 L64 -295 L173 0 L89 0 L89 262 L325 262 L325 14 Z " />
<glyph glyph-name="perthousand" unicode="&#x2030;" horiz-adv-x="2058" d="M1495 199 L1495 600 Q1495 708 1556 764.5 Q1617 821 1733 821 Q1782 821 1827 810 Q1966 774 1966 596 L1966 199 Q1966 -23 1728 -23 Q1606 -23 1546 43 Q1495 100 1495 199 Z M1812 186 L1812 596 Q1812 692 1730 692 Q1717 692 1705 689 Q1651 674 1651 600 L1651 197 Q1651 104 1730 104 Q1744 104 1756 107 Q1812 122 1812 186 Z M909 199 L909 600 Q909 708 970 764.5 Q1031 821 1147 821 Q1380 821 1380 596 L1380 199 Q1380 -23 1142 -23 Q1097 -23 1056 -13 Q986 4 947.5 59.5 Q909 115 909 199 Z M1224 186 L1224 596 Q1224 692 1144 692 Q1065 692 1065 600 L1065 197 Q1065 104 1145 104 Q1159 104 1170 107 Q1224 122 1224 186 Z M1153 1391 L469 -23 L325 -23 L1010 1391 L1153 1391 Z M92 770 L92 1172 Q92 1278 153.5 1334.5 Q215 1391 330 1391 Q563 1391 563 1165 L563 768 Q563 547 325 547 Q280 547 239 557 Q168 574 130 629.5 Q92 685 92 770 Z M407 756 L407 1165 Q407 1262 327 1262 Q248 1262 248 1172 L248 766 Q248 674 327 674 Q341 674 352 677 Q407 692 407 756 Z " />
<glyph glyph-name="Acircumflex" unicode="&#xc2;" horiz-adv-x="913" d="M741 1438 L547 1438 L456 1602 L362 1438 L176 1438 L336 1716 L584 1716 L741 1438 Z M903 0 L655 0 L592 340 L313 340 L250 0 L10 0 L293 1366 L616 1366 L903 0 Z M567 532 L564 550 L547 638 Q478 996 450 1190 L435 1101 L408 940 L380 777 L356 638 L341 550 L338 532 L567 532 Z " />
<glyph glyph-name="Ecircumflex" unicode="&#xca;" horiz-adv-x="774" d="M688 1438 L495 1438 L405 1602 L309 1438 L123 1438 L284 1716 L530 1716 L688 1438 Z M741 0 L98 0 L98 1366 L721 1366 L721 1169 L342 1169 L342 803 L680 803 L680 606 L342 606 L342 197 L741 197 L741 0 Z " />
<glyph glyph-name="Aacute" unicode="&#xc1;" horiz-adv-x="913" d="M731 1718 L532 1441 L329 1441 L459 1718 L731 1718 Z M903 0 L655 0 L592 340 L313 340 L250 0 L10 0 L293 1366 L616 1366 L903 0 Z M567 532 L564 550 L547 638 Q478 996 450 1190 L435 1101 L408 940 L380 777 L356 638 L341 550 L338 532 L567 532 Z " />
<glyph glyph-name="Edieresis" unicode="&#xcb;" horiz-adv-x="774" d="M712 1469 L479 1469 L479 1694 L712 1694 L712 1469 Z M343 1469 L110 1469 L110 1694 L343 1694 L343 1469 Z M741 0 L98 0 L98 1366 L721 1366 L721 1169 L342 1169 L342 803 L680 803 L680 606 L342 606 L342 197 L741 197 L741 0 Z " />
<glyph glyph-name="Egrave" unicode="&#xc8;" horiz-adv-x="774" d="M551 1441 L348 1441 L149 1718 L422 1718 L551 1441 Z M741 0 L98 0 L98 1366 L721 1366 L721 1169 L342 1169 L342 803 L680 803 L680 606 L342 606 L342 197 L741 197 L741 0 Z " />
<glyph glyph-name="Iacute" unicode="&#xcd;" horiz-adv-x="438" d="M499 1718 L301 1441 L98 1441 L227 1718 L499 1718 Z M340 0 L98 0 L98 1366 L340 1366 L340 0 Z " />
<glyph glyph-name="Icircumflex" unicode="&#xce;" horiz-adv-x="438" d="M504 1438 L312 1438 L222 1602 L125 1438 L-61 1438 L99 1716 L347 1716 L504 1438 Z M341 0 L99 0 L99 1366 L341 1366 L341 0 Z " />
<glyph glyph-name="Idieresis" unicode="&#xcf;" horiz-adv-x="438" d="M490 1469 L277 1469 L277 1694 L490 1694 L490 1469 Z M162 1469 L-51 1469 L-51 1694 L162 1694 L162 1469 Z M341 0 L99 0 L99 1366 L341 1366 L341 0 Z " />
<glyph glyph-name="Igrave" unicode="&#xcc;" horiz-adv-x="438" d="M348 1441 L146 1441 L-53 1718 L219 1718 L348 1441 Z M341 0 L99 0 L99 1366 L341 1366 L341 0 Z " />
<glyph glyph-name="Oacute" unicode="&#xd3;" horiz-adv-x="969" d="M756 1718 L559 1441 L354 1441 L485 1718 L756 1718 Z M490 -23 L489 -23 L488 -23 L486 -23 Q288 -23 181 96 Q84 205 84 399 L84 955 Q84 1185 207 1298 Q310 1391 486 1391 Q680 1391 785 1274 Q885 1161 885 955 L885 399 Q885 182 761 70 Q659 -23 490 -23 Z M643 383 L643 969 Q643 1176 488 1176 Q460 1176 435 1169 Q326 1142 326 969 L326 383 Q326 193 486 193 Q643 193 643 383 Z " />
<glyph glyph-name="Ocircumflex" unicode="&#xd4;" horiz-adv-x="969" d="M766 1438 L571 1438 L481 1602 L387 1438 L201 1438 L360 1716 L608 1716 L766 1438 Z M490 -23 L489 -23 L488 -23 L486 -23 Q288 -23 181 96 Q84 205 84 399 L84 955 Q84 1185 207 1298 Q310 1391 486 1391 Q680 1391 785 1274 Q885 1161 885 955 L885 399 Q885 182 761 70 Q659 -23 490 -23 Z M643 383 L643 969 Q643 1176 488 1176 Q460 1176 435 1169 Q326 1142 326 969 L326 383 Q326 193 486 193 Q643 193 643 383 Z " />
<glyph glyph-name="Ograve" unicode="&#xd2;" horiz-adv-x="969" d="M623 1441 L418 1441 L221 1718 L492 1718 L623 1441 Z M490 -23 L489 -23 L488 -23 L486 -23 Q288 -23 181 96 Q84 205 84 399 L84 955 Q84 1185 207 1298 Q310 1391 486 1391 Q680 1391 785 1274 Q885 1161 885 955 L885 399 Q885 182 761 70 Q659 -23 490 -23 Z M643 383 L643 969 Q643 1176 488 1176 Q460 1176 435 1169 Q326 1142 326 969 L326 383 Q326 193 486 193 Q643 193 643 383 Z " />
<glyph glyph-name="Uacute" unicode="&#xda;" horiz-adv-x="985" d="M735 1718 L536 1441 L334 1441 L463 1718 L735 1718 Z M887 1366 L887 387 Q887 174 770 68 Q670 -23 492 -23 Q421 -23 356 -6 Q223 28 154 144 Q98 240 98 387 L98 1366 L340 1366 L340 393 Q340 287 376.5 238.5 Q413 190 494 190 Q520 190 543 196 Q645 221 645 393 L645 1366 L887 1366 Z " />
<glyph glyph-name="Ucircumflex" unicode="&#xdb;" horiz-adv-x="985" d="M770 1438 L577 1438 L487 1602 L391 1438 L204 1438 L366 1716 L612 1716 L770 1438 Z M887 1366 L887 387 Q887 174 770 68 Q670 -23 492 -23 Q421 -23 356 -6 Q223 28 154 144 Q98 240 98 387 L98 1366 L340 1366 L340 393 Q340 287 376.5 238.5 Q413 190 494 190 Q520 190 543 196 Q645 221 645 393 L645 1366 L887 1366 Z " />
<glyph glyph-name="Ugrave" unicode="&#xd9;" horiz-adv-x="985" d="M622 1441 L417 1441 L221 1718 L493 1718 L622 1441 Z M887 1366 L887 387 Q887 174 770 68 Q670 -23 492 -23 Q421 -23 356 -6 Q223 28 154 144 Q98 240 98 387 L98 1366 L340 1366 L340 393 Q340 287 376.5 238.5 Q413 190 494 190 Q520 190 543 196 Q645 221 645 393 L645 1366 L887 1366 Z " />
<glyph glyph-name="dotlessi" unicode="&#x131;" horiz-adv-x="399" d="M315 0 L84 0 L84 1061 L315 1061 L315 0 Z " />
<glyph glyph-name="circumflex" unicode="&#x2c6;" horiz-adv-x="1024" d="M794 1149 L602 1149 L512 1315 L415 1149 L229 1149 L389 1428 L637 1428 L794 1149 Z " />
<glyph glyph-name="tilde" unicode="&#x2dc;" horiz-adv-x="1024" d="M833 1280 Q757 1221 718.5 1203.5 Q680 1186 629 1186 Q583 1186 506 1219 Q435 1250 401 1250 Q394 1250 386 1248 Q347 1240 286 1184 L190 1315 Q303 1428 397 1428 Q438 1428 512 1397 Q584 1366 621 1366 Q629 1366 636 1368 Q679 1377 751 1430 L833 1280 Z " />
<glyph glyph-name="overscore" unicode="&#xaf;" horiz-adv-x="1024" d="M768 1227 L256 1227 L256 1399 L768 1399 L768 1227 Z " />
<glyph glyph-name="breve" unicode="&#x2d8;" horiz-adv-x="1024" d="M788 1417 Q782 1302 718 1237 Q643 1161 511 1161 Q390 1161 316.5 1229 Q243 1297 235 1417 L385 1417 Q391 1366 425 1336 Q459 1306 511 1306 Q550 1306 581 1323 Q632 1350 641 1417 L788 1417 Z " />
<glyph glyph-name="dotaccent" unicode="&#x2d9;" horiz-adv-x="1024" d="M628 1198 L395 1198 L395 1423 L628 1423 L628 1198 Z " />
<glyph glyph-name="ring" unicode="&#x2da;" horiz-adv-x="1024" d="M513 1483 Q539 1483 563 1476 Q623 1460 659 1414 Q695 1368 695 1307 Q695 1235 642.5 1186 Q590 1137 512 1137 Q485 1137 460 1144 Q402 1159 366 1204.5 Q330 1250 330 1309 Q330 1332 336 1354 Q351 1412 400 1447.5 Q449 1483 513 1483 Z M512 1377 Q503 1377 495 1375 Q447 1361 447 1311 Q447 1283 466 1264 Q485 1245 512 1245 Q521 1245 530 1247 Q578 1260 578 1311 Q578 1339 559 1358 Q540 1377 512 1377 Z " />
<glyph glyph-name="cedilla" unicode="&#xb8;" horiz-adv-x="1024" d="M534 -98 Q723 -103 723 -247 Q723 -298 702 -334 Q650 -426 457 -426 Q379 -426 301 -406 L309 -291 Q380 -311 424 -311 Q545 -311 545 -246 Q545 -184 438 -184 Q431 -184 425 -184 Q413 -185 383 -188 L473 12 L588 12 L534 -98 Z " />
<glyph glyph-name="hungarumlaut" unicode="&#x2dd;" horiz-adv-x="1024" d="M854 1430 L668 1156 L498 1156 L627 1430 L854 1430 Z M528 1430 L340 1156 L170 1156 L299 1430 L528 1430 Z " />
<glyph glyph-name="ogonek" unicode="&#x2db;" horiz-adv-x="1024" d="M729 -385 Q606 -399 550 -399 Q295 -399 295 -222 Q295 -89 465 16 L682 16 Q589 -16 533 -70 Q477 -124 477 -180 Q477 -201 486 -217 Q510 -258 590 -258 Q629 -258 713 -244 L729 -385 Z " />
<glyph glyph-name="caron" unicode="&#x2c7;" horiz-adv-x="1024" d="M794 1432 L635 1153 L387 1153 L229 1432 L422 1432 L512 1266 L608 1432 L794 1432 Z " />
<glyph glyph-name="nbspace" unicode="&#xa0;" horiz-adv-x="412" d="" />
<glyph glyph-name="currency" unicode="&#xa4;" horiz-adv-x="1370" d="M1329 189 L1186 43 L975 254 Q823 162 686 162 Q622 162 556 181 Q484 202 399 254 L186 43 L41 189 L256 400 Q164 546 164 679 Q164 742 183 805 Q204 875 256 959 L41 1174 L186 1319 L399 1108 Q552 1196 689 1196 Q822 1196 967 1108 L1178 1319 L1323 1174 L1114 959 Q1206 801 1206 677 Q1206 553 1114 400 L1329 189 Z M692 959 Q625 959 566 931 Q406 855 406 681 Q406 622 426 572 Q459 494 529 447 Q599 400 685 400 Q742 400 792 420 Q871 453 918 523 Q965 593 965 679 Q965 770 910 843 Q822 959 692 959 Z " />
<glyph glyph-name="brokenbar" unicode="&#xa6;" horiz-adv-x="1024" d="M628 776 L395 776 L395 1366 L628 1366 L628 776 Z M628 -440 L397 -440 L395 158 L628 158 L628 -440 Z " />
<glyph glyph-name="uni00AD" unicode="&#xad;" horiz-adv-x="471" d="M471 455 L0 455 L0 676 L471 676 L471 455 Z " />
<glyph glyph-name="twosuperior" unicode="&#xb2;" horiz-adv-x="696" d="M617 602 L82 602 L82 688 Q82 757 128 828.5 Q174 900 287 1006 Q368 1082 399.5 1126.5 Q431 1171 431 1208 Q431 1210 430 1222 Q422 1299 348 1299 Q303 1299 284.5 1274.5 Q266 1250 266 1190 L266 1153 L90 1153 L90 1217 Q90 1320 162 1379 Q234 1438 358 1438 Q412 1438 461 1426 Q607 1389 607 1225 L607 1198 Q607 1135 565.5 1073 Q524 1011 417 913 Q345 848 320.5 819 Q296 790 277 748 L617 748 L617 602 Z " />
<glyph glyph-name="threesuperior" unicode="&#xb3;" horiz-adv-x="696" d="M530 1036 Q617 995 617 893 L617 800 Q617 589 348 589 Q80 589 80 823 L80 870 L258 870 L258 829 Q258 770 277.5 748 Q297 726 348 726 Q398 726 417 748.5 Q436 771 436 829 L436 870 Q436 925 404 947.5 Q372 970 295 970 L252 970 L252 1089 L285 1089 Q430 1089 430 1167 L430 1226 Q430 1298 348 1298 Q329 1298 313 1294 Q266 1283 266 1204 L266 1171 L84 1171 L84 1218 Q84 1341 184 1397 Q255 1437 352 1437 Q444 1437 512 1399 Q608 1344 608 1235 L608 1165 Q608 1078 530 1036 Z " />
<glyph glyph-name="onesuperior" unicode="&#xb9;" horiz-adv-x="696" d="M621 604 L86 604 L86 750 L273 750 L273 1247 L144 1198 L78 1331 L295 1423 L451 1423 L451 750 L621 750 L621 604 Z " />
<glyph glyph-name="onequarter" unicode="&#xbc;" horiz-adv-x="1677" d="M1559 195 L1458 195 L1458 0 L1280 0 L1280 195 L963 195 L963 318 L1206 819 L1458 819 L1458 341 L1559 341 L1559 195 Z M1297 719 L1280 721 Q1249 609 1149 383 Q1138 359 1129 336 L1276 336 L1276 382 Q1276 570 1297 719 Z M1315 1391 L631 -23 L488 -23 L1172 1391 L1315 1391 Z M621 547 L86 547 L86 692 L273 692 L273 1190 L144 1141 L78 1274 L295 1366 L451 1366 L451 692 L621 692 L621 547 Z " />
<glyph glyph-name="onehalf" unicode="&#xbd;" horiz-adv-x="1677" d="M1588 0 L1053 0 L1053 86 Q1053 154 1099.5 226.5 Q1146 299 1258 404 Q1339 480 1370.5 524.5 Q1402 569 1402 607 Q1402 609 1401 620 Q1393 697 1319 697 Q1292 697 1273 686 Q1238 668 1238 590 L1238 551 L1061 551 L1061 615 Q1061 718 1133 777 Q1205 836 1330 836 Q1385 836 1432 824 Q1578 786 1578 623 L1578 596 Q1578 533 1535.5 470 Q1493 407 1386 309 Q1314 243 1290 215 Q1266 187 1248 145 L1588 145 L1588 0 Z M1295 1391 L610 -23 L467 -23 L1151 1391 L1295 1391 Z M621 547 L86 547 L86 692 L273 692 L273 1190 L144 1141 L78 1274 L295 1366 L451 1366 L451 692 L621 692 L621 547 Z " />
<glyph glyph-name="threequarters" unicode="&#xbe;" horiz-adv-x="1677" d="M1559 195 L1458 195 L1458 0 L1280 0 L1280 195 L963 195 L963 318 L1206 819 L1458 819 L1458 341 L1559 341 L1559 195 Z M1296 719 L1280 721 Q1244 595 1149 383 Q1138 359 1129 336 L1276 336 L1276 382 Q1276 570 1296 719 Z M1301 1391 L617 -23 L473 -23 L1157 1391 L1301 1391 Z M575 977 Q662 936 662 834 L662 741 Q662 530 393 530 Q125 530 125 764 L125 811 L303 811 L303 770 Q303 711 322 689 Q341 667 392 667 Q443 667 462 689 Q481 711 481 770 L481 811 Q481 866 449 888.5 Q417 911 340 911 L297 911 L297 1030 L330 1030 Q475 1030 475 1108 L475 1167 Q475 1239 393 1239 Q374 1239 358 1235 Q311 1224 311 1145 L311 1112 L129 1112 L129 1159 Q129 1283 229 1338 Q300 1378 397 1378 Q489 1378 557 1340 Q653 1285 653 1176 L653 1106 Q653 1019 575 977 Z " />
<glyph glyph-name="Eth" unicode="&#xd0;" horiz-adv-x="973" d="M98 1366 L416 1366 Q674 1366 787 1239 Q889 1126 889 887 L889 494 Q889 209 763 95 Q657 0 436 0 L98 0 L98 623 L-4 623 L-4 813 L98 813 L98 1366 Z M338 197 L432 197 Q558 197 602.5 256.5 Q647 316 647 486 L647 921 Q647 1056 598.5 1112.5 Q550 1169 434 1169 L338 1169 L338 813 L526 813 L526 623 L338 623 L338 197 Z " />
<glyph glyph-name="multiply" unicode="&#xd7;" horiz-adv-x="1024" d="M938 266 L782 113 L508 387 L242 123 L98 266 L362 532 L88 807 L242 963 L518 688 L782 950 L926 807 L663 543 L938 266 Z " />
<glyph glyph-name="Yacute" unicode="&#xdd;" horiz-adv-x="915" d="M714 1718 L516 1441 L313 1441 L442 1718 L714 1718 Z M905 1366 L582 530 L582 0 L338 0 L338 530 L10 1366 L254 1366 Q339 1115 461 711 Q581 1115 666 1366 L905 1366 Z " />
<glyph glyph-name="Thorn" unicode="&#xde;" horiz-adv-x="895" d="M340 1112 L455 1112 Q675 1112 783 993 Q875 892 875 713 Q875 638 858 569 Q820 418 689 342 Q593 286 457 286 L340 286 L340 0 L98 0 L98 1366 L340 1366 L340 1112 Z M340 917 L340 481 L412 481 Q631 481 631 705 Q631 749 621 789 Q589 917 428 917 L340 917 Z " />
<glyph glyph-name="eth" unicode="&#xf0;" horiz-adv-x="879" d="M558 1286 Q807 1036 807 705 L807 324 Q807 155 707 65 Q609 -23 435 -23 Q251 -23 154 85 Q72 176 72 324 L72 705 Q72 882 211 961 Q300 1012 421 1012 Q463 1012 527 1002 Q479 1104 397 1192 L215 1085 L154 1190 L307 1280 Q220 1343 121 1384 L186 1495 Q324 1451 451 1368 L641 1477 L703 1370 L558 1286 Z M576 324 L576 676 Q576 745 540 784.5 Q504 824 442 824 Q421 824 402 819 Q357 807 331 768.5 Q305 730 305 676 L305 324 Q305 180 440 180 Q466 180 489 186 Q576 207 576 324 Z " />
<glyph glyph-name="yacute" unicode="&#xfd;" horiz-adv-x="862" d="M832 1061 L527 -117 Q497 -232 463 -295.5 Q429 -359 378 -395 Q296 -453 139 -453 Q120 -453 109 -452 Q82 -450 27 -441 L27 -256 Q64 -267 112 -267 Q144 -267 174 -261 Q222 -250 249 -215.5 Q276 -181 293 -109 L326 33 L31 1061 L275 1061 Q345 744 441 248 Q456 359 500 573 Q544 794 601 1061 L832 1061 Z M688 1430 L492 1153 L287 1153 L416 1430 L688 1430 Z " />
<glyph glyph-name="thorn" unicode="&#xfe;" horiz-adv-x="885" d="M315 981 Q433 1082 558 1082 Q701 1082 767 967 Q813 885 813 768 L813 315 Q813 -20 554 -20 Q516 -20 482 -12 Q414 5 315 90 L315 -440 L84 -440 L84 1423 L315 1423 L315 981 Z M315 258 Q395 187 468 187 Q583 187 583 340 L583 729 Q583 877 472 877 Q404 877 315 803 L315 258 Z " />
<glyph glyph-name="Amacron" unicode="&#x100;" horiz-adv-x="913" d="M905 0 L657 0 L594 340 L315 340 L252 0 L12 0 L295 1366 L618 1366 L905 0 Z M569 532 Q524 764 453 1190 Q419 988 358 637 L340 532 L569 532 Z M715 1493 L203 1493 L203 1665 L715 1665 L715 1493 Z " />
<glyph glyph-name="amacron" unicode="&#x101;" horiz-adv-x="864" d="M786 0 L580 0 L571 88 Q461 -12 335 -12 Q275 -12 222 9 Q143 40 99 105.5 Q55 171 55 258 L55 303 Q55 517 273 601 Q368 637 555 664 L555 778 Q555 844 528 872.5 Q501 901 439 901 Q344 901 324 846 Q313 816 311 737 L92 737 L92 772 Q92 1083 447 1083 Q569 1083 661 1036 Q716 1008 746 951 Q786 876 786 776 L786 0 Z M555 242 L555 504 Q449 485 396 463 Q287 418 287 311 L287 287 Q287 172 402 172 Q466 172 555 242 Z M706 1228 L194 1228 L194 1400 L706 1400 L706 1228 Z " />
<glyph glyph-name="Abreve" unicode="&#x102;" horiz-adv-x="913" d="M905 0 L657 0 L594 340 L315 340 L252 0 L12 0 L295 1366 L618 1366 L905 0 Z M569 532 Q524 764 453 1190 Q419 988 358 637 L340 532 L569 532 Z M745 1704 Q743 1613 701 1553 Q627 1448 470 1448 Q347 1448 272 1517.5 Q197 1587 193 1704 L342 1704 Q346 1655 381 1624 Q416 1593 468 1593 Q523 1593 558.5 1623 Q594 1653 598 1704 L745 1704 Z " />
<glyph glyph-name="abreve" unicode="&#x103;" horiz-adv-x="864" d="M786 0 L580 0 L571 88 Q461 -12 335 -12 Q275 -12 222 9 Q143 40 99 105.5 Q55 171 55 258 L55 303 Q55 517 273 601 Q368 637 555 664 L555 778 Q555 844 528 872.5 Q501 901 439 901 Q344 901 324 846 Q313 816 311 737 L92 737 L92 772 Q92 1083 447 1083 Q569 1083 661 1036 Q716 1008 746 951 Q786 876 786 776 L786 0 Z M555 242 L555 504 Q449 485 396 463 Q287 418 287 311 L287 287 Q287 172 402 172 Q466 172 555 242 Z M723 1417 Q721 1326 679 1266 Q604 1161 447 1161 Q325 1161 250 1230.5 Q175 1300 171 1417 L320 1417 Q325 1367 360 1337 Q395 1307 448 1307 Q473 1307 497 1315 Q570 1341 576 1417 L723 1417 Z " />
<glyph glyph-name="Aogonek" unicode="&#x104;" horiz-adv-x="913" d="M991 -385 Q850 -399 804 -399 Q704 -399 631 -362 Q555 -324 555 -222 Q555 -99 698 0 L659 0 L594 340 L326 340 L262 0 L10 0 L297 1366 L621 1366 L903 0 L901 0 Q737 -80 737 -178 Q737 -258 848 -258 Q873 -258 973 -244 L991 -385 Z M580 532 Q533 753 461 1198 Q441 1060 351 588 L340 532 L580 532 Z " />
<glyph glyph-name="aogonek" unicode="&#x105;" horiz-adv-x="864" d="M872 -385 Q731 -399 685 -399 Q584 -399 513 -362 Q436 -324 436 -222 Q436 -99 580 0 L571 88 Q461 -12 335 -12 Q275 -12 222 9 Q143 40 99 105.5 Q55 171 55 258 L55 303 Q55 517 273 601 Q368 637 555 664 L555 778 Q555 845 528 873 Q501 901 436 901 Q345 901 324 843 Q313 813 311 737 L92 737 L92 772 Q92 1083 447 1083 Q569 1083 661 1036 Q716 1008 746 951 Q786 876 786 776 L786 0 L782 0 Q618 -80 618 -178 Q618 -258 729 -258 Q754 -258 854 -244 L872 -385 Z M555 242 L555 504 Q449 485 396 463 Q287 418 287 311 L287 287 Q287 172 402 172 Q466 172 555 242 Z " />
<glyph glyph-name="Cacute" unicode="&#x106;" horiz-adv-x="938" d="M864 897 L625 897 L625 975 Q625 1087 592.5 1131.5 Q560 1176 477 1176 Q397 1176 362.5 1137.5 Q328 1099 328 1010 L328 379 Q328 273 360 233 Q392 193 478 193 Q527 193 564 211 Q625 240 625 403 L625 483 L875 483 L875 360 Q875 226 825 138 Q733 -23 477 -23 Q344 -23 244 28 Q175 63 138 134 Q84 239 84 379 L84 983 Q84 1180 185 1286 Q285 1391 480 1391 Q574 1391 656 1361 Q754 1326 810 1239 Q864 1156 864 1030 L864 897 Z M756 1718 L559 1442 L354 1442 L483 1718 L756 1718 Z " />
<glyph glyph-name="cacute" unicode="&#x107;" horiz-adv-x="827" d="M756 694 L528 694 L528 727 Q528 881 414 881 Q299 881 299 743 L299 346 Q299 255 326 217.5 Q353 180 418 180 Q453 180 481 192 Q537 217 537 338 L537 389 L766 389 L766 289 Q766 170 702 92 Q607 -23 420 -23 Q331 -23 256 6 Q168 39 117 121 Q68 200 68 319 L68 756 Q68 902 165 992 Q263 1083 422 1083 Q503 1083 574 1057 Q660 1025 708 950.5 Q756 876 756 776 L756 694 Z M683 1430 L486 1153 L281 1153 L410 1430 L683 1430 Z " />
<glyph glyph-name="Ccircumflex" unicode="&#x108;" horiz-adv-x="938" d="M875 483 L875 360 Q875 -23 474 -23 Q84 -23 84 379 L84 983 Q84 1194 200 1300 Q300 1391 475 1391 Q549 1391 617 1373 Q735 1343 799.5 1253 Q864 1163 864 1030 L864 897 L625 897 L625 975 Q625 1088 593 1132 Q561 1176 477 1176 Q446 1176 418 1169 Q328 1147 328 1010 L328 379 Q328 272 360 232 Q392 192 477 192 Q509 192 537 198 Q585 210 605 256 Q625 302 625 403 L625 483 L875 483 Z M762 1432 L569 1432 L479 1598 L383 1432 L197 1432 L356 1710 L604 1710 L762 1432 Z " />
<glyph glyph-name="ccircumflex" unicode="&#x109;" horiz-adv-x="831" d="M770 389 L770 289 Q770 143 676 59 Q583 -23 423 -23 Q246 -23 153 80 Q72 168 72 319 L72 756 Q72 896 162 986 Q261 1084 425 1084 Q595 1084 687 983 Q760 903 760 776 L760 694 L533 694 L533 727 Q533 808 506 844.5 Q479 881 419 881 Q303 881 303 743 L303 346 Q303 253 329.5 216.5 Q356 180 423 180 Q446 180 467 185 Q541 202 541 338 L541 389 L770 389 Z M704 1149 L511 1149 L421 1315 L325 1149 L139 1149 L298 1428 L546 1428 L704 1149 Z " />
<glyph glyph-name="Cdotaccent" unicode="&#x10a;" horiz-adv-x="938" d="M875 483 L875 360 Q875 -23 474 -23 Q84 -23 84 379 L84 983 Q84 1194 200 1300 Q300 1391 475 1391 Q549 1391 617 1373 Q735 1343 799.5 1253 Q864 1163 864 1030 L864 897 L625 897 L625 975 Q625 1088 593 1132 Q561 1176 477 1176 Q446 1176 418 1169 Q328 1147 328 1010 L328 379 Q328 272 360 232 Q392 192 477 192 Q509 192 537 198 Q585 210 605 256 Q625 302 625 403 L625 483 L875 483 Z M596 1464 L363 1464 L363 1689 L596 1689 L596 1464 Z " />
<glyph glyph-name="cdotaccent" unicode="&#x10b;" horiz-adv-x="831" d="M770 389 L770 289 Q770 143 676 59 Q583 -23 423 -23 Q246 -23 153 80 Q72 168 72 319 L72 756 Q72 896 162 986 Q261 1084 425 1084 Q595 1084 687 983 Q760 903 760 776 L760 694 L533 694 L533 727 Q533 808 506 844.5 Q479 881 419 881 Q303 881 303 743 L303 346 Q303 253 329.5 216.5 Q356 180 423 180 Q446 180 467 185 Q541 202 541 338 L541 389 L770 389 Z M538 1198 L305 1198 L305 1423 L538 1423 L538 1198 Z " />
<glyph glyph-name="Ccaron" unicode="&#x10c;" horiz-adv-x="938" d="M864 897 L625 897 L625 975 Q625 1087 592.5 1131.5 Q560 1176 477 1176 Q397 1176 362.5 1137.5 Q328 1099 328 1010 L328 379 Q328 273 360 233 Q392 193 478 193 Q527 193 564 211 Q625 240 625 403 L625 483 L875 483 L875 360 Q875 226 825 138 Q733 -23 477 -23 Q344 -23 244 28 Q175 63 138 134 Q84 239 84 379 L84 983 Q84 1180 185 1286 Q285 1391 480 1391 Q574 1391 656 1361 Q754 1326 810 1239 Q864 1156 864 1030 L864 897 Z M762 1716 L602 1438 L354 1438 L196 1716 L389 1716 L479 1550 L575 1716 L762 1716 Z " />
<glyph glyph-name="ccaron" unicode="&#x10d;" horiz-adv-x="827" d="M756 694 L528 694 L528 727 Q528 881 414 881 Q299 881 299 743 L299 346 Q299 255 326 217.5 Q353 180 418 180 Q453 180 481 192 Q537 217 537 338 L537 389 L766 389 L766 289 Q766 170 702 92 Q607 -23 420 -23 Q331 -23 256 6 Q168 39 117 121 Q68 200 68 319 L68 756 Q68 902 165 992 Q263 1083 422 1083 Q503 1083 574 1057 Q660 1025 708 950.5 Q756 876 756 776 L756 694 Z M698 1432 L538 1153 L290 1153 L132 1432 L325 1432 L415 1266 L511 1432 L698 1432 Z " />
<glyph glyph-name="Dcaron" unicode="&#x10e;" horiz-adv-x="973" d="M98 0 L98 1366 L416 1366 Q668 1366 780 1249 Q889 1135 889 887 L889 494 Q889 264 810 150 Q707 0 436 0 L98 0 Z M338 1169 L338 197 L432 197 Q559 197 603 256 Q647 315 647 485 L647 922 Q647 1048 608 1103 Q561 1169 436 1169 L338 1169 Z M724 1716 L564 1438 L316 1438 L158 1716 L351 1716 L441 1550 L537 1716 L724 1716 Z " />
<glyph glyph-name="dcaron" unicode="&#x10f;" horiz-adv-x="885" d="M801 0 L582 0 L575 86 Q449 -23 325 -23 Q264 -23 215 1 Q72 70 72 293 L72 748 Q72 1083 332 1083 Q399 1083 449 1060 Q499 1037 569 973 L569 1423 L801 1423 L801 0 Z M569 258 L569 805 Q483 877 416 877 Q384 877 359 863 Q303 831 303 723 L303 332 Q303 184 414 184 Q485 184 569 258 Z M1137 1180 L971 868 L876 868 L985 1163 L901 1163 L901 1425 L1137 1425 L1137 1180 Z " />
<glyph glyph-name="Dcroat" unicode="&#x110;" horiz-adv-x="973" d="M98 1366 L416 1366 Q674 1366 787 1239 Q889 1126 889 887 L889 494 Q889 209 763 95 Q657 0 436 0 L98 0 L98 623 L-4 623 L-4 813 L98 813 L98 1366 Z M338 197 L432 197 Q558 197 602.5 256.5 Q647 316 647 486 L647 921 Q647 1056 598.5 1112.5 Q550 1169 434 1169 L338 1169 L338 813 L526 813 L526 623 L338 623 L338 197 Z " />
<glyph glyph-name="dcroat" unicode="&#x111;" horiz-adv-x="885" d="M874 1155 L801 1155 L801 0 L582 0 L575 86 Q449 -23 325 -23 Q264 -23 215 1 Q72 70 72 293 L72 748 Q72 1083 332 1083 Q399 1083 449 1060 Q499 1037 569 973 L569 1155 L344 1155 L344 1325 L569 1325 L569 1423 L801 1423 L801 1325 L874 1325 L874 1155 Z M569 258 L569 805 Q483 877 416 877 Q384 877 359 863 Q303 831 303 723 L303 332 Q303 184 414 184 Q485 184 569 258 Z " />
<glyph glyph-name="Emacron" unicode="&#x112;" horiz-adv-x="774" d="M741 0 L98 0 L98 1366 L721 1366 L721 1169 L342 1169 L342 803 L680 803 L680 606 L342 606 L342 197 L741 197 L741 0 Z M667 1493 L155 1493 L155 1665 L667 1665 L667 1493 Z " />
<glyph glyph-name="emacron" unicode="&#x113;" horiz-adv-x="858" d="M786 467 L299 467 L299 301 Q299 174 426 174 Q469 174 501 191 Q557 220 557 319 L557 336 L786 336 L786 319 Q786 -23 429 -23 Q257 -23 165 71 Q72 166 72 338 L72 715 Q72 809 98.5 885.5 Q125 962 173 1004 Q261 1083 433 1083 Q623 1083 710 986 Q786 901 786 725 L786 467 Z M559 649 L559 758 Q559 897 428 897 Q299 897 299 758 L299 649 L559 649 Z M710 1227 L198 1227 L198 1399 L710 1399 L710 1227 Z " />
<glyph glyph-name="Ebreve" unicode="&#x114;" horiz-adv-x="774" d="M741 0 L98 0 L98 1366 L721 1366 L721 1169 L342 1169 L342 803 L680 803 L680 606 L342 606 L342 197 L741 197 L741 0 Z M696 1700 Q690 1585 626 1520 Q551 1444 420 1444 Q298 1444 224.5 1512 Q151 1580 143 1700 L293 1700 Q298 1649 332.5 1619.5 Q367 1590 419 1590 Q458 1590 489 1606 Q541 1633 549 1700 L696 1700 Z " />
<glyph glyph-name="ebreve" unicode="&#x115;" horiz-adv-x="858" d="M787 336 L787 320 Q787 148 689 59 Q599 -23 431 -23 Q250 -23 156 81 Q72 174 72 338 L72 715 Q72 1084 432 1084 Q505 1084 572 1067 Q787 1014 787 725 L787 467 L299 467 L299 301 Q299 174 432 174 Q459 174 482 180 Q558 199 558 320 L558 336 L787 336 Z M560 649 L560 758 Q560 897 429 897 Q407 897 386 892 Q299 870 299 758 L299 649 L560 649 Z M706 1417 Q700 1302 636 1237 Q561 1161 429 1161 Q307 1161 234 1229 Q161 1297 153 1417 L302 1417 Q309 1366 343 1336 Q377 1306 429 1306 Q468 1306 499 1323 Q551 1351 558 1417 L706 1417 Z " />
<glyph glyph-name="Edotaccent" unicode="&#x116;" horiz-adv-x="774" d="M741 0 L98 0 L98 1366 L721 1366 L721 1169 L342 1169 L342 803 L680 803 L680 606 L342 606 L342 197 L741 197 L741 0 Z M533 1472 L300 1472 L300 1697 L533 1697 L533 1472 Z " />
<glyph glyph-name="edotaccent" unicode="&#x117;" horiz-adv-x="858" d="M786 467 L299 467 L299 301 Q299 174 426 174 Q469 174 501 191 Q557 220 557 319 L557 336 L786 336 L786 319 Q786 -23 429 -23 Q257 -23 165 71 Q72 166 72 338 L72 715 Q72 809 98.5 885.5 Q125 962 173 1004 Q261 1083 433 1083 Q623 1083 710 986 Q786 901 786 725 L786 467 Z M559 649 L559 758 Q559 897 428 897 Q299 897 299 758 L299 649 L559 649 Z M556 1198 L322 1198 L322 1423 L556 1423 L556 1198 Z " />
<glyph glyph-name="Eogonek" unicode="&#x118;" horiz-adv-x="774" d="M829 -385 Q688 -399 642 -399 Q542 -399 470 -362 Q393 -324 393 -222 Q393 -166 419 -120 Q453 -58 537 0 L98 0 L98 1366 L721 1366 L721 1169 L342 1169 L342 803 L680 803 L680 606 L342 606 L342 197 L741 197 L741 0 L739 0 Q575 -80 575 -178 Q575 -258 686 -258 Q711 -258 811 -244 L829 -385 Z " />
<glyph glyph-name="eogonek" unicode="&#x119;" horiz-adv-x="858" d="M653 -244 L672 -385 Q530 -399 485 -399 Q384 -399 313 -362 Q236 -324 236 -222 Q236 -107 356 -16 Q255 3 200 43 Q72 135 72 354 L72 696 Q72 903 167 995 Q258 1083 436 1083 Q556 1083 643 1039 Q705 1007 737 945 Q786 851 786 725 L786 467 L299 467 L299 313 Q299 174 431 174 Q473 174 506 191 Q556 215 557 336 L786 336 L786 319 Q786 143 691 58 Q664 35 582 1 Q510 -29 464 -79 Q418 -129 418 -178 Q418 -200 427 -217 Q451 -258 528 -258 Q553 -258 653 -244 Z M559 649 L559 758 Q559 897 431 897 Q388 897 354 879 Q299 850 299 758 L299 649 L559 649 Z " />
<glyph glyph-name="Ecaron" unicode="&#x11a;" horiz-adv-x="774" d="M741 0 L98 0 L98 1366 L721 1366 L721 1169 L342 1169 L342 803 L680 803 L680 606 L342 606 L342 197 L741 197 L741 0 Z M698 1716 L538 1438 L290 1438 L132 1716 L325 1716 L415 1550 L511 1716 L698 1716 Z " />
<glyph glyph-name="ecaron" unicode="&#x11b;" horiz-adv-x="858" d="M786 467 L299 467 L299 301 Q299 174 426 174 Q469 174 501 191 Q557 220 557 319 L557 336 L786 336 L786 319 Q786 -23 429 -23 Q257 -23 165 71 Q72 166 72 338 L72 715 Q72 809 98.5 885.5 Q125 962 173 1004 Q261 1083 433 1083 Q623 1083 710 986 Q786 901 786 725 L786 467 Z M559 649 L559 758 Q559 897 428 897 Q299 897 299 758 L299 649 L559 649 Z M726 1432 L566 1153 L318 1153 L160 1432 L353 1432 L443 1266 L539 1432 L726 1432 Z " />
<glyph glyph-name="Gcircumflex" unicode="&#x11c;" horiz-adv-x="956" d="M889 0 L686 0 L674 92 Q607 25 550.5 1 Q494 -23 406 -23 Q350 -23 300 -11 Q84 41 84 401 L84 967 Q84 1391 500 1391 Q699 1391 797 1282 Q885 1186 885 1008 L885 940 L649 940 L649 995 Q649 1176 494 1176 Q401 1176 363.5 1127.5 Q326 1079 326 958 L326 403 Q326 282 358.5 235 Q391 188 475 188 Q572 188 653 266 L653 499 L502 499 L502 696 L889 696 L889 0 Z M769 1432 L577 1432 L487 1598 L390 1432 L204 1432 L364 1710 L611 1710 L769 1432 Z " />
<glyph glyph-name="gcircumflex" unicode="&#x11d;" horiz-adv-x="899" d="M322 362 Q293 331 293 306 Q293 279 323.5 260 Q354 241 432 219 L602 172 Q758 129 823 65.5 Q888 2 888 -107 Q888 -303 724 -397 Q608 -463 434 -463 Q258 -463 143 -397 Q4 -318 4 -168 Q4 -125 17 -85 Q54 25 195 84 Q86 128 86 230 Q86 326 205 403 Q72 462 72 666 L72 772 Q72 921 162 1001 Q253 1082 431 1082 Q475 1082 514 1077 Q600 1067 665 1024 Q751 1114 850 1114 L878 1114 L878 955 Q846 963 818 963 Q807 963 795 960 Q768 953 751 936 Q786 870 786 772 L786 662 Q786 497 701 421 Q617 346 439 346 Q364 346 322 362 Z M565 651 L565 768 Q565 836 530 873 Q495 910 430 910 Q365 910 329 873 Q293 836 293 768 L293 651 Q293 590 329.5 554 Q366 518 429 518 Q453 518 474 524 Q565 548 565 651 Z M303 37 Q215 -11 215 -90 Q215 -115 221 -138 Q256 -264 454 -264 Q665 -264 665 -150 Q665 -99 630.5 -73 Q596 -47 489 -17 L303 37 Z M729 1149 L536 1149 L446 1315 L350 1149 L164 1149 L323 1428 L571 1428 L729 1149 Z " />
<glyph glyph-name="Gbreve" unicode="&#x11e;" horiz-adv-x="956" d="M889 0 L686 0 L674 92 Q610 27 552 2 Q494 -23 408 -23 Q310 -23 238 15 Q175 49 144 111 Q84 233 84 401 L84 967 Q84 1391 502 1391 Q633 1391 732 1339 Q798 1305 834 1238 Q885 1139 885 1008 L885 940 L649 940 L649 995 Q649 1087 610.5 1131.5 Q572 1176 492 1176 Q401 1176 363.5 1126.5 Q326 1077 326 958 L326 403 Q326 283 359 235.5 Q392 188 475 188 Q573 188 653 266 L653 500 L502 500 L502 696 L889 696 L889 0 Z M769 1704 Q767 1614 725 1553 Q651 1448 494 1448 Q371 1448 296 1517.5 Q221 1587 217 1704 L366 1704 Q370 1655 405 1624 Q440 1593 492 1593 Q548 1593 582.5 1622.5 Q617 1652 622 1704 L769 1704 Z " />
<glyph glyph-name="gbreve" unicode="&#x11f;" horiz-adv-x="899" d="M195 84 Q86 127 86 227 Q86 323 205 403 Q79 449 72 666 L72 772 Q72 1081 428 1081 Q513 1081 590 1060 Q625 1050 666 1024 Q751 1114 850 1114 L879 1114 L879 954 Q848 963 821 963 Q803 963 787 958 Q770 952 752 936 Q786 877 786 772 L786 662 Q786 497 702 422 Q617 346 436 346 Q400 346 371 350 Q349 354 322 362 Q293 330 293 303 Q293 296 296 290 Q312 252 432 219 L602 172 Q757 129 823 64.5 Q889 0 889 -107 Q889 -241 809 -329 Q689 -463 434 -463 Q238 -463 121 -384 Q4 -304 4 -169 Q4 -78 49.5 -17.5 Q95 43 195 84 Z M565 651 L565 768 Q565 909 428 909 Q293 909 293 768 L293 651 Q293 518 428 518 Q565 518 565 651 Z M303 37 Q255 10 235 -20 Q215 -50 215 -97 Q215 -264 452 -264 Q555 -264 610.5 -234.5 Q666 -205 666 -150 Q666 -144 665 -138 Q661 -95 624 -69.5 Q587 -44 489 -16 L303 37 Z M718 1417 Q716 1327 674 1266 Q599 1161 442 1161 Q320 1161 245 1230.5 Q170 1300 166 1417 L315 1417 Q319 1368 354.5 1337.5 Q390 1307 442 1307 Q468 1307 492 1315 Q565 1340 571 1417 L718 1417 Z " />
<glyph glyph-name="Gdotaccent" unicode="&#x120;" horiz-adv-x="956" d="M889 0 L686 0 L674 92 Q607 25 550.5 1 Q494 -23 406 -23 Q350 -23 300 -11 Q84 41 84 401 L84 967 Q84 1391 500 1391 Q699 1391 797 1282 Q885 1186 885 1008 L885 940 L649 940 L649 995 Q649 1176 494 1176 Q401 1176 363.5 1127.5 Q326 1079 326 958 L326 403 Q326 282 358.5 235 Q391 188 475 188 Q572 188 653 266 L653 499 L502 499 L502 696 L889 696 L889 0 Z M614 1463 L381 1463 L381 1688 L614 1688 L614 1463 Z " />
<glyph glyph-name="gdotaccent" unicode="&#x121;" horiz-adv-x="899" d="M322 362 Q293 331 293 306 Q293 279 323.5 260 Q354 241 432 219 L602 172 Q758 129 823 65.5 Q888 2 888 -107 Q888 -303 724 -397 Q608 -463 434 -463 Q258 -463 143 -397 Q4 -318 4 -168 Q4 -125 17 -85 Q54 25 195 84 Q86 128 86 230 Q86 326 205 403 Q72 462 72 666 L72 772 Q72 921 162 1001 Q253 1082 431 1082 Q475 1082 514 1077 Q600 1067 665 1024 Q751 1114 850 1114 L878 1114 L878 955 Q846 963 818 963 Q807 963 795 960 Q768 953 751 936 Q786 870 786 772 L786 662 Q786 497 701 421 Q617 346 439 346 Q364 346 322 362 Z M565 651 L565 768 Q565 836 530 873 Q495 910 430 910 Q365 910 329 873 Q293 836 293 768 L293 651 Q293 590 329.5 554 Q366 518 429 518 Q453 518 474 524 Q565 548 565 651 Z M303 37 Q215 -11 215 -90 Q215 -115 221 -138 Q256 -264 454 -264 Q665 -264 665 -150 Q665 -99 630.5 -73 Q596 -47 489 -17 L303 37 Z M558 1198 L325 1198 L325 1423 L558 1423 L558 1198 Z " />
<glyph glyph-name="Gcommaaccent" unicode="&#x122;" horiz-adv-x="956" d="M889 0 L686 0 L674 92 Q610 27 552 2 Q494 -23 408 -23 Q310 -23 238 15 Q175 49 144 111 Q84 233 84 401 L84 967 Q84 1391 502 1391 Q633 1391 732 1339 Q798 1305 834 1238 Q885 1139 885 1008 L885 940 L649 940 L649 995 Q649 1087 610.5 1131.5 Q572 1176 492 1176 Q401 1176 363.5 1126.5 Q326 1077 326 958 L326 403 Q326 283 359 235.5 Q392 188 475 188 Q573 188 653 266 L653 500 L502 500 L502 696 L889 696 L889 0 Z M590 -338 L456 -575 L372 -575 L452 -350 L377 -350 L377 -115 L590 -115 L590 -338 Z " />
<glyph glyph-name="gcommaaccent" unicode="&#x123;" horiz-adv-x="899" d="M195 84 Q86 127 86 227 Q86 323 205 403 Q79 449 72 666 L72 772 Q72 1081 428 1081 Q513 1081 590 1060 Q625 1050 666 1024 Q751 1114 850 1114 L879 1114 L879 954 Q848 963 821 963 Q803 963 787 958 Q770 952 752 936 Q786 877 786 772 L786 662 Q786 497 702 422 Q617 346 436 346 Q400 346 371 350 Q349 354 322 362 Q293 330 293 303 Q293 296 296 290 Q312 252 432 219 L602 172 Q757 129 823 64.5 Q889 0 889 -107 Q889 -241 809 -329 Q689 -463 434 -463 Q238 -463 121 -384 Q4 -304 4 -169 Q4 -78 49.5 -17.5 Q95 43 195 84 Z M565 651 L565 768 Q565 909 428 909 Q293 909 293 768 L293 651 Q293 518 428 518 Q565 518 565 651 Z M303 37 Q255 10 235 -20 Q215 -50 215 -97 Q215 -264 452 -264 Q555 -264 610.5 -234.5 Q666 -205 666 -150 Q666 -144 665 -138 Q661 -95 624 -69.5 Q587 -44 489 -16 L303 37 Z M582 1710 L476 1415 L558 1415 L558 1151 L324 1151 L324 1399 L488 1710 L582 1710 Z " />
<glyph glyph-name="Hcircumflex" unicode="&#x124;" horiz-adv-x="987" d="M889 0 L647 0 L647 622 L340 622 L340 0 L98 0 L98 1366 L340 1366 L340 815 L647 815 L647 1366 L889 1366 L889 0 Z M776 1432 L583 1432 L493 1598 L397 1432 L211 1432 L370 1710 L618 1710 L776 1432 Z " />
<glyph glyph-name="hcircumflex" unicode="&#x125;" horiz-adv-x="887" d="M800 0 L569 0 L569 758 Q569 867 478 867 Q408 867 315 791 L315 0 L84 0 L84 1423 L315 1423 L315 987 Q451 1082 571 1082 Q800 1082 800 797 L800 0 Z M505 1468 L313 1468 L223 1634 L126 1468 L-60 1468 L100 1746 L348 1746 L505 1468 Z " />
<glyph glyph-name="Hbar" unicode="&#x126;" horiz-adv-x="987" d="M889 1037 L889 0 L647 0 L647 622 L340 622 L340 0 L98 0 L98 1037 L16 1037 L16 1195 L98 1195 L98 1366 L340 1366 L340 1195 L647 1195 L647 1366 L889 1366 L889 1195 L971 1195 L971 1037 L889 1037 Z M647 1037 L340 1037 L340 815 L647 815 L647 1037 Z " />
<glyph glyph-name="hbar" unicode="&#x127;" horiz-adv-x="887" d="M315 1157 L315 987 Q452 1082 571 1082 Q610 1082 646 1073 Q800 1033 800 797 L800 0 L569 0 L569 758 Q569 867 478 867 Q408 867 315 791 L315 0 L84 0 L84 1157 L15 1157 L15 1329 L84 1329 L84 1423 L315 1423 L315 1329 L570 1329 L570 1157 L315 1157 Z " />
<glyph glyph-name="Itilde" unicode="&#x128;" horiz-adv-x="438" d="M341 0 L99 0 L99 1366 L341 1366 L341 0 Z M541 1563 Q465 1503 427 1485.5 Q389 1468 338 1468 Q317 1468 298 1472 Q270 1477 214 1501 Q144 1532 109 1532 Q102 1532 94 1530 Q56 1523 -6 1467 L-102 1597 Q9 1710 106 1710 Q146 1710 220 1679 Q292 1648 328 1648 Q336 1648 344 1650 Q385 1659 459 1712 L541 1563 Z " />
<glyph glyph-name="itilde" unicode="&#x129;" horiz-adv-x="399" d="M315 0 L84 0 L84 1061 L315 1061 L315 0 Z M521 1280 Q445 1221 406.5 1203.5 Q368 1186 317 1186 Q271 1186 194 1219 Q123 1250 89 1250 Q82 1250 74 1248 Q35 1240 -26 1184 L-122 1315 Q-9 1428 85 1428 Q126 1428 200 1397 Q272 1366 309 1366 Q317 1366 324 1368 Q367 1377 439 1430 L521 1280 Z " />
<glyph glyph-name="Imacron" unicode="&#x12a;" horiz-adv-x="438" d="M451 1493 L-2 1493 L-2 1665 L451 1665 L451 1493 Z M340 0 L98 0 L98 1366 L340 1366 L340 0 Z " />
<glyph glyph-name="imacron" unicode="&#x12b;" horiz-adv-x="399" d="M399 1227 L2 1227 L2 1399 L399 1399 L399 1227 Z M315 0 L84 0 L84 1061 L315 1061 L315 0 Z " />
<glyph glyph-name="Ibreve" unicode="&#x12c;" horiz-adv-x="438" d="M341 0 L99 0 L99 1366 L341 1366 L341 0 Z M496 1700 Q490 1585 426 1520 Q351 1444 219 1444 Q97 1444 23.5 1512 Q-50 1580 -57 1700 L93 1700 Q98 1649 132.5 1619.5 Q167 1590 219 1590 Q274 1590 308 1619 Q342 1648 349 1700 L496 1700 Z " />
<glyph glyph-name="ibreve" unicode="&#x12d;" horiz-adv-x="399" d="M315 0 L84 0 L84 1061 L315 1061 L315 0 Z M476 1417 Q470 1302 406 1237 Q331 1161 199 1161 Q78 1161 4.5 1229 Q-69 1297 -77 1417 L73 1417 Q79 1366 113 1336 Q147 1306 199 1306 Q238 1306 269 1323 Q320 1350 329 1417 L476 1417 Z " />
<glyph glyph-name="Iogonek" unicode="&#x12e;" horiz-adv-x="438" d="M428 -385 Q287 -399 241 -399 Q141 -399 69 -362 Q-8 -324 -8 -222 Q-8 -99 135 0 L98 0 L98 1366 L340 1366 L340 0 L338 0 Q174 -80 174 -178 Q174 -200 183 -217 Q206 -258 285 -258 Q309 -258 410 -244 L428 -385 Z " />
<glyph glyph-name="iogonek" unicode="&#x12f;" horiz-adv-x="399" d="M315 1198 L84 1198 L84 1423 L315 1423 L315 1198 Z M401 -385 Q262 -399 214 -399 Q114 -399 42 -362 Q-35 -324 -35 -222 Q-35 -99 109 0 L84 0 L84 1061 L315 1061 L315 0 L311 0 Q147 -80 147 -178 Q147 -200 156 -217 Q179 -258 258 -258 Q281 -258 361 -247 Q368 -246 383 -244 L401 -385 Z " />
<glyph glyph-name="Idot" unicode="&#x130;" horiz-adv-x="438" d="M340 0 L98 0 L98 1366 L340 1366 L340 0 Z M335 1472 L102 1472 L102 1697 L335 1697 L335 1472 Z " />
<glyph glyph-name="IJ" unicode="&#x132;" horiz-adv-x="1006" d="M340 0 L98 0 L98 1366 L340 1366 L340 0 Z M907 1366 L907 285 Q907 143 817 63 Q726 -18 567 -18 L544 -18 Q488 -18 446 -14 L446 203 Q456 202 477 200 Q492 199 507 199 Q604 199 636 235 Q665 267 665 338 L665 1366 L907 1366 Z " />
<glyph glyph-name="ij" unicode="&#x133;" horiz-adv-x="799" d="M315 0 L84 0 L84 1061 L315 1061 L315 0 Z M315 1198 L84 1198 L84 1423 L315 1423 L315 1198 Z M711 1061 L711 -131 Q711 -449 427 -449 Q366 -449 264 -430 L264 -227 Q319 -244 370 -244 Q404 -244 430 -230 Q457 -215 468.5 -180 Q480 -145 480 -76 L480 1061 L711 1061 Z M712 1198 L479 1198 L479 1423 L712 1423 L712 1198 Z " />
<glyph glyph-name="Jcircumflex" unicode="&#x134;" horiz-adv-x="567" d="M469 1366 L469 285 Q469 143 379 63 Q288 -18 129 -18 L106 -18 Q50 -18 8 -14 L8 203 Q18 202 39 200 Q54 199 69 199 Q166 199 198 235 Q227 267 227 338 L227 1366 L469 1366 Z M627 1432 L435 1432 L345 1598 L249 1432 L62 1432 L222 1710 L470 1710 L627 1432 Z " />
<glyph glyph-name="jcircumflex" unicode="&#x135;" horiz-adv-x="399" d="M311 1061 L311 -131 Q311 -449 27 -449 Q-34 -449 -135 -430 L-135 -227 Q-81 -244 -30 -244 Q5 -244 30 -230 Q57 -215 68.5 -180 Q80 -145 80 -76 L80 1061 L311 1061 Z M469 1149 L277 1149 L186 1315 L90 1149 L-96 1149 L64 1428 L311 1428 L469 1149 Z " />
<glyph glyph-name="Kcommaaccent" unicode="&#x136;" horiz-adv-x="989" d="M1001 0 L729 0 L455 649 L340 479 L340 0 L98 0 L98 1366 L340 1366 L340 823 L676 1366 L961 1366 L629 844 L1001 0 Z M637 -338 L503 -575 L419 -575 L499 -350 L424 -350 L424 -115 L637 -115 L637 -338 Z " />
<glyph glyph-name="kcommaaccent" unicode="&#x137;" horiz-adv-x="897" d="M899 0 L655 0 L444 526 L315 365 L315 0 L84 0 L84 1423 L315 1423 L315 664 L584 1061 L850 1061 L604 711 L899 0 Z M587 -338 L453 -575 L369 -575 L449 -350 L374 -350 L374 -115 L587 -115 L587 -338 Z " />
<glyph glyph-name="Lacute" unicode="&#x139;" horiz-adv-x="721" d="M721 0 L98 0 L98 1366 L340 1366 L340 197 L721 197 L721 0 Z M497 1718 L300 1442 L95 1442 L224 1718 L497 1718 Z " />
<glyph glyph-name="lacute" unicode="&#x13a;" horiz-adv-x="399" d="M315 0 L84 0 L84 1423 L315 1423 L315 0 Z M479 1778 L282 1501 L77 1501 L206 1778 L479 1778 Z " />
<glyph glyph-name="Lcommaaccent" unicode="&#x13b;" horiz-adv-x="721" d="M721 0 L98 0 L98 1366 L340 1366 L340 197 L721 197 L721 0 Z M488 -338 L354 -575 L270 -575 L350 -350 L275 -350 L275 -115 L488 -115 L488 -338 Z " />
<glyph glyph-name="lcommaaccent" unicode="&#x13c;" horiz-adv-x="399" d="M315 0 L84 0 L84 1423 L315 1423 L315 0 Z M307 -338 L173 -575 L89 -575 L169 -350 L94 -350 L94 -115 L307 -115 L307 -338 Z " />
<glyph glyph-name="Lcaron" unicode="&#x13d;" horiz-adv-x="721" d="M721 0 L98 0 L98 1366 L340 1366 L340 197 L721 197 L721 0 Z M706 1121 L540 808 L445 808 L554 1104 L470 1104 L470 1366 L706 1366 L706 1121 Z " />
<glyph glyph-name="lcaron" unicode="&#x13e;" horiz-adv-x="399" d="M315 0 L84 0 L84 1423 L315 1423 L315 0 Z M652 1180 L486 868 L391 868 L500 1163 L416 1163 L416 1425 L652 1425 L652 1180 Z " />
<glyph glyph-name="Ldot" unicode="&#x13f;" horiz-adv-x="721" d="M721 0 L98 0 L98 1366 L340 1366 L340 197 L721 197 L721 0 Z M692 508 L459 508 L459 770 L692 770 L692 508 Z " />
<glyph glyph-name="ldot" unicode="&#x140;" horiz-adv-x="716" d="M315 0 L84 0 L84 1423 L315 1423 L315 0 Z M632 544 L399 544 L399 806 L632 806 L632 544 Z " />
<glyph glyph-name="Lslash" unicode="&#x141;" horiz-adv-x="760" d="M721 0 L99 0 L99 520 L-18 434 L-18 619 L99 697 L99 1366 L341 1366 L341 821 L594 995 L594 809 L341 641 L341 197 L721 197 L721 0 Z " />
<glyph glyph-name="lslash" unicode="&#x142;" horiz-adv-x="399" d="M432 788 L314 723 L314 0 L83 0 L83 614 L-23 553 L-23 733 L83 792 L83 1423 L314 1423 L314 901 L432 975 L432 788 Z " />
<glyph glyph-name="Nacute" unicode="&#x143;" horiz-adv-x="1044" d="M946 0 L633 0 L481 467 Q392 739 317 993 Q329 811 329 614 L329 0 L98 0 L98 1366 L414 1366 L556 930 Q651 639 729 358 Q717 558 717 823 L717 1366 L946 1366 L946 0 Z M779 1718 L582 1442 L377 1442 L506 1718 L779 1718 Z " />
<glyph glyph-name="nacute" unicode="&#x144;" horiz-adv-x="870" d="M791 0 L559 0 L559 750 Q559 868 470 868 Q392 868 315 791 L315 0 L84 0 L84 1061 L293 1061 L303 963 Q371 1028 428 1055.5 Q485 1083 553 1083 Q626 1083 684 1050 Q791 989 791 809 L791 0 Z M673 1430 L476 1153 L271 1153 L400 1430 L673 1430 Z " />
<glyph glyph-name="Ncommaaccent" unicode="&#x145;" horiz-adv-x="1044" d="M946 0 L633 0 L481 467 Q392 739 317 993 Q329 811 329 614 L329 0 L98 0 L98 1366 L414 1366 L556 930 Q651 639 729 358 Q717 558 717 823 L717 1366 L946 1366 L946 0 Z M633 -338 L499 -575 L415 -575 L495 -350 L420 -350 L420 -115 L633 -115 L633 -338 Z " />
<glyph glyph-name="ncommaaccent" unicode="&#x146;" horiz-adv-x="870" d="M791 0 L559 0 L559 750 Q559 868 470 868 Q392 868 315 791 L315 0 L84 0 L84 1061 L293 1061 L303 963 Q371 1028 428 1055.5 Q485 1083 553 1083 Q626 1083 684 1050 Q791 989 791 809 L791 0 Z M543 -338 L409 -575 L325 -575 L405 -350 L330 -350 L330 -115 L543 -115 L543 -338 Z " />
<glyph glyph-name="Ncaron" unicode="&#x147;" horiz-adv-x="1044" d="M946 0 L633 0 L481 467 Q392 739 317 993 Q329 811 329 614 L329 0 L98 0 L98 1366 L414 1366 L556 930 Q651 639 729 358 Q717 558 717 823 L717 1366 L946 1366 L946 0 Z M806 1716 L646 1438 L398 1438 L240 1716 L433 1716 L523 1550 L619 1716 L806 1716 Z " />
<glyph glyph-name="ncaron" unicode="&#x148;" horiz-adv-x="870" d="M791 0 L559 0 L559 750 Q559 868 470 868 Q392 868 315 791 L315 0 L84 0 L84 1061 L293 1061 L303 963 Q371 1028 428 1055.5 Q485 1083 553 1083 Q626 1083 684 1050 Q791 989 791 809 L791 0 Z M721 1432 L561 1153 L313 1153 L155 1432 L348 1432 L438 1266 L534 1432 L721 1432 Z " />
<glyph glyph-name="napostrophe" unicode="&#x149;" horiz-adv-x="1054" d="M974 0 L743 0 L743 750 Q743 868 653 868 Q577 868 499 791 L499 0 L268 0 L268 1061 L477 1061 L487 963 Q557 1030 610.5 1056.5 Q664 1083 729 1083 Q846 1083 910 1011.5 Q974 940 974 809 L974 0 Z M289 1180 L123 868 L28 868 L137 1163 L53 1163 L53 1425 L289 1425 L289 1180 Z " />
<glyph glyph-name="Omacron" unicode="&#x14c;" horiz-adv-x="969" d="M84 399 L84 954 Q84 1391 488 1391 Q586 1391 669 1358 Q769 1318 828 1215 Q885 1116 885 954 L885 399 Q885 234 814 129 Q709 -23 487 -23 Q383 -23 295 13 Q197 54 140 152 Q84 249 84 399 Z M643 383 L643 969 Q643 1176 486 1176 Q326 1176 326 969 L326 383 Q326 193 485 193 Q533 193 571 213 Q643 251 643 383 Z M734 1493 L222 1493 L222 1665 L734 1665 L734 1493 Z " />
<glyph glyph-name="omacron" unicode="&#x14d;" horiz-adv-x="879" d="M72 344 L72 731 Q72 889 173 986 Q274 1083 443 1083 Q612 1083 710 991 Q807 900 807 731 L807 344 Q807 200 742 111 Q645 -23 441 -23 Q349 -23 272 7 Q178 44 123 134 Q72 218 72 344 Z M575 324 L575 733 Q575 800 538 840.5 Q501 881 439 881 Q377 881 340 841 Q303 801 303 733 L303 324 Q303 180 440 180 Q484 180 518 198 Q575 228 575 324 Z M699 1227 L187 1227 L187 1399 L699 1399 L699 1227 Z " />
<glyph glyph-name="Obreve" unicode="&#x14e;" horiz-adv-x="969" d="M490 -23 L489 -23 L488 -23 L486 -23 Q288 -23 181 96 Q84 205 84 399 L84 955 Q84 1185 207 1298 Q310 1391 486 1391 Q680 1391 785 1274 Q885 1161 885 955 L885 399 Q885 182 761 70 Q659 -23 490 -23 Z M643 383 L643 969 Q643 1176 488 1176 Q460 1176 435 1169 Q326 1142 326 969 L326 383 Q326 193 486 193 Q643 193 643 383 Z M761 1700 Q755 1585 691 1520 Q616 1444 485 1444 Q439 1444 399 1454 Q312 1477 263 1540 Q214 1603 208 1700 L357 1700 Q363 1649 397.5 1619.5 Q432 1590 484 1590 Q522 1590 554 1606 Q606 1633 613 1700 L761 1700 Z " />
<glyph glyph-name="obreve" unicode="&#x14f;" horiz-adv-x="879" d="M72 344 L72 731 Q72 886 169 983 Q270 1084 442 1084 Q628 1084 725 976 Q807 885 807 731 L807 344 Q807 161 699 63 Q604 -23 441 -23 Q258 -23 159 87 Q72 184 72 344 Z M576 324 L576 733 Q576 800 539 840.5 Q502 881 441 881 Q377 881 340 841 Q303 801 303 733 L303 324 Q303 256 339.5 218 Q376 180 440 180 Q464 180 484 185 Q576 210 576 324 Z M716 1417 Q711 1302 646 1237 Q571 1161 440 1161 Q318 1161 244.5 1229 Q171 1297 163 1417 L313 1417 Q319 1366 353 1336 Q387 1306 440 1306 Q478 1306 509 1323 Q561 1350 569 1417 L716 1417 Z " />
<glyph glyph-name="Ohungarumlaut" unicode="&#x150;" horiz-adv-x="969" d="M84 399 L84 954 Q84 1391 488 1391 Q586 1391 669 1358 Q769 1318 828 1215 Q885 1116 885 954 L885 399 Q885 234 814 129 Q709 -23 487 -23 Q383 -23 295 13 Q197 54 140 152 Q84 249 84 399 Z M643 383 L643 969 Q643 1176 486 1176 Q326 1176 326 969 L326 383 Q326 193 485 193 Q533 193 571 213 Q643 251 643 383 Z M915 1716 L729 1442 L559 1442 L688 1716 L915 1716 Z M589 1716 L401 1442 L231 1442 L360 1716 L589 1716 Z " />
<glyph glyph-name="ohungarumlaut" unicode="&#x151;" horiz-adv-x="879" d="M72 344 L72 731 Q72 889 173 986 Q274 1083 443 1083 Q612 1083 710 991 Q807 900 807 731 L807 344 Q807 200 742 111 Q645 -23 441 -23 Q349 -23 272 7 Q178 44 123 134 Q72 218 72 344 Z M575 324 L575 733 Q575 800 538 840.5 Q501 881 439 881 Q377 881 340 841 Q303 801 303 733 L303 324 Q303 180 440 180 Q484 180 518 198 Q575 228 575 324 Z M844 1430 L658 1155 L488 1155 L617 1430 L844 1430 Z M518 1430 L330 1155 L160 1155 L289 1430 L518 1430 Z " />
<glyph glyph-name="Racute" unicode="&#x154;" horiz-adv-x="944" d="M944 0 L696 0 L461 588 L342 584 L342 0 L98 0 L98 1366 L451 1366 Q566 1366 658 1335.5 Q750 1305 799 1251 Q881 1159 881 987 Q881 848 817 744 Q777 681 678 639 L944 0 Z M342 1171 L342 766 L406 766 Q637 766 637 976 Q637 998 634 1019 Q613 1171 430 1171 L342 1171 Z M698 1718 L501 1442 L295 1442 L424 1718 L698 1718 Z " />
<glyph glyph-name="racute" unicode="&#x155;" horiz-adv-x="596" d="M598 821 Q466 815 405 765 Q379 745 347 692.5 Q315 640 315 618 L315 0 L84 0 L84 1061 L305 1061 L305 891 Q373 996 430 1033.5 Q487 1071 598 1083 L598 821 Z M553 1430 L356 1153 L151 1153 L280 1430 L553 1430 Z " />
<glyph glyph-name="Rcommaaccent" unicode="&#x156;" horiz-adv-x="944" d="M944 0 L696 0 L461 588 L342 584 L342 0 L98 0 L98 1366 L451 1366 Q566 1366 658 1335.5 Q750 1305 799 1251 Q881 1159 881 987 Q881 848 817 744 Q777 681 678 639 L944 0 Z M342 1171 L342 766 L406 766 Q637 766 637 976 Q637 998 634 1019 Q613 1171 430 1171 L342 1171 Z M594 -338 L460 -575 L376 -575 L456 -350 L381 -350 L381 -115 L594 -115 L594 -338 Z " />
<glyph glyph-name="rcommaaccent" unicode="&#x157;" horiz-adv-x="596" d="M598 821 Q466 815 405 765 Q379 745 347 692.5 Q315 640 315 618 L315 0 L84 0 L84 1061 L305 1061 L305 891 Q373 996 430 1033.5 Q487 1071 598 1083 L598 821 Z M307 -338 L173 -575 L89 -575 L169 -350 L94 -350 L94 -115 L307 -115 L307 -338 Z " />
<glyph glyph-name="Rcaron" unicode="&#x158;" horiz-adv-x="944" d="M944 0 L696 0 L461 588 L342 584 L342 0 L98 0 L98 1366 L451 1366 Q566 1366 658 1335.5 Q750 1305 799 1251 Q881 1159 881 987 Q881 848 817 744 Q777 681 678 639 L944 0 Z M342 1171 L342 766 L406 766 Q637 766 637 976 Q637 998 634 1019 Q613 1171 430 1171 L342 1171 Z M716 1716 L556 1438 L308 1438 L150 1716 L343 1716 L433 1550 L529 1716 L716 1716 Z " />
<glyph glyph-name="rcaron" unicode="&#x159;" horiz-adv-x="596" d="M598 821 Q466 815 404 765 Q378 744 346 692 Q314 640 314 618 L314 0 L83 0 L83 1061 L304 1061 L304 891 Q371 996 428.5 1033.5 Q486 1071 598 1083 L598 821 Z M586 1432 L426 1153 L178 1153 L20 1432 L213 1432 L303 1266 L399 1432 L586 1432 Z " />
<glyph glyph-name="Sacute" unicode="&#x15a;" horiz-adv-x="924" d="M74 424 L311 424 L311 365 Q311 178 475 178 Q527 178 567 199 Q621 227 621 302 Q621 412 482 531 Q269 714 257 724 Q177 789 132.5 878.5 Q88 968 88 1066 Q88 1165 130 1241 Q165 1305 226 1336 Q331 1391 473 1391 Q651 1391 746 1297 Q842 1201 842 1026 L842 979 L604 979 L604 1014 Q604 1096 582 1136 Q550 1194 457 1194 Q408 1194 372 1175 Q322 1148 322 1080 Q322 1022 360.5 970.5 Q399 919 517 819 Q683 678 722 637 Q862 492 862 313 Q862 277 856 242 Q838 130 765 66 Q719 25 637 1 Q555 -23 461 -23 Q365 -23 284 6 Q189 39 130 129 Q74 215 74 346 L74 424 Z M694 1718 L497 1442 L292 1442 L421 1718 L694 1718 Z " />
<glyph glyph-name="sacute" unicode="&#x15b;" horiz-adv-x="799" d="M35 317 L266 317 L266 289 Q266 154 409 154 Q451 154 483 171 Q526 193 526 252 Q526 304 493 339.5 Q460 375 359 432 Q216 513 182 539 Q61 631 61 784 L61 809 Q61 1081 404 1081 Q492 1081 567 1057 Q649 1031 696 963.5 Q743 896 743 805 L743 762 L520 762 L520 793 Q520 905 394 905 Q355 905 326 890 Q285 869 285 813 Q285 765 321 727.5 Q357 690 456 636 Q597 558 638 528 Q762 437 762 289 L762 260 Q762 156 699 85 Q601 -23 402 -23 Q233 -23 133 57 Q35 135 35 274 L35 317 Z M671 1430 L474 1153 L269 1153 L398 1430 L671 1430 Z " />
<glyph glyph-name="Scircumflex" unicode="&#x15c;" horiz-adv-x="924" d="M604 979 L604 1014 Q604 1087 589 1124 Q559 1194 459 1194 Q431 1194 405 1187 Q322 1167 322 1076 Q322 1028 354 979 Q393 918 536 805 Q717 660 790 550.5 Q863 441 863 313 Q863 278 858 243 Q816 -23 466 -23 Q392 -23 326 -7 Q192 25 124 141 Q74 225 74 346 L74 424 L312 424 L312 365 Q312 267 349.5 222.5 Q387 178 470 178 Q621 178 621 306 Q621 374 570 440.5 Q519 507 394 604 Q265 703 187 795 Q88 911 88 1070 Q88 1100 94 1134 Q139 1391 471 1391 Q541 1391 605 1375 Q730 1344 793 1235 Q842 1151 842 1026 L842 979 L604 979 Z M751 1432 L558 1432 L468 1598 L372 1432 L186 1432 L346 1710 L593 1710 L751 1432 Z " />
<glyph glyph-name="scircumflex" unicode="&#x15d;" horiz-adv-x="799" d="M520 762 L520 793 Q520 852 491 879 Q462 906 398 906 Q285 906 285 811 Q285 762 326 722.5 Q367 683 473 629 Q657 535 714 449 Q762 376 762 288 L762 260 Q762 106 630 30 Q538 -23 402 -23 Q203 -23 105 83 Q35 158 35 274 L35 317 L266 317 L266 288 Q266 218 299 185.5 Q332 153 405 153 Q527 153 527 254 Q527 289 510 317 Q478 370 342 440 Q163 532 108 618 Q62 693 62 785 L62 809 Q62 933 141 1003 Q230 1082 404 1082 Q475 1082 538 1066 Q635 1042 689.5 973 Q744 904 744 805 L744 762 L520 762 Z M681 1149 L489 1149 L399 1315 L302 1149 L116 1149 L276 1428 L524 1428 L681 1149 Z " />
<glyph glyph-name="Scedilla" unicode="&#x15e;" horiz-adv-x="924" d="M532 -19 L493 -98 Q681 -103 681 -249 Q681 -298 660 -334 Q607 -426 415 -426 Q340 -426 260 -406 L268 -291 Q340 -311 382 -311 Q503 -311 503 -246 Q503 -184 397 -184 Q389 -184 383 -184 Q372 -185 341 -188 L417 -21 Q297 -14 218 39 Q74 137 74 346 L74 424 L311 424 L311 365 Q311 178 475 178 Q527 178 567 199 Q621 227 621 302 Q621 412 482 531 Q269 714 257 724 Q177 789 132.5 878.5 Q88 968 88 1066 Q88 1165 130 1241 Q165 1305 226 1336 Q331 1391 473 1391 Q651 1391 746 1297 Q842 1201 842 1026 L842 979 L604 979 L604 1014 Q604 1096 582 1136 Q550 1194 457 1194 Q408 1194 372 1175 Q322 1148 322 1080 Q322 1022 360.5 970.5 Q399 919 517 819 Q683 677 722 637 Q862 492 862 313 Q862 277 856 242 Q831 91 718 33 Q643 -5 532 -19 Z " />
<glyph glyph-name="scedilla" unicode="&#x15f;" horiz-adv-x="799" d="M356 -21 Q247 -12 172 30 Q35 107 35 274 L35 317 L266 317 L266 288 Q266 218 299 185.5 Q332 153 405 153 Q527 153 527 254 Q527 289 510 317 Q478 370 342 440 Q163 532 108 618 Q62 693 62 785 L62 809 Q62 933 141 1003 Q230 1082 404 1082 Q475 1082 538 1066 Q635 1042 689.5 973 Q744 904 744 805 L744 762 L520 762 L520 793 Q520 852 491 879 Q462 906 398 906 Q285 906 285 811 Q285 762 326 722.5 Q367 683 473 629 Q657 535 714 449 Q762 376 762 288 L762 260 Q762 145 686 72.5 Q610 0 471 -19 L432 -99 Q621 -103 621 -250 Q621 -427 355 -427 Q277 -427 199 -406 L207 -291 Q277 -312 322 -312 Q342 -312 360 -310 Q443 -299 443 -247 Q443 -232 436 -220 Q415 -185 336 -185 Q318 -185 281 -189 L356 -21 Z " />
<glyph glyph-name="Scaron" unicode="&#x160;" horiz-adv-x="924" d="M760 1716 L598 1440 L353 1440 L195 1716 L387 1716 L477 1552 L574 1716 L760 1716 Z M604 979 L604 1014 Q604 1087 589 1124 Q559 1194 459 1194 Q431 1194 405 1187 Q322 1167 322 1076 Q322 1028 354 979 Q393 918 536 805 Q717 660 790 550.5 Q863 441 863 313 Q863 278 858 243 Q816 -23 466 -23 Q392 -23 326 -7 Q192 26 124 142 Q74 226 74 346 L74 424 L312 424 L312 365 Q312 267 349.5 222.5 Q387 178 470 178 Q621 178 621 306 Q621 374 570 440.5 Q519 507 394 604 Q265 703 187 795 Q88 911 88 1070 Q88 1100 94 1134 Q139 1391 471 1391 Q541 1391 605 1375 Q730 1344 793 1235 Q842 1151 842 1026 L842 979 L604 979 Z " />
<glyph glyph-name="scaron" unicode="&#x161;" horiz-adv-x="803" d="M690 1432 L529 1153 L283 1153 L125 1432 L318 1432 L408 1266 L504 1432 L690 1432 Z M520 762 L520 793 Q520 852 491 879 Q462 906 398 906 Q285 906 285 811 Q285 762 326 722.5 Q367 683 473 629 Q657 535 714 449 Q762 376 762 288 L762 260 Q762 106 630 30 Q538 -23 402 -23 Q203 -23 105 83 Q35 158 35 274 L35 317 L266 317 L266 288 Q266 218 299 185.5 Q332 153 405 153 Q527 153 527 254 Q527 289 510 317 Q478 370 342 440 Q163 532 108 618 Q62 693 62 785 L62 809 Q62 933 141 1003 Q230 1082 404 1082 Q475 1082 538 1066 Q635 1042 689.5 973 Q744 904 744 805 L744 762 L520 762 Z " />
<glyph glyph-name="Tcommaaccent" unicode="&#x162;" horiz-adv-x="803" d="M803 1169 L522 1169 L522 0 L281 0 L281 1169 L0 1169 L0 1366 L803 1366 L803 1169 Z M508 -338 L374 -575 L290 -575 L370 -350 L295 -350 L295 -115 L508 -115 L508 -338 Z " />
<glyph glyph-name="tcommaaccent" unicode="&#x163;" horiz-adv-x="649" d="M618 4 Q516 -14 458 -14 Q362 -14 289 26 Q168 91 168 293 L168 881 L31 881 L31 1061 L170 1061 L170 1321 L401 1358 L401 1061 L612 1061 L612 881 L401 881 L401 293 Q401 168 516 168 Q529 168 542 169 Q569 172 618 182 L618 4 Z M401 -338 L267 -575 L183 -575 L263 -350 L188 -350 L188 -115 L401 -115 L401 -338 Z " />
<glyph glyph-name="Tcaron" unicode="&#x164;" horiz-adv-x="803" d="M803 1169 L522 1169 L522 0 L281 0 L281 1169 L0 1169 L0 1366 L803 1366 L803 1169 Z M679 1716 L519 1438 L271 1438 L113 1716 L306 1716 L396 1550 L492 1716 L679 1716 Z " />
<glyph glyph-name="tcaron" unicode="&#x165;" horiz-adv-x="649" d="M618 4 Q516 -14 458 -14 Q362 -14 289 26 Q168 91 168 293 L168 881 L31 881 L31 1061 L170 1061 L170 1321 L401 1358 L401 1061 L612 1061 L612 881 L401 881 L401 293 Q401 168 516 168 Q529 168 542 169 Q569 172 618 182 L618 4 Z M748 1446 L582 1134 L487 1134 L596 1429 L512 1429 L512 1691 L748 1691 L748 1446 Z " />
<glyph glyph-name="Tbar" unicode="&#x166;" horiz-adv-x="803" d="M281 865 L281 1169 L0 1169 L0 1366 L803 1366 L803 1169 L523 1169 L523 865 L667 865 L667 693 L523 693 L523 0 L281 0 L281 693 L136 693 L136 865 L281 865 Z " />
<glyph glyph-name="tbar" unicode="&#x167;" horiz-adv-x="649" d="M401 534 L401 293 Q401 168 519 168 Q530 168 542 169 Q570 172 619 182 L619 4 Q530 -14 460 -14 Q404 -14 352 -1 Q168 47 168 293 L168 534 L31 534 L31 714 L168 714 L168 881 L31 881 L31 1061 L170 1061 L170 1321 L401 1358 L401 1061 L613 1061 L613 881 L401 881 L401 714 L613 714 L613 534 L401 534 Z " />
<glyph glyph-name="Utilde" unicode="&#x168;" horiz-adv-x="985" d="M887 1366 L887 387 Q887 174 770 68 Q670 -23 492 -23 Q421 -23 356 -6 Q223 28 154 144 Q98 240 98 387 L98 1366 L340 1366 L340 393 Q340 287 376.5 238.5 Q413 190 494 190 Q520 190 543 196 Q645 221 645 393 L645 1366 L887 1366 Z M814 1563 Q738 1504 699.5 1486 Q661 1468 610 1468 Q564 1468 487 1501 Q416 1532 382 1532 Q375 1532 367 1530 Q329 1523 267 1467 L171 1597 Q282 1710 378 1710 Q418 1710 493 1679 Q565 1648 601 1648 Q609 1648 617 1650 Q657 1658 732 1712 L814 1563 Z " />
<glyph glyph-name="utilde" unicode="&#x169;" horiz-adv-x="872" d="M789 0 L582 0 L572 92 Q447 -23 312 -23 Q80 -23 80 272 L80 1061 L311 1061 L311 301 Q311 194 399 194 Q471 194 558 270 L558 1061 L789 1061 L789 0 Z M756 1280 Q680 1221 641.5 1203.5 Q603 1186 552 1186 Q505 1186 429 1219 Q358 1250 323 1250 Q317 1250 309 1248 Q269 1240 209 1184 L113 1315 Q226 1428 320 1428 Q361 1428 435 1397 Q506 1366 544 1366 Q551 1366 559 1368 Q600 1376 674 1430 L756 1280 Z " />
<glyph glyph-name="Umacron" unicode="&#x16a;" horiz-adv-x="985" d="M98 1366 L340 1366 L340 393 Q340 190 495 190 Q645 190 645 393 L645 1366 L887 1366 L887 387 Q887 -23 490 -23 Q390 -23 305 11 Q210 48 154 144 Q98 238 98 387 L98 1366 Z M748 1493 L236 1493 L236 1665 L748 1665 L748 1493 Z " />
<glyph glyph-name="umacron" unicode="&#x16b;" horiz-adv-x="872" d="M788 0 L582 0 L571 92 Q444 -23 310 -23 Q242 -23 190 6 Q80 67 80 272 L80 1061 L311 1061 L311 301 Q311 195 398 195 Q471 195 557 270 L557 1061 L788 1061 L788 0 Z M693 1227 L181 1227 L181 1399 L693 1399 L693 1227 Z " />
<glyph glyph-name="Ubreve" unicode="&#x16c;" horiz-adv-x="985" d="M887 1366 L887 387 Q887 174 770 68 Q670 -23 492 -23 Q421 -23 356 -6 Q223 28 154 144 Q98 240 98 387 L98 1366 L340 1366 L340 393 Q340 287 376.5 238.5 Q413 190 494 190 Q520 190 543 196 Q645 221 645 393 L645 1366 L887 1366 Z M769 1700 Q763 1585 699 1520 Q624 1444 492 1444 Q370 1444 296.5 1512 Q223 1580 216 1700 L365 1700 Q371 1649 405.5 1619.5 Q440 1590 492 1590 Q547 1590 581 1619 Q615 1648 621 1700 L769 1700 Z " />
<glyph glyph-name="ubreve" unicode="&#x16d;" horiz-adv-x="872" d="M789 0 L582 0 L572 92 Q447 -23 312 -23 Q80 -23 80 272 L80 1061 L311 1061 L311 301 Q311 194 399 194 Q471 194 558 270 L558 1061 L789 1061 L789 0 Z M711 1417 Q705 1302 641 1237 Q565 1161 434 1161 Q312 1161 238.5 1229 Q165 1297 158 1417 L307 1417 Q313 1366 347.5 1336 Q382 1306 434 1306 Q473 1306 504 1323 Q555 1350 563 1417 L711 1417 Z " />
<glyph glyph-name="Uring" unicode="&#x16e;" horiz-adv-x="985" d="M98 1366 L340 1366 L340 393 Q340 190 495 190 Q645 190 645 393 L645 1366 L887 1366 L887 387 Q887 -23 490 -23 Q390 -23 305 11 Q210 48 154 144 Q98 238 98 387 L98 1366 Z M495 1798 Q534 1798 567 1785 Q618 1764 647.5 1721 Q677 1678 677 1625 Q677 1551 625 1501.5 Q573 1452 495 1452 Q455 1452 423 1465 Q372 1485 342.5 1527.5 Q313 1570 313 1624 Q313 1699 365 1748.5 Q417 1798 495 1798 Z M495 1692 Q472 1692 455 1683 Q429 1669 429 1626 Q429 1604 438 1587 Q451 1561 496 1561 Q561 1561 561 1627 Q561 1692 495 1692 Z " />
<glyph glyph-name="uring" unicode="&#x16f;" horiz-adv-x="872" d="M788 0 L582 0 L571 92 Q444 -23 310 -23 Q242 -23 190 6 Q80 67 80 272 L80 1061 L311 1061 L311 301 Q311 195 398 195 Q471 195 557 270 L557 1061 L788 1061 L788 0 Z M438 1483 Q477 1483 510 1470 Q562 1448 591 1405.5 Q620 1363 620 1308 Q620 1235 568 1186 Q516 1137 438 1137 Q399 1137 366 1150 Q315 1170 285.5 1212.5 Q256 1255 256 1309 Q256 1383 308.5 1433 Q361 1483 438 1483 Z M438 1376 Q415 1376 399 1367 Q372 1353 372 1310 Q372 1245 438 1245 Q504 1245 504 1312 Q504 1376 438 1376 Z " />
<glyph glyph-name="Uhungarumlaut" unicode="&#x170;" horiz-adv-x="985" d="M98 1366 L340 1366 L340 393 Q340 190 495 190 Q645 190 645 393 L645 1366 L887 1366 L887 387 Q887 -23 490 -23 Q390 -23 305 11 Q210 48 154 144 Q98 238 98 387 L98 1366 Z M901 1716 L716 1442 L546 1442 L674 1716 L901 1716 Z M575 1716 L388 1442 L218 1442 L346 1716 L575 1716 Z " />
<glyph glyph-name="uhungarumlaut" unicode="&#x171;" horiz-adv-x="872" d="M788 0 L582 0 L571 92 Q444 -23 310 -23 Q242 -23 190 6 Q80 67 80 272 L80 1061 L311 1061 L311 301 Q311 195 398 195 Q471 195 557 270 L557 1061 L788 1061 L788 0 Z M836 1430 L650 1155 L480 1155 L609 1430 L836 1430 Z M510 1430 L322 1155 L152 1155 L281 1430 L510 1430 Z " />
<glyph glyph-name="Uogonek" unicode="&#x172;" horiz-adv-x="985" d="M719 -244 L737 -385 Q596 -399 550 -399 Q450 -399 378 -362 Q301 -324 301 -222 Q301 -108 420 -18 Q303 1 240 46 Q98 145 98 387 L98 1366 L340 1366 L340 393 Q340 190 494 190 Q645 190 645 393 L645 1366 L887 1366 L887 387 Q887 192 792 89 Q749 42 714 28 L685 16 Q591 -23 554 -55 Q483 -116 483 -178 Q483 -200 492 -217 Q515 -258 594 -258 Q619 -258 719 -244 Z " />
<glyph glyph-name="uogonek" unicode="&#x173;" horiz-adv-x="872" d="M874 -385 Q733 -399 687 -399 Q586 -399 515 -362 Q438 -324 438 -222 Q438 -99 582 0 L571 92 Q444 -23 310 -23 Q242 -23 190 6 Q80 67 80 272 L80 1061 L311 1061 L311 301 Q311 195 398 195 Q471 195 557 270 L557 1061 L788 1061 L788 0 L784 0 Q621 -80 621 -178 Q621 -258 731 -258 Q755 -258 856 -244 L874 -385 Z " />
<glyph glyph-name="Wcircumflex" unicode="&#x174;" horiz-adv-x="1386" d="M1376 1366 L1143 0 L882 0 L733 801 Q708 936 696 1118 Q681 932 657 807 L506 0 L250 0 L10 1366 L235 1366 L354 618 Q377 473 395 301 Q414 492 436 618 L569 1366 L821 1366 L954 662 Q988 481 999 301 Q1018 492 1046 676 L1153 1366 L1376 1366 Z M976 1432 L783 1432 L693 1598 L597 1432 L410 1432 L570 1710 L818 1710 L976 1432 Z " />
<glyph glyph-name="wcircumflex" unicode="&#x175;" horiz-adv-x="1215" d="M1196 1061 L993 0 L733 0 L636 518 Q612 649 604 750 Q592 640 567 518 L460 0 L202 0 L18 1061 L249 1061 L331 471 Q346 367 356 246 Q367 325 392 476 L405 553 L428 680 L450 807 L467 903 L484 1000 L495 1061 L720 1061 L817 471 Q822 442 830 386 Q841 318 847 246 Q866 401 876 471 L964 1061 L1196 1061 Z M889 1149 L697 1149 L607 1315 L511 1149 L324 1149 L484 1428 L732 1428 L889 1149 Z " />
<glyph glyph-name="Ycircumflex" unicode="&#x176;" horiz-adv-x="915" d="M905 1366 L582 530 L582 0 L338 0 L338 530 L10 1366 L254 1366 Q339 1115 461 711 Q581 1115 666 1366 L905 1366 Z M740 1432 L547 1432 L457 1598 L361 1432 L175 1432 L334 1710 L582 1710 L740 1432 Z " />
<glyph glyph-name="ycircumflex" unicode="&#x177;" horiz-adv-x="862" d="M832 1061 L527 -117 Q497 -232 463 -295.5 Q429 -359 378 -395 Q296 -453 139 -453 Q120 -453 109 -452 Q82 -450 27 -441 L27 -256 Q64 -267 112 -267 Q144 -267 174 -261 Q222 -250 249 -215.5 Q276 -181 293 -109 L326 33 L31 1061 L275 1061 Q345 744 441 248 Q456 359 500 573 Q544 794 601 1061 L832 1061 Z M712 1149 L520 1149 L430 1315 L333 1149 L147 1149 L307 1428 L554 1428 L712 1149 Z " />
<glyph glyph-name="Zacute" unicode="&#x179;" horiz-adv-x="823" d="M772 0 L31 0 L31 172 L512 1169 L66 1169 L66 1366 L772 1366 L772 1194 L289 197 L772 197 L772 0 Z M673 1718 L476 1442 L271 1442 L400 1718 L673 1718 Z " />
<glyph glyph-name="zacute" unicode="&#x17a;" horiz-adv-x="778" d="M723 0 L51 0 L51 156 L438 881 L88 881 L88 1061 L700 1061 L700 893 L319 180 L723 180 L723 0 Z M665 1430 L468 1153 L263 1153 L392 1430 L665 1430 Z " />
<glyph glyph-name="Zdotaccent" unicode="&#x17b;" horiz-adv-x="823" d="M772 0 L31 0 L31 172 L512 1169 L66 1169 L66 1366 L772 1366 L772 1194 L289 197 L772 197 L772 0 Z M529 1472 L295 1472 L295 1697 L529 1697 L529 1472 Z " />
<glyph glyph-name="zdotaccent" unicode="&#x17c;" horiz-adv-x="778" d="M723 0 L51 0 L51 156 L438 881 L88 881 L88 1061 L700 1061 L700 893 L319 180 L723 180 L723 0 Z M505 1198 L271 1198 L271 1423 L505 1423 L505 1198 Z " />
<glyph glyph-name="Zcaron" unicode="&#x17d;" horiz-adv-x="823" d="M708 1716 L548 1440 L303 1440 L145 1716 L338 1716 L428 1552 L524 1716 L708 1716 Z M772 0 L31 0 L31 172 L512 1169 L66 1169 L66 1366 L772 1366 L772 1194 L289 197 L772 197 L772 0 Z " />
<glyph glyph-name="zcaron" unicode="&#x17e;" horiz-adv-x="778" d="M680 1432 L518 1153 L272 1153 L114 1432 L307 1432 L397 1266 L493 1432 L680 1432 Z M723 0 L51 0 L51 156 L438 881 L88 881 L88 1061 L700 1061 L700 893 L319 180 L723 180 L723 0 Z " />
<glyph glyph-name="longs" unicode="&#x17f;" horiz-adv-x="596" d="M657 1448 L643 1256 Q569 1267 525 1267 Q495 1267 470 1261 Q432 1252 415.5 1217.5 Q399 1183 399 1112 L399 0 L167 0 L167 881 L20 881 L20 1061 L167 1061 L167 1116 Q167 1304 263 1391 Q343 1464 500 1464 Q575 1464 657 1448 Z " />
<glyph glyph-name="uni01C4" unicode="&#x1c4;" horiz-adv-x="1796" d="M98 1366 L416 1366 Q674 1366 787 1239 Q889 1126 889 887 L889 494 Q889 210 763 96 Q657 0 436 0 L98 0 L98 1366 Z M338 197 L432 197 Q559 197 603 256.5 Q647 316 647 486 L647 921 Q647 1057 599.5 1113 Q552 1169 436 1169 L338 1169 L338 197 Z M1680 1716 L1521 1440 L1275 1440 L1117 1716 L1310 1716 L1400 1552 L1496 1716 L1680 1716 Z M1745 0 L1003 0 L1003 172 L1485 1169 L1038 1169 L1038 1366 L1745 1366 L1745 1194 L1261 197 L1745 197 L1745 0 Z " />
<glyph glyph-name="uni01C5" unicode="&#x1c5;" horiz-adv-x="1751" d="M98 1366 L416 1366 Q674 1366 787 1239 Q889 1126 889 887 L889 494 Q889 210 763 96 Q657 0 436 0 L98 0 L98 1366 Z M338 197 L432 197 Q559 197 603 256.5 Q647 316 647 486 L647 921 Q647 1057 599.5 1113 Q552 1169 436 1169 L338 1169 L338 197 Z M1652 1432 L1491 1153 L1245 1153 L1087 1432 L1280 1432 L1370 1266 L1466 1432 L1652 1432 Z M1695 0 L1024 0 L1024 156 L1411 881 L1061 881 L1061 1061 L1673 1061 L1673 893 L1292 180 L1695 180 L1695 0 Z " />
<glyph glyph-name="uni01C6" unicode="&#x1c6;" horiz-adv-x="1663" d="M802 0 L582 0 L576 86 Q452 -23 328 -23 Q212 -23 145 54 Q72 138 72 293 L72 748 Q72 1083 332 1083 Q401 1083 448.5 1061 Q496 1039 570 973 L570 1423 L802 1423 L802 0 Z M570 258 L570 805 Q485 876 416 876 Q397 876 379 871 Q303 852 303 723 L303 332 Q303 261 333 222.5 Q363 184 417 184 Q485 184 570 258 Z M1565 1432 L1403 1153 L1157 1153 L1000 1432 L1192 1432 L1282 1266 L1379 1432 L1565 1432 Z M1608 0 L936 0 L936 156 L1323 881 L973 881 L973 1061 L1585 1061 L1585 893 L1204 180 L1608 180 L1608 0 Z " />
<glyph glyph-name="uni01C7" unicode="&#x1c7;" horiz-adv-x="1288" d="M699 0 L98 0 L98 1366 L340 1366 L340 197 L699 197 L699 0 Z M1190 1366 L1190 285 Q1190 143 1100 63 Q1009 -18 850 -18 L827 -18 Q771 -18 729 -14 L729 203 Q739 202 760 200 Q775 199 790 199 Q887 199 919 235 Q948 267 948 338 L948 1366 L1190 1366 Z " />
<glyph glyph-name="uni01C8" unicode="&#x1c8;" horiz-adv-x="1120" d="M721 0 L98 0 L98 1366 L340 1366 L340 197 L721 197 L721 0 Z M1032 1061 L1032 -131 Q1032 -449 748 -449 Q688 -449 585 -430 L585 -227 Q639 -244 691 -244 Q725 -244 751 -230 Q778 -215 789.5 -180 Q801 -145 801 -76 L801 1061 L1032 1061 Z M1033 1198 L800 1198 L800 1423 L1033 1423 L1033 1198 Z " />
<glyph glyph-name="uni01C9" unicode="&#x1c9;" horiz-adv-x="799" d="M315 0 L84 0 L84 1423 L315 1423 L315 0 Z M711 1061 L711 -131 Q711 -449 427 -449 Q366 -449 264 -430 L264 -227 Q319 -244 370 -244 Q404 -244 430 -230 Q457 -215 468.5 -180 Q480 -145 480 -76 L480 1061 L711 1061 Z M712 1198 L479 1198 L479 1423 L712 1423 L712 1198 Z " />
<glyph glyph-name="uni01CA" unicode="&#x1ca;" horiz-adv-x="1612" d="M946 0 L632 0 L481 467 Q371 804 317 993 Q329 810 329 614 L329 0 L98 0 L98 1366 L413 1366 L554 930 Q667 584 728 358 Q716 540 716 791 L716 823 L716 1366 L946 1366 L946 0 Z M1513 1366 L1513 285 Q1513 143 1423 63 Q1332 -18 1173 -18 L1150 -18 Q1094 -18 1052 -14 L1052 203 Q1062 202 1083 200 Q1098 199 1113 199 Q1210 199 1242 235 Q1271 267 1271 338 L1271 1366 L1513 1366 Z " />
<glyph glyph-name="uni01CB" unicode="&#x1cb;" horiz-adv-x="1444" d="M946 0 L632 0 L481 467 Q371 804 317 993 Q329 810 329 614 L329 0 L98 0 L98 1366 L413 1366 L554 930 Q667 584 728 358 Q716 540 716 791 L716 823 L716 1366 L946 1366 L946 0 Z M1356 1061 L1356 -131 Q1356 -449 1071 -449 Q1010 -449 909 -430 L909 -227 Q963 -244 1014 -244 Q1049 -244 1074 -230 Q1101 -215 1112.5 -180 Q1124 -145 1124 -76 L1124 1061 L1356 1061 Z M1357 1198 L1123 1198 L1123 1423 L1357 1423 L1357 1198 Z " />
<glyph glyph-name="uni01CC" unicode="&#x1cc;" horiz-adv-x="1270" d="M790 0 L559 0 L559 750 Q559 868 469 868 Q393 868 315 791 L315 0 L84 0 L84 1061 L292 1061 L303 963 Q373 1030 426 1056.5 Q479 1083 545 1083 Q662 1083 726 1011.5 Q790 940 790 809 L790 0 Z M1182 1061 L1182 -131 Q1182 -449 898 -449 Q836 -449 735 -430 L735 -227 Q788 -244 841 -244 Q875 -244 901 -230 Q928 -215 939.5 -179.5 Q951 -144 951 -76 L951 1061 L1182 1061 Z M1183 1198 L950 1198 L950 1423 L1183 1423 L1183 1198 Z " />
<glyph glyph-name="uni01CD" unicode="&#x1cd;" horiz-adv-x="913" d="M903 0 L655 0 L592 340 L313 340 L250 0 L10 0 L293 1366 L616 1366 L903 0 Z M567 532 L564 550 L547 638 Q478 996 450 1190 L435 1101 L408 940 L380 777 L356 638 L341 550 L338 532 L567 532 Z M739 1714 L579 1436 L332 1436 L174 1714 L366 1714 L456 1549 L553 1714 L739 1714 Z " />
<glyph glyph-name="uni01CE" unicode="&#x1ce;" horiz-adv-x="864" d="M786 0 L579 0 L571 88 Q463 -12 338 -12 Q214 -12 134.5 64 Q55 140 55 258 L55 303 Q55 462 168 543.5 Q281 625 555 663 L555 778 Q555 846 528 874 Q501 902 436 902 Q361 902 337 870.5 Q313 839 311 737 L92 737 L92 772 Q92 1084 446 1084 Q519 1084 585 1068 Q786 1019 786 776 L786 0 Z M555 242 L555 504 Q407 479 346.5 435.5 Q286 392 286 311 L286 287 Q286 172 403 172 Q471 172 555 242 Z M713 1432 L553 1153 L305 1153 L147 1432 L340 1432 L430 1266 L526 1432 L713 1432 Z " />
<glyph glyph-name="uni01CF" unicode="&#x1cf;" horiz-adv-x="438" d="M341 0 L99 0 L99 1366 L341 1366 L341 0 Z M502 1714 L343 1436 L95 1436 L-63 1714 L130 1714 L220 1549 L316 1714 L502 1714 Z " />
<glyph glyph-name="uni01D0" unicode="&#x1d0;" horiz-adv-x="399" d="M315 0 L84 0 L84 1061 L315 1061 L315 0 Z M482 1432 L323 1153 L75 1153 L-83 1432 L110 1432 L200 1266 L296 1432 L482 1432 Z " />
<glyph glyph-name="uni01D1" unicode="&#x1d1;" horiz-adv-x="969" d="M490 -23 L489 -23 L488 -23 L486 -23 Q288 -23 181 96 Q84 205 84 399 L84 955 Q84 1185 207 1298 Q310 1391 486 1391 Q680 1391 785 1274 Q885 1161 885 955 L885 399 Q885 182 761 70 Q659 -23 490 -23 Z M643 383 L643 969 Q643 1176 488 1176 Q460 1176 435 1169 Q326 1142 326 969 L326 383 Q326 193 486 193 Q643 193 643 383 Z M767 1714 L607 1436 L360 1436 L202 1714 L394 1714 L484 1549 L581 1714 L767 1714 Z " />
<glyph glyph-name="uni01D2" unicode="&#x1d2;" horiz-adv-x="879" d="M72 344 L72 731 Q72 886 169 983 Q270 1084 442 1084 Q628 1084 725 976 Q807 885 807 731 L807 344 Q807 161 699 63 Q604 -23 441 -23 Q258 -23 159 87 Q72 184 72 344 Z M576 324 L576 733 Q576 800 539 840.5 Q502 881 441 881 Q377 881 340 841 Q303 801 303 733 L303 324 Q303 256 339.5 218 Q376 180 440 180 Q464 180 484 185 Q576 210 576 324 Z M722 1432 L563 1153 L315 1153 L157 1432 L350 1432 L440 1266 L536 1432 L722 1432 Z " />
<glyph glyph-name="uni01D3" unicode="&#x1d3;" horiz-adv-x="985" d="M887 1366 L887 387 Q887 174 770 68 Q670 -23 492 -23 Q421 -23 356 -6 Q223 28 154 144 Q98 240 98 387 L98 1366 L340 1366 L340 393 Q340 287 376.5 238.5 Q413 190 494 190 Q520 190 543 196 Q645 221 645 393 L645 1366 L887 1366 Z M775 1714 L615 1436 L367 1436 L210 1714 L402 1714 L492 1549 L589 1714 L775 1714 Z " />
<glyph glyph-name="uni01D4" unicode="&#x1d4;" horiz-adv-x="872" d="M789 0 L582 0 L572 92 Q447 -23 312 -23 Q80 -23 80 272 L80 1061 L311 1061 L311 301 Q311 194 399 194 Q471 194 558 270 L558 1061 L789 1061 L789 0 Z M717 1432 L557 1153 L309 1153 L152 1432 L344 1432 L434 1266 L531 1432 L717 1432 Z " />
<glyph glyph-name="Gcaron" unicode="&#x1e6;" horiz-adv-x="956" d="M889 0 L686 0 L674 92 Q607 25 550.5 1 Q494 -23 406 -23 Q350 -23 300 -11 Q84 41 84 401 L84 967 Q84 1391 500 1391 Q699 1391 797 1282 Q885 1186 885 1008 L885 940 L649 940 L649 995 Q649 1176 494 1176 Q401 1176 363.5 1127.5 Q326 1079 326 958 L326 403 Q326 282 358.5 235 Q391 188 475 188 Q572 188 653 266 L653 499 L502 499 L502 696 L889 696 L889 0 Z M769 1714 L610 1436 L362 1436 L204 1714 L396 1714 L487 1549 L583 1714 L769 1714 Z " />
<glyph glyph-name="gcaron" unicode="&#x1e7;" horiz-adv-x="899" d="M322 362 Q293 331 293 306 Q293 279 323.5 260 Q354 241 432 219 L602 172 Q758 129 823 65.5 Q888 2 888 -107 Q888 -303 724 -397 Q608 -463 434 -463 Q258 -463 143 -397 Q4 -318 4 -168 Q4 -125 17 -85 Q54 25 195 84 Q86 128 86 230 Q86 326 205 403 Q72 462 72 666 L72 772 Q72 921 162 1001 Q253 1082 431 1082 Q475 1082 514 1077 Q600 1067 665 1024 Q751 1114 850 1114 L878 1114 L878 955 Q846 963 818 963 Q807 963 795 960 Q768 953 751 936 Q786 870 786 772 L786 662 Q786 497 701 421 Q617 346 439 346 Q364 346 322 362 Z M565 651 L565 768 Q565 836 530 873 Q495 910 430 910 Q365 910 329 873 Q293 836 293 768 L293 651 Q293 590 329.5 554 Q366 518 429 518 Q453 518 474 524 Q565 548 565 651 Z M303 37 Q215 -11 215 -90 Q215 -115 221 -138 Q256 -264 454 -264 Q665 -264 665 -150 Q665 -99 630.5 -73 Q596 -47 489 -17 L303 37 Z M729 1432 L569 1153 L321 1153 L164 1432 L356 1432 L446 1266 L543 1432 L729 1432 Z " />
<glyph glyph-name="uni01EA" unicode="&#x1ea;" horiz-adv-x="969" d="M406 -17 Q320 -3 260 32 Q84 135 84 399 L84 955 Q84 1185 208 1298 Q310 1391 486 1391 Q680 1391 785 1274 Q885 1161 885 955 L885 399 Q885 69 613 -8 Q544 -43 505 -88.5 Q466 -134 466 -179 Q466 -201 476 -217 Q499 -258 579 -258 Q618 -258 702 -244 L718 -385 Q589 -399 539 -399 Q500 -399 466 -394 Q284 -370 284 -222 Q284 -185 296 -152 Q321 -82 406 -17 Z M643 383 L643 969 Q643 1176 488 1176 Q460 1176 435 1169 Q326 1142 326 969 L326 383 Q326 193 486 193 Q643 193 643 383 Z " />
<glyph glyph-name="uni01EB" unicode="&#x1eb;" horiz-adv-x="879" d="M359 -16 Q285 -3 234 27 Q72 121 72 344 L72 731 Q72 886 169 983 Q270 1084 442 1084 Q628 1084 725 976 Q807 885 807 731 L807 344 Q807 64 570 -6 Q500 -41 459.5 -87 Q419 -133 419 -180 Q419 -201 428 -217 Q452 -258 532 -258 Q572 -258 655 -244 L671 -385 Q542 -399 493 -399 Q453 -399 419 -394 Q237 -370 237 -222 Q237 -107 359 -16 Z M576 324 L576 733 Q576 800 539 840.5 Q502 881 441 881 Q377 881 340 841 Q303 801 303 733 L303 324 Q303 256 339.5 218 Q376 180 440 180 Q464 180 484 185 Q576 210 576 324 Z " />
<glyph glyph-name="uni01F1" unicode="&#x1f1;" horiz-adv-x="1796" d="M98 1366 L416 1366 Q674 1366 787 1239 Q889 1126 889 887 L889 494 Q889 210 763 96 Q657 0 436 0 L98 0 L98 1366 Z M338 197 L432 197 Q559 197 603 256.5 Q647 316 647 486 L647 921 Q647 1057 599.5 1113 Q552 1169 436 1169 L338 1169 L338 197 Z M1745 0 L1003 0 L1003 172 L1485 1169 L1038 1169 L1038 1366 L1745 1366 L1745 1194 L1261 197 L1745 197 L1745 0 Z " />
<glyph glyph-name="uni01F2" unicode="&#x1f2;" horiz-adv-x="1751" d="M98 1366 L416 1366 Q674 1366 787 1239 Q889 1126 889 887 L889 494 Q889 210 763 96 Q657 0 436 0 L98 0 L98 1366 Z M338 197 L432 197 Q559 197 603 256.5 Q647 316 647 486 L647 921 Q647 1057 599.5 1113 Q552 1169 436 1169 L338 1169 L338 197 Z M1695 0 L1024 0 L1024 156 L1411 881 L1061 881 L1061 1061 L1673 1061 L1673 893 L1292 180 L1695 180 L1695 0 Z " />
<glyph glyph-name="uni01F3" unicode="&#x1f3;" horiz-adv-x="1663" d="M802 0 L582 0 L576 86 Q452 -23 328 -23 Q212 -23 145 54 Q72 138 72 293 L72 748 Q72 1083 332 1083 Q401 1083 448.5 1061 Q496 1039 570 973 L570 1423 L802 1423 L802 0 Z M570 258 L570 805 Q485 876 416 876 Q397 876 379 871 Q303 852 303 723 L303 332 Q303 261 333 222.5 Q363 184 417 184 Q485 184 570 258 Z M1608 0 L936 0 L936 156 L1323 881 L973 881 L973 1061 L1585 1061 L1585 893 L1204 180 L1608 180 L1608 0 Z " />
<glyph glyph-name="uni01F4" unicode="&#x1f4;" horiz-adv-x="956" d="M889 0 L686 0 L674 92 Q607 25 550.5 1 Q494 -23 406 -23 Q350 -23 300 -11 Q84 41 84 401 L84 967 Q84 1391 500 1391 Q699 1391 797 1282 Q885 1186 885 1008 L885 940 L649 940 L649 995 Q649 1176 494 1176 Q401 1176 363.5 1127.5 Q326 1079 326 958 L326 403 Q326 282 358.5 235 Q391 188 475 188 Q572 188 653 266 L653 499 L502 499 L502 696 L889 696 L889 0 Z M774 1718 L576 1441 L373 1441 L502 1718 L774 1718 Z " />
<glyph glyph-name="uni01F5" unicode="&#x1f5;" horiz-adv-x="899" d="M322 362 Q293 331 293 306 Q293 279 323.5 260 Q354 241 432 219 L602 172 Q758 129 823 65.5 Q888 2 888 -107 Q888 -303 724 -397 Q608 -463 434 -463 Q258 -463 143 -397 Q4 -318 4 -168 Q4 -125 17 -85 Q54 25 195 84 Q86 128 86 230 Q86 326 205 403 Q72 462 72 666 L72 772 Q72 921 162 1001 Q253 1082 431 1082 Q475 1082 514 1077 Q600 1067 665 1024 Q751 1114 850 1114 L878 1114 L878 955 Q846 963 818 963 Q807 963 795 960 Q768 953 751 936 Q786 870 786 772 L786 662 Q786 497 701 421 Q617 346 439 346 Q364 346 322 362 Z M565 651 L565 768 Q565 836 530 873 Q495 910 430 910 Q365 910 329 873 Q293 836 293 768 L293 651 Q293 590 329.5 554 Q366 518 429 518 Q453 518 474 524 Q565 548 565 651 Z M303 37 Q215 -11 215 -90 Q215 -115 221 -138 Q256 -264 454 -264 Q665 -264 665 -150 Q665 -99 630.5 -73 Q596 -47 489 -17 L303 37 Z M697 1430 L501 1153 L296 1153 L425 1430 L697 1430 Z " />
<glyph glyph-name="Aringacute" unicode="&#x1fa;" horiz-adv-x="913" d="M903 0 L655 0 L592 340 L313 340 L250 0 L10 0 L293 1366 L616 1366 L903 0 Z M567 532 L564 550 L547 638 Q478 996 450 1190 L435 1101 L408 940 L380 777 L356 638 L341 550 L338 532 L567 532 Z M503 1963 L306 1687 L102 1687 L231 1963 L503 1963 Z M457 1734 Q483 1734 507 1727 Q568 1711 603.5 1665 Q639 1619 639 1558 Q639 1486 586 1437 Q533 1388 456 1388 Q379 1388 326.5 1437.5 Q274 1487 274 1560 Q274 1584 280 1606 Q295 1663 344 1698.5 Q393 1734 457 1734 Z M456 1628 Q448 1628 439 1625 Q391 1612 391 1562 Q391 1534 409.5 1515.5 Q428 1497 456 1497 Q466 1497 474 1499 Q522 1512 522 1563 Q522 1590 503 1609 Q484 1628 456 1628 Z " />
<glyph glyph-name="aringacute" unicode="&#x1fb;" horiz-adv-x="864" d="M786 0 L579 0 L571 88 Q463 -12 338 -12 Q214 -12 134.5 64 Q55 140 55 258 L55 303 Q55 462 168 543.5 Q281 625 555 663 L555 778 Q555 846 528 874 Q501 902 436 902 Q361 902 337 870.5 Q313 839 311 737 L92 737 L92 772 Q92 1084 446 1084 Q519 1084 585 1068 Q786 1019 786 776 L786 0 Z M555 242 L555 504 Q407 479 346.5 435.5 Q286 392 286 311 L286 287 Q286 172 403 172 Q471 172 555 242 Z M457 1698 L261 1422 L56 1422 L185 1698 L457 1698 Z M420 1469 Q446 1469 471 1462 Q532 1446 567.5 1400 Q603 1354 603 1292 Q603 1220 550 1171 Q497 1122 420 1122 Q342 1122 290 1171.5 Q238 1221 238 1294 Q238 1368 290.5 1418.5 Q343 1469 420 1469 Z M420 1362 Q411 1362 402 1360 Q355 1346 355 1296 Q355 1268 374 1249 Q393 1230 420 1230 Q448 1230 467 1249 Q486 1268 486 1296 Q486 1324 467 1343 Q448 1362 420 1362 Z " />
<glyph glyph-name="AEacute" unicode="&#x1fc;" horiz-adv-x="1272" d="M1239 0 L643 0 L643 490 L401 490 L256 0 L10 0 L450 1366 L1231 1366 L1231 1169 L880 1169 L880 803 L1192 803 L1192 604 L880 604 L880 197 L1239 197 L1239 0 Z M643 674 L643 1169 L612 1169 L452 674 L643 674 Z M1039 1718 L840 1441 L637 1441 L767 1718 L1039 1718 Z " />
<glyph glyph-name="aeacute" unicode="&#x1fd;" horiz-adv-x="1325" d="M1253 336 L1253 320 Q1253 149 1152 58 Q1062 -23 903 -23 Q848 -23 797 -12 Q685 12 616 117 Q476 -12 336 -12 Q213 -12 134 63.5 Q55 139 55 258 L55 303 Q55 462 165.5 542 Q276 622 555 664 L555 755 Q555 833 528 866 Q501 899 439 899 Q412 899 387 893 Q347 884 330 849.5 Q313 815 311 737 L92 737 L92 770 Q92 920 184 1002 Q274 1082 439 1082 Q490 1082 538 1073 Q635 1053 682 971 Q763 1082 918 1082 Q1065 1082 1156 990 Q1253 892 1253 723 L1253 494 L772 494 L772 313 Q772 249 807.5 211.5 Q843 174 903 174 Q969 174 997 210 Q1025 246 1030 336 L1253 336 Z M1034 674 L1034 755 Q1034 895 907 895 Q884 895 864 890 Q772 865 772 755 L772 674 L1034 674 Z M555 242 L555 504 Q400 476 343 435 Q286 394 286 311 L286 287 Q286 235 318.5 203.5 Q351 172 405 172 Q469 172 555 242 Z M927 1430 L730 1153 L525 1153 L654 1430 L927 1430 Z " />
<glyph glyph-name="Oslashacute" unicode="&#x1fe;" horiz-adv-x="969" d="M945 1366 L837 1192 Q884 1084 884 955 L884 399 Q884 182 761 70 Q659 -23 483 -23 Q300 -23 190 86 L116 -49 L24 6 L126 178 Q83 274 83 399 L83 955 Q83 1185 207 1298 Q309 1391 485 1391 Q533 1391 576 1384 Q689 1364 775 1284 L851 1415 L945 1366 Z M636 1045 Q608 1176 486 1176 Q438 1176 402 1156 Q325 1113 325 969 L325 512 L362 575 L422 676 L481 778 Q577 942 636 1045 Z M329 330 Q352 192 482 192 Q534 192 570 212 Q642 252 642 383 L642 868 Q477 591 329 330 Z M747 1718 L548 1441 L346 1441 L475 1718 L747 1718 Z " />
<glyph glyph-name="oslashacute" unicode="&#x1ff;" horiz-adv-x="879" d="M881 1071 Q826 997 781 933 L768 914 Q807 832 807 731 L807 344 Q807 159 700 63 Q606 -23 441 -23 Q278 -23 174 70 L80 -70 L-4 -12 L117 147 Q72 232 72 344 L72 731 Q72 887 169 983 Q270 1084 442 1084 Q607 1084 711 991 L721 1008 L738 1034 L755 1060 Q779 1098 799 1129 L881 1071 Z M570 782 Q537 881 440 881 Q417 881 398 876 Q303 851 303 733 L303 403 L335 449 L386 520 L437 592 L487 665 L538 737 L570 782 Z M311 268 Q340 180 441 180 Q466 180 489 186 Q576 207 576 324 L576 647 L544 602 L494 530 L443 458 L393 386 L343 314 L311 268 Z M696 1430 L499 1153 L295 1153 L424 1430 L696 1430 Z " />
<glyph glyph-name="uni0200" unicode="&#x200;" horiz-adv-x="913" d="M903 0 L655 0 L592 340 L313 340 L250 0 L10 0 L293 1366 L616 1366 L903 0 Z M567 532 L564 550 L547 638 Q478 996 450 1190 L435 1101 L408 940 L380 777 L356 638 L341 550 L338 532 L567 532 Z M39 1712 L266 1712 L395 1438 L225 1438 L39 1712 Z M365 1712 L594 1712 L723 1438 L553 1438 L365 1712 Z " />
<glyph glyph-name="uni0201" unicode="&#x201;" horiz-adv-x="864" d="M786 0 L579 0 L571 88 Q463 -12 338 -12 Q214 -12 134.5 64 Q55 140 55 258 L55 303 Q55 462 168 543.5 Q281 625 555 663 L555 778 Q555 846 528 874 Q501 902 436 902 Q361 902 336.5 870 Q312 838 311 737 L92 737 L92 772 Q92 1084 446 1084 Q519 1084 585 1068 Q786 1019 786 776 L786 0 Z M555 242 L555 504 Q448 486 399 464 Q286 417 286 311 L286 287 Q286 172 403 172 Q471 172 555 242 Z M57 1430 L285 1430 L414 1156 L244 1156 L57 1430 Z M383 1430 L613 1430 L741 1156 L572 1156 L383 1430 Z " />
<glyph glyph-name="uni0202" unicode="&#x202;" horiz-adv-x="913" d="M903 0 L655 0 L592 340 L313 340 L250 0 L10 0 L293 1366 L616 1366 L903 0 Z M567 532 L564 550 L547 638 Q478 996 450 1190 L435 1101 L408 940 L380 777 L356 638 L341 550 L338 532 L567 532 Z M733 1444 L585 1444 Q580 1495 545.5 1524.5 Q511 1554 457 1554 Q404 1554 369.5 1524.5 Q335 1495 329 1444 L180 1444 Q187 1558 255 1625 Q331 1700 457 1700 Q582 1700 654.5 1633 Q727 1566 733 1444 Z " />
<glyph glyph-name="uni0203" unicode="&#x203;" horiz-adv-x="864" d="M786 0 L579 0 L571 88 Q463 -12 338 -12 Q214 -12 134.5 64 Q55 140 55 258 L55 303 Q55 462 168 543.5 Q281 625 555 663 L555 778 Q555 846 528 874 Q501 902 436 902 Q361 902 337 870.5 Q313 839 311 737 L92 737 L92 772 Q92 1084 446 1084 Q519 1084 585 1068 Q786 1019 786 776 L786 0 Z M555 242 L555 504 Q407 479 346.5 435.5 Q286 392 286 311 L286 287 Q286 172 403 172 Q471 172 555 242 Z M697 1161 L549 1161 Q543 1213 509 1242.5 Q475 1272 421 1272 Q368 1272 333.5 1242 Q299 1212 293 1161 L144 1161 Q151 1275 219 1342 Q295 1417 421 1417 Q546 1417 618 1350 Q690 1283 697 1161 Z " />
<glyph glyph-name="uni0204" unicode="&#x204;" horiz-adv-x="774" d="M741 0 L98 0 L98 1366 L721 1366 L721 1169 L342 1169 L342 803 L680 803 L680 606 L342 606 L342 197 L741 197 L741 0 Z M12 1712 L239 1712 L368 1438 L198 1438 L12 1712 Z M338 1712 L567 1712 L696 1438 L526 1438 L338 1712 Z " />
<glyph glyph-name="uni0205" unicode="&#x205;" horiz-adv-x="858" d="M786 336 L786 320 Q786 148 688 59 Q597 -23 430 -23 Q249 -23 155 81 Q71 174 71 338 L71 715 Q71 1084 431 1084 Q504 1084 571 1067 Q786 1014 786 725 L786 467 L298 467 L298 301 Q298 174 431 174 Q458 174 481 180 Q557 199 557 320 L557 336 L786 336 Z M559 649 L559 758 Q559 897 428 897 Q406 897 385 892 Q298 870 298 758 L298 649 L559 649 Z M28 1430 L255 1430 L384 1156 L214 1156 L28 1430 Z M354 1430 L583 1430 L712 1156 L542 1156 L354 1430 Z " />
<glyph glyph-name="uni0206" unicode="&#x206;" horiz-adv-x="774" d="M741 0 L98 0 L98 1366 L721 1366 L721 1169 L342 1169 L342 803 L680 803 L680 606 L342 606 L342 197 L741 197 L741 0 Z M696 1444 L549 1444 Q543 1496 508.5 1525 Q474 1554 420 1554 Q367 1554 332.5 1524 Q298 1494 293 1444 L143 1444 Q150 1558 218 1625 Q294 1700 420 1700 Q545 1700 617.5 1633 Q690 1566 696 1444 Z " />
<glyph glyph-name="uni0207" unicode="&#x207;" horiz-adv-x="858" d="M787 336 L787 320 Q787 148 689 59 Q599 -23 431 -23 Q250 -23 156 81 Q72 174 72 338 L72 715 Q72 1084 432 1084 Q505 1084 572 1067 Q787 1014 787 725 L787 467 L299 467 L299 301 Q299 174 432 174 Q459 174 482 180 Q558 199 558 320 L558 336 L787 336 Z M560 649 L560 758 Q560 897 429 897 Q407 897 386 892 Q299 870 299 758 L299 649 L560 649 Z M706 1161 L558 1161 Q553 1212 518.5 1242 Q484 1272 430 1272 Q377 1272 342.5 1242 Q308 1212 302 1161 L153 1161 Q160 1275 228 1342 Q304 1417 430 1417 Q555 1417 627.5 1350 Q700 1283 706 1161 Z " />
<glyph glyph-name="uni0208" unicode="&#x208;" horiz-adv-x="438" d="M341 0 L99 0 L99 1366 L341 1366 L341 0 Z M-186 1712 L41 1712 L170 1438 L0 1438 L-186 1712 Z M140 1712 L369 1712 L498 1438 L328 1438 L140 1712 Z " />
<glyph glyph-name="uni0209" unicode="&#x209;" horiz-adv-x="399" d="M316 0 L84 0 L84 1061 L316 1061 L316 0 Z M-210 1430 L17 1430 L146 1156 L-24 1156 L-210 1430 Z M116 1430 L345 1430 L474 1156 L304 1156 L116 1430 Z " />
<glyph glyph-name="uni020A" unicode="&#x20a;" horiz-adv-x="438" d="M341 0 L99 0 L99 1366 L341 1366 L341 0 Z M496 1444 L349 1444 Q343 1496 308.5 1525 Q274 1554 220 1554 Q167 1554 132.5 1524.5 Q98 1495 93 1444 L-57 1444 Q-50 1558 18 1625 Q94 1700 220 1700 Q345 1700 417.5 1633 Q490 1566 496 1444 Z " />
<glyph glyph-name="uni020B" unicode="&#x20b;" horiz-adv-x="399" d="M315 0 L84 0 L84 1061 L315 1061 L315 0 Z M476 1161 L329 1161 Q322 1213 288 1242.5 Q254 1272 200 1272 Q147 1272 112.5 1242 Q78 1212 73 1161 L-77 1161 Q-70 1275 -2 1342 Q74 1417 200 1417 Q325 1417 397.5 1350 Q470 1283 476 1161 Z " />
<glyph glyph-name="uni020C" unicode="&#x20c;" horiz-adv-x="969" d="M490 -23 L489 -23 L488 -23 L486 -23 L485 -23 Q288 -23 181 96 Q84 205 84 399 L84 955 Q84 1185 207 1298 Q310 1391 486 1391 Q554 1391 616 1375 Q753 1340 824 1219 Q885 1115 885 955 L885 399 Q885 182 761 70 Q659 -23 490 -23 Z M643 383 L643 969 Q643 1176 488 1176 Q326 1176 326 969 L326 383 Q326 193 485 193 Q513 193 537 199 Q643 227 643 383 Z M67 1712 L294 1712 L423 1438 L253 1438 L67 1712 Z M393 1712 L622 1712 L751 1438 L581 1438 L393 1712 Z " />
<glyph glyph-name="uni020D" unicode="&#x20d;" horiz-adv-x="879" d="M71 344 L71 731 Q71 886 168 983 Q270 1084 442 1084 Q628 1084 725 976 Q807 885 807 731 L807 344 Q807 161 699 63 Q604 -23 441 -23 Q377 -23 317 -8 Q186 26 120 139 Q71 224 71 344 Z M576 324 L576 733 Q576 800 538.5 840.5 Q501 881 440 881 Q418 881 398 876 Q302 850 302 733 L302 324 Q302 256 338.5 218 Q375 180 440 180 Q464 180 484 185 Q576 210 576 324 Z M19 1430 L246 1430 L375 1156 L205 1156 L19 1430 Z M345 1430 L574 1430 L703 1156 L533 1156 L345 1430 Z " />
<glyph glyph-name="uni020E" unicode="&#x20e;" horiz-adv-x="969" d="M490 -23 L489 -23 L488 -23 L486 -23 Q288 -23 181 96 Q84 205 84 399 L84 955 Q84 1185 207 1298 Q310 1391 486 1391 Q680 1391 785 1274 Q885 1161 885 955 L885 399 Q885 182 761 70 Q659 -23 490 -23 Z M643 383 L643 969 Q643 1176 488 1176 Q460 1176 435 1169 Q326 1142 326 969 L326 383 Q326 193 486 193 Q643 193 643 383 Z M761 1444 L613 1444 Q608 1496 573.5 1525 Q539 1554 485 1554 Q432 1554 397.5 1524.5 Q363 1495 357 1444 L208 1444 Q215 1558 283 1625 Q359 1700 485 1700 Q610 1700 682.5 1633 Q755 1566 761 1444 Z " />
<glyph glyph-name="uni020F" unicode="&#x20f;" horiz-adv-x="879" d="M72 344 L72 731 Q72 886 169 983 Q270 1084 442 1084 Q628 1084 725 976 Q807 885 807 731 L807 344 Q807 161 699 63 Q604 -23 441 -23 Q258 -23 159 87 Q72 184 72 344 Z M576 324 L576 733 Q576 800 539 840.5 Q502 881 441 881 Q377 881 340 841 Q303 801 303 733 L303 324 Q303 256 339.5 218 Q376 180 440 180 Q464 180 484 185 Q576 210 576 324 Z M716 1161 L569 1161 Q563 1213 528.5 1242.5 Q494 1272 440 1272 Q387 1272 353 1242 Q319 1212 313 1161 L163 1161 Q170 1275 238 1342 Q314 1417 440 1417 Q566 1417 638.5 1350 Q711 1283 716 1161 Z " />
<glyph glyph-name="uni0210" unicode="&#x210;" horiz-adv-x="944" d="M944 0 L696 0 L461 588 L342 583 L342 0 L98 0 L98 1366 L451 1366 Q881 1366 881 991 Q881 853 832.5 768.5 Q784 684 678 639 L944 0 Z M342 766 L406 766 Q637 766 637 975 Q637 1011 629 1045 Q597 1171 430 1171 L342 1171 L342 766 Z M41 1712 L268 1712 L397 1438 L227 1438 L41 1712 Z M367 1712 L596 1712 L725 1438 L555 1438 L367 1712 Z " />
<glyph glyph-name="uni0211" unicode="&#x211;" horiz-adv-x="596" d="M598 821 Q486 816 429.5 783 Q373 750 332 668 Q314 630 314 619 L314 0 L83 0 L83 1061 L304 1061 L304 891 Q371 996 428.5 1033.5 Q486 1071 598 1083 L598 821 Z M-74 1430 L153 1430 L282 1156 L112 1156 L-74 1430 Z M252 1430 L481 1430 L610 1156 L440 1156 L252 1430 Z " />
<glyph glyph-name="uni0212" unicode="&#x212;" horiz-adv-x="944" d="M944 0 L696 0 L461 588 L342 583 L342 0 L98 0 L98 1366 L451 1366 Q881 1366 881 992 Q881 853 832 768 Q783 683 678 639 L944 0 Z M342 766 L405 766 Q637 766 637 974 Q637 1011 629 1045 Q597 1171 430 1171 L342 1171 L342 766 Z M723 1444 L575 1444 Q569 1496 535 1525 Q501 1554 446 1554 Q394 1554 359.5 1524.5 Q325 1495 319 1444 L170 1444 Q177 1558 245 1625 Q321 1700 447 1700 Q572 1700 644.5 1633 Q717 1566 723 1444 Z " />
<glyph glyph-name="uni0213" unicode="&#x213;" horiz-adv-x="596" d="M598 821 Q486 816 430 783 Q374 750 333 668 Q315 630 315 619 L315 0 L84 0 L84 1061 L305 1061 L305 891 Q372 996 429 1033.5 Q486 1071 598 1083 L598 821 Z M605 1161 L458 1161 Q451 1213 417 1242.5 Q383 1272 329 1272 Q276 1272 241.5 1242 Q207 1212 202 1161 L52 1161 Q59 1275 127 1342 Q203 1417 329 1417 Q454 1417 526.5 1350 Q599 1283 605 1161 Z " />
<glyph glyph-name="uni0214" unicode="&#x214;" horiz-adv-x="985" d="M887 1366 L887 387 Q887 174 770 68 Q670 -23 492 -23 Q421 -23 356 -6 Q222 28 154 144 Q98 239 98 387 L98 1366 L340 1366 L340 393 Q340 287 376.5 238.5 Q413 190 494 190 Q520 190 543 196 Q645 221 645 393 L645 1366 L887 1366 Z M80 1712 L307 1712 L436 1438 L266 1438 L80 1712 Z M406 1712 L635 1712 L764 1438 L594 1438 L406 1712 Z " />
<glyph glyph-name="uni0215" unicode="&#x215;" horiz-adv-x="872" d="M789 0 L582 0 L572 92 Q447 -23 312 -23 Q80 -23 80 272 L80 1061 L311 1061 L311 301 Q311 194 399 194 Q472 194 558 270 L558 1061 L789 1061 L789 0 Z M7 1430 L234 1430 L363 1156 L193 1156 L7 1430 Z M333 1430 L562 1430 L691 1156 L521 1156 L333 1430 Z " />
<glyph glyph-name="uni0216" unicode="&#x216;" horiz-adv-x="985" d="M887 1366 L887 387 Q887 174 770 68 Q670 -23 492 -23 Q421 -23 356 -6 Q223 28 154 144 Q98 240 98 387 L98 1366 L340 1366 L340 393 Q340 287 376.5 238.5 Q413 190 494 190 Q520 190 543 196 Q645 221 645 393 L645 1366 L887 1366 Z M769 1444 L621 1444 Q615 1496 581 1525 Q547 1554 493 1554 Q440 1554 405.5 1524.5 Q371 1495 365 1444 L216 1444 Q223 1558 291 1625 Q367 1700 493 1700 Q618 1700 690.5 1633 Q763 1566 769 1444 Z " />
<glyph glyph-name="uni0217" unicode="&#x217;" horiz-adv-x="872" d="M789 0 L582 0 L572 92 Q447 -23 312 -23 Q80 -23 80 272 L80 1061 L311 1061 L311 301 Q311 194 399 194 Q471 194 558 270 L558 1061 L789 1061 L789 0 Z M711 1161 L563 1161 Q557 1213 523 1242.5 Q489 1272 435 1272 Q382 1272 347.5 1242 Q313 1212 307 1161 L158 1161 Q165 1275 233 1342 Q309 1417 434 1417 Q560 1417 632.5 1350 Q705 1283 711 1161 Z " />
<glyph glyph-name="Scommaaccent" unicode="&#x218;" horiz-adv-x="924" d="M604 979 L604 1014 Q604 1087 589 1124 Q559 1194 459 1194 Q431 1194 405 1187 Q322 1167 322 1076 Q322 1028 354 979 Q393 918 536 805 Q717 660 790 550.5 Q863 441 863 313 Q863 278 858 243 Q816 -23 466 -23 Q392 -23 326 -7 Q192 25 124 141 Q74 225 74 346 L74 424 L312 424 L312 365 Q312 267 349.5 222.5 Q387 178 470 178 Q621 178 621 306 Q621 374 570 440.5 Q519 507 394 604 Q265 703 187 795 Q88 911 88 1070 Q88 1100 94 1134 Q139 1391 471 1391 Q541 1391 605 1375 Q730 1344 793 1235 Q842 1151 842 1026 L842 979 L604 979 Z M549 -338 L416 -575 L332 -575 L412 -350 L336 -350 L336 -114 L549 -114 L549 -338 Z " />
<glyph glyph-name="scommaaccent" unicode="&#x219;" horiz-adv-x="803" d="M35 317 L266 317 L266 289 Q266 154 409 154 Q451 154 483 171 Q526 193 526 252 Q526 304 493 339.5 Q460 375 359 432 Q216 513 182 539 Q61 631 61 784 L61 809 Q61 1081 404 1081 Q492 1081 567 1057 Q649 1031 696 963.5 Q743 896 743 805 L743 762 L520 762 L520 793 Q520 905 394 905 Q355 905 326 890 Q285 869 285 813 Q285 765 321 727.5 Q357 690 456 636 Q597 558 638 528 Q762 437 762 289 L762 260 Q762 156 699 85 Q601 -23 402 -23 Q233 -23 133 57 Q35 135 35 274 L35 317 Z M502 -338 L368 -575 L284 -575 L364 -350 L289 -350 L289 -115 L502 -115 L502 -338 Z " />
<glyph glyph-name="uni021A" unicode="&#x21a;" horiz-adv-x="803" d="M803 1169 L522 1169 L522 0 L281 0 L281 1169 L0 1169 L0 1366 L803 1366 L803 1169 Z M508 -338 L374 -575 L290 -575 L370 -350 L295 -350 L295 -115 L508 -115 L508 -338 Z " />
<glyph glyph-name="uni021B" unicode="&#x21b;" horiz-adv-x="649" d="M618 4 Q516 -14 458 -14 Q362 -14 289 26 Q168 91 168 293 L168 881 L31 881 L31 1061 L170 1061 L170 1321 L401 1358 L401 1061 L612 1061 L612 881 L401 881 L401 293 Q401 168 516 168 Q529 168 542 169 Q569 172 618 182 L618 4 Z M401 -338 L267 -575 L183 -575 L263 -350 L188 -350 L188 -115 L401 -115 L401 -338 Z " />
<glyph glyph-name="uni0226" unicode="&#x226;" horiz-adv-x="913" d="M903 0 L655 0 L592 340 L313 340 L250 0 L10 0 L293 1366 L616 1366 L903 0 Z M567 532 L564 550 L547 638 Q478 996 450 1190 L435 1101 L408 940 L380 777 L356 638 L341 550 L338 532 L567 532 Z M573 1472 L340 1472 L340 1697 L573 1697 L573 1472 Z " />
<glyph glyph-name="uni0227" unicode="&#x227;" horiz-adv-x="864" d="M786 0 L579 0 L571 88 Q463 -12 338 -12 Q214 -12 134.5 64 Q55 140 55 258 L55 303 Q55 462 168 543.5 Q281 625 555 663 L555 778 Q555 846 528 874 Q501 902 436 902 Q361 902 337 870.5 Q313 839 311 737 L92 737 L92 772 Q92 1084 446 1084 Q519 1084 585 1068 Q786 1019 786 776 L786 0 Z M555 242 L555 504 Q407 479 346.5 435.5 Q286 392 286 311 L286 287 Q286 172 403 172 Q471 172 555 242 Z M544 1198 L311 1198 L311 1423 L544 1423 L544 1198 Z " />
<glyph glyph-name="uni0237" unicode="&#x237;" horiz-adv-x="399" d="M311 1061 L311 -131 Q311 -449 27 -449 Q-34 -449 -135 -430 L-135 -227 Q-81 -244 -30 -244 Q5 -244 30 -230 Q57 -215 68.5 -180 Q80 -145 80 -76 L80 1061 L311 1061 Z " />
<glyph glyph-name="uni02C9" unicode="&#x2c9;" horiz-adv-x="1024" d="M768 1227 L256 1227 L256 1399 L768 1399 L768 1227 Z " />
<glyph glyph-name="uni0312" unicode="&#x312;" horiz-adv-x="899" d="M600 1710 L494 1415 L576 1415 L576 1151 L342 1151 L342 1399 L506 1710 L600 1710 Z " />
<glyph glyph-name="uni0313" unicode="&#x313;" horiz-adv-x="870" d="M543 1174 L409 937 L325 937 L405 1162 L330 1162 L330 1397 L543 1397 L543 1174 Z " />
<glyph glyph-name="uni031B" unicode="&#x31b;" horiz-adv-x="870" d="M543 1174 L409 937 L325 937 L405 1162 L330 1162 L330 1397 L543 1397 L543 1174 Z " />
<glyph glyph-name="commaaccent" unicode="&#x326;" horiz-adv-x="870" d="M543 -338 L409 -575 L325 -575 L405 -350 L330 -350 L330 -115 L543 -115 L543 -338 Z " />
<glyph glyph-name="uni037E" unicode="&#x37e;" horiz-adv-x="410" d="M361 756 L127 756 L127 1018 L361 1018 L361 756 Z M356 14 L192 -295 L98 -295 L206 0 L123 0 L123 262 L356 262 L356 14 Z " />
<glyph glyph-name="uni0387" unicode="&#x387;" horiz-adv-x="410" d="M321 436 L88 436 L88 698 L321 698 L321 436 Z " />
<glyph glyph-name="uni0394" unicode="&#x394;" horiz-adv-x="1278" d="M1280 0 L-2 0 L520 1366 L760 1366 L1280 0 Z M963 205 L639 1098 L319 205 L963 205 Z " />
<glyph glyph-name="uni03A9" unicode="&#x3a9;" horiz-adv-x="1419" d="M1372 0 L807 0 L807 186 Q933 259 995 330 Q1133 488 1133 726 Q1133 832 1101 926 Q1057 1053 952 1131 Q853 1204 711 1204 Q608 1204 528 1166 Q410 1110 345 983 Q289 873 289 727 Q289 454 461 291 Q513 243 612 186 L612 0 L47 0 L47 205 L369 205 Q256 275 200 342 Q68 500 68 745 Q68 1024 249 1208 Q431 1391 710 1391 Q855 1391 972 1342 Q1154 1266 1260 1093 Q1352 942 1352 745 Q1352 471 1189 309 Q1142 262 1051 205 L1372 205 L1372 0 Z " />
<glyph glyph-name="uni03BC" unicode="&#x3bc;" horiz-adv-x="1096" d="M981 0 L762 0 L762 113 Q741 63 717 38 Q657 -23 548 -23 Q478 -23 422 9 Q374 37 334 106 L334 -379 L115 -379 L115 1061 L334 1061 L334 434 Q334 154 548 154 Q610 154 657 180 Q762 237 762 446 L762 1061 L981 1061 L981 0 Z " />
<glyph glyph-name="uni04D4" unicode="&#x4d4;" horiz-adv-x="1272" d="M1239 0 L643 0 L643 490 L401 490 L256 0 L10 0 L450 1366 L1231 1366 L1231 1169 L880 1169 L880 803 L1192 803 L1192 604 L880 604 L880 197 L1239 197 L1239 0 Z M643 674 L643 1169 L612 1169 L452 674 L643 674 Z " />
<glyph glyph-name="uni04D5" unicode="&#x4d5;" horiz-adv-x="1325" d="M1253 336 L1253 320 Q1253 149 1152 58 Q1062 -23 903 -23 Q848 -23 797 -12 Q685 12 616 117 Q476 -12 336 -12 Q213 -12 134 63.5 Q55 139 55 258 L55 303 Q55 462 165.5 542 Q276 622 555 664 L555 755 Q555 833 528 866 Q501 899 439 899 Q412 899 387 893 Q347 884 330 849.5 Q313 815 311 737 L92 737 L92 770 Q92 920 184 1002 Q274 1082 439 1082 Q490 1082 538 1073 Q635 1053 682 971 Q763 1082 918 1082 Q1065 1082 1156 990 Q1253 892 1253 723 L1253 494 L772 494 L772 313 Q772 249 807.5 211.5 Q843 174 903 174 Q969 174 997 210 Q1025 246 1030 336 L1253 336 Z M1034 674 L1034 755 Q1034 895 907 895 Q884 895 864 890 Q772 865 772 755 L772 674 L1034 674 Z M555 242 L555 504 Q400 476 343 435 Q286 394 286 311 L286 287 Q286 235 318.5 203.5 Q351 172 405 172 Q469 172 555 242 Z " />
<glyph glyph-name="uni1E02" unicode="&#x1e02;" horiz-adv-x="965" d="M621 725 Q726 702 792 627 Q877 528 877 392 Q877 196 764 94 Q660 0 461 0 L98 0 L98 1366 L432 1366 Q840 1366 840 1029 Q840 911 784 833 Q728 755 621 725 Z M340 803 L416 803 Q607 803 607 993 Q607 1028 599 1059 Q571 1169 430 1169 L340 1169 L340 803 Z M340 197 L434 197 Q633 197 633 395 Q633 623 424 623 L340 623 L340 197 Z M550 1472 L317 1472 L317 1697 L550 1697 L550 1472 Z " />
<glyph glyph-name="uni1E03" unicode="&#x1e03;" horiz-adv-x="885" d="M315 973 Q389 1038 437 1061 Q485 1084 547 1084 Q621 1084 672 1055 Q813 975 813 723 L813 293 Q813 122 723 38 Q658 -23 557 -23 Q440 -23 309 90 L303 0 L84 0 L84 1423 L315 1423 L315 973 Z M315 258 Q400 184 468 184 Q499 184 522 197 Q581 232 581 334 L581 723 Q581 877 467 877 Q399 877 315 805 L315 258 Z M639 1198 L406 1198 L406 1423 L639 1423 L639 1198 Z " />
<glyph glyph-name="uni1E0C" unicode="&#x1e0c;" horiz-adv-x="973" d="M98 1366 L416 1366 Q674 1366 787 1239 Q889 1126 889 887 L889 494 Q889 210 763 96 Q657 0 436 0 L98 0 L98 1366 Z M338 197 L432 197 Q559 197 603 256.5 Q647 316 647 486 L647 921 Q647 1057 599.5 1113 Q552 1169 436 1169 L338 1169 L338 197 Z M588 -338 L355 -338 L355 -113 L588 -113 L588 -338 Z " />
<glyph glyph-name="uni1E0D" unicode="&#x1e0d;" horiz-adv-x="885" d="M801 0 L581 0 L575 86 Q451 -23 328 -23 Q290 -23 255 -14 Q167 9 119.5 89 Q72 169 72 293 L72 748 Q72 1083 332 1083 Q400 1083 447.5 1061 Q495 1039 569 973 L569 1423 L801 1423 L801 0 Z M569 258 L569 805 Q484 876 416 876 Q396 876 379 871 Q303 852 303 723 L303 332 Q303 262 332.5 223 Q362 184 416 184 Q484 184 569 258 Z M555 -338 L322 -338 L322 -113 L555 -113 L555 -338 Z " />
<glyph glyph-name="uni1E1E" unicode="&#x1e1e;" horiz-adv-x="756" d="M723 1169 L342 1169 L342 803 L672 803 L672 606 L342 606 L342 0 L98 0 L98 1366 L723 1366 L723 1169 Z M505 1472 L272 1472 L272 1697 L505 1697 L505 1472 Z " />
<glyph glyph-name="uni1E1F" unicode="&#x1e1f;" horiz-adv-x="596" d="M656 1448 L642 1256 Q569 1267 525 1267 Q495 1267 469 1261 Q432 1252 415.5 1217.5 Q399 1183 399 1112 L399 1061 L595 1061 L595 881 L399 881 L399 0 L167 0 L167 881 L20 881 L20 1061 L167 1061 L167 1116 Q167 1464 500 1464 Q575 1464 656 1448 Z M433 1500 L200 1500 L200 1725 L433 1725 L433 1500 Z " />
<glyph glyph-name="uni1E24" unicode="&#x1e24;" horiz-adv-x="987" d="M889 0 L647 0 L647 622 L340 622 L340 0 L98 0 L98 1366 L340 1366 L340 815 L647 815 L647 1366 L889 1366 L889 0 Z M610 -338 L377 -338 L377 -113 L610 -113 L610 -338 Z " />
<glyph glyph-name="uni1E25" unicode="&#x1e25;" horiz-adv-x="887" d="M801 0 L570 0 L570 758 Q570 867 479 867 Q409 867 315 791 L315 0 L84 0 L84 1423 L315 1423 L315 987 Q453 1082 572 1082 Q801 1082 801 797 L801 0 Z M559 -338 L326 -338 L326 -113 L559 -113 L559 -338 Z " />
<glyph glyph-name="uni1E44" unicode="&#x1e44;" horiz-adv-x="1044" d="M946 0 L632 0 L481 467 Q371 804 317 993 Q329 810 329 614 L329 0 L98 0 L98 1366 L413 1366 L554 930 Q667 584 728 358 Q716 540 716 791 L716 823 L716 1366 L946 1366 L946 0 Z M640 1472 L407 1472 L407 1697 L640 1697 L640 1472 Z " />
<glyph glyph-name="uni1E45" unicode="&#x1e45;" horiz-adv-x="870" d="M791 0 L560 0 L560 750 Q560 868 470 868 Q393 868 315 791 L315 0 L84 0 L84 1061 L292 1061 L303 963 Q373 1030 426.5 1056.5 Q480 1083 546 1083 Q663 1083 727 1011.5 Q791 940 791 809 L791 0 Z M554 1198 L321 1198 L321 1423 L554 1423 L554 1198 Z " />
<glyph glyph-name="uni1E5A" unicode="&#x1e5a;" horiz-adv-x="944" d="M944 0 L696 0 L461 588 L342 583 L342 0 L98 0 L98 1366 L451 1366 Q881 1366 881 992 Q881 853 832 768 Q783 683 678 639 L944 0 Z M342 766 L405 766 Q637 766 637 974 Q637 1011 629 1045 Q597 1171 430 1171 L342 1171 L342 766 Z M630 -338 L397 -338 L397 -113 L630 -113 L630 -338 Z " />
<glyph glyph-name="uni1E5B" unicode="&#x1e5b;" horiz-adv-x="596" d="M598 821 Q486 816 429.5 783 Q373 750 333 668 Q315 630 315 618 L315 0 L84 0 L84 1061 L305 1061 L305 891 Q371 995 428.5 1033 Q486 1071 598 1083 L598 821 Z M316 -338 L83 -338 L83 -113 L316 -113 L316 -338 Z " />
<glyph glyph-name="uni1E62" unicode="&#x1e62;" horiz-adv-x="924" d="M604 979 L604 1014 Q604 1087 589 1124 Q559 1194 459 1194 Q431 1194 405 1187 Q322 1167 322 1076 Q322 1028 354 979 Q393 918 536 805 Q717 660 790 550.5 Q863 441 863 313 Q863 278 858 243 Q816 -23 466 -23 Q392 -23 326 -7 Q192 25 124 141 Q74 225 74 346 L74 424 L312 424 L312 365 Q312 267 349.5 222.5 Q387 178 470 178 Q621 178 621 306 Q621 374 570 440.5 Q519 507 394 604 Q265 703 187 795 Q88 911 88 1070 Q88 1100 94 1134 Q139 1391 471 1391 Q541 1391 605 1375 Q730 1344 793 1235 Q842 1151 842 1026 L842 979 L604 979 Z M585 -338 L352 -338 L352 -113 L585 -113 L585 -338 Z " />
<glyph glyph-name="uni1E63" unicode="&#x1e63;" horiz-adv-x="799" d="M520 762 L520 793 Q520 852 491 879 Q462 906 398 906 Q285 906 285 811 Q285 762 326 722.5 Q367 683 473 629 Q657 535 714 449 Q762 376 762 288 L762 260 Q762 106 630 30 Q538 -23 402 -23 Q203 -23 105 83 Q35 158 35 274 L35 317 L266 317 L266 288 Q266 218 299 185.5 Q332 153 405 153 Q527 153 527 254 Q527 289 510 317 Q478 370 342 440 Q163 532 108 618 Q62 693 62 785 L62 809 Q62 933 141 1003 Q230 1082 404 1082 Q475 1082 538 1066 Q635 1042 689.5 973 Q744 904 744 805 L744 762 L520 762 Z M515 -338 L282 -338 L282 -113 L515 -113 L515 -338 Z " />
<glyph glyph-name="uni1E6C" unicode="&#x1e6c;" horiz-adv-x="803" d="M803 1169 L523 1169 L523 0 L281 0 L281 1169 L0 1169 L0 1366 L803 1366 L803 1169 Z M518 -338 L285 -338 L285 -113 L518 -113 L518 -338 Z " />
<glyph glyph-name="uni1E6D" unicode="&#x1e6d;" horiz-adv-x="649" d="M619 4 Q530 -14 460 -14 Q404 -14 352 -1 Q168 47 168 293 L168 881 L31 881 L31 1061 L170 1061 L170 1321 L401 1358 L401 1061 L613 1061 L613 881 L401 881 L401 293 Q401 168 519 168 Q542 168 602 179 Q612 181 619 182 L619 4 Z M404 -338 L171 -338 L171 -113 L404 -113 L404 -338 Z " />
<glyph glyph-name="Wgrave" unicode="&#x1e80;" horiz-adv-x="1386" d="M1376 1366 L1143 0 L882 0 L733 801 Q708 936 696 1118 Q681 932 657 807 L506 0 L250 0 L10 1366 L235 1366 L354 618 Q377 473 395 301 Q414 492 436 618 L569 1366 L821 1366 L954 662 Q988 481 999 301 Q1018 492 1046 676 L1153 1366 L1376 1366 Z M827 1436 L622 1436 L425 1712 L698 1712 L827 1436 Z " />
<glyph glyph-name="wgrave" unicode="&#x1e81;" horiz-adv-x="1215" d="M1196 1061 L993 0 L733 0 L636 518 Q612 649 604 750 Q592 640 567 518 L460 0 L202 0 L18 1061 L249 1061 L331 471 Q346 367 356 246 Q367 325 392 476 L405 553 L428 680 L450 807 L467 903 L484 1000 L495 1061 L720 1061 L817 471 Q822 442 830 386 Q841 318 847 246 Q866 401 876 471 L964 1061 L1196 1061 Z M741 1153 L536 1153 L339 1430 L612 1430 L741 1153 Z " />
<glyph glyph-name="Wacute" unicode="&#x1e82;" horiz-adv-x="1386" d="M1376 1366 L1143 0 L882 0 L733 801 Q708 936 696 1118 Q681 932 657 807 L506 0 L250 0 L10 1366 L235 1366 L354 618 Q377 473 395 301 Q414 492 436 618 L569 1366 L821 1366 L954 662 Q988 481 999 301 Q1018 492 1046 676 L1153 1366 L1376 1366 Z M999 1718 L800 1441 L597 1441 L726 1718 L999 1718 Z " />
<glyph glyph-name="wacute" unicode="&#x1e83;" horiz-adv-x="1215" d="M1196 1061 L993 0 L733 0 L636 518 Q612 649 604 750 Q592 640 567 518 L460 0 L202 0 L18 1061 L249 1061 L331 471 Q346 367 356 246 Q367 325 392 476 L405 553 L428 680 L450 807 L467 903 L484 1000 L495 1061 L720 1061 L817 471 Q822 442 830 386 Q841 318 847 246 Q866 401 876 471 L964 1061 L1196 1061 Z M874 1430 L678 1153 L473 1153 L602 1430 L874 1430 Z " />
<glyph glyph-name="Wdieresis" unicode="&#x1e84;" horiz-adv-x="1386" d="M1376 1366 L1143 0 L882 0 L733 801 Q708 936 696 1118 Q681 932 657 807 L506 0 L250 0 L10 1366 L235 1366 L354 618 Q377 473 395 301 Q414 492 436 618 L569 1366 L821 1366 L954 662 Q988 481 999 301 Q1018 492 1046 676 L1153 1366 L1376 1366 Z M1005 1469 L772 1469 L772 1694 L1005 1694 L1005 1469 Z M636 1469 L403 1469 L403 1694 L636 1694 L636 1469 Z " />
<glyph glyph-name="wdieresis" unicode="&#x1e85;" horiz-adv-x="1215" d="M1196 1061 L993 0 L733 0 L636 518 Q612 649 604 750 Q592 640 567 518 L460 0 L202 0 L18 1061 L249 1061 L331 471 Q346 367 356 246 Q367 325 392 476 L405 553 L428 680 L450 807 L467 903 L484 1000 L495 1061 L720 1061 L817 471 Q822 442 830 386 Q841 318 847 246 Q866 401 876 471 L964 1061 L1196 1061 Z M902 1198 L681 1198 L681 1423 L902 1423 L902 1198 Z M533 1198 L312 1198 L312 1423 L533 1423 L533 1198 Z " />
<glyph glyph-name="uni1E92" unicode="&#x1e92;" horiz-adv-x="823" d="M772 0 L31 0 L31 172 L512 1169 L66 1169 L66 1366 L772 1366 L772 1194 L289 197 L772 197 L772 0 Z M525 -338 L292 -338 L292 -113 L525 -113 L525 -338 Z " />
<glyph glyph-name="uni1E93" unicode="&#x1e93;" horiz-adv-x="778" d="M723 0 L51 0 L51 156 L438 881 L88 881 L88 1061 L700 1061 L700 893 L319 180 L723 180 L723 0 Z M506 -338 L273 -338 L273 -113 L506 -113 L506 -338 Z " />
<glyph glyph-name="uni1E9E" unicode="&#x1e9e;" horiz-adv-x="1001" d="M710 752 Q946 649 946 379 Q946 235 887 130 Q805 -14 629 -14 Q552 -14 483 11 L522 212 Q557 201 585 201 Q611 201 631 213 Q705 254 705 405 Q705 451 695 494 Q679 563 635 598.5 Q591 634 504 649 L504 791 L709 1114 Q631 1176 541 1176 Q490 1176 453 1156 Q400 1126 371 1052 Q336 960 336 762 L336 0 L94 0 L94 823 Q94 1391 511 1391 Q724 1391 909 1208 L909 1051 L710 752 Z " />
<glyph glyph-name="uni2010" unicode="&#x2010;" horiz-adv-x="471" d="M471 455 L0 455 L0 676 L471 676 L471 455 Z " />
<glyph glyph-name="uni2011" unicode="&#x2011;" horiz-adv-x="471" d="M471 455 L0 455 L0 676 L471 676 L471 455 Z " />
<glyph glyph-name="figuredash" unicode="&#x2012;" horiz-adv-x="707" d="M707 455 L0 455 L0 676 L707 676 L707 455 Z " />
<glyph glyph-name="afii00208" unicode="&#x2015;" horiz-adv-x="1149" d="M1149 455 L0 455 L0 676 L1149 676 L1149 455 Z " />
<glyph glyph-name="uni203E" unicode="&#x203e;" horiz-adv-x="1024" d="M768 1227 L256 1227 L256 1399 L768 1399 L768 1227 Z " />
<glyph glyph-name="minus" unicode="&#x2212;" horiz-adv-x="1024" d="M956 434 L69 434 L69 639 L956 639 L956 434 Z " />
<glyph glyph-name="uni2215" unicode="&#x2215;" horiz-adv-x="246" d="M537 1391 L-148 -23 L-291 -23 L393 1391 L537 1391 Z " />
<glyph glyph-name="uni2219" unicode="&#x2219;" horiz-adv-x="410" d="M321 436 L88 436 L88 698 L321 698 L321 436 Z " />
<glyph glyph-name="dotmath" unicode="&#x22c5;" horiz-adv-x="410" d="M321 436 L88 436 L88 698 L321 698 L321 436 Z " />
</font>
</svg>
