<?xml version="1.0" encoding="UTF-8"?>
<svg xmlns="http://www.w3.org/2000/svg" xmlns:xlink="http://www.w3.org/1999/xlink" version="1.2" >
<font id="NDRSansBlack">
<font-face  font-family="NDRSansBlack" units-per-em="2048" ascent="1536" descent="-512" font-style="normal" font-weight="400" font-stretch="normal" cap-height="1366" x-height="1067" underline-position="-235" underline-thickness="215" />
<missing-glyph  horiz-adv-x="543" d="M54 0 L54 1366 L489 1366 L489 0 L54 0 Z M435 54 L435 1312 L108 1312 L108 54 L435 54 Z " />
<glyph glyph-name="space" unicode="&#x20;" horiz-adv-x="543" d="" />
<glyph glyph-name="exclam" unicode="&#x21;" horiz-adv-x="702" d="M575 1364 L506 447 L287 447 L221 1364 L575 1364 Z M551 0 L248 0 L248 301 L551 301 L551 0 Z " />
<glyph glyph-name="quotedbl" unicode="&#x22;" horiz-adv-x="965" d="M809 1440 L795 918 L582 918 L568 1440 L809 1440 Z M398 1440 L381 918 L170 918 L156 1440 L398 1440 Z " />
<glyph glyph-name="numbersign" unicode="&#x23;" horiz-adv-x="1237" d="M1180 1010 L1166 799 L955 799 L926 582 L1125 582 L1121 371 L896 371 L846 0 L633 0 L682 371 L471 371 L420 0 L209 0 L258 371 L68 371 L72 582 L287 582 L316 799 L115 799 L119 1010 L344 1010 L394 1366 L605 1366 L557 1010 L770 1010 L818 1366 L1031 1366 L983 1010 L1180 1010 Z M750 805 L523 805 L490 576 L717 576 L750 805 Z " />
<glyph glyph-name="dollar" unicode="&#x24;" horiz-adv-x="1151" d="M873 1016 Q830 1083 755 1123 Q680 1163 596 1163 Q562 1163 532 1156 Q442 1133 442 1049 Q442 988 498.5 941.5 Q555 895 692 843 Q956 742 1035 621 Q1094 531 1094 408 Q1094 212 977 95 Q921 40 856.5 12.5 Q792 -15 680 -31 L691 -203 L494 -203 L504 -29 Q367 -9 281 40 Q141 119 70 245 L293 407 Q335 330 418.5 284.5 Q502 239 601 239 Q626 239 648 242 Q769 258 769 355 Q769 404 733 442 Q687 490 535 551 Q283 652 203 769 Q133 873 133 1001 Q133 1037 139 1075 Q164 1239 285 1322 Q330 1352 376 1367.5 Q422 1383 504 1395 L494 1573 L691 1573 L680 1397 Q812 1386 896 1345 Q1021 1284 1084 1177 L873 1016 Z " />
<glyph glyph-name="percent" unicode="&#x25;" horiz-adv-x="1911" d="M1455 1393 L666 -27 L449 -27 L1237 1393 L1455 1393 Z M469 1395 Q563 1395 631 1356 Q783 1271 783 966 Q783 545 467 545 Q150 545 150 969 Q150 1030 156 1081 Q196 1395 469 1395 Z M466 1245 Q445 1245 431 1236 Q363 1193 363 973 Q363 697 465 697 Q570 697 570 978 Q570 1245 466 1245 Z M1448 828 Q1542 828 1610 789 Q1762 703 1762 400 Q1762 -23 1450 -23 Q1129 -23 1129 402 Q1129 462 1135 513 Q1175 828 1448 828 Z M1444 678 Q1424 678 1410 669 Q1342 625 1342 410 Q1342 363 1344 326 Q1357 129 1444 129 Q1549 129 1549 412 Q1549 678 1444 678 Z " />
<glyph glyph-name="ampersand" unicode="&#x26;" horiz-adv-x="1368" d="M1313 0 L954 0 Q904 51 873 100 Q795 35 715.5 7.5 Q636 -20 526 -20 Q356 -20 243 45 Q86 134 86 340 Q86 419 111 491 Q145 588 215.5 656.5 Q286 725 416 787 Q343 878 321 932 Q299 986 299 1070 Q299 1124 311 1173 Q337 1282 435.5 1342.5 Q534 1403 685 1403 Q763 1403 830 1386 Q937 1358 997 1282 Q1057 1206 1057 1098 Q1057 1044 1041 997 Q1017 926 957 864 Q897 802 772 721 Q820 634 938 473 Q992 554 1049 692 L1264 606 Q1175 410 1063 293 Q1150 162 1313 0 Z M641 909 Q803 1018 803 1115 Q803 1134 797 1154 Q777 1227 686 1227 Q629 1227 598 1190.5 Q567 1154 567 1087 Q567 1038 583 999.5 Q599 961 641 909 Z M762 258 Q667 383 545 578 Q458 528 428.5 486.5 Q399 445 399 373 Q399 284 450.5 231.5 Q502 179 588 179 Q687 179 762 258 Z " />
<glyph glyph-name="quotesingle" unicode="&#x27;" horiz-adv-x="549" d="M398 1440 L381 916 L170 916 L154 1440 L398 1440 Z " />
<glyph glyph-name="parenleft" unicode="&#x28;" horiz-adv-x="717" d="M643 -260 L404 -260 Q256 -28 202 101 Q82 383 82 680 Q82 966 199 1250 Q235 1338 272 1405.5 Q309 1473 404 1624 L643 1624 Q533 1390 480 1229 Q389 947 389 690 Q389 487 448.5 264.5 Q508 42 643 -260 Z " />
<glyph glyph-name="parenright" unicode="&#x29;" horiz-adv-x="717" d="M314 1624 Q475 1373 547 1177 Q637 932 637 682 Q637 584 623 486 Q589 240 471 6 Q437 -63 314 -260 L74 -260 Q176 -32 230 135 Q328 441 328 690 Q328 773 317 866 Q282 1175 146 1473 Q126 1515 84 1602 L74 1624 L314 1624 Z " />
<glyph glyph-name="asterisk" unicode="&#x2a;" horiz-adv-x="1001" d="M899 1110 L649 1075 L825 893 L614 735 L501 962 L383 733 L172 893 L352 1075 L102 1112 L176 1360 L407 1249 L362 1503 L634 1503 L594 1249 L823 1362 L899 1110 Z " />
<glyph glyph-name="plus" unicode="&#x2b;" horiz-adv-x="1024" d="M955 428 L629 428 L629 84 L398 84 L398 428 L70 428 L70 643 L398 643 L398 987 L629 987 L629 643 L955 643 L955 428 Z " />
<glyph glyph-name="comma" unicode="&#x2c;" horiz-adv-x="621" d="M463 23 L258 -340 L131 -340 L268 0 L160 0 L160 313 L463 313 L463 23 Z " />
<glyph glyph-name="hyphen" unicode="&#x2d;" horiz-adv-x="606" d="M606 397 L0 397 L0 682 L606 682 L606 397 Z " />
<glyph glyph-name="period" unicode="&#x2e;" horiz-adv-x="621" d="M463 0 L160 0 L160 313 L463 313 L463 0 Z " />
<glyph glyph-name="slash" unicode="&#x2f;" horiz-adv-x="1071" d="M959 1626 L396 -260 L113 -260 L678 1624 L959 1626 Z " />
<glyph glyph-name="zero" unicode="0" horiz-adv-x="1153" d="M580 1401 Q731 1401 839 1339 Q965 1267 1023.5 1107.5 Q1082 948 1082 674 Q1082 398 1013 236 Q898 -35 579 -35 Q296 -35 173 181 Q72 356 72 681 Q72 805 85 901 Q109 1072 173 1184 Q296 1401 580 1401 Z M576 1151 Q543 1151 520 1136 Q471 1105 443 1029 Q404 921 404 690 Q404 215 578 215 Q666 215 708 329.5 Q750 444 750 685 Q750 1151 576 1151 Z " />
<glyph glyph-name="one" unicode="1" horiz-adv-x="1151" d="M1039 0 L177 0 L177 256 L455 256 L455 1075 L211 993 L150 1237 L502 1368 L774 1368 L774 256 L1039 256 L1039 0 Z " />
<glyph glyph-name="two" unicode="2" horiz-adv-x="1151" d="M102 1024 Q151 1174 223 1256 Q353 1403 594 1403 Q843 1403 962 1273 Q1054 1173 1054 1006 Q1054 854 970 733.5 Q886 613 673 463 Q448 303 430 242 Q510 256 792 256 L1038 256 L1038 0 L100 0 L100 135 Q100 259 185 379 Q270 499 473 662 Q620 780 677.5 855.5 Q735 931 735 1007 Q735 1039 727 1069 Q699 1170 582 1170 Q503 1170 458.5 1116 Q414 1062 389 936 L102 1024 Z " />
<glyph glyph-name="three" unicode="3" horiz-adv-x="1151" d="M788 735 Q906 710 974 621.5 Q1042 533 1042 405 Q1042 201 910 83 Q777 -35 545 -35 Q383 -35 263 23 Q143 81 49 205 L260 385 Q365 227 512 227 Q604 227 659 280 Q714 333 714 422 Q714 529 648 573 Q582 617 420 617 Q408 617 358 616 L358 813 Q485 813 537 825 Q686 857 686 996 Q686 1065 643 1105 Q600 1145 527 1145 Q407 1145 292 1026 L114 1215 Q308 1401 566 1401 Q651 1401 729 1380 Q997 1309 997 1033 Q997 987 988 947 Q969 868 914.5 810 Q860 752 788 735 Z " />
<glyph glyph-name="four" unicode="4" horiz-adv-x="1151" d="M1082 272 L928 272 L928 0 L611 0 L611 272 L39 272 L39 462 L521 1366 L928 1366 L928 505 L1082 505 L1082 272 Z M639 1155 L302 505 L621 505 L621 880 Q621 1033 639 1155 Z " />
<glyph glyph-name="five" unicode="5" horiz-adv-x="1151" d="M450 864 Q546 924 656 924 Q720 924 778 908 Q927 869 997 744 Q1057 638 1057 488 Q1057 224 906 89 Q777 -27 558 -27 Q484 -27 422 -13 Q233 31 119 209 Q91 253 80 287 L340 403 Q406 221 553 221 Q732 221 732 468 Q732 688 555 688 Q448 688 397 586 L133 629 L225 1366 L987 1366 L987 1110 L477 1110 L450 864 Z " />
<glyph glyph-name="six" unicode="6" horiz-adv-x="1151" d="M414 789 Q518 877 677 877 Q735 877 788 863 Q928 825 996 702 Q1057 593 1057 446 Q1057 359 1037 284 Q992 115 852 32 Q737 -35 578 -35 Q435 -35 333 22 Q88 159 88 635 Q88 910 166 1092 Q298 1399 623 1399 Q697 1399 768 1381 Q876 1352 945 1296.5 Q1014 1241 1057 1147 L795 1036 Q764 1095 717.5 1127.5 Q671 1160 618 1160 Q428 1160 414 789 Z M414 571 L412 485 L411 464 Q411 425 414 396 Q436 205 574 205 Q596 205 616 210 Q742 242 742 441 Q742 490 732 535 Q704 654 581 654 Q551 654 523 645 Q458 625 414 571 Z " />
<glyph glyph-name="seven" unicode="7" horiz-adv-x="1151" d="M1045 1155 Q806 828 719 618 Q663 481 639.5 344.5 Q616 208 613 0 L267 0 Q273 225 313 383 Q360 564 448.5 729 Q537 894 705 1110 L109 1110 L109 1366 L1045 1366 L1045 1155 Z " />
<glyph glyph-name="eight" unicode="8" horiz-adv-x="1151" d="M831 739 Q963 673 1024 586.5 Q1085 500 1085 377 Q1085 261 1035 176 Q968 62 821 7 Q707 -35 567 -35 Q469 -35 381 -12 Q246 23 163 111 Q67 214 67 374 Q67 499 126 584 Q185 669 313 727 Q120 818 120 1029 Q120 1238 284 1332 Q405 1401 579 1401 Q671 1401 754 1379 Q873 1348 945 1272 Q1026 1187 1026 1046 Q1026 992 1012 941 Q992 869 950.5 822.5 Q909 776 831 739 Z M575 865 Q644 892 685.5 940.5 Q727 989 727 1042 Q727 1105 684.5 1146.5 Q642 1188 577 1188 Q509 1188 466 1148 Q423 1108 423 1045 Q423 1017 433 991 Q468 902 575 865 Z M567 598 Q399 539 399 387 Q399 357 406 332 Q421 273 466.5 239 Q512 205 575 205 Q656 205 703.5 254 Q751 303 751 388 Q751 523 567 598 Z " />
<glyph glyph-name="nine" unicode="9" horiz-adv-x="1151" d="M733 580 Q641 487 478 487 Q310 487 205 594 Q84 716 84 925 Q84 1211 289 1331 Q410 1401 569 1401 Q1057 1401 1057 702 Q1057 521 1018 361 Q977 190 865 85 Q737 -35 517 -35 Q282 -35 154 122 Q117 167 100 211 L360 326 Q387 272 435.5 238.5 Q484 205 535 205 Q579 205 614 225 Q673 259 701 343 Q729 427 733 580 Z M731 797 L731 883 Q731 1161 559 1161 Q537 1161 515 1155 Q399 1123 399 933 Q399 878 411 829 Q439 712 562 712 Q663 712 731 797 Z " />
<glyph glyph-name="colon" unicode="&#x3a;" horiz-adv-x="621" d="M504 686 L201 686 L201 999 L504 999 L504 686 Z M504 0 L201 0 L201 315 L504 315 L504 0 Z " />
<glyph glyph-name="semicolon" unicode="&#x3b;" horiz-adv-x="621" d="M504 686 L201 686 L201 999 L504 999 L504 686 Z M504 23 L299 -340 L172 -340 L311 0 L201 0 L201 313 L504 313 L504 23 Z " />
<glyph glyph-name="less" unicode="&#x3c;" horiz-adv-x="1024" d="M932 43 L92 438 L92 635 L932 1028 L932 799 L313 537 L932 272 L932 43 Z " />
<glyph glyph-name="equal" unicode="&#x3d;" horiz-adv-x="1024" d="M956 625 L69 625 L69 840 L956 840 L956 625 Z M956 238 L69 238 L69 453 L956 453 L956 238 Z " />
<glyph glyph-name="greater" unicode="&#x3e;" horiz-adv-x="1024" d="M932 438 L92 43 L92 272 L711 537 L92 799 L92 1028 L932 635 L932 438 Z " />
<glyph glyph-name="question" unicode="&#x3f;" horiz-adv-x="967" d="M88 1153 Q142 1264 256 1329.5 Q370 1395 509 1395 Q584 1395 653 1377 Q770 1347 834.5 1268.5 Q899 1190 899 1077 Q899 997 868 926 Q837 855 756 747 Q681 649 654 589.5 Q627 530 627 465 L627 428 L375 428 L375 492 Q375 581 400.5 648 Q426 715 495 809 Q560 898 584 948.5 Q608 999 608 1049 Q608 1062 606 1074 Q593 1155 496 1155 Q464 1155 438 1145 Q373 1121 334 1030 L88 1153 Z M653 0 L350 0 L350 313 L653 313 L653 0 Z " />
<glyph glyph-name="at" unicode="&#x40;" horiz-adv-x="2378" d="M1694 -393 Q1432 -471 1189 -471 Q989 -471 806 -425 Q486 -345 336 -89 Q221 107 221 399 Q221 618 313 816 Q446 1100 714 1252 Q967 1397 1293 1397 Q1723 1397 1950 1149 Q2140 940 2140 597 Q2140 331 2006 164 Q1865 -12 1614 -12 Q1584 -12 1552 -10 Q1453 -2 1396 24 Q1339 50 1300 106 Q1192 -12 1039 -12 Q865 -12 771 118 Q694 225 694 384 Q694 607 831 778 Q885 847 954 892 Q1072 969 1206 969 Q1232 969 1253 966 Q1311 957 1366 920 L1372 969 L1620 969 L1532 418 Q1519 351 1519 320 Q1519 215 1623 215 Q1774 215 1847 341 Q1903 436 1903 596 Q1903 898 1735 1050 Q1583 1188 1297 1188 Q912 1188 676 952 Q463 738 463 402 Q463 285 491 176 Q547 -44 735 -153 Q908 -254 1177 -254 Q1236 -254 1289 -249 Q1431 -235 1634 -170 L1694 -393 Z M1325 731 Q1274 768 1220 768 Q1157 768 1101.5 732 Q1046 696 1009 631 Q944 516 944 379 Q944 209 1067 209 Q1168 209 1257 322 L1325 731 Z " />
<glyph glyph-name="A" unicode="A" horiz-adv-x="1270" d="M1268 0 L924 0 L840 291 L405 291 L326 0 L2 0 L418 1366 L852 1366 L1268 0 Z M786 539 L772 585 Q696 820 669 923 Q642 1026 625 1147 Q604 1019 576.5 917.5 Q549 816 469 569 L459 539 L786 539 Z " />
<glyph glyph-name="B" unicode="B" horiz-adv-x="1223" d="M858 718 Q944 706 988 684 Q1151 604 1151 387 Q1151 208 1034 104 Q917 0 708 0 L113 0 L113 1366 L651 1366 Q829 1366 936 1320 Q1116 1242 1116 1029 Q1116 981 1105 936 Q1084 844 1026.5 794 Q969 744 858 718 Z M432 825 L590 825 Q792 825 792 978 Q792 1003 786 1027 Q774 1073 729 1093.5 Q684 1114 594 1114 L432 1114 L432 825 Z M432 252 L602 252 Q711 252 762 291 Q813 330 813 415 Q813 573 627 573 L432 573 L432 252 Z " />
<glyph glyph-name="C" unicode="C" horiz-adv-x="1288" d="M1245 438 Q1233 334 1178 232 Q1033 -35 683 -35 Q392 -35 236 141 Q78 319 78 661 Q78 1058 292 1256 Q449 1401 689 1401 Q1047 1401 1189 1115 Q1230 1033 1243 942 L906 897 Q888 1016 831 1079.5 Q774 1143 687 1143 Q568 1143 506 1037 Q440 923 440 672 Q440 584 450 512 Q488 223 685 223 Q737 223 775 243 Q878 298 903 475 L1245 438 Z " />
<glyph glyph-name="D" unicode="D" horiz-adv-x="1296" d="M113 1366 L557 1366 Q920 1366 1077 1195 Q1218 1040 1218 700 Q1218 553 1185 421 Q1128 190 940 80 Q804 0 600 0 L113 0 L113 1366 Z M432 252 L565 252 Q759 252 826 418 Q866 516 866 683 Q866 907 793.5 1010.5 Q721 1114 565 1114 L432 1114 L432 252 Z " />
<glyph glyph-name="E" unicode="E" horiz-adv-x="1096" d="M1028 0 L113 0 L113 1366 L1002 1366 L1002 1114 L432 1114 L432 825 L906 825 L906 573 L432 573 L432 252 L1028 252 L1028 0 Z " />
<glyph glyph-name="F" unicode="F" horiz-adv-x="1018" d="M1016 1114 L432 1114 L432 828 L926 828 L926 574 L432 574 L432 0 L113 0 L113 1366 L1016 1366 L1016 1114 Z " />
<glyph glyph-name="G" unicode="G" horiz-adv-x="1346" d="M1243 957 L901 912 Q888 1018 829 1081.5 Q770 1145 685 1145 Q436 1145 436 680 Q436 475 485 364 Q547 221 696 221 Q734 221 769 230 Q846 250 932 324 L932 488 L721 488 L721 705 L1237 705 L1237 0 L1020 0 L991 109 Q905 28 830.5 -3.5 Q756 -35 650 -35 Q390 -35 241 136 Q78 322 78 673 Q78 823 112 952 Q178 1206 378 1324 Q510 1401 685 1401 Q850 1401 980 1335 Q1081 1284 1152 1182.5 Q1223 1081 1243 957 Z " />
<glyph glyph-name="H" unicode="H" horiz-adv-x="1319" d="M1207 0 L888 0 L888 579 L432 579 L432 0 L113 0 L113 1366 L432 1366 L432 831 L888 831 L888 1366 L1207 1366 L1207 0 Z " />
<glyph glyph-name="I" unicode="I" horiz-adv-x="545" d="M432 0 L113 0 L113 1366 L432 1366 L432 0 Z " />
<glyph glyph-name="J" unicode="J" horiz-adv-x="754" d="M641 1366 L641 371 Q641 156 532 58 Q431 -33 223 -33 Q109 -33 -12 -2 L35 250 Q125 223 170 223 Q262 223 294 269 Q326 315 326 446 L326 1366 L641 1366 Z " />
<glyph glyph-name="K" unicode="K" horiz-adv-x="1231" d="M1225 0 L848 0 L579 584 L432 385 L432 0 L113 0 L113 1366 L432 1366 L432 803 L831 1366 L1171 1366 L801 850 L1225 0 Z " />
<glyph glyph-name="L" unicode="L" horiz-adv-x="1026" d="M1020 0 L113 0 L113 1366 L432 1366 L432 252 L1020 252 L1020 0 Z " />
<glyph glyph-name="M" unicode="M" horiz-adv-x="1612" d="M1561 0 L1274 0 L1274 647 Q1274 742 1284 1106 L1010 0 L668 0 L390 1106 L391 1051 Q402 743 402 645 L402 0 L113 0 L113 1366 L619 1366 Q739 893 770 723 L846 319 Q969 940 1065 1366 L1561 1366 L1561 0 Z " />
<glyph glyph-name="N" unicode="N" horiz-adv-x="1386" d="M1274 0 L848 0 L533 702 Q474 834 402 1010 Q414 815 414 655 L414 0 L113 0 L113 1366 L539 1366 L864 643 Q917 526 976 386 L987 358 Q973 603 973 698 L973 1366 L1274 1366 L1274 0 Z " />
<glyph glyph-name="O" unicode="O" horiz-adv-x="1397" d="M708 1401 Q810 1401 895 1378 Q1116 1320 1219 1132 Q1319 949 1319 689 Q1319 426 1211 241 Q1050 -35 695 -35 Q339 -35 181 238 Q78 416 78 684 Q78 831 111 958 Q178 1210 374 1321 Q515 1401 708 1401 Z M696 1143 Q635 1143 590 1116 Q443 1029 443 688 Q443 603 452 535 Q492 223 698 223 Q952 223 952 688 Q952 878 904 990 Q839 1143 696 1143 Z " />
<glyph glyph-name="P" unicode="P" horiz-adv-x="1149" d="M113 1366 L668 1366 Q1128 1366 1128 955 Q1128 882 1111 813 Q1074 667 942 591 Q818 520 620 520 L432 520 L432 0 L113 0 L113 1366 Z M432 774 L575 774 Q691 774 744.5 815 Q798 856 798 945 Q798 1003 777 1043 Q738 1114 579 1114 L432 1114 L432 774 Z " />
<glyph glyph-name="Q" unicode="Q" horiz-adv-x="1397" d="M1419 -12 L1204 -293 Q976 -178 879 0 Q803 -24 774 -29.5 Q745 -35 698 -35 Q339 -35 181 238 Q78 417 78 682 Q78 948 183 1127 Q342 1401 706 1401 Q807 1401 903 1376 Q1112 1323 1218 1139 Q1319 966 1319 687 Q1319 604 1310 535 Q1285 355 1174 197 Q1199 129 1252 84 Q1305 39 1419 -12 Z M697 1143 Q637 1143 593 1117 Q443 1029 443 686 Q443 604 452 536 Q493 223 698 223 Q952 223 952 689 Q952 880 904 991 Q839 1143 697 1143 Z " />
<glyph glyph-name="R" unicode="R" horiz-adv-x="1223" d="M1202 0 L852 0 L612 541 L432 541 L432 0 L113 0 L113 1366 L627 1366 Q814 1366 929 1317 Q1130 1229 1130 977 Q1130 908 1113 845 Q1091 766 1040 712 Q989 658 895 613 L1202 0 Z M432 795 L586 795 Q696 795 748 835 Q800 875 800 961 Q800 1047 753 1080.5 Q706 1114 588 1114 L432 1114 L432 795 Z " />
<glyph glyph-name="S" unicode="S" horiz-adv-x="1241" d="M854 1010 Q800 1155 623 1155 Q531 1155 478.5 1119.5 Q426 1084 426 1022 Q426 962 472 922 Q527 874 701 829 Q1004 750 1097 615 Q1165 517 1165 375 Q1165 -35 624 -35 Q430 -35 283 32 Q195 73 127.5 159 Q60 245 41 340 L350 399 Q371 312 443 260.5 Q515 209 617 209 Q645 209 673 213 Q833 234 833 355 Q833 418 786 460 Q727 513 548 565 Q269 645 182 760 Q104 864 104 997 Q104 1044 114 1091 Q180 1401 617 1401 Q861 1401 1012 1293 Q1067 1253 1098 1211 Q1129 1169 1159 1094 L854 1010 Z " />
<glyph glyph-name="T" unicode="T" horiz-adv-x="1116" d="M1104 1114 L714 1114 L714 0 L395 0 L395 1114 L10 1114 L10 1366 L1104 1366 L1104 1114 Z " />
<glyph glyph-name="U" unicode="U" horiz-adv-x="1329" d="M1217 1366 L1217 512 Q1217 -35 663 -35 Q370 -35 234 115 Q113 249 113 512 L113 1366 L432 1366 L432 535 Q432 403 459 338 Q506 229 666 229 Q747 229 805 259 Q854 285 876 350 Q898 415 898 535 L898 1366 L1217 1366 Z " />
<glyph glyph-name="V" unicode="V" horiz-adv-x="1184" d="M1212 1366 L788 0 L393 0 L-29 1366 L321 1366 L545 561 Q588 405 604 301 Q621 425 659 561 L884 1366 L1212 1366 Z " />
<glyph glyph-name="W" unicode="W" horiz-adv-x="1763" d="M1761 1366 L1427 0 L1071 0 L932 627 Q887 827 870 987 Q843 773 809 627 L661 0 L301 0 L2 1366 L315 1366 L436 743 Q475 542 494 362 Q512 548 553 741 L686 1366 L1069 1366 L1204 723 Q1236 572 1260 362 Q1278 547 1313 723 L1440 1366 L1761 1366 Z " />
<glyph glyph-name="X" unicode="X" horiz-adv-x="1233" d="M1231 0 L846 0 L680 293 Q616 405 586 494 Q556 408 496 297 L334 0 L4 0 L424 715 L29 1364 L418 1364 Q531 1158 565 1088 Q599 1018 631 926 Q658 1005 711 1104 L850 1364 L1173 1364 L801 733 L1231 0 Z " />
<glyph glyph-name="Y" unicode="Y" horiz-adv-x="1161" d="M1179 1366 L722 559 L722 0 L403 0 L403 559 L-19 1366 L319 1366 L343 1315 Q459 1075 499.5 979 Q540 883 579 756 Q612 881 657 980.5 Q702 1080 829 1314 L857 1366 L1179 1366 Z " />
<glyph glyph-name="Z" unicode="Z" horiz-adv-x="1137" d="M1078 0 L68 0 L68 225 L601 993 Q645 1057 703 1120 Q620 1114 512 1114 L121 1114 L121 1366 L1070 1366 L1070 1159 L533 385 Q499 336 416 248 L437 249 Q543 252 594 252 L1078 252 L1078 0 Z " />
<glyph glyph-name="bracketleft" unicode="&#x5b;" horiz-adv-x="717" d="M596 -260 L119 -260 L119 1627 L596 1624 L596 1395 L408 1395 L408 -31 L596 -31 L596 -260 Z " />
<glyph glyph-name="backslash" unicode="&#x5c;" horiz-adv-x="1071" d="M959 -260 L676 -260 L113 1624 L394 1624 L959 -260 Z " />
<glyph glyph-name="bracketright" unicode="&#x5d;" horiz-adv-x="717" d="M595 -260 L106 -260 L106 -31 L294 -31 L294 1394 L106 1394 L106 1624 L595 1624 L595 -260 Z " />
<glyph glyph-name="asciicircum" unicode="&#x5e;" horiz-adv-x="1024" d="M996 813 L717 813 L512 1288 L310 813 L31 813 L338 1501 L688 1501 L996 813 Z " />
<glyph glyph-name="underscore" unicode="&#x5f;" horiz-adv-x="1024" d="M1045 -342 L-20 -342 L-20 -127 L1045 -127 L1045 -342 Z " />
<glyph glyph-name="grave" unicode="&#x60;" horiz-adv-x="1024" d="M760 1217 L495 1217 L264 1520 L618 1520 L760 1217 Z " />
<glyph glyph-name="a" unicode="a" horiz-adv-x="1079" d="M969 0 L701 0 L687 113 Q566 -25 378 -25 Q235 -25 148.5 55 Q62 135 62 266 Q62 356 99 426 Q155 531 286 589 Q417 647 666 678 L666 721 Q666 869 513 869 Q380 869 328 739 L78 846 Q143 966 232 1024 Q354 1102 542 1102 Q636 1102 723 1081 Q969 1019 969 748 L969 0 Z M666 287 L666 492 Q536 475 478 452 Q363 407 363 304 Q363 285 368 267 Q385 196 475 196 Q566 196 666 287 Z " />
<glyph glyph-name="b" unicode="b" horiz-adv-x="1128" d="M418 983 Q477 1032 555.5 1059.5 Q634 1087 714 1087 Q933 1087 1017 870 Q1067 743 1067 540 Q1067 462 1059 395 Q1040 250 983 149 Q888 -21 694 -21 Q559 -21 414 104 L398 0 L111 0 L111 1440 L418 1440 L418 983 Z M418 291 Q497 217 570 217 Q741 217 741 544 Q741 661 723 729 Q688 858 579 858 Q558 858 536 853 Q474 840 418 791 L418 291 Z " />
<glyph glyph-name="c" unicode="c" horiz-adv-x="1057" d="M1017 303 Q1003 237 962 170 Q834 -35 545 -35 Q461 -35 381 -14 Q61 68 61 513 Q61 736 146 883 Q273 1102 551 1102 Q681 1102 785 1049 Q871 1005 931 918 Q991 831 1009 723 L718 668 Q714 756 668 811.5 Q622 867 552 867 Q512 867 481 849 Q376 789 376 529 Q376 207 554 207 Q692 207 729 393 L1017 303 Z " />
<glyph glyph-name="d" unicode="d" horiz-adv-x="1128" d="M1017 0 L730 0 L714 104 Q587 -20 434 -20 Q61 -20 61 528 Q61 730 120 867 Q218 1092 445 1092 Q483 1092 517 1085 Q610 1066 710 985 L710 1440 L1017 1440 L1017 0 Z M710 291 L710 795 Q648 861 574 861 Q387 861 387 532 Q387 469 393 420 Q419 218 556 218 Q578 218 598 223 Q661 237 710 291 Z " />
<glyph glyph-name="e" unicode="e" horiz-adv-x="1077" d="M1015 260 Q981 184 949.5 140.5 Q918 97 869 60 Q746 -35 556 -35 Q475 -35 399 -15 Q230 28 142 181 Q61 322 61 534 Q61 835 224 986 Q350 1102 554 1102 Q1009 1102 1009 561 L1009 479 L358 479 Q363 207 565 207 Q712 207 773 366 L1015 260 Z M722 655 Q720 742 698 789 Q657 879 545 879 Q379 879 356 655 L722 655 Z " />
<glyph glyph-name="f" unicode="f" horiz-adv-x="709" d="M723 1501 L707 1280 Q651 1295 612 1295 Q573 1295 543 1279 Q494 1252 494 1147 L494 1067 L678 1067 L678 831 L494 831 L494 0 L187 0 L187 831 L35 831 L35 1067 L187 1067 L187 1147 Q187 1320 234 1399 Q305 1520 518 1520 L567 1519 Q627 1519 723 1501 Z " />
<glyph glyph-name="g" unicode="g" horiz-adv-x="1085" d="M1063 940 Q1032 946 1004 946 Q944 946 903 922 Q975 824 975 704 Q975 485 804 387 Q695 323 526 323 L505 323 Q446 323 395 342 Q356 329 356 295 Q356 260 410 241.5 Q464 223 610 206 Q829 181 923 131 Q1055 61 1055 -93 Q1055 -279 901 -368 Q768 -445 529 -445 Q319 -445 192 -390 Q29 -320 29 -166 Q29 -84 68 -33 Q107 18 207 67 Q158 89 128 131 Q98 173 98 221 Q98 350 277 389 Q171 460 130.5 527.5 Q90 595 90 699 Q90 928 270 1030 Q382 1094 528 1094 Q566 1094 601 1089 Q697 1077 795 1026 Q847 1089 900 1110.5 Q953 1132 1063 1133 L1063 940 Z M532 883 Q505 883 481 877 Q383 851 383 714 Q383 676 391 642 Q417 538 533 538 Q680 538 680 714 Q680 883 532 883 Z M324 18 Q259 -16 259 -78 Q259 -149 331.5 -188.5 Q404 -228 533 -228 Q789 -228 789 -126 Q789 -113 784 -102 Q773 -77 744 -65 Q715 -53 639 -44 Q457 -25 324 18 Z " />
<glyph glyph-name="h" unicode="h" horiz-adv-x="1124" d="M1014 0 L707 0 L707 715 L707 719 L707 728 L707 737 L707 741 Q707 852 593 852 Q548 852 498.5 824.5 Q449 797 418 756 L418 0 L111 0 L111 1440 L420 1440 L420 958 Q581 1094 752 1094 Q834 1094 896 1059 Q957 1024 985.5 948.5 Q1014 873 1014 743 L1014 0 Z " />
<glyph glyph-name="i" unicode="i" horiz-adv-x="535" d="M422 0 L115 0 L115 1067 L422 1067 L422 0 Z M425 1229 L112 1229 L112 1452 L425 1452 L425 1229 Z " />
<glyph glyph-name="j" unicode="j" horiz-adv-x="535" d="M421 1067 L421 6 Q421 -397 57 -397 L6 -396 Q-54 -396 -162 -379 L-140 -139 Q-55 -151 -15 -151 Q25 -151 54 -135 Q88 -117 101 -72.5 Q114 -28 114 68 L114 1067 L421 1067 Z M424 1231 L111 1231 L111 1454 L424 1454 L424 1231 Z " />
<glyph glyph-name="k" unicode="k" horiz-adv-x="1098" d="M1106 0 L758 0 L531 473 L416 336 L416 0 L111 0 L111 1440 L416 1440 L416 864 Q416 815 406 645 Q433 696 510 789 Q518 799 523 805 L727 1067 L1067 1067 L748 678 L1106 0 Z " />
<glyph glyph-name="l" unicode="l" horiz-adv-x="528" d="M418 0 L111 0 L111 1440 L418 1440 L418 0 Z " />
<glyph glyph-name="m" unicode="m" horiz-adv-x="1706" d="M1596 0 L1289 0 L1289 688 Q1289 768 1276 799 Q1253 852 1180 852 Q1096 852 1008 754 L1008 0 L701 0 L701 696 Q701 852 590 852 Q499 852 418 756 L418 0 L111 0 L111 1067 L389 1067 L396 938 Q558 1092 731 1092 Q778 1092 816 1080 Q919 1050 983 932 Q1148 1092 1321 1092 Q1596 1092 1596 787 L1596 0 Z " />
<glyph glyph-name="n" unicode="n" horiz-adv-x="1124" d="M1014 0 L707 0 L707 723 Q707 791 680 822 Q653 853 594 853 Q565 853 541 845 Q474 822 418 758 L418 0 L111 0 L111 1067 L400 1067 L408 950 Q563 1092 743 1092 Q827 1092 890 1057 Q1014 988 1014 756 L1014 0 Z " />
<glyph glyph-name="o" unicode="o" horiz-adv-x="1106" d="M552 1102 Q704 1102 814 1040 Q1044 911 1044 516 Q1044 207 897 73 Q778 -35 557 -35 Q471 -35 392 -15 Q226 25 140 174 Q61 311 61 528 Q61 646 88 752 Q137 950 293 1040 Q401 1102 552 1102 Z M552 860 Q506 860 473 841 Q423 811 401.5 740 Q380 669 380 532 Q380 417 398 347 Q435 207 553 207 Q644 207 685 285.5 Q726 364 726 538 Q726 654 709 721 Q674 860 552 860 Z " />
<glyph glyph-name="p" unicode="p" horiz-adv-x="1128" d="M414 965 Q550 1092 702 1092 Q922 1092 1013 865 Q1067 730 1067 530 Q1067 -20 702 -20 Q664 -20 628 -13 Q528 6 418 84 L418 -383 L111 -383 L111 1067 L398 1067 L414 965 Z M418 272 Q500 209 578 209 Q741 209 741 538 Q741 852 579 852 Q558 852 536 847 Q474 833 418 776 L418 272 Z " />
<glyph glyph-name="q" unicode="q" horiz-adv-x="1128" d="M1017 -383 L710 -383 L710 84 Q570 -20 424 -20 Q61 -20 61 526 Q61 731 119 867 Q216 1092 442 1092 Q485 1092 523 1083 Q625 1059 714 965 L730 1067 L1017 1067 L1017 -383 Z M710 276 L710 776 Q639 852 560 852 Q387 852 387 519 Q387 207 550 207 Q615 207 710 276 Z " />
<glyph glyph-name="r" unicode="r" horiz-adv-x="778" d="M766 780 Q729 791 678 791 Q636 791 600 776 Q551 756 512.5 713.5 Q474 671 424 584 L424 0 L117 0 L117 1069 L399 1069 L408 872 Q481 1005 548 1048 Q618 1093 766 1096 L766 780 Z " />
<glyph glyph-name="s" unicode="s" horiz-adv-x="985" d="M695 768 Q676 821 624 852 Q572 883 502 883 Q483 883 462 880 Q365 867 365 797 Q365 762 394 735 Q435 696 574 654 Q776 592 862.5 509 Q949 426 949 294 Q949 -35 515 -35 Q221 -35 73 140 Q47 171 31 209 L271 322 Q326 182 502 182 Q662 182 662 273 Q662 304 637 328 Q599 362 465 405 Q295 458 210 520 Q82 613 82 769 Q82 810 91 848 Q120 972 233 1036 Q347 1102 511 1102 Q655 1102 770 1040.5 Q885 979 938 874 L695 768 Z " />
<glyph glyph-name="t" unicode="t" horiz-adv-x="770" d="M727 10 Q619 -14 530 -14 Q455 -14 388 2 Q176 54 176 348 L176 831 L37 831 L37 1067 L176 1067 L176 1337 L483 1409 L483 1067 L696 1067 L696 831 L483 831 L483 360 Q483 225 614 225 Q626 225 638 226 Q674 229 723 244 L727 10 Z " />
<glyph glyph-name="u" unicode="u" horiz-adv-x="1124" d="M1014 0 L727 0 L717 117 Q567 -25 383 -25 Q301 -25 239 9 Q111 80 111 311 L111 1067 L418 1067 L418 348 Q418 213 528 213 Q613 213 707 305 L707 1067 L1014 1067 L1014 0 Z " />
<glyph glyph-name="v" unicode="v" horiz-adv-x="1022" d="M1026 1067 L676 0 L348 0 L-4 1067 L305 1067 Q414 734 451.5 599 Q489 464 518 299 Q543 445 576 570.5 Q609 696 699 989 L723 1067 L1026 1067 Z " />
<glyph glyph-name="w" unicode="w" horiz-adv-x="1583" d="M1583 1067 L1278 0 L971 0 L860 401 Q822 539 791 784 Q762 539 725 406 L612 0 L305 0 L0 1067 L313 1067 L397 690 Q419 595 455 293 Q489 541 530 690 L635 1067 L961 1067 L1069 670 Q1097 569 1131 334 Q1134 314 1137 293 Q1165 554 1194 670 L1294 1067 L1583 1067 Z " />
<glyph glyph-name="x" unicode="x" horiz-adv-x="1085" d="M1071 0 L725 0 L707 36 Q590 273 549 399 Q522 314 490.5 247.5 Q459 181 360 0 L12 0 L338 565 L51 1067 L403 1067 Q478 919 502.5 860.5 Q527 802 547 727 Q579 856 688 1067 L1034 1067 L749 567 L1071 0 Z " />
<glyph glyph-name="y" unicode="y" horiz-adv-x="999" d="M1015 1067 L643 12 Q589 -140 538 -219 Q473 -319 391 -357 Q309 -395 156 -395 Q90 -395 4 -381 L28 -139 Q37 -140 51 -142 Q111 -149 141 -149 Q244 -149 287 -108 Q314 -82 360 31 L-23 1067 L294 1067 L442 631 Q485 503 505 350 Q533 504 575 633 L716 1067 L1015 1067 Z " />
<glyph glyph-name="z" unicode="z" horiz-adv-x="936" d="M880 0 L49 0 L49 193 L368 661 Q432 755 504 835 Q489 835 456 833 Q404 831 350 831 L100 831 L100 1067 L864 1067 L864 872 L559 403 Q527 354 434 240 Q481 246 567 246 L880 246 L880 0 Z " />
<glyph glyph-name="braceleft" unicode="&#x7b;" horiz-adv-x="717" d="M663 -260 L438 -260 Q317 -260 246.5 -190.5 Q176 -121 176 0 L176 408 Q175 569 20 574 L20 797 Q176 806 176 955 L176 1366 Q176 1486 245.5 1554.5 Q315 1623 438 1624 L663 1626 L663 1436 L604 1436 Q520 1436 493 1406 Q467 1377 467 1309 L467 907 Q467 717 260 688 L260 682 Q382 665 425 611 Q467 558 467 455 L467 57 Q467 -23 504 -47.5 Q541 -72 663 -72 L663 -260 Z " />
<glyph glyph-name="bar" unicode="&#x7c;" horiz-adv-x="1024" d="M645 -176 L379 -176 L379 1571 L645 1571 L645 -176 Z " />
<glyph glyph-name="braceright" unicode="&#x7d;" horiz-adv-x="748" d="M696 574 Q539 569 539 408 L539 0 Q539 -121 469.5 -190.5 Q400 -260 279 -260 L51 -260 L51 -72 L86 -72 Q179 -72 213.5 -44.5 Q248 -17 248 57 L248 455 Q248 564 294.5 615 Q341 666 455 682 L455 688 Q248 717 248 907 L248 1309 Q248 1386 217 1411 Q186 1436 90 1436 L51 1436 L51 1624 L279 1624 Q400 1624 469.5 1555.5 Q539 1487 539 1366 L539 954 Q540 801 696 797 L696 574 Z " />
<glyph glyph-name="asciitilde" unicode="&#x7e;" horiz-adv-x="1024" d="M991 633 Q860 358 668 358 Q604 358 499 409 Q393 461 331 461 Q301 461 278 452 Q234 435 178 352 L33 438 Q105 568 139 610 Q227 717 344 717 Q409 717 520 666 Q631 616 693 616 Q717 616 739 623 Q795 643 840 721 L991 633 Z " />
<glyph glyph-name="Adieresis" unicode="&#xc4;" horiz-adv-x="1270" d="M958 1491 L704 1491 L704 1761 L958 1761 L958 1491 Z M559 1491 L307 1491 L307 1761 L559 1761 L559 1491 Z M1268 0 L924 0 L840 291 L405 291 L326 0 L2 0 L418 1366 L852 1366 L1268 0 Z M786 539 L772 585 Q696 820 669 923 Q642 1026 625 1147 Q604 1019 576.5 917.5 Q549 816 469 569 L459 539 L786 539 Z " />
<glyph glyph-name="Aring" unicode="&#xc5;" horiz-adv-x="1270" d="M1268 0 L924 0 L840 291 L405 291 L326 0 L2 0 L418 1366 L852 1366 L1268 0 Z M786 539 L772 585 Q696 820 669 923 Q642 1026 625 1147 Q604 1019 576.5 917.5 Q549 816 469 569 L459 539 L786 539 Z M635 1804 Q675 1804 711 1794 Q785 1774 828.5 1725 Q872 1676 872 1614 Q872 1537 802.5 1482.5 Q733 1428 636 1428 Q595 1428 559 1438 Q487 1457 443 1505.5 Q399 1554 399 1614 Q399 1657 421 1695 Q449 1744 507.5 1774 Q566 1804 635 1804 Z M635 1689 Q621 1689 608 1686 Q546 1669 546 1616 Q546 1585 572 1564 Q598 1543 635 1543 Q672 1543 698.5 1564.5 Q725 1586 725 1617 Q725 1646 698 1667.5 Q671 1689 635 1689 Z " />
<glyph glyph-name="Ccedilla" unicode="&#xc7;" horiz-adv-x="1288" d="M649 -98 Q759 -102 810 -132 Q881 -175 881 -275 Q881 -486 563 -486 Q474 -486 381 -461 L385 -324 Q470 -341 512 -341 Q529 -341 547 -340 Q652 -331 652 -273 Q652 -201 535 -201 Q501 -201 465 -205 L551 -25 Q425 2 360 39 Q78 201 78 661 Q78 812 112 943 Q180 1206 386 1325 Q517 1401 689 1401 Q1047 1401 1189 1115 Q1229 1033 1243 942 L906 897 Q888 1016 831 1079.5 Q774 1143 687 1143 Q568 1143 506 1037 Q440 923 440 672 Q440 584 450 512 Q488 223 685 223 Q737 223 775 243 Q878 298 903 475 L1245 438 Q1233 333 1178 231 Q1034 -35 690 -35 L682 -35 L649 -98 Z " />
<glyph glyph-name="Eacute" unicode="&#xc9;" horiz-adv-x="1096" d="M861 1776 L617 1483 L355 1483 L510 1776 L861 1776 Z M1028 0 L113 0 L113 1366 L1002 1366 L1002 1114 L432 1114 L432 825 L906 825 L906 573 L432 573 L432 252 L1028 252 L1028 0 Z " />
<glyph glyph-name="Ntilde" unicode="&#xd1;" horiz-adv-x="1386" d="M1074 1581 Q973 1518 925 1498.5 Q877 1479 820 1479 Q767 1479 678 1515 Q589 1551 543 1551 Q483 1551 394 1477 L273 1655 Q427 1780 539 1780 Q589 1780 678 1744 Q764 1708 810 1708 Q821 1708 833 1710 Q875 1716 975 1780 L1074 1581 Z M1274 0 L848 0 L533 702 Q474 834 402 1010 Q414 815 414 655 L414 0 L113 0 L113 1366 L539 1366 L864 643 Q917 526 976 386 L987 358 Q973 603 973 698 L973 1366 L1274 1366 L1274 0 Z " />
<glyph glyph-name="Odieresis" unicode="&#xd6;" horiz-adv-x="1397" d="M1051 1491 L797 1491 L797 1761 L1051 1761 L1051 1491 Z M611 1491 L359 1491 L359 1761 L611 1761 L611 1491 Z M708 1401 Q810 1401 895 1378 Q1116 1320 1219 1132 Q1319 949 1319 689 Q1319 426 1211 241 Q1050 -35 695 -35 Q339 -35 181 238 Q78 416 78 684 Q78 831 111 958 Q178 1210 374 1321 Q515 1401 708 1401 Z M696 1143 Q635 1143 590 1116 Q443 1029 443 688 Q443 603 452 535 Q492 223 698 223 Q952 223 952 688 Q952 878 904 990 Q839 1143 696 1143 Z " />
<glyph glyph-name="Udieresis" unicode="&#xdc;" horiz-adv-x="1329" d="M1008 1491 L754 1491 L754 1761 L1008 1761 L1008 1491 Z M568 1491 L316 1491 L316 1761 L568 1761 L568 1491 Z M1217 1366 L1217 512 Q1217 -35 663 -35 Q370 -35 234 115 Q113 249 113 512 L113 1366 L432 1366 L432 535 Q432 403 459 338 Q506 229 666 229 Q747 229 805 259 Q854 285 876 350 Q898 415 898 535 L898 1366 L1217 1366 Z " />
<glyph glyph-name="aacute" unicode="&#xe1;" horiz-adv-x="1079" d="M877 1520 L646 1217 L384 1217 L525 1520 L877 1520 Z M969 0 L701 0 L687 113 Q566 -25 378 -25 Q235 -25 148.5 55 Q62 135 62 266 Q62 356 99 426 Q155 531 286 589 Q417 647 666 678 L666 721 Q666 869 513 869 Q380 869 328 739 L78 846 Q143 966 232 1024 Q354 1102 542 1102 Q636 1102 723 1081 Q969 1019 969 748 L969 0 Z M666 287 L666 492 Q536 475 478 452 Q363 407 363 304 Q363 285 368 267 Q385 196 475 196 Q566 196 666 287 Z " />
<glyph glyph-name="agrave" unicode="&#xe0;" horiz-adv-x="1079" d="M711 1217 L447 1217 L216 1520 L570 1520 L711 1217 Z M969 0 L701 0 L687 113 Q566 -25 378 -25 Q235 -25 148.5 55 Q62 135 62 266 Q62 356 99 426 Q155 531 286 589 Q417 647 666 678 L666 721 Q666 869 513 869 Q380 869 328 739 L78 846 Q143 966 232 1024 Q354 1102 542 1102 Q636 1102 723 1081 Q969 1019 969 748 L969 0 Z M666 287 L666 492 Q536 475 478 452 Q363 407 363 304 Q363 285 368 267 Q385 196 475 196 Q566 196 666 287 Z " />
<glyph glyph-name="acircumflex" unicode="&#xe2;" horiz-adv-x="1079" d="M904 1211 L637 1211 L545 1383 L455 1211 L212 1211 L381 1520 L734 1520 L904 1211 Z M969 0 L701 0 L687 113 Q566 -25 378 -25 Q235 -25 148.5 55 Q62 135 62 266 Q62 356 99 426 Q155 531 286 589 Q417 647 666 678 L666 721 Q666 869 513 869 Q380 869 328 739 L78 846 Q143 966 232 1024 Q354 1102 542 1102 Q636 1102 723 1081 Q969 1019 969 748 L969 0 Z M666 287 L666 492 Q536 475 478 452 Q363 407 363 304 Q363 285 368 267 Q385 196 475 196 Q566 196 666 287 Z " />
<glyph glyph-name="adieresis" unicode="&#xe4;" horiz-adv-x="1079" d="M873 1227 L617 1227 L617 1438 L873 1438 L873 1227 Z M472 1227 L216 1227 L216 1438 L472 1438 L472 1227 Z M969 0 L701 0 L687 113 Q566 -25 378 -25 Q235 -25 148.5 55 Q62 135 62 266 Q62 356 99 426 Q155 531 286 589 Q417 647 666 678 L666 721 Q666 869 513 869 Q380 869 328 739 L78 846 Q143 966 232 1024 Q354 1102 542 1102 Q636 1102 723 1081 Q969 1019 969 748 L969 0 Z M666 287 L666 492 Q536 475 478 452 Q363 407 363 304 Q363 285 368 267 Q385 196 475 196 Q566 196 666 287 Z " />
<glyph glyph-name="atilde" unicode="&#xe3;" horiz-adv-x="1079" d="M939 1331 Q840 1267 794.5 1249 Q749 1231 689 1231 Q668 1231 650 1234 Q617 1239 547 1267 Q459 1303 413 1303 Q356 1303 263 1229 L144 1405 Q297 1526 406 1526 Q427 1526 450 1522 Q483 1515 546 1490 Q633 1454 679 1454 Q690 1454 702 1456 Q747 1462 844 1526 L939 1331 Z M969 0 L701 0 L687 113 Q566 -25 378 -25 Q235 -25 148.5 55 Q62 135 62 266 Q62 356 99 426 Q155 531 286 589 Q417 647 666 678 L666 721 Q666 869 513 869 Q380 869 328 739 L78 846 Q143 966 232 1024 Q354 1102 542 1102 Q636 1102 723 1081 Q969 1019 969 748 L969 0 Z M666 287 L666 492 Q536 475 478 452 Q363 407 363 304 Q363 285 368 267 Q385 196 475 196 Q566 196 666 287 Z " />
<glyph glyph-name="aring" unicode="&#xe5;" horiz-adv-x="1079" d="M969 0 L701 0 L687 113 Q566 -25 378 -25 Q235 -25 148.5 55 Q62 135 62 266 Q62 356 99 426 Q155 531 286 589 Q417 647 666 678 L666 721 Q666 869 513 869 Q380 869 328 739 L78 846 Q143 966 232 1024 Q354 1102 542 1102 Q636 1102 723 1081 Q969 1019 969 748 L969 0 Z M666 287 L666 492 Q536 475 478 452 Q363 407 363 304 Q363 285 368 267 Q385 196 475 196 Q566 196 666 287 Z M553 1614 Q597 1614 638 1603 Q722 1579 772 1522 Q822 1465 822 1393 Q822 1302 743 1239 Q664 1176 552 1176 Q508 1176 469 1186 Q394 1205 344 1256 Q285 1315 285 1392 Q285 1444 312 1489 Q345 1546 410.5 1580 Q476 1614 553 1614 Z M554 1489 Q536 1489 519 1484 Q443 1463 443 1395 Q443 1356 475 1328.5 Q507 1301 554 1301 Q601 1301 633.5 1328.5 Q666 1356 666 1395 Q666 1433 632.5 1461 Q599 1489 554 1489 Z " />
<glyph glyph-name="ccedilla" unicode="&#xe7;" horiz-adv-x="1057" d="M520 -98 Q629 -102 680 -133 Q751 -175 751 -276 Q751 -486 433 -486 Q344 -486 251 -461 L256 -324 Q341 -341 382 -341 Q399 -341 416 -340 Q521 -332 521 -273 Q521 -201 405 -201 L387 -201 Q378 -201 343 -204 L335 -205 L421 -25 Q323 -1 274 28 Q61 155 61 513 Q61 636 89 742 Q128 894 229 988 Q351 1102 551 1102 Q681 1102 785 1049 Q871 1005 931 917.5 Q991 830 1009 723 L718 668 Q714 756 668 811.5 Q622 867 552 867 Q512 867 481 849 Q376 789 376 529 Q376 207 554 207 Q692 207 729 393 L1017 303 Q999 218 943 143 Q878 54 788.5 14 Q699 -26 553 -35 L520 -98 Z " />
<glyph glyph-name="eacute" unicode="&#xe9;" horiz-adv-x="1090" d="M875 1520 L643 1217 L379 1217 L523 1520 L875 1520 Z M1022 260 Q988 184 956.5 140.5 Q925 97 876 60 Q753 -35 563 -35 Q482 -35 406 -15 Q237 28 149 181 Q68 322 68 534 Q68 835 231 986 Q357 1102 561 1102 Q1016 1102 1016 561 L1016 479 L365 479 Q370 207 572 207 Q719 207 780 366 L1022 260 Z M729 655 Q727 732 704 781 Q658 879 549 879 Q387 879 363 655 L729 655 Z " />
<glyph glyph-name="egrave" unicode="&#xe8;" horiz-adv-x="1090" d="M730 1217 L467 1217 L234 1520 L588 1520 L730 1217 Z M1022 260 Q988 184 956.5 140.5 Q925 97 876 60 Q753 -35 563 -35 Q482 -35 406 -15 Q237 28 149 181 Q68 322 68 534 Q68 835 231 986 Q357 1102 561 1102 Q1016 1102 1016 561 L1016 479 L365 479 Q370 207 572 207 Q719 207 780 366 L1022 260 Z M729 655 Q727 732 704 781 Q658 879 549 879 Q387 879 363 655 L729 655 Z " />
<glyph glyph-name="ecircumflex" unicode="&#xea;" horiz-adv-x="1090" d="M916 1211 L650 1211 L560 1383 L467 1211 L224 1211 L396 1520 L746 1520 L916 1211 Z M1022 260 Q988 184 956.5 140.5 Q925 97 876 60 Q753 -35 563 -35 Q482 -35 406 -15 Q237 28 149 181 Q68 322 68 534 Q68 835 231 986 Q357 1102 561 1102 Q1016 1102 1016 561 L1016 479 L365 479 Q370 207 572 207 Q719 207 780 366 L1022 260 Z M729 655 Q727 732 704 781 Q658 879 549 879 Q387 879 363 655 L729 655 Z " />
<glyph glyph-name="edieresis" unicode="&#xeb;" horiz-adv-x="1090" d="M902 1227 L644 1227 L644 1438 L902 1438 L902 1227 Z M500 1227 L244 1227 L244 1438 L500 1438 L500 1227 Z M1022 260 Q988 184 956.5 140.5 Q925 97 876 60 Q753 -35 563 -35 Q482 -35 406 -15 Q237 28 149 181 Q68 322 68 534 Q68 835 231 986 Q357 1102 561 1102 Q1016 1102 1016 561 L1016 479 L365 479 Q370 207 572 207 Q719 207 780 366 L1022 260 Z M729 655 Q727 732 704 781 Q658 879 549 879 Q387 879 363 655 L729 655 Z " />
<glyph glyph-name="iacute" unicode="&#xed;" horiz-adv-x="535" d="M422 0 L115 0 L115 1067 L422 1067 L422 0 Z M602 1520 L387 1217 L123 1217 L248 1520 L602 1520 Z " />
<glyph glyph-name="igrave" unicode="&#xec;" horiz-adv-x="535" d="M422 0 L115 0 L115 1067 L422 1067 L422 0 Z M432 1217 L170 1217 L-47 1520 L307 1520 L432 1217 Z " />
<glyph glyph-name="icircumflex" unicode="&#xee;" horiz-adv-x="535" d="M422 0 L115 0 L115 1067 L422 1067 L422 0 Z M545 1213 L330 1213 L264 1401 L199 1213 L-2 1213 L104 1520 L430 1520 L545 1213 Z " />
<glyph glyph-name="idieresis" unicode="&#xef;" horiz-adv-x="535" d="M422 0 L115 0 L115 1067 L422 1067 L422 0 Z M532 1227 L317 1227 L317 1438 L532 1438 L532 1227 Z M215 1227 L0 1227 L0 1438 L215 1438 L215 1227 Z " />
<glyph glyph-name="ntilde" unicode="&#xf1;" horiz-adv-x="1137" d="M953 1331 Q854 1267 809 1249 Q764 1231 703 1231 Q682 1231 665 1234 Q631 1239 562 1267 Q473 1303 428 1303 Q368 1303 275 1229 L158 1405 Q312 1526 420 1526 Q441 1526 464 1522 Q497 1515 560 1490 Q647 1454 693 1454 Q704 1454 716 1456 Q760 1462 849 1520 L859 1526 L953 1331 Z M1014 0 L707 0 L707 719 Q707 852 600 852 Q517 852 418 760 L418 0 L111 0 L111 1067 L400 1067 L408 950 Q563 1092 743 1092 Q827 1092 890 1057 Q1014 988 1014 756 L1014 0 Z " />
<glyph glyph-name="oacute" unicode="&#xf3;" horiz-adv-x="1118" d="M897 1520 L665 1217 L403 1217 L544 1520 L897 1520 Z M552 1102 Q704 1102 814 1040 Q1044 911 1044 516 Q1044 207 897 73 Q778 -35 557 -35 Q471 -35 392 -15 Q226 25 140 174 Q61 311 61 528 Q61 646 88 752 Q137 950 293 1040 Q401 1102 552 1102 Z M552 860 Q506 860 473 841 Q423 811 401.5 740 Q380 669 380 532 Q380 417 398 347 Q435 207 553 207 Q644 207 685 285.5 Q726 364 726 538 Q726 654 709 721 Q674 860 552 860 Z " />
<glyph glyph-name="ograve" unicode="&#xf2;" horiz-adv-x="1118" d="M743 1217 L481 1217 L249 1520 L602 1520 L743 1217 Z M552 1102 Q704 1102 814 1040 Q1044 911 1044 516 Q1044 207 897 73 Q778 -35 557 -35 Q471 -35 392 -15 Q226 25 140 174 Q61 311 61 528 Q61 646 88 752 Q137 950 293 1040 Q401 1102 552 1102 Z M552 860 Q506 860 473 841 Q423 811 401.5 740 Q380 669 380 532 Q380 417 398 347 Q435 207 553 207 Q644 207 685 285.5 Q726 364 726 538 Q726 654 709 721 Q674 860 552 860 Z " />
<glyph glyph-name="ocircumflex" unicode="&#xf4;" horiz-adv-x="1118" d="M911 1211 L643 1211 L553 1383 L463 1211 L219 1211 L389 1520 L739 1520 L911 1211 Z M552 1102 Q704 1102 814 1040 Q1044 911 1044 516 Q1044 207 897 73 Q778 -35 557 -35 Q471 -35 392 -15 Q226 25 140 174 Q61 311 61 528 Q61 646 88 752 Q137 950 293 1040 Q401 1102 552 1102 Z M552 860 Q506 860 473 841 Q423 811 401.5 740 Q380 669 380 532 Q380 417 398 347 Q435 207 553 207 Q644 207 685 285.5 Q726 364 726 538 Q726 654 709 721 Q674 860 552 860 Z " />
<glyph glyph-name="odieresis" unicode="&#xf6;" horiz-adv-x="1118" d="M899 1227 L643 1227 L643 1438 L899 1438 L899 1227 Z M497 1227 L241 1227 L241 1438 L497 1438 L497 1227 Z M552 1102 Q704 1102 814 1040 Q1044 911 1044 516 Q1044 207 897 73 Q778 -35 557 -35 Q471 -35 392 -15 Q226 25 140 174 Q61 311 61 528 Q61 646 88 752 Q137 950 293 1040 Q401 1102 552 1102 Z M552 860 Q506 860 473 841 Q423 811 401.5 740 Q380 669 380 532 Q380 417 398 347 Q435 207 553 207 Q644 207 685 285.5 Q726 364 726 538 Q726 654 709 721 Q674 860 552 860 Z " />
<glyph glyph-name="otilde" unicode="&#xf5;" horiz-adv-x="1118" d="M956 1331 Q932 1317 920 1309 Q845 1262 802 1246.5 Q759 1231 706 1231 Q686 1231 668 1234 Q634 1239 565 1267 Q476 1303 431 1303 Q412 1303 396 1299 Q344 1285 278 1229 L161 1405 Q310 1526 423 1526 Q473 1526 564 1489 Q651 1454 695 1454 Q705 1454 717 1456 Q762 1462 860 1526 L956 1331 Z M552 1102 Q704 1102 814 1040 Q1044 911 1044 516 Q1044 207 897 73 Q778 -35 557 -35 Q471 -35 392 -15 Q226 25 140 174 Q61 311 61 528 Q61 646 88 752 Q137 950 293 1040 Q401 1102 552 1102 Z M552 860 Q506 860 473 841 Q423 811 401.5 740 Q380 669 380 532 Q380 417 398 347 Q435 207 553 207 Q644 207 685 285.5 Q726 364 726 538 Q726 654 709 721 Q674 860 552 860 Z " />
<glyph glyph-name="uacute" unicode="&#xfa;" horiz-adv-x="1124" d="M1014 0 L725 0 L717 119 Q528 -23 394 -23 Q237 -23 163 104 Q111 194 111 334 L111 1069 L418 1069 L418 381 Q418 217 526 217 Q547 217 566 223 Q628 240 705 309 L705 1069 L1014 1069 L1014 0 Z M883 1520 L652 1217 L390 1217 L531 1520 L883 1520 Z " />
<glyph glyph-name="ugrave" unicode="&#xf9;" horiz-adv-x="1124" d="M1014 0 L725 0 L717 119 Q528 -23 394 -23 Q237 -23 163 104 Q111 194 111 334 L111 1069 L418 1069 L418 381 Q418 217 526 217 Q547 217 566 223 Q628 240 705 309 L705 1069 L1014 1069 L1014 0 Z M752 1217 L488 1217 L256 1520 L611 1520 L752 1217 Z " />
<glyph glyph-name="ucircumflex" unicode="&#xfb;" horiz-adv-x="1124" d="M1014 0 L725 0 L717 119 Q528 -23 394 -23 Q237 -23 163 104 Q111 194 111 334 L111 1069 L418 1069 L418 381 Q418 217 526 217 Q547 217 566 223 Q628 240 705 309 L705 1069 L1014 1069 L1014 0 Z M918 1211 L652 1211 L562 1383 L469 1211 L226 1211 L398 1520 L748 1520 L918 1211 Z " />
<glyph glyph-name="udieresis" unicode="&#xfc;" horiz-adv-x="1124" d="M1014 0 L725 0 L717 119 Q528 -23 394 -23 Q237 -23 163 104 Q111 194 111 334 L111 1069 L418 1069 L418 381 Q418 217 526 217 Q547 217 566 223 Q628 240 705 309 L705 1069 L1014 1069 L1014 0 Z M889 1227 L631 1227 L631 1438 L889 1438 L889 1227 Z M488 1227 L232 1227 L232 1438 L488 1438 L488 1227 Z " />
<glyph glyph-name="dagger" unicode="&#x2020;" horiz-adv-x="1251" d="M1135 646 L776 646 L776 -383 L475 -383 L475 646 L117 646 L117 918 L475 918 L475 1366 L776 1366 L776 918 L1135 918 L1135 646 Z " />
<glyph glyph-name="degree" unicode="&#xb0;" horiz-adv-x="889" d="M445 1501 Q496 1501 540 1489 Q639 1462 694 1387.5 Q749 1313 749 1208 Q749 1085 669 1006 Q584 922 445 922 Q305 922 220 1006 Q139 1086 139 1211 Q139 1336 220 1417 Q305 1501 445 1501 Z M441 1345 Q421 1345 403 1340 Q313 1316 313 1212 Q313 1190 318 1170 Q343 1078 443 1078 Q464 1078 482 1083 Q525 1094 551 1129.5 Q577 1165 577 1213 Q577 1272 539.5 1308.5 Q502 1345 441 1345 Z " />
<glyph glyph-name="cent" unicode="&#xa2;" horiz-adv-x="1151" d="M1047 469 Q1022 339 930 254.5 Q838 170 694 146 L705 -90 L508 -90 L518 146 Q410 167 355 197 Q119 329 119 683 Q119 785 140 874 Q186 1068 323 1172 Q392 1223 518 1251 L508 1458 L705 1458 L694 1251 Q926 1210 1010 996 Q1035 934 1041 887 L766 833 Q758 927 715 981.5 Q672 1036 606 1036 Q567 1036 539 1018 Q434 954 434 693 Q434 626 440 578 Q467 371 606 371 Q670 371 716.5 421 Q763 471 781 559 L1047 469 Z " />
<glyph glyph-name="sterling" unicode="&#xa3;" horiz-adv-x="1151" d="M1110 436 Q1106 259 1061 163 Q973 -27 732 -27 Q684 -27 637 -20 Q503 2 385 88 Q278 -21 120 -35 L59 201 Q168 229 217 297 Q269 368 269 482 Q269 496 268 508 Q267 533 261 567 Q261 571 260 578 L77 578 L77 801 L223 801 Q171 942 171 1052 Q171 1239 323 1326 Q441 1393 622 1393 Q853 1393 964 1280 Q1012 1230 1035 1168.5 Q1058 1107 1069 998 L774 963 Q758 1149 605 1149 Q576 1149 549 1142 Q458 1118 458 1007 Q458 921 493 801 L766 801 L766 578 L528 578 Q542 519 542 456 Q542 352 498 287 Q563 227 668 227 Q709 227 738 243 Q808 281 811 436 L1110 436 Z " />
<glyph glyph-name="section" unicode="&#xa7;" horiz-adv-x="1356" d="M864 1006 Q859 1101 816 1143.5 Q773 1186 682 1186 Q520 1186 520 1073 Q520 1024 549.5 992.5 Q579 961 665 916 L1016 733 Q1257 608 1257 400 Q1257 214 1061 117 Q1142 53 1177 -8 Q1212 -69 1212 -148 Q1212 -500 686 -500 Q363 -500 223 -355 Q172 -302 150 -243.5 Q128 -185 118 -80 L477 -80 Q484 -192 538 -240 Q589 -285 685 -285 Q767 -285 812.5 -256.5 Q858 -228 858 -176 Q858 -102 721 -23 L329 203 Q98 336 98 525 Q98 576 113 621 Q152 736 299 797 Q172 899 172 1060 Q172 1240 324 1326 Q459 1403 681 1403 Q799 1403 906 1377 Q1070 1338 1155 1214 Q1182 1173 1196 1129 Q1210 1085 1220 1006 L864 1006 Z M878 240 Q944 291 944 345 Q944 426 823 494 L477 686 Q405 641 405 576 Q405 556 412 537 Q427 498 473 466 Q519 434 694 341 Q784 293 878 240 Z " />
<glyph glyph-name="bullet" unicode="&#x2022;" horiz-adv-x="780" d="M392 829 Q409 829 424 825 Q466 814 492.5 779 Q519 744 519 700 Q519 648 481.5 611 Q444 574 392 574 Q338 574 301 611 Q264 648 264 701 Q264 720 268 736 Q280 777 314.5 803 Q349 829 392 829 Z " />
<glyph glyph-name="paragraph" unicode="&#xb6;" horiz-adv-x="1300" d="M1206 1186 L1065 1186 L1065 -383 L862 -383 L862 1186 L688 1186 L688 -383 L485 -383 L485 653 L462 653 Q290 653 186 757 Q92 852 92 1004 Q92 1114 137 1194 Q234 1366 559 1366 L1206 1366 L1206 1186 Z " />
<glyph glyph-name="germandbls" unicode="&#xdf;" horiz-adv-x="1221" d="M111 -383 L111 1055 Q111 1524 582 1524 Q771 1524 884 1459 Q1035 1373 1035 1180 Q1035 1091 971 963 Q928 876 928 839 Q928 820 935 800 Q951 752 1027 656 Q1116 543 1150 468 Q1184 393 1184 308 Q1184 137 1089 54 Q995 -29 789 -29 L752 -29 Q624 -29 529 2 L576 266 Q665 235 743 235 Q869 235 869 331 Q869 365 846 404.5 Q823 444 762 512 Q683 602 651 660.5 Q619 719 619 776 Q619 786 621 799 Q629 853 683 945 Q721 1009 735.5 1048.5 Q750 1088 750 1129 Q750 1145 747 1161 Q729 1270 590 1270 Q496 1270 457 1221.5 Q418 1173 418 1055 L418 -383 L111 -383 Z " />
<glyph glyph-name="registered" unicode="&#xae;" horiz-adv-x="1403" d="M950 662 L799 662 L703 875 L639 875 L639 662 L500 662 L500 1210 L717 1210 Q918 1210 918 1050 Q918 949 825 903 L950 662 Z M639 985 L698 985 Q779 985 779 1043 Q779 1054 776 1065 Q768 1100 703 1100 L639 1100 L639 985 Z M699 1503 Q789 1503 867 1482 Q1054 1431 1163 1280 Q1272 1128 1272 918 Q1272 796 1229 685 Q1186 574 1109 497 Q954 342 701 342 Q452 342 297 496 Q131 660 131 925 Q131 1183 293 1347 Q448 1503 699 1503 Z M698 1388 Q630 1388 571 1371 Q437 1334 358 1226 Q268 1102 268 927 Q268 739 374 608 Q495 459 704 459 Q885 459 1002 575 Q1135 708 1135 930 Q1135 1136 1000 1271 Q883 1388 698 1388 Z " />
<glyph glyph-name="copyright" unicode="&#xa9;" horiz-adv-x="1501" d="M1104 555 Q1094 469 1059 404 Q970 238 754 238 Q690 238 631 254 Q491 292 418 417 Q358 521 358 679 Q358 921 494 1046 Q598 1141 757 1141 Q1033 1141 1104 848 L877 815 Q854 967 759 967 Q728 967 705 953 Q616 899 616 686 Q616 632 621 592 Q644 426 757 426 Q782 426 800 435 Q830 449 846 480 Q862 511 877 582 L1104 555 Z M748 1438 Q866 1438 969 1410 Q1216 1344 1360 1146 Q1501 950 1501 679 Q1501 520 1445 376.5 Q1389 233 1287 133 Q1083 -70 750 -70 Q419 -70 213 135 Q109 239 54 383 Q0 525 0 687 Q0 1018 210 1231 Q415 1438 748 1438 Z M747 1282 Q656 1282 578 1260 Q400 1212 297 1068 Q184 911 184 691 Q184 594 208 506 Q263 302 418 189 Q558 88 751 88 Q837 88 914 109 Q1093 156 1200 305 Q1317 466 1317 693 Q1317 817 1272.5 930.5 Q1228 1044 1146 1126 Q993 1282 747 1282 Z " />
<glyph glyph-name="trademark" unicode="&#x2122;" horiz-adv-x="1776" d="M1600 623 L1424 623 L1424 1034 Q1424 1154 1430 1268 Q1415 1192 1392 1110 Q1359 989 1260 639 L1094 639 L963 1069 Q933 1167 922 1254 Q930 1150 930 1028 L930 623 L756 623 L756 1444 L1028 1444 L1139 1053 Q1166 957 1178 846 Q1183 920 1215 1053 L1309 1444 L1600 1444 L1600 623 Z M653 1293 L443 1293 L443 623 L250 623 L250 1293 L39 1293 L39 1444 L653 1444 L653 1293 Z " />
<glyph glyph-name="acute" unicode="&#xb4;" horiz-adv-x="1024" d="M760 1520 L528 1217 L264 1217 L405 1520 L760 1520 Z " />
<glyph glyph-name="dieresis" unicode="&#xa8;" horiz-adv-x="1024" d="M841 1227 L583 1227 L583 1438 L841 1438 L841 1227 Z M440 1227 L182 1227 L182 1438 L440 1438 L440 1227 Z " />
<glyph glyph-name="notequal" unicode="&#x2260;" horiz-adv-x="1036" d="M963 242 L502 242 L400 35 L174 35 L277 242 L76 242 L76 451 L369 451 L447 602 L74 602 L74 811 L541 811 L652 1034 L877 1034 L766 811 L961 811 L961 602 L672 602 L598 451 L963 451 L963 242 Z " />
<glyph glyph-name="AE" unicode="&#xc6;" horiz-adv-x="1759" d="M1692 0 L823 0 L823 287 L493 287 L362 0 L-8 0 L669 1366 L1665 1366 L1665 1114 L1141 1114 L1141 823 L1571 823 L1571 571 L1141 571 L1141 252 L1692 252 L1692 0 Z M831 1132 L571 539 L823 539 Q823 842 831 1132 Z " />
<glyph glyph-name="Oslash" unicode="&#xd8;" horiz-adv-x="1397" d="M37 -31 L58 -5 Q135 86 213 182 Q78 378 78 666 Q78 940 186 1125 Q347 1401 702 1401 Q912 1401 1071 1290 L1090 1315 Q1128 1367 1175 1430 L1203 1469 L1221 1493 L1352 1395 Q1336 1375 1298 1330 Q1250 1271 1198 1209 Q1195 1205 1178 1184 Q1253 1077 1286 959.5 Q1319 842 1319 684 Q1319 536 1286 408 Q1221 159 1024 45 Q886 -35 691 -35 Q635 -35 584 -28 Q438 -8 320 76 L301 51 Q217 -64 168 -135 L37 -31 Z M512 336 Q579 223 699 223 Q761 223 807 249 Q954 333 954 685 L953 739 Q953 794 936 885 Q875 789 752 630 Q629 471 512 336 Z M883 1036 Q812 1143 701 1143 Q445 1143 445 680 L446 634 Q446 575 459 489 Q665 800 883 1036 Z " />
<glyph glyph-name="infinity" unicode="&#x221e;" horiz-adv-x="1378" d="M684 682 Q837 858 1012 858 Q1059 858 1103 846 Q1209 818 1272 731.5 Q1335 645 1335 529 Q1335 479 1323 432 Q1294 326 1208 263 Q1124 201 1011 201 Q842 201 694 377 Q535 201 366 201 Q225 201 134 293 Q41 386 41 532 Q41 674 133 766 Q225 858 363 858 Q408 858 451 846 Q568 814 684 682 Z M805 530 Q892 412 974 412 Q1027 412 1062 445.5 Q1097 479 1097 529 Q1097 579 1060.5 613 Q1024 647 971 647 Q946 647 922 639 Q857 617 805 530 Z M576 528 Q488 647 403 647 Q386 647 369 643 Q329 632 305 601 Q281 570 281 529 Q281 513 285 499 Q295 460 328.5 436 Q362 412 405 412 Q436 412 464 425 Q502 442 576 528 Z " />
<glyph glyph-name="plusminus" unicode="&#xb1;" horiz-adv-x="1024" d="M955 567 L629 567 L629 289 L398 289 L398 567 L70 567 L70 782 L398 782 L398 1065 L629 1065 L629 782 L955 782 L955 567 Z M955 2 L70 2 L70 215 L955 215 L955 2 Z " />
<glyph glyph-name="lessequal" unicode="&#x2264;" horiz-adv-x="1024" d="M934 276 L94 602 L94 799 L934 1063 L934 844 L332 702 L934 496 L934 276 Z M934 -2 L90 -2 L90 213 L934 213 L934 -2 Z " />
<glyph glyph-name="greaterequal" unicode="&#x2265;" horiz-adv-x="1024" d="M930 602 L90 276 L90 496 L692 698 L90 844 L90 1063 L930 799 L930 602 Z M934 -2 L90 -2 L90 213 L934 213 L934 -2 Z " />
<glyph glyph-name="yen" unicode="&#xa5;" horiz-adv-x="1151" d="M1176 1366 L875 836 L1061 836 L1061 727 L813 727 L737 594 L1061 594 L1061 485 L719 485 L719 0 L400 0 L400 485 L78 485 L78 594 L382 594 L312 727 L78 727 L78 836 L254 836 L-24 1366 L316 1366 L490 1028 Q551 909 570 780 Q590 923 654 1030 L852 1366 L1176 1366 Z " />
<glyph glyph-name="mu" unicode="&#xb5;" horiz-adv-x="1159" d="M1041 0 L777 0 L777 96 Q722 -20 585 -20 Q455 -20 385 96 L385 -383 L121 -383 L121 1067 L385 1067 L385 444 Q385 191 584 191 Q777 191 777 451 L777 1067 L1041 1067 L1041 0 Z " />
<glyph glyph-name="partialdiff" unicode="&#x2202;" horiz-adv-x="1098" d="M98 1186 Q150 1276 231 1324 Q346 1393 494 1393 Q1012 1393 1012 643 Q1012 378 946 223 Q839 -27 547 -27 Q468 -27 397 -8 Q232 36 151 176 Q86 288 86 453 Q86 535 105 610 Q142 760 266 832 Q353 883 474 883 Q516 883 553 876 Q648 859 731 787 Q715 1184 499 1184 Q387 1184 311 1069 L98 1186 Z M731 559 Q653 676 541 676 Q446 676 403 618.5 Q360 561 360 434 Q360 395 364 362 Q388 182 544 182 Q731 182 731 483 L731 559 Z " />
<glyph glyph-name="summation" unicode="&#x2211;" horiz-adv-x="1178" d="M1107 0 L66 0 L66 243 L412 682 L66 1122 L66 1364 L1088 1364 L1088 1141 L349 1141 L705 682 L349 225 L1107 225 L1107 0 Z " />
<glyph glyph-name="product" unicode="&#x220f;" horiz-adv-x="1513" d="M1425 1118 L1272 1118 L1272 0 L989 0 L989 1118 L527 1118 L527 0 L246 0 L246 1118 L88 1118 L88 1364 L1425 1364 L1425 1118 Z " />
<glyph glyph-name="pi" unicode="&#x3c0;" horiz-adv-x="1159" d="M1108 821 L954 821 L954 0 L688 0 L688 821 L475 821 L475 0 L209 0 L209 821 L51 821 L51 1067 L1108 1067 L1108 821 Z " />
<glyph glyph-name="integral" unicode="&#x222b;" horiz-adv-x="1036" d="M935 1374 L886 1137 Q820 1158 772 1158 Q737 1158 710 1143 Q655 1112 655 1012 L655 154 Q655 -79 628 -179 Q602 -276 542 -332 Q459 -409 294 -409 Q212 -409 102 -389 L151 -151 Q213 -171 264 -171 Q330 -171 356.5 -131 Q383 -91 383 10 L383 832 Q383 1072 407 1166 Q432 1262 492 1318 Q576 1395 745 1395 Q825 1395 935 1374 Z " />
<glyph glyph-name="ordfeminine" unicode="&#xaa;" horiz-adv-x="918" d="M750 860 L576 860 L565 924 Q486 846 374 846 Q335 846 301 855 Q237 871 201.5 916 Q166 961 166 1025 Q166 1131 253 1184.5 Q340 1238 553 1262 L553 1295 Q553 1383 459 1383 Q435 1383 415 1377 Q365 1362 340 1303 L176 1370 Q225 1453 296 1489.5 Q367 1526 477 1526 Q539 1526 596 1512 Q750 1473 750 1313 L750 860 Z M553 1036 L553 1155 Q365 1132 365 1044 Q365 1034 368 1024 Q378 983 433 983 Q449 983 463 986 Q508 996 553 1036 Z M750 594 L172 594 L172 737 L750 737 L750 594 Z " />
<glyph glyph-name="ordmasculine" unicode="&#xba;" horiz-adv-x="918" d="M467 1528 Q523 1528 571 1515 Q776 1460 776 1179 Q776 842 456 842 Q399 842 348 855 Q249 879 195 964.5 Q141 1050 141 1183 Q141 1249 156 1308 Q186 1428 284 1485 Q360 1528 467 1528 Z M457 1378 Q428 1378 407 1366 Q350 1334 350 1179 Q350 1144 354 1112 Q368 992 457 992 Q515 992 541 1039 Q567 1086 567 1189 Q567 1378 457 1378 Z M772 594 L147 594 L147 737 L772 737 L772 594 Z " />
<glyph glyph-name="Omega" unicode="&#x2126;" horiz-adv-x="1442" d="M1388 0 L815 0 L815 224 Q944 299 1008 394 Q1097 528 1097 719 Q1097 805 1078 881 Q1046 1004 964 1081 Q867 1170 721 1170 Q512 1170 410 995 Q345 882 345 719 Q345 544 413 425 Q481 306 627 224 L627 0 L53 0 L53 246 L346 246 Q214 328 156 421 Q80 543 80 736 Q80 1032 262 1214 Q442 1393 721 1393 Q1000 1393 1179 1214 Q1361 1032 1361 738 Q1361 647 1342 563 Q1318 461 1261.5 388 Q1205 315 1095 246 L1388 246 L1388 0 Z " />
<glyph glyph-name="ae" unicode="&#xe6;" horiz-adv-x="1667" d="M1605 260 Q1543 127 1458 60 Q1335 -35 1154 -35 Q1099 -35 1045 -25 Q864 9 788 129 Q651 -27 408 -27 Q258 -27 164 49 Q61 131 61 277 Q61 488 273 584 Q398 640 663 661 Q665 688 665 727 Q665 868 513 868 Q477 868 446 859 Q366 835 327 739 L77 846 Q142 966 231 1023 Q353 1102 523 1102 Q743 1102 833 967 Q944 1102 1157 1102 Q1410 1102 1521 908 Q1597 777 1597 569 L1597 483 L948 483 Q950 373 977 313 Q1026 207 1154 207 Q1299 207 1366 366 L1605 260 Z M1312 643 Q1310 725 1286 777 Q1240 877 1132 877 Q967 877 948 643 L1312 643 Z M667 285 Q659 318 659 385 L659 398 Q659 412 660 437 Q661 456 661 489 Q535 473 477 450 Q362 406 362 301 Q362 281 367 262 Q385 192 475 192 Q564 192 667 285 Z " />
<glyph glyph-name="oslash" unicode="&#xf8;" horiz-adv-x="1118" d="M8 -4 Q34 25 81 81 Q128 137 153 166 Q61 320 61 532 Q61 841 219 985 Q344 1100 556 1100 Q606 1100 648 1093 Q762 1075 862 1002 Q889 1035 925 1081 Q953 1117 987 1161 L1095 1075 L950 903 Q1001 816 1022.5 730 Q1044 644 1044 526 Q1044 -37 549 -37 Q378 -37 241 66 L119 -94 L8 -4 Z M422 283 Q465 205 551 205 Q643 205 684 280.5 Q725 356 725 527 Q725 597 721 639 Q552 419 422 283 Z M684 782 Q641 858 556 858 Q511 858 478 839 Q380 783 380 534 L380 505 Q380 487 385 428 Q487 561 684 782 Z " />
<glyph glyph-name="questiondown" unicode="&#xbf;" horiz-adv-x="967" d="M617 1051 L312 1051 L312 1366 L617 1366 L617 1051 Z M879 213 Q824 101 710 36 Q596 -29 455 -29 Q317 -29 215 28 Q68 110 68 291 Q68 372 99 442.5 Q130 513 210 617 Q285 713 311.5 772 Q338 831 338 899 L338 936 L592 936 L592 874 Q592 788 562 713 Q532 638 455 530 Q398 452 377.5 406 Q357 360 357 313 Q357 302 359 290 Q371 209 469 209 Q501 209 527 218 Q591 242 631 334 L879 213 Z " />
<glyph glyph-name="exclamdown" unicode="&#xa1;" horiz-adv-x="702" d="M457 1063 L152 1063 L152 1364 L457 1364 L457 1063 Z M483 0 L129 0 L197 917 L416 917 L483 0 Z " />
<glyph glyph-name="logicalnot" unicode="&#xac;" horiz-adv-x="1024" d="M956 0 L690 0 L690 414 L69 414 L69 660 L956 660 L956 0 Z " />
<glyph glyph-name="radical" unicode="&#x221a;" horiz-adv-x="1292" d="M1307 1564 L928 1564 L656 0 L301 0 L179 555 L-14 555 L-14 801 L400 801 Q465 490 471 321 L486 321 Q495 471 542 731 Q566 867 574 916 L709 1810 L1307 1810 L1307 1564 Z " />
<glyph glyph-name="florin" unicode="&#x192;" horiz-adv-x="1130" d="M1012 1474 L963 1253 Q906 1266 880 1266 Q810 1266 779 1233 Q748 1200 735 1112 L711 946 L899 946 L899 711 L678 711 L522 -383 L215 -383 L371 711 L221 711 L221 946 L403 946 Q438 1210 469 1290 Q547 1491 803 1491 Q901 1491 1012 1474 Z " />
<glyph glyph-name="approxequal" unicode="&#x2248;" horiz-adv-x="1024" d="M991 858 Q859 584 668 584 Q636 584 614 590 Q567 602 499 635 Q393 686 330 686 Q282 686 252 664.5 Q222 643 178 578 L33 664 Q103 792 139 835 Q227 942 344 942 Q376 942 400 936 Q450 923 520 892 Q631 842 694 842 Q717 842 739 849 Q795 868 840 946 L991 858 Z M991 408 Q859 133 668 133 Q636 133 614 139 Q566 151 499 184 Q393 236 331 236 Q302 236 278 227 Q233 210 178 127 L33 213 Q104 342 139 385 Q227 492 344 492 Q409 492 520 441 Q631 391 693 391 Q717 391 739 398 Q795 417 840 496 L991 408 Z " />
<glyph glyph-name="increment" unicode="&#x2206;" horiz-adv-x="1311" d="M1304 0 L6 0 L510 1366 L799 1366 L1304 0 Z M917 246 L655 1043 L387 246 L917 246 Z " />
<glyph glyph-name="guillemotleft" unicode="&#xab;" horiz-adv-x="1200" d="M1097 975 L905 535 L1085 88 L868 51 L581 530 L878 1012 L1097 975 Z M618 975 L426 535 L606 88 L387 51 L102 530 L399 1012 L618 975 Z " />
<glyph glyph-name="guillemotright" unicode="&#xbb;" horiz-adv-x="1200" d="M1097 530 L813 51 L594 88 L776 535 L581 975 L800 1012 L1097 530 Z M618 530 L333 51 L114 88 L297 535 L102 975 L321 1012 L618 530 Z " />
<glyph glyph-name="ellipsis" unicode="&#x2026;" horiz-adv-x="1731" d="M1571 0 L1268 0 L1268 313 L1571 313 L1571 0 Z M1018 0 L715 0 L715 313 L1018 313 L1018 0 Z M463 0 L160 0 L160 313 L463 313 L463 0 Z " />
<glyph glyph-name="Agrave" unicode="&#xc0;" horiz-adv-x="1270" d="M758 1483 L496 1483 L252 1776 L602 1776 L758 1483 Z M1268 0 L924 0 L840 291 L405 291 L326 0 L2 0 L418 1366 L852 1366 L1268 0 Z M786 539 L772 585 Q696 820 669 923 Q642 1026 625 1147 Q604 1019 576.5 917.5 Q549 816 469 569 L459 539 L786 539 Z " />
<glyph glyph-name="Atilde" unicode="&#xc3;" horiz-adv-x="1270" d="M1018 1583 Q1006 1576 989 1565 Q858 1483 768 1483 Q749 1483 732 1486 Q698 1491 629 1519 Q540 1555 493 1555 Q438 1555 344 1481 L229 1655 Q374 1776 491 1776 Q514 1776 533 1772 Q570 1763 626 1740 Q712 1704 757 1704 Q781 1704 803 1710 Q838 1721 924 1776 L1018 1583 Z M1268 0 L924 0 L840 291 L405 291 L326 0 L2 0 L418 1366 L852 1366 L1268 0 Z M786 539 L772 585 Q696 820 669 923 Q642 1026 625 1147 Q604 1019 576.5 917.5 Q549 816 469 569 L459 539 L786 539 Z " />
<glyph glyph-name="Otilde" unicode="&#xd5;" horiz-adv-x="1397" d="M1089 1583 Q989 1521 941.5 1502 Q894 1483 837 1483 Q818 1483 801 1486 Q767 1491 699 1519 Q611 1555 565 1555 Q548 1555 533 1551 Q488 1538 415 1481 L298 1655 Q446 1776 559 1776 Q581 1776 603 1772 Q635 1765 699 1739 Q786 1704 832 1704 Q842 1704 852 1705 Q902 1713 993 1776 L1089 1583 Z M708 1401 Q810 1401 895 1378 Q1116 1320 1219 1132 Q1319 949 1319 689 Q1319 426 1211 241 Q1050 -35 695 -35 Q339 -35 181 238 Q78 416 78 684 Q78 831 111 958 Q178 1210 374 1321 Q515 1401 708 1401 Z M696 1143 Q635 1143 590 1116 Q443 1029 443 688 Q443 603 452 535 Q492 223 698 223 Q952 223 952 688 Q952 878 904 990 Q839 1143 696 1143 Z " />
<glyph glyph-name="OE" unicode="&#x152;" horiz-adv-x="1804" d="M1737 0 L901 0 L901 84 Q775 -25 608 -25 Q313 -25 182 203 Q78 385 78 678 Q78 962 183 1143 Q327 1391 617 1391 Q661 1391 700 1384 Q805 1366 901 1290 L901 1366 L1710 1366 L1710 1114 L1204 1114 L1204 825 L1616 825 L1616 573 L1204 573 L1204 252 L1737 252 L1737 0 Z M885 303 L885 1061 Q803 1143 701 1143 Q638 1143 590 1115 Q443 1029 443 671 Q443 221 691 221 Q792 221 885 303 Z " />
<glyph glyph-name="oe" unicode="&#x153;" horiz-adv-x="1749" d="M1687 260 Q1652 184 1619 140 Q1586 96 1537 59 Q1413 -35 1229 -35 Q1171 -35 1117 -24 Q945 9 878 131 Q824 50 734 7.5 Q644 -35 527 -35 Q256 -35 141 163 Q61 301 61 527 Q61 646 87 753 Q135 946 293 1038 Q404 1102 549 1102 Q604 1102 653 1091 Q807 1056 878 936 Q932 1017 1022 1059.5 Q1112 1102 1228 1102 Q1489 1102 1601 910 Q1679 777 1679 551 L1679 483 L1034 483 Q1036 374 1063 313 Q1110 207 1236 207 Q1384 207 1445 366 L1687 260 Z M1394 643 Q1391 721 1368 771 Q1322 872 1213 872 Q1048 872 1028 643 L1394 643 Z M552 860 Q508 860 477 841 Q426 811 403 736.5 Q380 662 380 529 Q380 207 552 207 Q727 207 727 540 Q727 860 552 860 Z " />
<glyph glyph-name="endash" unicode="&#x2013;" horiz-adv-x="903" d="M903 397 L0 397 L0 682 L903 682 L903 397 Z " />
<glyph glyph-name="emdash" unicode="&#x2014;" horiz-adv-x="1485" d="M1485 397 L0 397 L0 682 L1485 682 L1485 397 Z " />
<glyph glyph-name="quotedblleft" unicode="&#x201c;" horiz-adv-x="1081" d="M951 1442 L813 1102 L924 1102 L924 787 L619 787 L619 1080 L826 1442 L951 1442 Z M492 1442 L354 1102 L465 1102 L465 787 L160 787 L160 1080 L367 1442 L492 1442 Z " />
<glyph glyph-name="quotedblright" unicode="&#x201d;" horiz-adv-x="1081" d="M922 1149 L715 787 L590 787 L727 1127 L619 1127 L619 1442 L922 1442 L922 1149 Z M463 1149 L256 787 L131 787 L268 1127 L160 1127 L160 1442 L463 1442 L463 1149 Z " />
<glyph glyph-name="quoteleft" unicode="&#x2018;" horiz-adv-x="621" d="M490 1442 L352 1102 L463 1102 L463 787 L158 787 L158 1080 L365 1442 L490 1442 Z " />
<glyph glyph-name="quoteright" unicode="&#x2019;" horiz-adv-x="621" d="M463 1149 L258 787 L131 787 L268 1127 L160 1127 L160 1442 L463 1442 L463 1149 Z " />
<glyph glyph-name="divide" unicode="&#xf7;" horiz-adv-x="1024" d="M638 760 L386 760 L386 1018 L638 1018 L638 760 Z M956 424 L69 424 L69 639 L956 639 L956 424 Z M638 45 L386 45 L386 303 L638 303 L638 45 Z " />
<glyph glyph-name="lozenge" unicode="&#x25ca;" horiz-adv-x="1180" d="M1098 682 L581 -53 L55 682 L581 1419 L1098 682 Z M805 682 Q681 855 638.5 938.5 Q596 1022 581 1120 Q560 1006 519.5 930 Q479 854 348 682 Q473 525 515 450 Q557 375 581 264 Q625 435 805 682 Z " />
<glyph glyph-name="ydieresis" unicode="&#xff;" horiz-adv-x="999" d="M1018 1067 L643 12 Q588 -141 538 -219 Q473 -319 391 -357 Q309 -395 156 -395 Q90 -395 4 -381 L30 -139 Q106 -149 142 -149 Q244 -149 287 -108 Q314 -82 360 31 L-23 1067 L294 1067 L442 631 Q482 513 507 350 Q529 493 575 633 L716 1067 L1018 1067 Z M841 1227 L583 1227 L583 1438 L841 1438 L841 1227 Z M440 1227 L182 1227 L182 1438 L440 1438 L440 1227 Z " />
<glyph glyph-name="Ydieresis" unicode="&#x178;" horiz-adv-x="1161" d="M933 1491 L679 1491 L679 1761 L933 1761 L933 1491 Z M493 1491 L241 1491 L241 1761 L493 1761 L493 1491 Z M1179 1366 L722 559 L722 0 L403 0 L403 559 L-19 1366 L319 1366 L343 1315 Q459 1075 499.5 979 Q540 883 579 756 Q612 881 657 980.5 Q702 1080 829 1314 L857 1366 L1179 1366 Z " />
<glyph glyph-name="fraction" unicode="&#x2044;" horiz-adv-x="197" d="M582 1393 L-209 -27 L-385 -27 L406 1393 L582 1393 Z " />
<glyph glyph-name="Euro" unicode="&#x20ac;" horiz-adv-x="1235" d="M1219 174 Q1148 75 1061 28 Q944 -35 775 -35 Q511 -35 361 111 Q288 182 250 270.5 Q212 359 187 512 L19 512 L19 643 L179 643 L181 754 L19 754 L19 883 L197 883 Q231 1036 276 1118 Q433 1401 776 1401 Q850 1401 915 1387 Q1008 1368 1075.5 1326 Q1143 1284 1204 1206 L969 1049 Q902 1168 783 1168 Q727 1168 682 1145 Q569 1089 527 883 L885 883 L885 754 L512 754 L510 643 L885 643 L885 512 L520 512 Q573 198 784 198 Q910 198 973 324 L1219 174 Z " />
<glyph glyph-name="guilsinglleft" unicode="&#x2039;" horiz-adv-x="721" d="M618 975 L426 535 L606 88 L389 51 L102 530 L399 1012 L618 975 Z " />
<glyph glyph-name="guilsinglright" unicode="&#x203a;" horiz-adv-x="721" d="M618 530 L333 51 L114 88 L297 535 L102 975 L321 1012 L618 530 Z " />
<glyph glyph-name="fi" unicode="&#xfb01;" horiz-adv-x="1235" d="M1125 1204 L812 1204 L812 1440 L1125 1440 L1125 1204 Z M1122 0 L815 0 L815 1067 L1122 1067 L1122 0 Z M723 1501 L707 1280 Q651 1295 612 1295 Q573 1295 543 1279 Q494 1252 494 1147 L494 1067 L678 1067 L678 831 L494 831 L494 0 L187 0 L187 831 L35 831 L35 1067 L187 1067 L187 1147 Q187 1320 234 1399 Q305 1520 518 1520 L567 1519 Q627 1519 723 1501 Z " />
<glyph glyph-name="fl" unicode="&#xfb02;" horiz-adv-x="1217" d="M1106 0 L799 0 L799 1440 L1106 1440 L1106 0 Z M723 1501 L707 1280 Q651 1295 612 1295 Q573 1295 543 1279 Q494 1252 494 1147 L494 1067 L678 1067 L678 831 L494 831 L494 0 L187 0 L187 831 L35 831 L35 1067 L187 1067 L187 1147 Q187 1320 234 1399 Q305 1520 518 1520 L567 1519 Q627 1519 723 1501 Z " />
<glyph glyph-name="daggerdbl" unicode="&#x2021;" horiz-adv-x="1251" d="M1133 49 L774 49 L774 -383 L475 -383 L475 49 L117 49 L117 321 L475 321 L475 686 L117 686 L117 958 L475 958 L475 1366 L774 1366 L774 958 L1133 958 L1133 686 L774 686 L774 321 L1133 321 L1133 49 Z " />
<glyph glyph-name="middot" unicode="&#xb7;" horiz-adv-x="518" d="M412 389 L109 389 L109 704 L412 704 L412 389 Z " />
<glyph glyph-name="quotesinglbase" unicode="&#x201a;" horiz-adv-x="621" d="M463 23 L258 -340 L131 -340 L268 0 L160 0 L160 313 L463 313 L463 23 Z " />
<glyph glyph-name="quotedblbase" unicode="&#x201e;" horiz-adv-x="1081" d="M922 20 L715 -342 L590 -342 L727 -2 L619 -2 L619 313 L922 313 L922 20 Z M463 20 L256 -342 L131 -342 L268 -2 L160 -2 L160 313 L463 313 L463 20 Z " />
<glyph glyph-name="perthousand" unicode="&#x2030;" horiz-adv-x="2646" d="M2181 828 Q2275 828 2343 790 Q2497 702 2497 396 Q2497 -25 2185 -25 Q1999 -25 1923 108 Q1864 211 1864 397 Q1864 465 1871 520 Q1911 828 2181 828 Z M2182 674 Q2163 674 2149 665 Q2079 621 2079 399 Q2079 269 2106 198 Q2133 127 2182 127 Q2200 127 2214 135 Q2284 179 2284 410 Q2284 674 2182 674 Z M1441 828 Q1539 828 1607 790 Q1762 701 1762 396 Q1762 -25 1449 -25 Q1264 -25 1188 108 Q1129 211 1129 399 Q1129 468 1136 524 Q1177 828 1441 828 Z M1445 674 Q1426 674 1412 665 Q1342 621 1342 400 Q1342 363 1344 335 Q1358 127 1445 127 Q1463 127 1477 135 Q1549 180 1549 409 Q1549 674 1445 674 Z M1455 1393 L666 -27 L449 -27 L1237 1393 L1455 1393 Z M462 1395 Q560 1395 628 1357 Q783 1268 783 964 Q783 545 470 545 Q285 545 209 678 Q150 780 150 968 Q150 1037 157 1091 Q198 1395 462 1395 Z M468 1245 Q448 1245 435 1237 Q363 1191 363 970 Q363 697 466 697 Q570 697 570 981 Q570 1245 468 1245 Z " />
<glyph glyph-name="Acircumflex" unicode="&#xc2;" horiz-adv-x="1270" d="M981 1480 L733 1480 L637 1646 L539 1480 L299 1480 L473 1783 L807 1783 L981 1480 Z M1268 0 L924 0 L840 291 L405 291 L326 0 L2 0 L418 1366 L852 1366 L1268 0 Z M786 539 L772 585 Q696 820 669 923 Q642 1026 625 1147 Q604 1019 576.5 917.5 Q549 816 469 569 L459 539 L786 539 Z " />
<glyph glyph-name="Ecircumflex" unicode="&#xca;" horiz-adv-x="1096" d="M897 1480 L650 1480 L553 1646 L457 1480 L215 1480 L389 1783 L723 1783 L897 1480 Z M1028 0 L113 0 L113 1366 L1002 1366 L1002 1114 L432 1114 L432 825 L906 825 L906 573 L432 573 L432 252 L1028 252 L1028 0 Z " />
<glyph glyph-name="Aacute" unicode="&#xc1;" horiz-adv-x="1270" d="M1004 1776 L760 1483 L498 1483 L653 1776 L1004 1776 Z M1268 0 L924 0 L840 291 L405 291 L326 0 L2 0 L418 1366 L852 1366 L1268 0 Z M786 539 L772 585 Q696 820 669 923 Q642 1026 625 1147 Q604 1019 576.5 917.5 Q549 816 469 569 L459 539 L786 539 Z " />
<glyph glyph-name="Edieresis" unicode="&#xcb;" horiz-adv-x="1096" d="M873 1491 L619 1491 L619 1761 L873 1761 L873 1491 Z M476 1491 L224 1491 L224 1761 L476 1761 L476 1491 Z M1028 0 L113 0 L113 1366 L1002 1366 L1002 1114 L432 1114 L432 825 L906 825 L906 573 L432 573 L432 252 L1028 252 L1028 0 Z " />
<glyph glyph-name="Egrave" unicode="&#xc8;" horiz-adv-x="1096" d="M725 1483 L463 1483 L219 1776 L570 1776 L725 1483 Z M1028 0 L113 0 L113 1366 L1002 1366 L1002 1114 L432 1114 L432 825 L906 825 L906 573 L432 573 L432 252 L1028 252 L1028 0 Z " />
<glyph glyph-name="Iacute" unicode="&#xcd;" horiz-adv-x="545" d="M627 1776 L383 1483 L121 1483 L277 1776 L627 1776 Z M432 0 L113 0 L113 1366 L432 1366 L432 0 Z " />
<glyph glyph-name="Icircumflex" unicode="&#xce;" horiz-adv-x="545" d="M557 1473 L338 1473 L272 1645 L209 1473 L2 1473 L131 1780 L422 1780 L557 1473 Z M432 0 L113 0 L113 1366 L432 1366 L432 0 Z " />
<glyph glyph-name="Idieresis" unicode="&#xcf;" horiz-adv-x="545" d="M546 1491 L325 1491 L325 1761 L546 1761 L546 1491 Z M222 1491 L1 1491 L1 1761 L222 1761 L222 1491 Z M432 0 L112 0 L112 1366 L432 1366 L432 0 Z " />
<glyph glyph-name="Igrave" unicode="&#xcc;" horiz-adv-x="545" d="M438 1483 L176 1483 L-68 1776 L282 1776 L438 1483 Z M431 0 L112 0 L112 1366 L431 1366 L431 0 Z " />
<glyph glyph-name="Oacute" unicode="&#xd3;" horiz-adv-x="1397" d="M1039 1776 L793 1483 L533 1483 L688 1776 L1039 1776 Z M708 1401 Q810 1401 895 1378 Q1116 1320 1219 1132 Q1319 949 1319 689 Q1319 426 1211 241 Q1050 -35 695 -35 Q339 -35 181 238 Q78 416 78 684 Q78 831 111 958 Q178 1210 374 1321 Q515 1401 708 1401 Z M696 1143 Q635 1143 590 1116 Q443 1029 443 688 Q443 603 452 535 Q492 223 698 223 Q952 223 952 688 Q952 878 904 990 Q839 1143 696 1143 Z " />
<glyph glyph-name="Ocircumflex" unicode="&#xd4;" horiz-adv-x="1397" d="M1051 1480 L803 1480 L705 1646 L608 1480 L367 1480 L543 1783 L875 1783 L1051 1480 Z M708 1401 Q810 1401 895 1378 Q1116 1320 1219 1132 Q1319 949 1319 689 Q1319 426 1211 241 Q1050 -35 695 -35 Q339 -35 181 238 Q78 416 78 684 Q78 831 111 958 Q178 1210 374 1321 Q515 1401 708 1401 Z M696 1143 Q635 1143 590 1116 Q443 1029 443 688 Q443 603 452 535 Q492 223 698 223 Q952 223 952 688 Q952 878 904 990 Q839 1143 696 1143 Z " />
<glyph glyph-name="Ograve" unicode="&#xd2;" horiz-adv-x="1397" d="M867 1483 L604 1483 L361 1776 L711 1776 L867 1483 Z M708 1401 Q810 1401 895 1378 Q1116 1320 1219 1132 Q1319 949 1319 689 Q1319 426 1211 241 Q1050 -35 695 -35 Q339 -35 181 238 Q78 416 78 684 Q78 831 111 958 Q178 1210 374 1321 Q515 1401 708 1401 Z M696 1143 Q635 1143 590 1116 Q443 1029 443 688 Q443 603 452 535 Q492 223 698 223 Q952 223 952 688 Q952 878 904 990 Q839 1143 696 1143 Z " />
<glyph glyph-name="Uacute" unicode="&#xda;" horiz-adv-x="1329" d="M987 1776 L744 1483 L482 1483 L637 1776 L987 1776 Z M1217 1366 L1217 512 Q1217 -35 663 -35 Q370 -35 234 115 Q113 249 113 512 L113 1366 L432 1366 L432 535 Q432 403 459 338 Q506 229 666 229 Q747 229 805 259 Q854 285 876 350 Q898 415 898 535 L898 1366 L1217 1366 Z " />
<glyph glyph-name="Ucircumflex" unicode="&#xdb;" horiz-adv-x="1329" d="M1006 1480 L758 1480 L662 1646 L564 1480 L324 1480 L498 1783 L832 1783 L1006 1480 Z M1217 1366 L1217 512 Q1217 -35 663 -35 Q370 -35 234 115 Q113 249 113 512 L113 1366 L432 1366 L432 535 Q432 403 459 338 Q506 229 666 229 Q747 229 805 259 Q854 285 876 350 Q898 415 898 535 L898 1366 L1217 1366 Z " />
<glyph glyph-name="Ugrave" unicode="&#xd9;" horiz-adv-x="1329" d="M830 1483 L568 1483 L324 1776 L674 1776 L830 1483 Z M1217 1366 L1217 512 Q1217 -35 663 -35 Q370 -35 234 115 Q113 249 113 512 L113 1366 L432 1366 L432 535 Q432 403 459 338 Q506 229 666 229 Q747 229 805 259 Q854 285 876 350 Q898 415 898 535 L898 1366 L1217 1366 Z " />
<glyph glyph-name="dotlessi" unicode="&#x131;" horiz-adv-x="535" d="M422 0 L115 0 L115 1067 L422 1067 L422 0 Z " />
<glyph glyph-name="circumflex" unicode="&#x2c6;" horiz-adv-x="1024" d="M858 1211 L590 1211 L500 1383 L410 1211 L166 1211 L336 1520 L686 1520 L858 1211 Z " />
<glyph glyph-name="tilde" unicode="&#x2dc;" horiz-adv-x="1024" d="M916 1329 Q897 1318 877 1306 Q802 1260 756 1243.5 Q710 1227 660 1227 Q607 1227 519 1263 Q430 1298 384 1298 Q328 1298 232 1223 L109 1405 Q263 1530 377 1530 Q428 1530 517 1493 Q603 1458 650 1458 Q660 1458 671 1460 Q711 1465 780 1508 Q799 1520 818 1530 L916 1329 Z " />
<glyph glyph-name="overscore" unicode="&#xaf;" horiz-adv-x="1024" d="M824 1278 L201 1278 L201 1497 L824 1497 L824 1278 Z " />
<glyph glyph-name="breve" unicode="&#x2d8;" horiz-adv-x="1024" d="M848 1513 Q839 1428 816.5 1378 Q794 1328 746 1288 Q659 1215 513 1215 Q454 1215 406 1228 Q301 1254 244.5 1325 Q188 1396 176 1513 L375 1513 Q398 1399 510 1399 Q631 1399 651 1513 L848 1513 Z " />
<glyph glyph-name="dotaccent" unicode="&#x2d9;" horiz-adv-x="1024" d="M669 1225 L354 1225 L354 1440 L669 1440 L669 1225 Z " />
<glyph glyph-name="ring" unicode="&#x2da;" horiz-adv-x="1024" d="M512 1614 Q557 1614 597 1603 Q681 1579 731 1522 Q781 1465 781 1393 Q781 1302 702 1239 Q623 1176 511 1176 Q467 1176 428 1186 Q353 1206 303 1256 Q244 1315 244 1392 Q244 1444 271 1489 Q304 1546 369.5 1580 Q435 1614 512 1614 Z M512 1489 Q495 1489 478 1484 Q402 1463 402 1395 Q402 1356 434 1328.5 Q466 1301 512 1301 Q530 1301 547 1305 Q582 1315 603.5 1339.5 Q625 1364 625 1396 Q625 1433 591.5 1461 Q558 1489 512 1489 Z " />
<glyph glyph-name="cedilla" unicode="&#xb8;" horiz-adv-x="1024" d="M530 -98 Q639 -102 691 -132 Q762 -175 762 -275 Q762 -334 738 -378 Q677 -486 444 -486 Q354 -486 262 -461 L266 -324 Q351 -341 393 -341 Q410 -341 428 -340 Q533 -331 533 -273 Q533 -201 416 -201 L398 -201 Q381 -201 346 -205 L450 16 L590 16 L530 -98 Z " />
<glyph glyph-name="hungarumlaut" unicode="&#x2dd;" horiz-adv-x="1024" d="M934 1520 L719 1217 L502 1217 L643 1520 L934 1520 Z M522 1520 L307 1217 L90 1217 L231 1520 L522 1520 Z " />
<glyph glyph-name="ogonek" unicode="&#x2db;" horiz-adv-x="1024" d="M747 24 Q611 -31 561.5 -69 Q512 -107 512 -156 Q512 -174 520 -188 Q543 -228 626 -228 Q635 -228 643 -228 Q662 -227 692 -221 L700 -430 Q671 -433 648 -436 Q602 -441 564 -441 Q276 -441 276 -247 Q276 -205 290 -167 Q309 -117 349 -76 Q389 -35 477 26 L747 43 L747 24 Z " />
<glyph glyph-name="caron" unicode="&#x2c7;" horiz-adv-x="1024" d="M858 1520 L690 1211 L334 1211 L166 1520 L432 1520 L524 1348 L615 1520 L858 1520 Z " />
<glyph glyph-name="nbspace" unicode="&#xa0;" horiz-adv-x="543" d="" />
<glyph glyph-name="currency" unicode="&#xa4;" horiz-adv-x="1370" d="M1329 174 L1186 29 L975 240 Q822 147 686 147 Q621 147 556 166 Q484 187 399 240 L186 29 L41 174 L256 385 Q164 532 164 664 Q164 726 183 790 Q204 861 256 944 L41 1159 L186 1305 L399 1094 Q553 1182 689 1182 Q823 1182 967 1094 L1178 1305 L1323 1159 L1114 944 Q1206 786 1206 662 Q1206 538 1114 385 L1329 174 Z M692 945 Q625 945 565 917 Q406 841 406 667 Q406 608 426 558 Q459 479 529.5 432 Q600 385 684 385 Q742 385 792 406 Q870 438 917 508.5 Q964 579 964 665 Q964 757 909 830 Q822 945 692 945 Z " />
<glyph glyph-name="brokenbar" unicode="&#xa6;" horiz-adv-x="1024" d="M645 772 L379 772 L379 1366 L645 1366 L645 772 Z M645 -387 L379 -387 L379 248 L645 248 L645 -387 Z " />
<glyph glyph-name="uni00AD" unicode="&#xad;" horiz-adv-x="606" d="M606 397 L0 397 L0 682 L606 682 L606 397 Z " />
<glyph glyph-name="twosuperior" unicode="&#xb2;" horiz-adv-x="907" d="M764 612 L135 612 L135 643 Q135 737 193.5 823 Q252 909 391 1021 Q480 1092 514.5 1136 Q549 1180 549 1220 Q549 1224 547 1236 Q534 1306 449 1306 Q342 1306 315 1175 L131 1231 Q164 1336 231 1388 Q319 1456 466 1456 Q534 1456 596 1441 Q764 1399 764 1227 Q764 1138 715 1068.5 Q666 999 539 905 Q468 853 445 830.5 Q422 808 403 772 Q453 780 506 780 L764 780 L764 612 Z " />
<glyph glyph-name="threesuperior" unicode="&#xb3;" horiz-adv-x="907" d="M608 1055 Q760 1004 760 856 Q760 710 636 639 Q554 592 438 592 Q239 592 123 748 L262 854 Q332 758 420 758 Q475 758 508 787 Q541 816 541 865 Q541 926 502.5 950.5 Q464 975 368 975 L326 975 L326 1106 L353 1106 Q512 1106 512 1208 Q512 1222 508 1235 Q495 1288 424 1288 Q355 1288 283 1215 L164 1333 Q279 1452 449 1452 Q507 1452 558 1439 Q723 1395 723 1231 Q723 1112 608 1055 Z " />
<glyph glyph-name="onesuperior" unicode="&#xb9;" horiz-adv-x="907" d="M766 610 L158 610 L158 766 L365 766 L365 1245 L234 1208 L191 1358 L420 1440 L578 1440 L578 766 L766 766 L766 610 Z " />
<glyph glyph-name="onequarter" unicode="&#xbc;" horiz-adv-x="1804" d="M1706 160 L1598 160 L1598 -2 L1387 -2 L1387 160 L1010 160 L1010 283 L1342 825 L1598 825 L1598 312 L1706 312 L1706 160 Z M1409 711 L1408 706 Q1370 595 1344 545 L1221 312 L1399 312 L1399 344 L1399 378 L1399 399 L1399 427 L1399 475 Q1399 556 1407 672 Q1409 700 1409 711 Z M1420 1393 L631 -27 L455 -27 L1244 1393 L1420 1393 Z M676 536 L111 536 L111 690 L295 690 L295 1171 L166 1132 L123 1284 L350 1364 L510 1364 L510 690 L676 690 L676 536 Z " />
<glyph glyph-name="onehalf" unicode="&#xbd;" horiz-adv-x="1804" d="M1728 -2 L1099 -2 L1099 31 Q1099 127 1157 212.5 Q1215 298 1355 408 Q1443 477 1478 521 Q1513 565 1513 606 Q1513 611 1511 622 Q1498 694 1411 694 Q1305 694 1279 563 L1093 619 Q1129 726 1197 777 Q1284 844 1430 844 Q1726 844 1726 615 Q1726 525 1678 455.5 Q1630 386 1502 292 Q1431 239 1408 216.5 Q1385 194 1367 158 Q1418 166 1470 166 L1728 166 L1728 -2 Z M1364 1393 L573 -27 L397 -27 L1187 1393 L1364 1393 Z M626 532 L61 532 L61 688 L245 688 L245 1169 L116 1130 L73 1282 L300 1362 L460 1362 L460 688 L626 688 L626 532 Z " />
<glyph glyph-name="threequarters" unicode="&#xbe;" horiz-adv-x="1804" d="M1683 160 L1575 160 L1575 -2 L1364 -2 L1364 160 L987 160 L987 283 L1319 825 L1575 825 L1575 312 L1683 312 L1683 160 Z M1386 711 L1385 706 Q1345 591 1321 545 L1198 312 L1376 312 L1376 344 L1376 378 L1376 399 L1376 427 L1376 475 Q1376 552 1386 711 Z M1405 1393 L614 -27 L438 -27 L1229 1393 L1405 1393 Z M569 989 Q721 938 721 791 Q721 644 597 573 Q515 526 400 526 Q343 526 294 538 Q169 568 84 682 L223 789 Q292 692 381 692 Q403 692 422 697 Q502 718 502 800 Q502 833 488 858 Q472 887 437 898.5 Q402 910 329 910 L287 909 L287 1041 L314 1041 Q473 1041 473 1143 Q473 1223 385 1223 Q365 1223 346 1218 Q298 1205 244 1149 L125 1268 Q239 1387 409 1387 Q468 1387 519 1374 Q684 1331 684 1166 Q684 1046 569 989 Z " />
<glyph glyph-name="Eth" unicode="&#xd0;" horiz-adv-x="1296" d="M19 569 L19 815 L113 815 L113 1366 L557 1366 Q783 1366 919 1307 Q1085 1234 1158 1067 Q1219 928 1219 703 Q1219 319 1025 142 Q870 0 600 0 L113 0 L113 569 L19 569 Z M432 815 L635 815 L635 569 L432 569 L432 252 L565 252 Q735 252 807 375 Q867 480 867 683 Q867 799 844 899 Q794 1114 565 1114 L432 1114 L432 815 Z " />
<glyph glyph-name="multiply" unicode="&#xd7;" horiz-adv-x="1024" d="M942 270 L778 106 L508 379 L246 117 L94 270 L354 530 L82 803 L246 967 L518 694 L778 954 L930 801 L670 543 L942 270 Z " />
<glyph glyph-name="Yacute" unicode="&#xdd;" horiz-adv-x="1161" d="M911 1776 L667 1483 L405 1483 L560 1776 L911 1776 Z M1179 1366 L722 559 L722 0 L403 0 L403 559 L-19 1366 L319 1366 L343 1315 Q459 1075 499.5 979 Q540 883 579 756 Q612 881 657 980.5 Q702 1080 829 1314 L857 1366 L1179 1366 Z " />
<glyph glyph-name="Thorn" unicode="&#xde;" horiz-adv-x="1149" d="M432 270 L432 0 L113 0 L113 1366 L432 1366 L432 1115 L668 1115 Q1128 1115 1128 705 Q1128 631 1111 563 Q1074 417 942 341 Q818 270 620 270 L432 270 Z M432 524 L575 524 Q691 524 744.5 565 Q798 606 798 694 Q798 752 777 792 Q738 863 579 863 L432 863 L432 524 Z " />
<glyph glyph-name="eth" unicode="&#xf0;" horiz-adv-x="1092" d="M645 1327 Q751 1231 813.5 1149.5 Q876 1068 924 963 Q1016 759 1016 521 Q1016 237 852 88 Q720 -33 511 -33 Q369 -33 263 25 Q141 92 83 247 Q39 365 39 521 Q39 624 62 718 Q106 899 256 985 Q363 1047 508 1047 Q546 1047 592 1036 Q529 1148 447 1215 L244 1094 L174 1206 L346 1311 Q270 1360 148 1407 L225 1546 Q381 1502 522 1415 L731 1540 L801 1423 L645 1327 Z M527 815 Q484 815 453 797 Q352 737 352 498 Q352 207 527 207 Q705 207 705 516 Q705 815 527 815 Z " />
<glyph glyph-name="yacute" unicode="&#xfd;" horiz-adv-x="999" d="M1015 1067 L643 12 Q589 -140 538 -219 Q473 -319 391 -357 Q309 -395 156 -395 Q90 -395 4 -381 L28 -139 Q37 -140 51 -142 Q111 -149 141 -149 Q244 -149 287 -108 Q314 -82 360 31 L-23 1067 L294 1067 L442 631 Q485 503 505 350 Q533 504 575 633 L716 1067 L1015 1067 Z M805 1520 L573 1217 L309 1217 L450 1520 L805 1520 Z " />
<glyph glyph-name="thorn" unicode="&#xfe;" horiz-adv-x="1128" d="M418 965 Q554 1092 701 1092 Q922 1092 1013 865 Q1067 730 1067 530 Q1067 -20 702 -20 Q664 -20 628 -13 Q528 6 418 84 L418 -383 L111 -383 L111 1440 L418 1440 L418 965 Z M418 272 Q500 209 578 209 Q741 209 741 538 Q741 852 579 852 Q558 852 536 847 Q474 833 418 776 L418 272 Z " />
<glyph glyph-name="Amacron" unicode="&#x100;" horiz-adv-x="1270" d="M946 1501 L324 1501 L324 1720 L946 1720 L946 1501 Z M1268 0 L924 0 L840 291 L405 291 L326 0 L2 0 L418 1366 L852 1366 L1268 0 Z M786 539 L772 585 Q696 820 669 923 Q642 1026 625 1147 Q604 1019 576.5 917.5 Q549 816 469 569 L459 539 L786 539 Z " />
<glyph glyph-name="amacron" unicode="&#x101;" horiz-adv-x="1079" d="M867 1278 L244 1278 L244 1497 L867 1497 L867 1278 Z M969 0 L701 0 L687 113 Q566 -25 378 -25 Q235 -25 148.5 55 Q62 135 62 266 Q62 356 99 426 Q155 531 286 589 Q417 647 666 678 L666 721 Q666 869 513 869 Q380 869 328 739 L78 846 Q143 966 232 1024 Q354 1102 542 1102 Q636 1102 723 1081 Q969 1019 969 748 L969 0 Z M666 287 L666 492 Q536 475 478 452 Q363 407 363 304 Q363 285 368 267 Q385 196 475 196 Q566 196 666 287 Z " />
<glyph glyph-name="Abreve" unicode="&#x102;" horiz-adv-x="1270" d="M973 1759 Q964 1673 941.5 1623.5 Q919 1574 871 1533 Q784 1460 638 1460 Q580 1460 531 1473 Q425 1500 364 1579 Q312 1646 301 1759 L500 1759 Q523 1644 635 1644 Q659 1644 679 1649 Q760 1669 776 1759 L973 1759 Z M1268 0 L924 0 L840 291 L405 291 L326 0 L2 0 L418 1366 L852 1366 L1268 0 Z M786 539 L772 585 Q696 820 669 923 Q642 1026 625 1147 Q604 1019 576.5 917.5 Q549 816 469 569 L459 539 L786 539 Z " />
<glyph glyph-name="abreve" unicode="&#x103;" horiz-adv-x="1079" d="M869 1513 Q860 1428 837.5 1378 Q815 1328 767 1288 Q681 1215 534 1215 Q475 1215 427 1228 Q323 1254 266 1325 Q209 1396 197 1513 L396 1513 Q419 1399 531 1399 Q652 1399 672 1513 L869 1513 Z M969 0 L701 0 L687 113 Q566 -25 378 -25 Q235 -25 148.5 55 Q62 135 62 266 Q62 356 99 426 Q155 531 286 589 Q417 647 666 678 L666 721 Q666 869 513 869 Q380 869 328 739 L78 846 Q143 966 232 1024 Q354 1102 542 1102 Q636 1102 723 1081 Q969 1019 969 748 L969 0 Z M666 287 L666 492 Q536 475 478 452 Q363 407 363 304 Q363 285 368 267 Q385 196 475 196 Q566 196 666 287 Z " />
<glyph glyph-name="Aogonek" unicode="&#x104;" horiz-adv-x="1270" d="M1274 -430 Q1234 -434 1222 -436 Q1176 -441 1138 -441 Q850 -441 850 -249 Q850 -118 1014 0 L924 0 L840 291 L405 291 L326 0 L2 0 L418 1366 L852 1366 L1268 0 L1262 0 Q1085 -73 1085 -156 Q1085 -228 1200 -228 Q1209 -228 1217 -228 Q1240 -226 1266 -221 L1274 -430 Z M786 539 L772 585 Q696 820 669 923 Q642 1026 625 1147 Q604 1019 576.5 917.5 Q549 816 469 569 L459 539 L786 539 Z " />
<glyph glyph-name="aogonek" unicode="&#x105;" horiz-adv-x="1079" d="M972 -430 L920 -436 Q874 -441 836 -441 Q548 -441 548 -249 Q548 -117 712 0 L700 0 L686 113 Q630 47 549.5 11 Q469 -25 377 -25 Q234 -25 147.5 55 Q61 135 61 266 Q61 356 98 426 Q154 531 285 589 Q416 647 665 678 L665 721 Q665 869 512 869 Q379 869 327 739 L77 846 Q142 966 231 1024 Q353 1102 541 1102 Q635 1102 722 1081 Q968 1019 968 748 L968 0 L960 0 Q783 -73 783 -156 Q783 -228 898 -228 Q907 -228 915 -228 Q937 -226 964 -221 L972 -430 Z M665 287 L665 492 Q535 475 477 452 Q362 407 362 304 Q362 285 367 267 Q384 196 474 196 Q565 196 665 287 Z " />
<glyph glyph-name="Cacute" unicode="&#x106;" horiz-adv-x="1288" d="M983 1776 L740 1483 L479 1483 L635 1776 L983 1776 Z M1245 438 Q1233 334 1178 232 Q1033 -35 683 -35 Q392 -35 236 141 Q78 319 78 661 Q78 1058 292 1256 Q449 1401 689 1401 Q1047 1401 1189 1115 Q1230 1033 1243 942 L906 897 Q888 1016 831 1079.5 Q774 1143 687 1143 Q568 1143 506 1037 Q440 923 440 672 Q440 584 450 512 Q488 223 685 223 Q737 223 775 243 Q878 298 903 475 L1245 438 Z " />
<glyph glyph-name="cacute" unicode="&#x107;" horiz-adv-x="1057" d="M878 1520 L647 1217 L383 1217 L524 1520 L878 1520 Z M1017 303 Q1003 237 962 170 Q834 -35 545 -35 Q461 -35 381 -14 Q61 68 61 513 Q61 736 146 883 Q273 1102 551 1102 Q681 1102 785 1049 Q871 1005 931 918 Q991 831 1009 723 L718 668 Q714 756 668 811.5 Q622 867 552 867 Q512 867 481 849 Q376 789 376 529 Q376 207 554 207 Q692 207 729 393 L1017 303 Z " />
<glyph glyph-name="Ccircumflex" unicode="&#x108;" horiz-adv-x="1288" d="M1245 438 Q1233 334 1178 232 Q1033 -35 683 -35 Q392 -35 236 141 Q78 319 78 661 Q78 1058 292 1256 Q449 1401 689 1401 Q1047 1401 1189 1115 Q1230 1033 1243 942 L906 897 Q888 1016 831 1079.5 Q774 1143 687 1143 Q568 1143 506 1037 Q440 923 440 672 Q440 584 450 512 Q488 223 685 223 Q737 223 775 243 Q878 298 903 475 L1245 438 Z M1008 1484 L740 1484 L649 1656 L559 1484 L316 1484 L486 1793 L836 1793 L1008 1484 Z " />
<glyph glyph-name="ccircumflex" unicode="&#x109;" horiz-adv-x="1057" d="M1017 303 Q1003 237 962 170 Q834 -35 545 -35 Q461 -35 381 -14 Q61 68 61 513 Q61 736 146 883 Q273 1102 551 1102 Q681 1102 785 1049 Q871 1005 931 918 Q991 831 1009 723 L718 668 Q714 756 668 811.5 Q622 867 552 867 Q512 867 481 849 Q376 789 376 529 Q376 207 554 207 Q692 207 729 393 L1017 303 Z M885 1211 L617 1211 L527 1383 L437 1211 L193 1211 L363 1520 L713 1520 L885 1211 Z " />
<glyph glyph-name="Cdotaccent" unicode="&#x10a;" horiz-adv-x="1288" d="M1245 438 Q1233 334 1178 232 Q1033 -35 683 -35 Q392 -35 236 141 Q78 319 78 661 Q78 1058 292 1256 Q449 1401 689 1401 Q1047 1401 1189 1115 Q1230 1033 1243 942 L906 897 Q888 1016 831 1079.5 Q774 1143 687 1143 Q568 1143 506 1037 Q440 923 440 672 Q440 584 450 512 Q488 223 685 223 Q737 223 775 243 Q878 298 903 475 L1245 438 Z M828 1491 L513 1491 L513 1761 L828 1761 L828 1491 Z " />
<glyph glyph-name="cdotaccent" unicode="&#x10b;" horiz-adv-x="1057" d="M1017 303 Q1003 237 962 170 Q834 -35 545 -35 Q461 -35 381 -14 Q61 68 61 513 Q61 736 146 883 Q273 1102 551 1102 Q681 1102 785 1049 Q871 1005 931 918 Q991 831 1009 723 L718 668 Q714 756 668 811.5 Q622 867 552 867 Q512 867 481 849 Q376 789 376 529 Q376 207 554 207 Q692 207 729 393 L1017 303 Z M696 1227 L395 1227 L395 1493 L696 1493 L696 1227 Z " />
<glyph glyph-name="Ccaron" unicode="&#x10c;" horiz-adv-x="1288" d="M1030 1783 L854 1480 L522 1480 L346 1783 L594 1783 L692 1615 L789 1783 L1030 1783 Z M1245 438 Q1233 334 1178 232 Q1033 -35 683 -35 Q392 -35 236 141 Q78 319 78 661 Q78 1058 292 1256 Q449 1401 689 1401 Q1047 1401 1189 1115 Q1230 1033 1243 942 L906 897 Q888 1016 831 1079.5 Q774 1143 687 1143 Q568 1143 506 1037 Q440 923 440 672 Q440 584 450 512 Q488 223 685 223 Q737 223 775 243 Q878 298 903 475 L1245 438 Z " />
<glyph glyph-name="ccaron" unicode="&#x10d;" horiz-adv-x="1057" d="M899 1520 L731 1211 L374 1211 L206 1520 L473 1520 L565 1348 L655 1520 L899 1520 Z M1017 303 Q1003 237 962 170 Q834 -35 545 -35 Q461 -35 381 -14 Q61 68 61 513 Q61 736 146 883 Q273 1102 551 1102 Q681 1102 785 1049 Q871 1005 931 918 Q991 831 1009 723 L718 668 Q714 756 668 811.5 Q622 867 552 867 Q512 867 481 849 Q376 789 376 529 Q376 207 554 207 Q692 207 729 393 L1017 303 Z " />
<glyph glyph-name="Dcaron" unicode="&#x10e;" horiz-adv-x="1296" d="M917 1783 L741 1480 L409 1480 L233 1783 L481 1783 L579 1615 L675 1783 L917 1783 Z M113 1366 L557 1366 Q920 1366 1077 1195 Q1218 1040 1218 700 Q1218 553 1185 421 Q1128 190 940 80 Q804 0 600 0 L113 0 L113 1366 Z M432 252 L565 252 Q759 252 826 418 Q866 516 866 683 Q866 907 793.5 1010.5 Q721 1114 565 1114 L432 1114 L432 252 Z " />
<glyph glyph-name="dcaron" unicode="&#x10f;" horiz-adv-x="1425" d="M1425 1149 L1220 787 L1093 787 L1230 1127 L1122 1127 L1122 1442 L1425 1442 L1425 1149 Z M1017 0 L730 0 L714 104 Q587 -20 434 -20 Q61 -20 61 528 Q61 730 120 867 Q218 1092 445 1092 Q483 1092 517 1085 Q610 1066 710 985 L710 1440 L1017 1440 L1017 0 Z M710 291 L710 795 Q648 861 574 861 Q387 861 387 532 Q387 469 393 420 Q419 218 556 218 Q579 218 601 223 Q663 237 710 291 Z " />
<glyph glyph-name="Dcroat" unicode="&#x110;" horiz-adv-x="1296" d="M19 569 L19 815 L113 815 L113 1366 L557 1366 Q783 1366 919 1307 Q1085 1234 1158 1067 Q1219 928 1219 703 Q1219 319 1025 142 Q870 0 600 0 L113 0 L113 569 L19 569 Z M432 815 L635 815 L635 569 L432 569 L432 252 L565 252 Q735 252 807 375 Q867 480 867 683 Q867 799 844 899 Q794 1114 565 1114 L432 1114 L432 815 Z " />
<glyph glyph-name="dcroat" unicode="&#x111;" horiz-adv-x="1128" d="M1128 1184 L1017 1184 L1017 0 L730 0 L714 104 Q588 -20 434 -20 Q61 -20 61 528 Q61 731 120 867 Q217 1092 446 1092 Q483 1092 518 1085 Q610 1066 710 985 L710 1184 L428 1184 L428 1368 L710 1368 L710 1440 L1017 1440 L1017 1368 L1128 1368 L1128 1184 Z M710 291 L710 795 Q648 861 574 861 Q387 861 387 532 Q387 218 556 218 Q579 218 601 223 Q663 237 710 291 Z " />
<glyph glyph-name="Emacron" unicode="&#x112;" horiz-adv-x="1096" d="M852 1501 L230 1501 L230 1720 L852 1720 L852 1501 Z M1028 0 L113 0 L113 1366 L1002 1366 L1002 1114 L432 1114 L432 825 L906 825 L906 573 L432 573 L432 252 L1028 252 L1028 0 Z " />
<glyph glyph-name="emacron" unicode="&#x113;" horiz-adv-x="1077" d="M852 1278 L229 1278 L229 1497 L852 1497 L852 1278 Z M1015 260 Q981 184 949.5 140.5 Q918 97 869 60 Q746 -35 556 -35 Q475 -35 399 -15 Q230 28 142 181 Q61 322 61 534 Q61 835 224 986 Q350 1102 554 1102 Q1009 1102 1009 561 L1009 479 L358 479 Q363 207 565 207 Q712 207 773 366 L1015 260 Z M722 655 Q720 742 698 789 Q657 879 545 879 Q379 879 356 655 L722 655 Z " />
<glyph glyph-name="Ebreve" unicode="&#x114;" horiz-adv-x="1096" d="M1028 0 L113 0 L113 1366 L1002 1366 L1002 1114 L432 1114 L432 825 L906 825 L906 573 L432 573 L432 252 L1028 252 L1028 0 Z M901 1759 Q893 1673 870.5 1623 Q848 1573 800 1533 Q713 1460 567 1460 Q509 1460 459 1473 Q355 1499 298 1570.5 Q241 1642 230 1759 L428 1759 Q451 1644 564 1644 Q588 1644 608 1649 Q689 1669 705 1759 L901 1759 Z " />
<glyph glyph-name="ebreve" unicode="&#x115;" horiz-adv-x="1077" d="M1015 260 Q981 184 949.5 140.5 Q918 97 869 60 Q746 -35 556 -35 Q475 -35 399 -15 Q230 28 142 181 Q61 322 61 534 Q61 835 224 986 Q350 1102 554 1102 Q1009 1102 1009 561 L1009 479 L358 479 Q363 207 565 207 Q712 207 773 366 L1015 260 Z M722 655 Q720 742 698 789 Q657 879 545 879 Q379 879 356 655 L722 655 Z M874 1513 Q865 1427 842.5 1377.5 Q820 1328 773 1288 Q686 1215 539 1215 Q481 1215 432 1228 Q328 1254 271 1325 Q214 1396 202 1513 L401 1513 Q423 1399 537 1399 Q657 1399 677 1513 L874 1513 Z " />
<glyph glyph-name="Edotaccent" unicode="&#x116;" horiz-adv-x="1096" d="M702 1491 L387 1491 L387 1761 L702 1761 L702 1491 Z M1028 0 L113 0 L113 1366 L1002 1366 L1002 1114 L432 1114 L432 825 L906 825 L906 573 L432 573 L432 252 L1028 252 L1028 0 Z " />
<glyph glyph-name="edotaccent" unicode="&#x117;" horiz-adv-x="1077" d="M1015 260 Q981 184 949.5 140.5 Q918 97 869 60 Q746 -35 556 -35 Q475 -35 399 -15 Q230 28 142 181 Q61 322 61 534 Q61 835 224 986 Q350 1102 554 1102 Q1009 1102 1009 561 L1009 479 L358 479 Q363 207 565 207 Q712 207 773 366 L1015 260 Z M722 655 Q720 742 698 789 Q657 879 545 879 Q379 879 356 655 L722 655 Z M690 1227 L389 1227 L389 1493 L690 1493 L690 1227 Z " />
<glyph glyph-name="Eogonek" unicode="&#x118;" horiz-adv-x="1096" d="M1032 -430 Q990 -435 981 -436 Q935 -441 897 -441 Q609 -441 609 -249 Q609 -118 773 0 L113 0 L113 1366 L1002 1366 L1002 1114 L432 1114 L432 825 L906 825 L906 573 L432 573 L432 252 L1028 252 L1028 0 L1020 0 Q845 -74 845 -156 Q845 -174 853 -188 Q876 -228 959 -228 Q968 -228 976 -228 Q1000 -226 1024 -221 L1032 -430 Z " />
<glyph glyph-name="eogonek" unicode="&#x119;" horiz-adv-x="1077" d="M1015 260 Q971 159 908 99.5 Q845 40 730 -11 Q579 -78 579 -155 Q579 -174 587 -188 Q610 -228 694 -228 Q703 -228 710 -228 Q731 -226 759 -221 L767 -430 Q737 -433 715 -436 Q670 -441 631 -441 Q343 -441 343 -249 Q343 -134 468 -29 Q358 -8 302 22 Q61 155 61 535 Q61 835 224 986 Q350 1102 554 1102 Q1009 1102 1009 561 L1009 479 L358 479 Q361 373 388 314 Q437 207 564 207 Q711 207 773 366 L1015 260 Z M722 655 Q720 742 698 789 Q657 879 545 879 Q379 879 356 655 L722 655 Z " />
<glyph glyph-name="Ecaron" unicode="&#x11a;" horiz-adv-x="1096" d="M895 1783 L719 1480 L387 1480 L211 1783 L459 1783 L557 1615 L654 1783 L895 1783 Z M1028 0 L113 0 L113 1366 L1002 1366 L1002 1114 L432 1114 L432 825 L906 825 L906 573 L432 573 L432 252 L1028 252 L1028 0 Z " />
<glyph glyph-name="ecaron" unicode="&#x11b;" horiz-adv-x="1077" d="M884 1520 L716 1211 L360 1211 L192 1520 L458 1520 L550 1348 L641 1520 L884 1520 Z M1015 260 Q981 184 949.5 140.5 Q918 97 869 60 Q746 -35 556 -35 Q475 -35 399 -15 Q230 28 142 181 Q61 322 61 534 Q61 835 224 986 Q350 1102 554 1102 Q1009 1102 1009 561 L1009 479 L358 479 Q363 207 565 207 Q712 207 773 366 L1015 260 Z M722 655 Q720 742 698 789 Q657 879 545 879 Q379 879 356 655 L722 655 Z " />
<glyph glyph-name="Gcircumflex" unicode="&#x11c;" horiz-adv-x="1346" d="M1243 957 L901 912 Q888 1018 829 1081.5 Q770 1145 685 1145 Q436 1145 436 680 Q436 475 485 364 Q547 221 696 221 Q734 221 769 230 Q846 250 932 324 L932 488 L721 488 L721 705 L1237 705 L1237 0 L1020 0 L991 109 Q905 28 830.5 -3.5 Q756 -35 650 -35 Q390 -35 241 136 Q78 322 78 673 Q78 823 112 952 Q178 1206 378 1324 Q510 1401 685 1401 Q850 1401 980 1335 Q1081 1284 1152 1182.5 Q1223 1081 1243 957 Z M1007 1484 L739 1484 L648 1656 L558 1484 L315 1484 L485 1793 L835 1793 L1007 1484 Z " />
<glyph glyph-name="gcircumflex" unicode="&#x11d;" horiz-adv-x="1085" d="M1063 940 Q1032 946 1004 946 Q944 946 903 922 Q975 824 975 704 Q975 485 804 387 Q695 323 526 323 L505 323 Q446 323 395 342 Q356 329 356 295 Q356 260 410 241.5 Q464 223 610 206 Q829 181 923 131 Q1055 61 1055 -93 Q1055 -279 901 -368 Q768 -445 529 -445 Q319 -445 192 -390 Q29 -320 29 -166 Q29 -84 68 -33 Q107 18 207 67 Q158 89 128 131 Q98 173 98 221 Q98 350 277 389 Q171 460 130.5 527.5 Q90 595 90 699 Q90 928 270 1030 Q382 1094 528 1094 Q566 1094 601 1089 Q697 1077 795 1026 Q847 1089 900 1110.5 Q953 1132 1063 1133 L1063 940 Z M532 883 Q505 883 481 877 Q383 851 383 714 Q383 676 391 642 Q417 538 533 538 Q680 538 680 714 Q680 883 532 883 Z M324 18 Q259 -16 259 -78 Q259 -149 331.5 -188.5 Q404 -228 533 -228 Q789 -228 789 -126 Q789 -113 784 -102 Q773 -77 744 -65 Q715 -53 639 -44 Q457 -25 324 18 Z M892 1211 L624 1211 L534 1383 L444 1211 L200 1211 L370 1520 L720 1520 L892 1211 Z " />
<glyph glyph-name="Gbreve" unicode="&#x11e;" horiz-adv-x="1346" d="M1032 1759 Q1023 1673 1001 1623.5 Q979 1574 931 1533 Q844 1460 698 1460 Q543 1460 451 1548 Q409 1589 388.5 1636.5 Q368 1684 361 1759 L559 1759 Q582 1644 695 1644 Q719 1644 739 1649 Q819 1669 836 1759 L1032 1759 Z M1243 957 L901 912 Q888 1018 829 1081.5 Q770 1145 685 1145 Q436 1145 436 680 Q436 475 485 364 Q547 221 696 221 Q734 221 769 230 Q846 250 932 324 L932 488 L721 488 L721 705 L1237 705 L1237 0 L1020 0 L991 109 Q905 28 830.5 -3.5 Q756 -35 650 -35 Q390 -35 241 136 Q78 322 78 673 Q78 823 112 952 Q178 1206 378 1324 Q510 1401 685 1401 Q850 1401 980 1335 Q1081 1284 1152 1182.5 Q1223 1081 1243 957 Z " />
<glyph glyph-name="gbreve" unicode="&#x11f;" horiz-adv-x="1085" d="M891 1513 Q882 1429 863 1385 Q786 1215 556 1215 Q498 1215 449 1228 Q345 1254 288 1325 Q231 1396 219 1513 L418 1513 Q441 1399 554 1399 Q674 1399 695 1513 L891 1513 Z M1063 940 Q1032 946 1004 946 Q943 946 901 922 Q975 823 975 705 Q975 485 801 386 Q691 323 532 323 Q454 323 393 342 Q354 329 354 295 Q354 286 358 279 Q373 251 424.5 236 Q476 221 611 206 Q829 181 923 131 Q1055 61 1055 -93 Q1055 -278 901 -368 Q768 -445 527 -445 Q319 -445 192 -391 Q29 -322 29 -167 Q29 -84 68.5 -31.5 Q108 21 207 67 Q157 87 126.5 129.5 Q96 172 96 221 Q96 257 112 289 Q149 362 274 389 Q167 464 127.5 530 Q88 596 88 699 Q88 928 267 1029 Q381 1094 527 1094 Q565 1094 600 1089 Q696 1077 793 1026 Q847 1091 899.5 1111.5 Q952 1132 1063 1133 L1063 940 Z M532 883 Q505 883 481 877 Q383 851 383 714 Q383 676 391 642 Q417 538 533 538 Q680 538 680 714 Q680 883 532 883 Z M324 18 Q256 -17 256 -79 Q256 -111 270 -134 Q326 -228 533 -228 Q789 -228 789 -126 Q789 -113 784 -102 Q773 -77 744 -65 Q715 -53 639 -44 Q460 -25 324 18 Z " />
<glyph glyph-name="Gdotaccent" unicode="&#x120;" horiz-adv-x="1346" d="M1243 957 L901 912 Q888 1018 829 1081.5 Q770 1145 685 1145 Q436 1145 436 680 Q436 475 485 364 Q547 221 696 221 Q734 221 769 230 Q846 250 932 324 L932 488 L721 488 L721 705 L1237 705 L1237 0 L1020 0 L991 109 Q905 28 830.5 -3.5 Q756 -35 650 -35 Q390 -35 241 136 Q78 322 78 673 Q78 823 112 952 Q178 1206 378 1324 Q510 1401 685 1401 Q850 1401 980 1335 Q1081 1284 1152 1182.5 Q1223 1081 1243 957 Z M838 1491 L523 1491 L523 1761 L838 1761 L838 1491 Z " />
<glyph glyph-name="gdotaccent" unicode="&#x121;" horiz-adv-x="1085" d="M1063 940 Q1032 946 1004 946 Q944 946 903 922 Q975 824 975 704 Q975 485 804 387 Q695 323 526 323 L505 323 Q446 323 395 342 Q356 329 356 295 Q356 260 410 241.5 Q464 223 610 206 Q829 181 923 131 Q1055 61 1055 -93 Q1055 -279 901 -368 Q768 -445 529 -445 Q319 -445 192 -390 Q29 -320 29 -166 Q29 -84 68 -33 Q107 18 207 67 Q158 89 128 131 Q98 173 98 221 Q98 350 277 389 Q171 460 130.5 527.5 Q90 595 90 699 Q90 928 270 1030 Q382 1094 528 1094 Q566 1094 601 1089 Q697 1077 795 1026 Q847 1089 900 1110.5 Q953 1132 1063 1133 L1063 940 Z M532 883 Q505 883 481 877 Q383 851 383 714 Q383 676 391 642 Q417 538 533 538 Q680 538 680 714 Q680 883 532 883 Z M324 18 Q259 -16 259 -78 Q259 -149 331.5 -188.5 Q404 -228 533 -228 Q789 -228 789 -126 Q789 -113 784 -102 Q773 -77 744 -65 Q715 -53 639 -44 Q457 -25 324 18 Z M701 1227 L400 1227 L400 1493 L701 1493 L701 1227 Z " />
<glyph glyph-name="Gcommaaccent" unicode="&#x122;" horiz-adv-x="1346" d="M1243 957 L901 912 Q888 1015 834 1076 Q774 1145 682 1145 Q436 1145 436 676 Q436 221 693 221 Q723 221 751 227 Q837 246 932 324 L932 488 L721 488 L721 705 L1237 705 L1237 0 L1020 0 L991 109 Q829 -35 640 -35 Q423 -35 279 97 Q78 282 78 672 Q78 817 111 945 Q160 1138 289 1258 Q442 1401 697 1401 Q881 1401 1011 1320 Q1141 1239 1207 1084 Q1236 1016 1243 957 Z M780 -355 L639 -592 L538 -592 L624 -371 L536 -371 L536 -121 L780 -121 L780 -355 Z " />
<glyph glyph-name="gcommaaccent" unicode="&#x123;" horiz-adv-x="1085" d="M717 1845 L580 1505 L688 1505 L688 1189 L385 1189 L385 1482 L592 1845 L717 1845 Z M1063 940 Q1032 946 1004 946 Q943 946 901 922 Q975 823 975 705 Q975 485 801 386 Q691 323 532 323 Q454 323 393 342 Q354 329 354 295 Q354 286 358 279 Q373 251 424.5 236 Q476 221 611 206 Q829 181 923 131 Q1055 61 1055 -93 Q1055 -278 901 -368 Q768 -445 527 -445 Q319 -445 192 -391 Q29 -322 29 -167 Q29 -84 68.5 -31.5 Q108 21 207 67 Q157 87 126.5 129.5 Q96 172 96 221 Q96 257 112 289 Q149 362 274 389 Q167 464 127.5 530 Q88 596 88 699 Q88 928 267 1029 Q381 1094 527 1094 Q565 1094 600 1089 Q696 1077 793 1026 Q847 1091 899.5 1111.5 Q952 1132 1063 1133 L1063 940 Z M532 883 Q505 883 481 877 Q383 851 383 714 Q383 676 391 642 Q417 538 533 538 Q680 538 680 714 Q680 883 532 883 Z M324 18 Q256 -17 256 -79 Q256 -111 270 -134 Q326 -228 533 -228 Q789 -228 789 -126 Q789 -113 784 -102 Q773 -77 744 -65 Q715 -53 639 -44 Q460 -25 324 18 Z " />
<glyph glyph-name="Hcircumflex" unicode="&#x124;" horiz-adv-x="1319" d="M1207 0 L888 0 L888 579 L432 579 L432 0 L113 0 L113 1366 L432 1366 L432 831 L888 831 L888 1366 L1207 1366 L1207 0 Z M1006 1484 L738 1484 L648 1656 L557 1484 L314 1484 L484 1793 L834 1793 L1006 1484 Z " />
<glyph glyph-name="hcircumflex" unicode="&#x125;" horiz-adv-x="1124" d="M1014 0 L707 0 L707 715 L707 719 L707 728 L707 737 L707 741 Q707 852 593 852 Q562 852 536 842 Q463 816 418 756 L418 0 L111 0 L111 1440 L420 1440 L420 958 Q582 1094 752 1094 Q834 1094 896 1059 Q957 1024 985.5 948.5 Q1014 873 1014 743 L1014 0 Z M630 1495 L362 1495 L272 1667 L182 1495 L-62 1495 L108 1804 L458 1804 L630 1495 Z " />
<glyph glyph-name="Hbar" unicode="&#x126;" horiz-adv-x="1319" d="M1206 966 L1206 0 L887 0 L887 579 L432 579 L432 0 L113 0 L113 966 L-2 966 L-2 1185 L113 1185 L113 1366 L432 1366 L432 1185 L887 1185 L887 1366 L1206 1366 L1206 1185 L1325 1185 L1325 966 L1206 966 Z M887 966 L432 966 L432 831 L887 831 L887 966 Z " />
<glyph glyph-name="hbar" unicode="&#x127;" horiz-adv-x="1124" d="M420 1123 L420 958 Q497 1024 583.5 1059 Q670 1094 752 1094 Q834 1094 896 1059 Q958 1024 986 948.5 Q1014 873 1014 743 L1014 0 L707 0 L707 715 L707 719 L707 728 L707 737 L707 741 Q707 852 593 852 Q548 852 500 825.5 Q452 799 418 756 L418 0 L111 0 L111 1123 L2 1123 L2 1342 L111 1342 L111 1440 L420 1440 L420 1342 L664 1342 L664 1123 L420 1123 Z " />
<glyph glyph-name="Itilde" unicode="&#x128;" horiz-adv-x="545" d="M432 0 L113 0 L113 1366 L432 1366 L432 0 Z M676 1595 Q657 1584 637 1572 Q562 1526 516 1509.5 Q470 1493 419 1493 Q399 1493 382 1496 Q346 1501 279 1529 Q190 1565 143 1565 Q128 1565 113 1561 Q68 1548 -8 1489 L-131 1671 Q22 1796 138 1796 Q160 1796 182 1792 Q214 1785 277 1760 Q365 1725 410 1725 Q420 1725 431 1726 Q470 1732 540 1774 Q559 1786 578 1796 L676 1595 Z " />
<glyph glyph-name="itilde" unicode="&#x129;" horiz-adv-x="535" d="M422 0 L115 0 L115 1067 L422 1067 L422 0 Z M672 1329 Q653 1318 633 1306 Q558 1260 512 1243.5 Q466 1227 416 1227 Q363 1227 275 1263 Q186 1298 140 1298 Q84 1298 -12 1223 L-135 1405 Q19 1530 133 1530 Q184 1530 273 1493 Q359 1458 406 1458 Q416 1458 427 1460 Q467 1465 536 1508 Q555 1520 574 1530 L672 1329 Z " />
<glyph glyph-name="Imacron" unicode="&#x12a;" horiz-adv-x="545" d="M547 1501 L-4 1501 L-4 1720 L547 1720 L547 1501 Z M432 0 L113 0 L113 1366 L432 1366 L432 0 Z " />
<glyph glyph-name="imacron" unicode="&#x12b;" horiz-adv-x="535" d="M539 1278 L-2 1278 L-2 1497 L539 1497 L539 1278 Z M422 0 L115 0 L115 1067 L422 1067 L422 0 Z " />
<glyph glyph-name="Ibreve" unicode="&#x12c;" horiz-adv-x="545" d="M431 0 L112 0 L112 1366 L431 1366 L431 0 Z M609 1759 Q600 1673 577.5 1623 Q555 1573 507 1533 Q420 1460 274 1460 Q216 1460 167 1473 Q63 1499 6 1570.5 Q-51 1642 -63 1759 L136 1759 Q159 1644 272 1644 Q295 1644 316 1649 Q396 1669 412 1759 L609 1759 Z " />
<glyph glyph-name="ibreve" unicode="&#x12d;" horiz-adv-x="535" d="M421 0 L114 0 L114 1067 L421 1067 L421 0 Z M604 1513 Q595 1428 572.5 1378 Q550 1328 502 1288 Q415 1215 269 1215 Q210 1215 162 1228 Q57 1254 0.5 1325 Q-56 1396 -68 1513 L131 1513 Q154 1399 266 1399 Q387 1399 407 1513 L604 1513 Z " />
<glyph glyph-name="Iogonek" unicode="&#x12e;" horiz-adv-x="545" d="M439 -430 Q410 -433 387 -436 Q342 -441 304 -441 Q16 -441 16 -249 Q16 -118 179 0 L112 0 L112 1366 L431 1366 L431 0 L427 0 Q251 -73 251 -156 Q251 -174 259 -188 Q282 -228 366 -228 Q375 -228 382 -228 Q405 -226 431 -221 L439 -430 Z " />
<glyph glyph-name="iogonek" unicode="&#x12f;" horiz-adv-x="535" d="M424 1204 L111 1204 L111 1501 L424 1501 L424 1204 Z M424 -430 Q395 -433 372 -436 Q326 -441 288 -441 Q0 -441 0 -249 Q0 -118 164 0 L115 0 L115 1067 L422 1067 L422 0 L412 0 Q235 -73 235 -156 Q235 -228 350 -228 Q359 -228 367 -228 Q390 -226 416 -221 L424 -430 Z " />
<glyph glyph-name="Idot" unicode="&#x130;" horiz-adv-x="545" d="M432 0 L113 0 L113 1366 L432 1366 L432 0 Z M430 1491 L115 1491 L115 1761 L430 1761 L430 1491 Z " />
<glyph glyph-name="IJ" unicode="&#x132;" horiz-adv-x="1298" d="M432 0 L113 0 L113 1366 L432 1366 L432 0 Z M1186 1366 L1186 371 Q1186 155 1077 58 Q976 -33 768 -33 Q654 -33 533 -2 L580 250 Q670 223 715 223 Q807 223 839 268.5 Q871 314 871 446 L871 1366 L1186 1366 Z " />
<glyph glyph-name="ij" unicode="&#x133;" horiz-adv-x="1069" d="M421 0 L114 0 L114 1067 L421 1067 L421 0 Z M424 1204 L111 1204 L111 1440 L424 1440 L424 1204 Z M956 1067 L956 6 Q956 -397 592 -397 L541 -396 Q483 -396 372 -379 L395 -139 Q480 -151 520 -151 Q560 -151 589 -135 Q623 -117 636 -72.5 Q649 -28 649 68 L649 1067 L956 1067 Z M959 1206 L646 1206 L646 1442 L959 1442 L959 1206 Z " />
<glyph glyph-name="Jcircumflex" unicode="&#x134;" horiz-adv-x="754" d="M641 1366 L641 371 Q641 156 532 58 Q431 -33 223 -33 Q109 -33 -12 -2 L35 250 Q125 223 170 223 Q262 223 294 269 Q326 315 326 446 L326 1366 L641 1366 Z M827 1484 L558 1484 L468 1656 L378 1484 L134 1484 L304 1793 L655 1793 L827 1484 Z " />
<glyph glyph-name="jcircumflex" unicode="&#x135;" horiz-adv-x="535" d="M421 1067 L421 6 Q421 -397 57 -397 L6 -396 Q-54 -396 -162 -379 L-140 -139 Q-55 -151 -15 -151 Q25 -151 54 -135 Q88 -117 101 -72.5 Q114 -28 114 68 L114 1067 L421 1067 Z M622 1211 L354 1211 L263 1383 L173 1211 L-70 1211 L100 1520 L450 1520 L622 1211 Z " />
<glyph glyph-name="Kcommaaccent" unicode="&#x136;" horiz-adv-x="1231" d="M1225 0 L848 0 L579 584 L432 385 L432 0 L113 0 L113 1366 L432 1366 L432 803 L831 1366 L1171 1366 L801 850 L1225 0 Z M758 -355 L617 -592 L516 -592 L602 -371 L514 -371 L514 -121 L758 -121 L758 -355 Z " />
<glyph glyph-name="kcommaaccent" unicode="&#x137;" horiz-adv-x="1098" d="M1106 0 L758 0 L531 473 L416 336 L416 0 L111 0 L111 1440 L416 1440 L416 864 Q416 815 406 645 Q433 696 510 789 Q518 799 523 805 L727 1067 L1067 1067 L748 678 L1106 0 Z M703 -355 L562 -592 L461 -592 L547 -371 L459 -371 L459 -121 L703 -121 L703 -355 Z " />
<glyph glyph-name="Lacute" unicode="&#x139;" horiz-adv-x="1026" d="M629 1776 L385 1483 L125 1483 L281 1776 L629 1776 Z M1020 0 L113 0 L113 1366 L432 1366 L432 252 L1020 252 L1020 0 Z " />
<glyph glyph-name="lacute" unicode="&#x13a;" horiz-adv-x="528" d="M610 1806 L366 1513 L106 1513 L262 1806 L610 1806 Z M418 0 L111 0 L111 1440 L418 1440 L418 0 Z " />
<glyph glyph-name="Lcommaaccent" unicode="&#x13b;" horiz-adv-x="1026" d="M1020 0 L113 0 L113 1366 L432 1366 L432 252 L1020 252 L1020 0 Z M660 -355 L519 -592 L418 -592 L504 -371 L416 -371 L416 -121 L660 -121 L660 -355 Z " />
<glyph glyph-name="lcommaaccent" unicode="&#x13c;" horiz-adv-x="528" d="M418 0 L111 0 L111 1440 L418 1440 L418 0 Z M388 -355 L247 -592 L146 -592 L232 -371 L144 -371 L144 -121 L388 -121 L388 -355 Z " />
<glyph glyph-name="Lcaron" unicode="&#x13d;" horiz-adv-x="1026" d="M914 1074 L709 711 L582 711 L719 1051 L611 1051 L611 1366 L914 1366 L914 1074 Z M1020 0 L113 0 L113 1366 L432 1366 L432 252 L1020 252 L1020 0 Z " />
<glyph glyph-name="lcaron" unicode="&#x13e;" horiz-adv-x="821" d="M822 1149 L617 787 L490 787 L628 1127 L519 1127 L519 1442 L822 1442 L822 1149 Z M418 0 L111 0 L111 1440 L418 1440 L418 0 Z " />
<glyph glyph-name="Ldot" unicode="&#x13f;" horiz-adv-x="1026" d="M1020 0 L113 0 L113 1366 L432 1366 L432 252 L1020 252 L1020 0 Z M917 506 L614 506 L614 821 L917 821 L917 506 Z " />
<glyph glyph-name="ldot" unicode="&#x140;" horiz-adv-x="774" d="M418 0 L111 0 L111 1440 L418 1440 L418 0 Z M810 520 L507 520 L507 835 L810 835 L810 520 Z " />
<glyph glyph-name="Lslash" unicode="&#x141;" horiz-adv-x="1026" d="M1020 0 L113 0 L113 479 L4 408 L4 637 L113 709 L113 1366 L432 1366 L432 858 L774 1081 L774 850 L432 629 L432 252 L1020 252 L1020 0 Z " />
<glyph glyph-name="lslash" unicode="&#x142;" horiz-adv-x="528" d="M520 801 L407 731 L407 0 L100 0 L100 606 L8 545 L8 766 L100 828 L100 1440 L407 1440 L407 957 L520 1026 L520 801 Z " />
<glyph glyph-name="Nacute" unicode="&#x143;" horiz-adv-x="1386" d="M969 1776 L725 1483 L465 1483 L621 1776 L969 1776 Z M1274 0 L848 0 L533 702 Q474 834 402 1010 Q414 815 414 655 L414 0 L113 0 L113 1366 L539 1366 L864 643 Q917 526 976 386 L987 358 Q973 603 973 698 L973 1366 L1274 1366 L1274 0 Z " />
<glyph glyph-name="nacute" unicode="&#x144;" horiz-adv-x="1124" d="M861 1520 L629 1217 L365 1217 L506 1520 L861 1520 Z M1014 0 L707 0 L707 723 Q707 791 680 822 Q653 853 594 853 Q565 853 541 845 Q474 822 418 758 L418 0 L111 0 L111 1067 L400 1067 L408 950 Q563 1092 743 1092 Q827 1092 890 1057 Q1014 988 1014 756 L1014 0 Z " />
<glyph glyph-name="Ncommaaccent" unicode="&#x145;" horiz-adv-x="1386" d="M1274 0 L848 0 L533 702 Q474 834 402 1010 Q414 815 414 655 L414 0 L113 0 L113 1366 L539 1366 L864 643 Q917 526 976 386 L987 358 Q973 603 973 698 L973 1366 L1274 1366 L1274 0 Z M762 -355 L620 -592 L520 -592 L606 -371 L518 -371 L518 -121 L762 -121 L762 -355 Z " />
<glyph glyph-name="ncommaaccent" unicode="&#x146;" horiz-adv-x="1124" d="M1014 0 L707 0 L707 723 Q707 791 680 822 Q653 853 594 853 Q565 853 541 845 Q474 822 418 758 L418 0 L111 0 L111 1067 L400 1067 L408 950 Q563 1092 743 1092 Q827 1092 890 1057 Q1014 988 1014 756 L1014 0 Z M685 -355 L543 -592 L443 -592 L529 -371 L441 -371 L441 -121 L685 -121 L685 -355 Z " />
<glyph glyph-name="Ncaron" unicode="&#x147;" horiz-adv-x="1386" d="M1028 1783 L852 1480 L521 1480 L344 1783 L592 1783 L691 1615 L787 1783 L1028 1783 Z M1274 0 L848 0 L533 702 Q474 834 402 1010 Q414 815 414 655 L414 0 L113 0 L113 1366 L539 1366 L864 643 Q917 526 976 386 L987 358 Q973 603 973 698 L973 1366 L1274 1366 L1274 0 Z " />
<glyph glyph-name="ncaron" unicode="&#x148;" horiz-adv-x="1124" d="M900 1520 L732 1211 L375 1211 L207 1520 L473 1520 L566 1348 L656 1520 L900 1520 Z M1014 0 L707 0 L707 723 Q707 791 680 822 Q653 853 594 853 Q565 853 541 845 Q474 822 418 758 L418 0 L111 0 L111 1067 L400 1067 L408 950 Q563 1092 743 1092 Q827 1092 890 1057 Q1014 988 1014 756 L1014 0 Z " />
<glyph glyph-name="napostrophe" unicode="&#x149;" horiz-adv-x="1350" d="M1240 0 L933 0 L933 723 Q933 791 906 822 Q879 853 820 853 Q791 853 768 845 Q700 821 644 758 L644 0 L337 0 L337 1067 L626 1067 L634 950 Q704 1016 794 1054 Q884 1092 970 1092 Q1240 1092 1240 756 L1240 0 Z M289 1137 L148 900 L47 900 L133 1121 L45 1121 L45 1371 L289 1371 L289 1137 Z " />
<glyph glyph-name="Omacron" unicode="&#x14c;" horiz-adv-x="1397" d="M1011 1501 L389 1501 L389 1720 L1011 1720 L1011 1501 Z M708 1401 Q810 1401 895 1378 Q1116 1320 1219 1132 Q1319 949 1319 689 Q1319 426 1211 241 Q1050 -35 695 -35 Q339 -35 181 238 Q78 416 78 684 Q78 831 111 958 Q178 1210 374 1321 Q515 1401 708 1401 Z M696 1143 Q635 1143 590 1116 Q443 1029 443 688 Q443 603 452 535 Q492 223 698 223 Q952 223 952 688 Q952 878 904 990 Q839 1143 696 1143 Z " />
<glyph glyph-name="omacron" unicode="&#x14d;" horiz-adv-x="1106" d="M864 1278 L241 1278 L241 1497 L864 1497 L864 1278 Z M552 1102 Q704 1102 814 1040 Q1044 911 1044 516 Q1044 207 897 73 Q778 -35 557 -35 Q471 -35 392 -15 Q226 25 140 174 Q61 311 61 528 Q61 646 88 752 Q137 950 293 1040 Q401 1102 552 1102 Z M552 860 Q506 860 473 841 Q423 811 401.5 740 Q380 669 380 532 Q380 417 398 347 Q435 207 553 207 Q644 207 685 285.5 Q726 364 726 538 Q726 654 709 721 Q674 860 552 860 Z " />
<glyph glyph-name="Obreve" unicode="&#x14e;" horiz-adv-x="1397" d="M708 1401 Q810 1401 895 1378 Q1116 1320 1219 1132 Q1319 949 1319 689 Q1319 426 1211 241 Q1050 -35 695 -35 Q339 -35 181 238 Q78 416 78 684 Q78 831 111 958 Q178 1210 374 1321 Q515 1401 708 1401 Z M696 1143 Q635 1143 590 1116 Q443 1029 443 688 Q443 603 452 535 Q492 223 698 223 Q952 223 952 688 Q952 878 904 990 Q839 1143 696 1143 Z M1034 1780 Q1026 1695 1006 1651 Q929 1481 700 1481 Q545 1481 453 1569 Q411 1609 390.5 1656.5 Q370 1704 363 1780 L561 1780 Q584 1665 697 1665 Q721 1665 741 1670 Q822 1689 838 1780 L1034 1780 Z " />
<glyph glyph-name="obreve" unicode="&#x14f;" horiz-adv-x="1106" d="M552 1102 Q704 1102 814 1040 Q1044 911 1044 516 Q1044 207 897 73 Q778 -35 557 -35 Q471 -35 392 -15 Q226 25 140 174 Q61 311 61 528 Q61 646 88 752 Q137 950 293 1040 Q401 1102 552 1102 Z M552 860 Q506 860 473 841 Q423 811 401.5 740 Q380 669 380 532 Q380 417 398 347 Q435 207 553 207 Q644 207 685 285.5 Q726 364 726 538 Q726 654 709 721 Q674 860 552 860 Z M889 1513 Q879 1428 857 1378 Q835 1328 787 1288 Q700 1215 553 1215 Q495 1215 446 1228 Q342 1254 285 1325 Q228 1396 217 1513 L415 1513 Q438 1399 551 1399 Q671 1399 692 1513 L889 1513 Z " />
<glyph glyph-name="Ohungarumlaut" unicode="&#x150;" horiz-adv-x="1397" d="M1180 1778 L965 1481 L748 1481 L889 1778 L1180 1778 Z M768 1778 L553 1481 L336 1481 L477 1778 L768 1778 Z M708 1401 Q810 1401 895 1378 Q1116 1320 1219 1132 Q1319 949 1319 689 Q1319 426 1211 241 Q1050 -35 695 -35 Q339 -35 181 238 Q78 416 78 684 Q78 831 111 958 Q178 1210 374 1321 Q515 1401 708 1401 Z M696 1143 Q635 1143 590 1116 Q443 1029 443 688 Q443 603 452 535 Q492 223 698 223 Q952 223 952 688 Q952 878 904 990 Q839 1143 696 1143 Z " />
<glyph glyph-name="ohungarumlaut" unicode="&#x151;" horiz-adv-x="1106" d="M1056 1520 L841 1217 L624 1217 L766 1520 L1056 1520 Z M645 1520 L430 1217 L213 1217 L354 1520 L645 1520 Z M552 1102 Q704 1102 814 1040 Q1044 911 1044 516 Q1044 207 897 73 Q778 -35 557 -35 Q471 -35 392 -15 Q226 25 140 174 Q61 311 61 528 Q61 646 88 752 Q137 950 293 1040 Q401 1102 552 1102 Z M552 860 Q506 860 473 841 Q423 811 401.5 740 Q380 669 380 532 Q380 417 398 347 Q435 207 553 207 Q644 207 685 285.5 Q726 364 726 538 Q726 654 709 721 Q674 860 552 860 Z " />
<glyph glyph-name="Racute" unicode="&#x154;" horiz-adv-x="1223" d="M900 1776 L656 1483 L396 1483 L552 1776 L900 1776 Z M1202 0 L852 0 L612 541 L432 541 L432 0 L113 0 L113 1366 L627 1366 Q814 1366 929 1317 Q1130 1229 1130 977 Q1130 908 1113 845 Q1091 766 1040 712 Q989 658 895 613 L1202 0 Z M432 795 L586 795 Q696 795 748 835 Q800 875 800 961 Q800 1047 753 1080.5 Q706 1114 588 1114 L432 1114 L432 795 Z " />
<glyph glyph-name="racute" unicode="&#x155;" horiz-adv-x="778" d="M677 1520 L445 1217 L181 1217 L322 1520 L677 1520 Z M766 780 Q729 791 678 791 Q636 791 600 776 Q551 756 512.5 713.5 Q474 671 424 584 L424 0 L117 0 L117 1069 L399 1069 L408 872 Q481 1005 548 1048 Q618 1093 766 1096 L766 780 Z " />
<glyph glyph-name="Rcommaaccent" unicode="&#x156;" horiz-adv-x="1223" d="M1202 0 L852 0 L612 541 L432 541 L432 0 L113 0 L113 1366 L627 1366 Q814 1366 929 1317 Q1130 1229 1130 977 Q1130 908 1113 845 Q1091 766 1040 712 Q989 658 895 613 L1202 0 Z M432 795 L586 795 Q696 795 748 835 Q800 875 800 961 Q800 1047 753 1080.5 Q706 1114 588 1114 L432 1114 L432 795 Z M756 -355 L614 -592 L514 -592 L600 -371 L512 -371 L512 -121 L756 -121 L756 -355 Z " />
<glyph glyph-name="rcommaaccent" unicode="&#x157;" horiz-adv-x="778" d="M766 780 Q729 791 678 791 Q636 791 600 776 Q551 756 512.5 713.5 Q474 671 424 584 L424 0 L117 0 L117 1069 L399 1069 L408 872 Q481 1005 548 1048 Q618 1093 766 1096 L766 780 Z M391 -355 L250 -592 L149 -592 L235 -371 L147 -371 L147 -121 L391 -121 L391 -355 Z " />
<glyph glyph-name="Rcaron" unicode="&#x158;" horiz-adv-x="1223" d="M890 1783 L714 1480 L382 1480 L206 1783 L454 1783 L552 1615 L648 1783 L890 1783 Z M1202 0 L852 0 L612 541 L432 541 L432 0 L113 0 L113 1366 L627 1366 Q814 1366 929 1317 Q1130 1229 1130 977 Q1130 908 1113 845 Q1091 766 1040 712 Q989 658 895 613 L1202 0 Z M432 795 L586 795 Q696 795 748 835 Q800 875 800 961 Q800 1047 753 1080.5 Q706 1114 588 1114 L432 1114 L432 795 Z " />
<glyph glyph-name="rcaron" unicode="&#x159;" horiz-adv-x="778" d="M772 1520 L604 1211 L248 1211 L80 1520 L346 1520 L438 1348 L529 1520 L772 1520 Z M766 780 Q729 791 678 791 Q636 791 600 776 Q551 756 512.5 713.5 Q474 671 424 584 L424 0 L117 0 L117 1069 L399 1069 L408 872 Q483 1008 551.5 1050.5 Q620 1093 766 1096 L766 780 Z " />
<glyph glyph-name="Sacute" unicode="&#x15a;" horiz-adv-x="1255" d="M969 1776 L725 1483 L465 1483 L621 1776 L969 1776 Z M854 1010 Q800 1155 623 1155 Q531 1155 478.5 1119.5 Q426 1084 426 1022 Q426 962 472 922 Q527 874 701 829 Q1004 750 1097 615 Q1165 517 1165 375 Q1165 -35 624 -35 Q430 -35 283 32 Q195 73 127.5 159 Q60 245 41 340 L350 399 Q371 312 443 260.5 Q515 209 617 209 Q645 209 673 213 Q833 234 833 355 Q833 418 786 460 Q727 513 548 565 Q269 645 182 760 Q104 864 104 997 Q104 1044 114 1091 Q180 1401 617 1401 Q861 1401 1012 1293 Q1067 1253 1098 1211 Q1129 1169 1159 1094 L854 1010 Z " />
<glyph glyph-name="sacute" unicode="&#x15b;" horiz-adv-x="989" d="M842 1520 L610 1217 L346 1217 L488 1520 L842 1520 Z M699 768 Q680 821 628 852 Q576 883 506 883 Q487 883 466 880 Q369 867 369 797 Q369 762 398 735 Q439 696 578 654 Q780 592 866.5 509 Q953 426 953 294 Q953 -35 519 -35 Q225 -35 77 140 Q51 171 35 209 L275 322 Q330 182 506 182 Q666 182 666 273 Q666 304 641 328 Q603 362 469 405 Q299 458 214 520 Q86 613 86 769 Q86 810 95 848 Q124 972 237 1036 Q351 1102 515 1102 Q659 1102 774 1040.5 Q889 979 942 874 L699 768 Z " />
<glyph glyph-name="Scircumflex" unicode="&#x15c;" horiz-adv-x="1241" d="M854 1010 Q800 1155 623 1155 Q531 1155 478.5 1119.5 Q426 1084 426 1022 Q426 962 472 922 Q527 874 701 829 Q1004 750 1097 615 Q1165 517 1165 375 Q1165 -35 624 -35 Q430 -35 283 32 Q195 73 127.5 159 Q60 245 41 340 L350 399 Q371 312 443 260.5 Q515 209 617 209 Q645 209 673 213 Q833 234 833 355 Q833 418 786 460 Q727 513 548 565 Q269 645 182 760 Q104 864 104 997 Q104 1044 114 1091 Q180 1401 617 1401 Q861 1401 1012 1293 Q1067 1253 1098 1211 Q1129 1169 1159 1094 L854 1010 Z M949 1484 L681 1484 L591 1656 L501 1484 L257 1484 L427 1793 L777 1793 L949 1484 Z " />
<glyph glyph-name="scircumflex" unicode="&#x15d;" horiz-adv-x="985" d="M695 768 Q676 821 624 852 Q572 883 502 883 Q483 883 462 880 Q365 867 365 797 Q365 762 394 735 Q435 696 574 654 Q776 592 862.5 509 Q949 426 949 294 Q949 -35 515 -35 Q221 -35 73 140 Q47 171 31 209 L271 322 Q326 182 502 182 Q662 182 662 273 Q662 304 637 328 Q599 362 465 405 Q295 458 210 520 Q82 613 82 769 Q82 810 91 848 Q120 972 233 1036 Q347 1102 511 1102 Q655 1102 770 1040.5 Q885 979 938 874 L695 768 Z M836 1211 L568 1211 L477 1383 L387 1211 L144 1211 L314 1520 L664 1520 L836 1211 Z " />
<glyph glyph-name="Scedilla" unicode="&#x15e;" horiz-adv-x="1241" d="M854 1010 Q800 1155 623 1155 Q531 1155 478.5 1119.5 Q426 1084 426 1022 Q426 962 472 922 Q528 874 701 829 Q1004 750 1097 614 Q1165 517 1165 375 Q1165 142 995 43 Q925 3 840.5 -14 Q756 -31 615 -35 L582 -98 Q678 -101 727 -124 Q813 -164 813 -276 Q813 -335 789 -378 Q728 -486 495 -486 Q406 -486 313 -461 L317 -324 Q403 -341 444 -341 Q461 -341 479 -340 Q584 -331 584 -273 Q584 -201 467 -201 Q434 -201 397 -205 L481 -27 Q379 -8 324.5 13 Q270 34 215 75 Q72 181 41 340 L350 399 Q371 312 443 260.5 Q515 209 617 209 Q719 209 776 247.5 Q833 286 833 355 Q833 418 786 460 Q727 513 548 565 Q269 645 182 760 Q104 864 104 997 Q104 1044 114 1091 Q180 1401 617 1401 Q861 1401 1012 1293 Q1067 1253 1098 1211 Q1129 1169 1159 1094 L854 1010 Z " />
<glyph glyph-name="scedilla" unicode="&#x15f;" horiz-adv-x="985" d="M695 768 Q676 821 624 852 Q572 883 502 883 Q483 883 462 880 Q365 867 365 797 Q365 762 394 735 Q435 696 574 654 Q776 592 862.5 509 Q949 426 949 294 Q949 -35 508 -35 L482 -35 L449 -98 Q546 -101 594 -124 Q680 -165 680 -276 Q680 -486 362 -486 Q273 -486 181 -461 L185 -324 Q270 -341 311 -341 Q329 -341 346 -340 Q451 -331 451 -273 Q451 -201 334 -201 L317 -201 Q307 -201 272 -204 L264 -205 L353 -21 Q236 5 150.5 66 Q65 127 31 209 L271 321 Q326 182 502 182 Q662 182 662 273 Q662 304 637 328 Q599 362 465 405 Q295 458 210 520 Q82 613 82 769 Q82 810 91 848 Q120 972 233 1036 Q347 1102 511 1102 Q655 1102 770 1040.5 Q885 979 938 874 L695 768 Z " />
<glyph glyph-name="Scaron" unicode="&#x160;" horiz-adv-x="1255" d="M969 1781 L795 1478 L461 1478 L287 1781 L535 1781 L631 1615 L729 1781 L969 1781 Z M854 1010 Q800 1155 623 1155 Q531 1155 478.5 1119.5 Q426 1084 426 1022 Q426 962 472 922 Q527 874 701 829 Q1004 750 1097 615 Q1165 517 1165 375 Q1165 -35 624 -35 Q430 -35 283 32 Q195 73 127.5 159 Q60 245 41 340 L350 399 Q371 312 443 260.5 Q515 209 617 209 Q645 209 673 213 Q833 234 833 355 Q833 418 786 460 Q727 513 548 565 Q269 645 182 760 Q104 864 104 997 Q104 1044 114 1091 Q180 1401 617 1401 Q861 1401 1012 1293 Q1067 1253 1098 1211 Q1129 1169 1159 1094 L854 1010 Z " />
<glyph glyph-name="scaron" unicode="&#x161;" horiz-adv-x="989" d="M850 1520 L682 1211 L326 1211 L158 1520 L424 1520 L516 1348 L606 1520 L850 1520 Z M699 768 Q680 821 628 852 Q576 883 506 883 Q487 883 466 880 Q369 867 369 797 Q369 762 398 735 Q439 696 578 654 Q780 592 866.5 509 Q953 426 953 294 Q953 -35 519 -35 Q225 -35 77 140 Q51 171 35 209 L275 322 Q330 182 506 182 Q666 182 666 273 Q666 304 641 328 Q603 362 469 405 Q299 458 214 520 Q86 613 86 769 Q86 810 95 848 Q124 972 237 1036 Q351 1102 515 1102 Q659 1102 774 1040.5 Q889 979 942 874 L699 768 Z " />
<glyph glyph-name="Tcommaaccent" unicode="&#x162;" horiz-adv-x="1116" d="M1104 1114 L716 1114 L716 0 L397 0 L397 1114 L10 1114 L10 1366 L1104 1366 L1104 1114 Z M677 -355 L536 -592 L435 -592 L521 -371 L433 -371 L433 -121 L677 -121 L677 -355 Z " />
<glyph glyph-name="tcommaaccent" unicode="&#x163;" horiz-adv-x="770" d="M727 10 Q619 -14 530 -14 Q455 -14 388 2 Q176 54 176 348 L176 831 L37 831 L37 1067 L176 1067 L176 1337 L483 1409 L483 1067 L696 1067 L696 831 L483 831 L483 360 Q483 225 614 225 Q626 225 638 226 Q674 229 723 244 L727 10 Z M457 -355 L316 -592 L215 -592 L301 -371 L213 -371 L213 -121 L457 -121 L457 -355 Z " />
<glyph glyph-name="Tcaron" unicode="&#x164;" horiz-adv-x="1116" d="M898 1783 L722 1480 L390 1480 L214 1783 L462 1783 L560 1615 L656 1783 L898 1783 Z M1104 1114 L716 1114 L716 0 L397 0 L397 1114 L10 1114 L10 1366 L1104 1366 L1104 1114 Z " />
<glyph glyph-name="tcaron" unicode="&#x165;" horiz-adv-x="862" d="M893 1538 L688 1176 L561 1176 L699 1516 L590 1516 L590 1831 L893 1831 L893 1538 Z M727 10 Q619 -14 530 -14 Q455 -14 388 2 Q176 54 176 348 L176 831 L37 831 L37 1067 L176 1067 L176 1337 L483 1409 L483 1067 L696 1067 L696 831 L483 831 L483 360 Q483 225 614 225 Q626 225 638 226 Q674 229 723 244 L727 10 Z " />
<glyph glyph-name="Tbar" unicode="&#x166;" horiz-adv-x="1116" d="M395 900 L395 1114 L10 1114 L10 1366 L1104 1366 L1104 1114 L714 1114 L714 900 L958 900 L958 681 L714 681 L714 0 L395 0 L395 681 L155 681 L155 900 L395 900 Z " />
<glyph glyph-name="tbar" unicode="&#x167;" horiz-adv-x="770" d="M484 529 L484 360 Q484 226 615 226 Q658 226 724 244 L728 10 Q621 -14 530 -14 Q456 -14 389 2 Q177 54 177 348 L177 529 L35 529 L35 748 L177 748 L177 831 L37 831 L37 1067 L177 1067 L177 1337 L484 1409 L484 1067 L697 1067 L697 831 L484 831 L484 748 L690 748 L690 529 L484 529 Z " />
<glyph glyph-name="Utilde" unicode="&#x168;" horiz-adv-x="1329" d="M1217 1366 L1217 512 Q1217 -35 663 -35 Q370 -35 234 115 Q113 249 113 512 L113 1366 L432 1366 L432 535 Q432 403 459 338 Q506 229 666 229 Q747 229 805 259 Q854 285 876 350 Q898 415 898 535 L898 1366 L1217 1366 Z M1068 1595 Q1047 1583 1030 1572 Q952 1525 907.5 1509 Q863 1493 811 1493 Q759 1493 671 1529 Q583 1565 535 1565 Q520 1565 506 1561 Q459 1547 385 1489 L262 1671 Q415 1796 530 1796 Q552 1796 574 1792 Q607 1785 670 1760 Q758 1725 803 1725 Q812 1725 823 1726 Q862 1732 933 1774 Q951 1786 970 1796 L1068 1595 Z " />
<glyph glyph-name="utilde" unicode="&#x169;" horiz-adv-x="1124" d="M1014 0 L727 0 L717 117 Q567 -25 383 -25 Q301 -25 239 9 Q111 80 111 311 L111 1067 L418 1067 L418 348 Q418 213 528 213 Q613 213 707 305 L707 1067 L1014 1067 L1014 0 Z M966 1329 Q948 1318 927 1306 Q852 1260 806.5 1243.5 Q761 1227 710 1227 Q657 1227 569 1263 Q480 1298 434 1298 Q378 1298 282 1223 L159 1405 Q313 1530 427 1530 Q478 1530 568 1493 Q653 1458 701 1458 Q710 1458 721 1460 Q761 1465 830 1508 Q849 1520 868 1530 L966 1329 Z " />
<glyph glyph-name="Umacron" unicode="&#x16a;" horiz-adv-x="1329" d="M974 1501 L351 1501 L351 1720 L974 1720 L974 1501 Z M1217 1366 L1217 512 Q1217 -35 663 -35 Q370 -35 234 115 Q113 249 113 512 L113 1366 L432 1366 L432 535 Q432 403 459 338 Q506 229 666 229 Q747 229 805 259 Q854 285 876 350 Q898 415 898 535 L898 1366 L1217 1366 Z " />
<glyph glyph-name="umacron" unicode="&#x16b;" horiz-adv-x="1124" d="M873 1278 L250 1278 L250 1497 L873 1497 L873 1278 Z M1014 0 L727 0 L717 117 Q567 -25 383 -25 Q301 -25 239 9 Q111 80 111 311 L111 1067 L418 1067 L418 348 Q418 213 528 213 Q613 213 707 305 L707 1067 L1014 1067 L1014 0 Z " />
<glyph glyph-name="Ubreve" unicode="&#x16c;" horiz-adv-x="1329" d="M1217 1366 L1217 512 Q1217 -35 663 -35 Q370 -35 234 115 Q113 249 113 512 L113 1366 L432 1366 L432 535 Q432 403 459 338 Q506 229 666 229 Q747 229 805 259 Q854 285 876 350 Q898 415 898 535 L898 1366 L1217 1366 Z M1001 1780 Q992 1695 972 1651 Q895 1481 667 1481 Q512 1481 420 1569 Q377 1610 357 1657.5 Q337 1705 329 1780 L528 1780 Q551 1665 663 1665 Q687 1665 708 1670 Q788 1689 804 1780 L1001 1780 Z " />
<glyph glyph-name="ubreve" unicode="&#x16d;" horiz-adv-x="1124" d="M1014 0 L727 0 L717 117 Q567 -25 383 -25 Q301 -25 239 9 Q111 80 111 311 L111 1067 L418 1067 L418 348 Q418 213 528 213 Q613 213 707 305 L707 1067 L1014 1067 L1014 0 Z M899 1513 Q890 1429 870 1385 Q793 1215 563 1215 Q505 1215 456 1228 Q352 1254 295 1325 Q238 1396 227 1513 L425 1513 Q448 1399 561 1399 Q681 1399 702 1513 L899 1513 Z " />
<glyph glyph-name="Uring" unicode="&#x16e;" horiz-adv-x="1329" d="M666 1804 Q706 1804 742 1794 Q816 1774 859.5 1725 Q903 1676 903 1614 Q903 1537 833.5 1482.5 Q764 1428 666 1428 Q565 1428 496 1484 Q428 1538 428 1614 Q428 1656 450 1693 Q479 1744 537.5 1774 Q596 1804 666 1804 Z M667 1689 Q653 1689 640 1686 Q578 1669 578 1615 Q578 1598 587 1583 Q610 1543 666 1543 Q681 1543 694 1546 Q756 1563 756 1617 Q756 1646 729.5 1667.5 Q703 1689 667 1689 Z M1217 1366 L1217 512 Q1217 -35 663 -35 Q370 -35 234 115 Q113 249 113 512 L113 1366 L432 1366 L432 535 Q432 403 459 338 Q506 229 666 229 Q747 229 805 259 Q854 285 876 350 Q898 415 898 535 L898 1366 L1217 1366 Z " />
<glyph glyph-name="uring" unicode="&#x16f;" horiz-adv-x="1124" d="M568 1614 Q612 1614 653 1603 Q737 1579 787 1522 Q837 1465 837 1393 Q837 1302 758 1239 Q679 1176 567 1176 Q523 1176 484 1186 Q409 1205 359 1256 Q300 1315 300 1392 Q300 1443 327 1489 Q360 1546 425.5 1580 Q491 1614 568 1614 Z M569 1489 Q551 1489 534 1484 Q458 1463 458 1395 Q458 1356 490 1328.5 Q522 1301 569 1301 Q616 1301 648.5 1328.5 Q681 1356 681 1395 Q681 1433 647.5 1461 Q614 1489 569 1489 Z M1014 0 L727 0 L717 117 Q567 -25 383 -25 Q301 -25 239 9 Q111 80 111 311 L111 1067 L418 1067 L418 348 Q418 213 528 213 Q613 213 707 305 L707 1067 L1014 1067 L1014 0 Z " />
<glyph glyph-name="Uhungarumlaut" unicode="&#x170;" horiz-adv-x="1329" d="M1139 1778 L924 1481 L707 1481 L848 1778 L1139 1778 Z M727 1778 L512 1481 L295 1481 L437 1778 L727 1778 Z M1217 1366 L1217 512 Q1217 -35 663 -35 Q370 -35 234 115 Q113 249 113 512 L113 1366 L432 1366 L432 535 Q432 403 459 338 Q506 229 666 229 Q747 229 805 259 Q854 285 876 350 Q898 415 898 535 L898 1366 L1217 1366 Z " />
<glyph glyph-name="uhungarumlaut" unicode="&#x171;" horiz-adv-x="1124" d="M1057 1520 L842 1217 L625 1217 L766 1520 L1057 1520 Z M646 1520 L430 1217 L213 1217 L355 1520 L646 1520 Z M1014 0 L727 0 L717 117 Q567 -25 383 -25 Q301 -25 239 9 Q111 80 111 311 L111 1067 L418 1067 L418 348 Q418 213 528 213 Q613 213 707 305 L707 1067 L1014 1067 L1014 0 Z " />
<glyph glyph-name="Uogonek" unicode="&#x172;" horiz-adv-x="1329" d="M1217 1366 L1217 522 Q1217 320 1145 188 Q1073 56 937 11 Q724 -60 724 -155 Q724 -228 839 -228 Q848 -228 855 -228 Q879 -226 904 -221 L912 -430 Q883 -433 860 -436 Q814 -441 776 -441 Q487 -441 487 -249 Q487 -134 609 -33 Q457 -19 381 13 Q224 78 160 233 Q113 346 113 522 L113 1366 L432 1366 L432 506 Q432 360 487.5 294.5 Q543 229 666 229 Q714 229 758 239 Q833 258 865.5 324.5 Q898 391 898 528 L898 1366 L1217 1366 Z " />
<glyph glyph-name="uogonek" unicode="&#x173;" horiz-adv-x="1124" d="M1022 -430 L970 -436 Q924 -441 886 -441 Q598 -441 598 -249 Q598 -118 762 0 L727 0 L717 117 Q567 -25 383 -25 Q301 -25 239 9 Q111 80 111 311 L111 1067 L418 1067 L418 348 Q418 213 528 213 Q613 213 707 305 L707 1067 L1014 1067 L1014 0 L1010 0 Q833 -73 833 -156 Q833 -228 948 -228 Q957 -228 965 -228 Q987 -226 1014 -221 L1022 -430 Z " />
<glyph glyph-name="Wcircumflex" unicode="&#x174;" horiz-adv-x="1763" d="M1761 1366 L1427 0 L1071 0 L932 627 Q887 827 870 987 Q843 773 809 627 L661 0 L301 0 L2 1366 L315 1366 L436 743 Q475 542 494 362 Q512 548 553 741 L686 1366 L1069 1366 L1204 723 Q1236 572 1260 362 Q1278 547 1313 723 L1440 1366 L1761 1366 Z M1228 1484 L960 1484 L869 1656 L779 1484 L536 1484 L706 1793 L1056 1793 L1228 1484 Z " />
<glyph glyph-name="wcircumflex" unicode="&#x175;" horiz-adv-x="1583" d="M1583 1067 L1278 0 L971 0 L860 401 Q822 539 791 784 Q762 539 725 406 L612 0 L305 0 L0 1067 L313 1067 L397 690 Q419 595 455 293 Q489 541 530 690 L635 1067 L961 1067 L1069 670 Q1097 569 1131 334 Q1134 314 1137 293 Q1165 554 1194 670 L1294 1067 L1583 1067 Z M1138 1196 L869 1196 L779 1368 L689 1196 L446 1196 L615 1505 L966 1505 L1138 1196 Z " />
<glyph glyph-name="Ycircumflex" unicode="&#x176;" horiz-adv-x="1161" d="M1179 1366 L722 559 L722 0 L403 0 L403 559 L-19 1366 L319 1366 L343 1315 Q459 1075 499.5 979 Q540 883 579 756 Q612 881 657 980.5 Q702 1080 829 1314 L857 1366 L1179 1366 Z M926 1484 L658 1484 L568 1656 L478 1484 L234 1484 L404 1793 L754 1793 L926 1484 Z " />
<glyph glyph-name="ycircumflex" unicode="&#x177;" horiz-adv-x="999" d="M1015 1067 L643 12 Q589 -140 538 -219 Q473 -319 391 -357 Q309 -395 156 -395 Q90 -395 4 -381 L28 -139 Q37 -140 51 -142 Q111 -149 141 -149 Q244 -149 287 -108 Q314 -82 360 31 L-23 1067 L294 1067 L442 631 Q485 503 505 350 Q533 504 575 633 L716 1067 L1015 1067 Z M850 1211 L581 1211 L491 1383 L401 1211 L157 1211 L327 1520 L678 1520 L850 1211 Z " />
<glyph glyph-name="Zacute" unicode="&#x179;" horiz-adv-x="1137" d="M908 1776 L664 1483 L404 1483 L560 1776 L908 1776 Z M1078 0 L68 0 L68 225 L601 993 Q645 1057 703 1120 Q620 1114 512 1114 L121 1114 L121 1366 L1070 1366 L1070 1159 L533 385 Q499 336 416 248 L437 249 Q543 252 594 252 L1078 252 L1078 0 Z " />
<glyph glyph-name="zacute" unicode="&#x17a;" horiz-adv-x="936" d="M801 1520 L569 1217 L305 1217 L446 1520 L801 1520 Z M880 0 L49 0 L49 193 L368 661 Q435 759 514 841 Q424 831 311 831 L100 831 L100 1067 L864 1067 L864 872 L559 403 Q486 291 424 232 Q495 246 598 246 L880 246 L880 0 Z " />
<glyph glyph-name="Zdotaccent" unicode="&#x17b;" horiz-adv-x="1137" d="M752 1491 L437 1491 L437 1761 L752 1761 L752 1491 Z M1078 0 L68 0 L68 225 L601 993 Q645 1057 703 1120 Q620 1114 512 1114 L121 1114 L121 1366 L1070 1366 L1070 1159 L533 385 Q499 336 416 248 L437 249 Q543 252 594 252 L1078 252 L1078 0 Z " />
<glyph glyph-name="zdotaccent" unicode="&#x17c;" horiz-adv-x="936" d="M880 0 L49 0 L49 193 L368 661 Q435 759 514 841 Q424 831 311 831 L100 831 L100 1067 L864 1067 L864 872 L559 403 Q486 291 424 232 Q495 246 598 246 L880 246 L880 0 Z M639 1227 L338 1227 L338 1493 L639 1493 L639 1227 Z " />
<glyph glyph-name="Zcaron" unicode="&#x17d;" horiz-adv-x="1137" d="M936 1783 L762 1480 L428 1480 L254 1783 L502 1783 L598 1617 L697 1783 L936 1783 Z M1078 0 L68 0 L68 225 L601 993 Q645 1057 703 1120 Q620 1114 512 1114 L121 1114 L121 1366 L1070 1366 L1070 1159 L533 385 Q499 336 416 248 L437 249 Q543 252 594 252 L1078 252 L1078 0 Z " />
<glyph glyph-name="zcaron" unicode="&#x17e;" horiz-adv-x="936" d="M821 1520 L653 1211 L297 1211 L129 1520 L395 1520 L487 1348 L577 1520 L821 1520 Z M880 0 L49 0 L49 193 L368 661 Q435 759 514 841 Q424 831 311 831 L100 831 L100 1067 L864 1067 L864 872 L559 403 Q486 291 424 232 Q495 246 598 246 L880 246 L880 0 Z " />
<glyph glyph-name="longs" unicode="&#x17f;" horiz-adv-x="709" d="M723 1501 L707 1280 Q651 1295 613 1295 Q573 1295 543 1279 Q494 1252 494 1147 L494 0 L187 0 L187 831 L35 831 L35 1067 L187 1067 L187 1147 Q187 1320 234 1399 Q305 1520 518 1520 L567 1519 Q628 1519 723 1501 Z " />
<glyph glyph-name="uni01C4" unicode="&#x1c4;" horiz-adv-x="2433" d="M113 1366 L557 1366 Q920 1366 1077 1195 Q1218 1040 1218 700 Q1218 553 1185 421 Q1128 190 940 80 Q804 0 600 0 L113 0 L113 1366 Z M432 252 L565 252 Q759 252 826 418 Q866 516 866 683 Q866 907 793.5 1010.5 Q721 1114 565 1114 L432 1114 L432 252 Z M2229 1783 L2055 1480 L1721 1480 L1547 1783 L1795 1783 L1891 1617 L1990 1783 L2229 1783 Z M2374 0 L1364 0 L1364 225 L1897 993 Q1942 1058 1999 1120 Q1918 1114 1809 1114 L1418 1114 L1418 1366 L2366 1366 L2366 1159 L1829 385 Q1796 336 1713 248 L1734 249 Q1840 252 1891 252 L2374 252 L2374 0 Z " />
<glyph glyph-name="uni01C5" unicode="&#x1c5;" horiz-adv-x="2232" d="M113 1366 L557 1366 Q920 1366 1077 1195 Q1218 1040 1218 700 Q1218 553 1185 421 Q1128 190 940 80 Q804 0 600 0 L113 0 L113 1366 Z M432 252 L565 252 Q759 252 826 418 Q866 516 866 683 Q866 907 793.5 1010.5 Q721 1114 565 1114 L432 1114 L432 252 Z M2118 1520 L1950 1211 L1594 1211 L1426 1520 L1692 1520 L1784 1348 L1874 1520 L2118 1520 Z M2177 0 L1346 0 L1346 193 L1665 661 Q1732 759 1811 841 Q1720 831 1608 831 L1397 831 L1397 1067 L2161 1067 L2161 872 L1856 403 Q1784 293 1721 232 Q1792 246 1895 246 L2177 246 L2177 0 Z " />
<glyph glyph-name="uni01C6" unicode="&#x1c6;" horiz-adv-x="2064" d="M1017 0 L730 0 L714 104 Q587 -20 434 -20 Q61 -20 61 528 Q61 730 120 867 Q218 1092 445 1092 Q483 1092 517 1085 Q610 1066 710 985 L710 1440 L1017 1440 L1017 0 Z M710 291 L710 795 Q648 861 574 861 Q387 861 387 532 Q387 469 393 420 Q419 218 556 218 Q578 218 598 223 Q661 237 710 291 Z M1949 1520 L1781 1211 L1425 1211 L1257 1520 L1523 1520 L1615 1348 L1706 1520 L1949 1520 Z M2009 0 L1177 0 L1177 193 L1496 661 Q1563 759 1642 841 Q1552 831 1439 831 L1228 831 L1228 1067 L1992 1067 L1992 872 L1687 403 Q1615 293 1552 232 Q1623 246 1726 246 L2009 246 L2009 0 Z " />
<glyph glyph-name="uni01C7" unicode="&#x1c7;" horiz-adv-x="1866" d="M1020 0 L113 0 L113 1366 L432 1366 L432 252 L1020 252 L1020 0 Z M1754 1366 L1754 371 Q1754 156 1645 58 Q1545 -33 1336 -33 Q1222 -33 1101 -2 L1148 250 Q1236 223 1283 223 Q1375 223 1407 269 Q1439 315 1439 446 L1439 1366 L1754 1366 Z " />
<glyph glyph-name="uni01C8" unicode="&#x1c8;" horiz-adv-x="1561" d="M1020 0 L113 0 L113 1366 L432 1366 L432 252 L1020 252 L1020 0 Z M1448 1067 L1448 6 Q1448 -397 1084 -397 L1033 -396 Q975 -396 864 -379 L887 -139 Q972 -151 1012 -151 Q1052 -151 1081 -135 Q1115 -116 1128 -72.5 Q1141 -29 1141 68 L1141 1067 L1448 1067 Z M1451 1206 L1138 1206 L1138 1442 L1451 1442 L1451 1206 Z " />
<glyph glyph-name="uni01C9" unicode="&#x1c9;" horiz-adv-x="1063" d="M418 0 L111 0 L111 1440 L418 1440 L418 0 Z M951 1067 L951 6 Q951 -397 587 -397 L536 -396 Q478 -396 368 -379 L390 -139 Q475 -151 515 -151 Q555 -151 584 -135 Q618 -117 631 -72.5 Q644 -28 644 68 L644 1067 L951 1067 Z M954 1206 L641 1206 L641 1442 L954 1442 L954 1206 Z " />
<glyph glyph-name="uni01CA" unicode="&#x1ca;" horiz-adv-x="2140" d="M1274 0 L848 0 L533 702 Q474 834 402 1010 Q414 815 414 655 L414 0 L113 0 L113 1366 L539 1366 L864 643 Q917 526 976 386 L987 358 Q973 603 973 698 L973 1366 L1274 1366 L1274 0 Z M2028 1366 L2028 371 Q2028 156 1919 58 Q1818 -33 1609 -33 Q1496 -33 1374 -2 L1421 250 Q1512 223 1556 223 Q1648 223 1680 269 Q1712 315 1712 446 L1712 1366 L2028 1366 Z " />
<glyph glyph-name="uni01CB" unicode="&#x1cb;" horiz-adv-x="1921" d="M1274 0 L848 0 L533 702 Q474 834 402 1010 Q414 815 414 655 L414 0 L113 0 L113 1366 L539 1366 L864 643 Q917 526 976 386 L987 358 Q973 603 973 698 L973 1366 L1274 1366 L1274 0 Z M1809 1067 L1809 6 Q1809 -397 1445 -397 L1394 -396 Q1337 -396 1225 -379 L1248 -139 Q1333 -151 1373 -151 Q1413 -151 1442 -135 Q1476 -117 1489 -72.5 Q1502 -28 1502 68 L1502 1067 L1809 1067 Z M1812 1206 L1499 1206 L1499 1442 L1812 1442 L1812 1206 Z " />
<glyph glyph-name="uni01CC" unicode="&#x1cc;" horiz-adv-x="1659" d="M1014 0 L707 0 L707 723 Q707 791 680 822 Q653 853 594 853 Q565 853 541 845 Q474 822 418 758 L418 0 L111 0 L111 1067 L400 1067 L408 950 Q563 1092 743 1092 Q827 1092 890 1057 Q1014 988 1014 756 L1014 0 Z M1547 1067 L1547 6 Q1547 -397 1183 -397 L1132 -396 Q1074 -396 964 -379 L986 -139 Q1071 -151 1111 -151 Q1151 -151 1180 -135 Q1214 -116 1227 -72.5 Q1240 -29 1240 68 L1240 1067 L1547 1067 Z M1550 1206 L1237 1206 L1237 1442 L1550 1442 L1550 1206 Z " />
<glyph glyph-name="uni01CD" unicode="&#x1cd;" horiz-adv-x="1270" d="M1268 0 L924 0 L840 291 L405 291 L326 0 L2 0 L418 1366 L852 1366 L1268 0 Z M786 539 L772 585 Q696 820 669 923 Q642 1026 625 1147 Q604 1019 576.5 917.5 Q549 816 469 569 L459 539 L786 539 Z M981 1793 L813 1484 L457 1484 L289 1793 L555 1793 L647 1621 L737 1793 L981 1793 Z " />
<glyph glyph-name="uni01CE" unicode="&#x1ce;" horiz-adv-x="1079" d="M969 0 L701 0 L687 113 Q566 -25 378 -25 Q235 -25 148.5 55 Q62 135 62 266 Q62 356 99 426 Q155 531 286 589 Q417 647 666 678 L666 721 Q666 869 513 869 Q380 869 328 739 L78 846 Q143 966 232 1024 Q354 1102 542 1102 Q636 1102 723 1081 Q969 1019 969 748 L969 0 Z M666 287 L666 492 Q536 475 478 452 Q363 407 363 304 Q363 285 368 267 Q385 196 475 196 Q566 196 666 287 Z M862 1520 L694 1211 L338 1211 L170 1520 L436 1520 L528 1348 L618 1520 L862 1520 Z " />
<glyph glyph-name="uni01CF" unicode="&#x1cf;" horiz-adv-x="545" d="M431 0 L112 0 L112 1366 L431 1366 L431 0 Z M618 1786 L450 1477 L94 1477 L-74 1786 L192 1786 L284 1614 L375 1786 L618 1786 Z " />
<glyph glyph-name="uni01D0" unicode="&#x1d0;" horiz-adv-x="535" d="M422 0 L115 0 L115 1067 L422 1067 L422 0 Z M614 1520 L446 1211 L90 1211 L-78 1520 L188 1520 L280 1348 L371 1520 L614 1520 Z " />
<glyph glyph-name="uni01D1" unicode="&#x1d1;" horiz-adv-x="1397" d="M708 1401 Q810 1401 895 1378 Q1116 1320 1219 1132 Q1319 949 1319 689 Q1319 426 1211 241 Q1050 -35 695 -35 Q339 -35 181 238 Q78 416 78 684 Q78 831 111 958 Q178 1210 374 1321 Q515 1401 708 1401 Z M696 1143 Q635 1143 590 1116 Q443 1029 443 688 Q443 603 452 535 Q492 223 698 223 Q952 223 952 688 Q952 878 904 990 Q839 1143 696 1143 Z M1045 1786 L877 1477 L520 1477 L352 1786 L619 1786 L711 1614 L801 1786 L1045 1786 Z " />
<glyph glyph-name="uni01D2" unicode="&#x1d2;" horiz-adv-x="1106" d="M552 1102 Q704 1102 814 1040 Q1044 911 1044 516 Q1044 207 897 73 Q778 -35 557 -35 Q471 -35 392 -15 Q226 25 140 174 Q61 311 61 528 Q61 646 88 752 Q137 950 293 1040 Q401 1102 552 1102 Z M552 860 Q506 860 473 841 Q423 811 401.5 740 Q380 669 380 532 Q380 417 398 347 Q435 207 553 207 Q644 207 685 285.5 Q726 364 726 538 Q726 654 709 721 Q674 860 552 860 Z M899 1520 L731 1211 L374 1211 L206 1520 L473 1520 L565 1348 L655 1520 L899 1520 Z " />
<glyph glyph-name="uni01D3" unicode="&#x1d3;" horiz-adv-x="1329" d="M1217 1366 L1217 512 Q1217 -35 663 -35 Q370 -35 234 115 Q113 249 113 512 L113 1366 L432 1366 L432 535 Q432 403 459 338 Q506 229 666 229 Q747 229 805 259 Q854 285 876 350 Q898 415 898 535 L898 1366 L1217 1366 Z M997 1783 L821 1480 L490 1480 L313 1783 L561 1783 L660 1615 L756 1783 L997 1783 Z " />
<glyph glyph-name="uni01D4" unicode="&#x1d4;" horiz-adv-x="1124" d="M1014 0 L727 0 L717 117 Q567 -25 383 -25 Q301 -25 239 9 Q111 80 111 311 L111 1067 L418 1067 L418 348 Q418 213 528 213 Q613 213 707 305 L707 1067 L1014 1067 L1014 0 Z M909 1520 L741 1211 L384 1211 L217 1520 L483 1520 L575 1348 L665 1520 L909 1520 Z " />
<glyph glyph-name="Gcaron" unicode="&#x1e6;" horiz-adv-x="1346" d="M1243 957 L901 912 Q888 1018 829 1081.5 Q770 1145 685 1145 Q436 1145 436 680 Q436 475 485 364 Q547 221 696 221 Q734 221 769 230 Q846 250 932 324 L932 488 L721 488 L721 705 L1237 705 L1237 0 L1020 0 L991 109 Q905 28 830.5 -3.5 Q756 -35 650 -35 Q390 -35 241 136 Q78 322 78 673 Q78 823 112 952 Q178 1206 378 1324 Q510 1401 685 1401 Q850 1401 980 1335 Q1081 1284 1152 1182.5 Q1223 1081 1243 957 Z M1007 1793 L839 1484 L483 1484 L315 1793 L581 1793 L673 1621 L763 1793 L1007 1793 Z " />
<glyph glyph-name="gcaron" unicode="&#x1e7;" horiz-adv-x="1085" d="M1063 940 Q1032 946 1004 946 Q944 946 903 922 Q975 824 975 704 Q975 485 804 387 Q695 323 526 323 L505 323 Q446 323 395 342 Q356 329 356 295 Q356 260 410 241.5 Q464 223 610 206 Q829 181 923 131 Q1055 61 1055 -93 Q1055 -279 901 -368 Q768 -445 529 -445 Q319 -445 192 -390 Q29 -320 29 -166 Q29 -84 68 -33 Q107 18 207 67 Q158 89 128 131 Q98 173 98 221 Q98 350 277 389 Q171 460 130.5 527.5 Q90 595 90 699 Q90 928 270 1030 Q382 1094 528 1094 Q566 1094 601 1089 Q697 1077 795 1026 Q847 1089 900 1110.5 Q953 1132 1063 1133 L1063 940 Z M532 883 Q505 883 481 877 Q383 851 383 714 Q383 676 391 642 Q417 538 533 538 Q680 538 680 714 Q680 883 532 883 Z M324 18 Q259 -16 259 -78 Q259 -149 331.5 -188.5 Q404 -228 533 -228 Q789 -228 789 -126 Q789 -113 784 -102 Q773 -77 744 -65 Q715 -53 639 -44 Q457 -25 324 18 Z M892 1520 L724 1211 L368 1211 L200 1520 L466 1520 L558 1348 L649 1520 L892 1520 Z " />
<glyph glyph-name="uni01EA" unicode="&#x1ea;" horiz-adv-x="1397" d="M589 -28 Q369 8 246 148 Q78 339 78 684 Q78 830 111 958 Q177 1206 374 1321 Q512 1401 707 1401 Q805 1401 895 1378 Q1021 1347 1118 1259 Q1215 1171 1267 1026.5 Q1319 882 1319 698 Q1319 549 1284 417 Q1235 232 1115 117.5 Q995 3 822 -24 Q699 -88 699 -156 Q699 -174 707 -188 Q730 -228 813 -228 Q822 -228 830 -228 Q852 -226 879 -221 L887 -430 Q861 -433 835 -436 Q789 -441 751 -441 Q463 -441 463 -247 Q463 -205 477 -167 Q506 -92 589 -28 Z M696 1143 Q635 1143 590 1116 Q443 1029 443 688 Q443 603 452 535 Q492 223 698 223 Q952 223 952 688 Q952 878 904 990 Q839 1143 696 1143 Z " />
<glyph glyph-name="uni01EB" unicode="&#x1eb;" horiz-adv-x="1106" d="M445 -26 Q352 -12 285 28 Q61 159 61 528 Q61 646 88 752 Q137 948 293 1040 Q400 1102 552 1102 Q702 1102 814 1040 Q927 978 985.5 846 Q1044 714 1044 522 Q1044 394 1016 281 Q959 48 730 -15 Q662 -33 637.5 -45.5 Q613 -58 585 -87 Q553 -120 553 -156 Q553 -174 561 -188 Q584 -228 667 -228 Q676 -228 684 -228 Q706 -226 733 -221 L741 -430 Q711 -433 689 -436 Q643 -441 605 -441 Q317 -441 317 -247 Q317 -205 331 -167 Q359 -93 445 -26 Z M552 860 Q506 860 473 841 Q423 811 401.5 740 Q380 669 380 532 Q380 417 398 347 Q435 207 553 207 Q644 207 685 285.5 Q726 364 726 538 Q726 654 709 721 Q674 860 552 860 Z " />
<glyph glyph-name="uni01F1" unicode="&#x1f1;" horiz-adv-x="2433" d="M113 1366 L557 1366 Q920 1366 1077 1195 Q1218 1040 1218 700 Q1218 553 1185 421 Q1128 190 940 80 Q804 0 600 0 L113 0 L113 1366 Z M432 252 L565 252 Q759 252 826 418 Q866 516 866 683 Q866 907 793.5 1010.5 Q721 1114 565 1114 L432 1114 L432 252 Z M2374 0 L1364 0 L1364 225 L1897 993 Q1942 1058 1999 1120 Q1918 1114 1809 1114 L1418 1114 L1418 1366 L2366 1366 L2366 1159 L1829 385 Q1796 336 1713 248 L1734 249 Q1840 252 1891 252 L2374 252 L2374 0 Z " />
<glyph glyph-name="uni01F2" unicode="&#x1f2;" horiz-adv-x="2232" d="M113 1366 L557 1366 Q920 1366 1077 1195 Q1218 1040 1218 700 Q1218 553 1185 421 Q1128 190 940 80 Q804 0 600 0 L113 0 L113 1366 Z M432 252 L565 252 Q759 252 826 418 Q866 516 866 683 Q866 907 793.5 1010.5 Q721 1114 565 1114 L432 1114 L432 252 Z M2177 0 L1346 0 L1346 193 L1665 661 Q1729 755 1800 835 Q1786 835 1753 833 Q1701 831 1647 831 L1397 831 L1397 1067 L2161 1067 L2161 872 L1856 403 Q1822 351 1731 240 Q1778 246 1864 246 L2177 246 L2177 0 Z " />
<glyph glyph-name="uni01F3" unicode="&#x1f3;" horiz-adv-x="2064" d="M1017 0 L730 0 L714 104 Q587 -20 434 -20 Q61 -20 61 528 Q61 730 120 867 Q218 1092 445 1092 Q483 1092 517 1085 Q610 1066 710 985 L710 1440 L1017 1440 L1017 0 Z M710 291 L710 795 Q648 861 574 861 Q387 861 387 532 Q387 469 393 420 Q419 218 556 218 Q578 218 598 223 Q661 237 710 291 Z M2009 0 L1177 0 L1177 193 L1496 661 Q1561 755 1632 835 Q1617 835 1584 833 Q1532 831 1478 831 L1228 831 L1228 1067 L1992 1067 L1992 872 L1687 403 Q1655 355 1562 240 Q1610 246 1695 246 L2009 246 L2009 0 Z " />
<glyph glyph-name="uni01F4" unicode="&#x1f4;" horiz-adv-x="1346" d="M1243 957 L901 912 Q888 1018 829 1081.5 Q770 1145 685 1145 Q436 1145 436 680 Q436 475 485 364 Q547 221 696 221 Q734 221 769 230 Q846 250 932 324 L932 488 L721 488 L721 705 L1237 705 L1237 0 L1020 0 L991 109 Q905 28 830.5 -3.5 Q756 -35 650 -35 Q390 -35 241 136 Q78 322 78 673 Q78 823 112 952 Q178 1206 378 1324 Q510 1401 685 1401 Q850 1401 980 1335 Q1081 1284 1152 1182.5 Q1223 1081 1243 957 Z M1015 1776 L771 1483 L509 1483 L665 1776 L1015 1776 Z " />
<glyph glyph-name="uni01F5" unicode="&#x1f5;" horiz-adv-x="1085" d="M1063 940 Q1032 946 1004 946 Q944 946 903 922 Q975 824 975 704 Q975 485 804 387 Q695 323 526 323 L505 323 Q446 323 395 342 Q356 329 356 295 Q356 260 410 241.5 Q464 223 610 206 Q829 181 923 131 Q1055 61 1055 -93 Q1055 -279 901 -368 Q768 -445 529 -445 Q319 -445 192 -390 Q29 -320 29 -166 Q29 -84 68 -33 Q107 18 207 67 Q158 89 128 131 Q98 173 98 221 Q98 350 277 389 Q171 460 130.5 527.5 Q90 595 90 699 Q90 928 270 1030 Q382 1094 528 1094 Q566 1094 601 1089 Q697 1077 795 1026 Q847 1089 900 1110.5 Q953 1132 1063 1133 L1063 940 Z M532 883 Q505 883 481 877 Q383 851 383 714 Q383 676 391 642 Q417 538 533 538 Q680 538 680 714 Q680 883 532 883 Z M324 18 Q259 -16 259 -78 Q259 -149 331.5 -188.5 Q404 -228 533 -228 Q789 -228 789 -126 Q789 -113 784 -102 Q773 -77 744 -65 Q715 -53 639 -44 Q457 -25 324 18 Z M877 1520 L645 1217 L381 1217 L522 1520 L877 1520 Z " />
<glyph glyph-name="Aringacute" unicode="&#x1fa;" horiz-adv-x="1270" d="M1268 0 L924 0 L840 291 L405 291 L326 0 L2 0 L418 1366 L852 1366 L1268 0 Z M786 539 L772 585 Q696 820 669 923 Q642 1026 625 1147 Q604 1019 576.5 917.5 Q549 816 469 569 L459 539 L786 539 Z M561 2049 L330 1746 L65 1746 L207 2049 L561 2049 Z M635 1880 Q679 1880 720 1869 Q803 1845 853 1788 Q903 1731 903 1658 Q903 1568 824.5 1505 Q746 1442 633 1442 Q523 1442 446 1504 Q367 1567 367 1658 Q367 1709 394 1755 Q427 1812 492.5 1846 Q558 1880 635 1880 Z M634 1755 Q617 1755 601 1750 Q525 1729 525 1661 Q525 1622 557 1594.5 Q589 1567 635 1567 Q653 1567 669 1571 Q704 1581 725.5 1605.5 Q747 1630 747 1661 Q747 1700 713.5 1727.5 Q680 1755 634 1755 Z " />
<glyph glyph-name="aringacute" unicode="&#x1fb;" horiz-adv-x="1079" d="M969 0 L701 0 L686 113 Q629 46 549 10.5 Q469 -25 378 -25 Q325 -25 274 -11 Q173 16 117.5 88.5 Q62 161 62 266 Q62 356 99 426 Q155 531 286 589 Q417 647 666 678 L666 721 Q666 869 513 869 Q380 869 328 739 L78 846 Q143 966 232 1024 Q354 1102 541 1102 Q636 1102 722 1081 Q969 1019 969 748 L969 0 Z M666 287 L666 492 Q536 475 479 452 Q363 407 363 304 Q363 196 475 196 Q566 196 666 287 Z M474 1797 L242 1494 L-22 1494 L119 1797 L474 1797 Z M514 1614 Q559 1614 600 1603 Q683 1579 733 1522 Q783 1465 783 1392 Q783 1302 704 1239 Q625 1176 513 1176 Q470 1176 430 1186 Q356 1205 306 1256 Q247 1315 247 1392 Q247 1444 274 1489 Q307 1546 372.5 1580 Q438 1614 514 1614 Z M515 1489 Q498 1489 481 1484 Q405 1463 405 1395 Q405 1356 437 1328.5 Q469 1301 515 1301 Q532 1301 549 1305 Q584 1315 605.5 1339.5 Q627 1364 627 1396 Q627 1433 593.5 1461 Q560 1489 515 1489 Z " />
<glyph glyph-name="AEacute" unicode="&#x1fc;" horiz-adv-x="1759" d="M1692 0 L823 0 L823 287 L493 287 L362 0 L-8 0 L669 1366 L1665 1366 L1665 1114 L1141 1114 L1141 823 L1571 823 L1571 571 L1141 571 L1141 252 L1692 252 L1692 0 Z M831 1132 L571 539 L823 539 Q823 842 831 1132 Z M1409 1776 L1166 1483 L904 1483 L1059 1776 L1409 1776 Z " />
<glyph glyph-name="aeacute" unicode="&#x1fd;" horiz-adv-x="1667" d="M1605 260 Q1543 127 1458 60 Q1335 -35 1154 -35 Q1099 -35 1045 -25 Q864 9 788 129 Q651 -27 408 -27 Q258 -27 164 49 Q61 131 61 277 Q61 488 273 584 Q398 640 663 661 Q665 688 665 727 Q665 868 513 868 Q477 868 446 859 Q366 835 327 739 L77 846 Q142 966 231 1023 Q353 1102 523 1102 Q743 1102 833 967 Q944 1102 1157 1102 Q1410 1102 1521 908 Q1597 777 1597 569 L1597 483 L948 483 Q950 373 977 313 Q1026 207 1154 207 Q1299 207 1366 366 L1605 260 Z M1312 643 Q1310 725 1286 777 Q1240 877 1132 877 Q967 877 948 643 L1312 643 Z M667 285 Q659 318 659 385 L659 398 Q659 412 660 437 Q661 456 661 489 Q535 473 477 450 Q362 406 362 301 Q362 281 367 262 Q385 192 475 192 Q564 192 667 285 Z M1157 1520 L926 1217 L662 1217 L803 1520 L1157 1520 Z " />
<glyph glyph-name="Oslashacute" unicode="&#x1fe;" horiz-adv-x="1397" d="M37 -31 L58 -5 Q135 86 213 182 Q78 378 78 666 Q78 940 186 1125 Q347 1401 702 1401 Q912 1401 1071 1290 L1090 1315 Q1128 1367 1175 1430 L1203 1469 L1221 1493 L1352 1395 Q1336 1375 1298 1330 Q1250 1271 1198 1209 Q1195 1205 1178 1184 Q1253 1077 1286 959.5 Q1319 842 1319 684 Q1319 536 1286 408 Q1221 159 1024 45 Q886 -35 691 -35 Q635 -35 584 -28 Q438 -8 320 76 L301 51 Q217 -64 168 -135 L37 -31 Z M512 336 Q579 223 699 223 Q761 223 807 249 Q954 333 954 685 L953 739 Q953 794 936 885 Q875 789 752 630 Q629 471 512 336 Z M883 1036 Q812 1143 701 1143 Q445 1143 445 680 L446 634 Q446 575 459 489 Q665 800 883 1036 Z M1051 1776 L807 1483 L545 1483 L700 1776 L1051 1776 Z " />
<glyph glyph-name="oslashacute" unicode="&#x1ff;" horiz-adv-x="1118" d="M8 -4 Q34 25 81 81 Q128 137 153 166 Q61 320 61 532 Q61 841 219 985 Q344 1100 556 1100 Q606 1100 648 1093 Q762 1075 862 1002 Q889 1035 925 1081 Q953 1117 987 1161 L1095 1075 L950 903 Q1001 816 1022.5 730 Q1044 644 1044 526 Q1044 -37 549 -37 Q378 -37 241 66 L119 -94 L8 -4 Z M422 283 Q465 205 551 205 Q643 205 684 280.5 Q725 356 725 527 Q725 597 721 639 Q552 419 422 283 Z M684 782 Q641 858 556 858 Q511 858 478 839 Q380 783 380 534 L380 505 Q380 487 385 428 Q487 561 684 782 Z M860 1520 L628 1217 L364 1217 L505 1520 L860 1520 Z " />
<glyph glyph-name="uni0200" unicode="&#x200;" horiz-adv-x="1270" d="M1268 0 L924 0 L840 291 L405 291 L326 0 L2 0 L418 1366 L852 1366 L1268 0 Z M786 539 L772 585 Q696 820 669 923 Q642 1026 625 1147 Q604 1019 576.5 917.5 Q549 816 469 569 L459 539 L786 539 Z M117 1786 L408 1786 L549 1483 L332 1483 L117 1786 Z M529 1786 L820 1786 L961 1483 L744 1483 L529 1786 Z " />
<glyph glyph-name="uni0201" unicode="&#x201;" horiz-adv-x="1079" d="M969 0 L701 0 L687 113 Q565 -25 378 -25 Q235 -25 148.5 55 Q62 135 62 266 Q62 356 99 426 Q155 531 286 589 Q417 647 666 678 L666 721 Q666 869 513 869 Q381 869 328 739 L78 846 Q115 914 148 952.5 Q181 991 232 1024 Q354 1102 541 1102 Q969 1102 969 748 L969 0 Z M666 287 L666 492 Q536 475 478 452 Q363 407 363 304 Q363 196 475 196 Q566 196 666 287 Z M37 1520 L328 1520 L469 1217 L252 1217 L37 1520 Z M449 1520 L739 1520 L881 1217 L664 1217 L449 1520 Z " />
<glyph glyph-name="uni0202" unicode="&#x202;" horiz-adv-x="1270" d="M1268 0 L924 0 L840 291 L405 291 L326 0 L2 0 L418 1366 L852 1366 L1268 0 Z M786 539 L772 585 Q696 820 669 923 Q642 1026 625 1147 Q604 1019 576.5 917.5 Q549 816 469 569 L459 539 L786 539 Z M971 1481 L774 1481 Q754 1596 634 1596 Q613 1596 594 1592 Q515 1574 498 1481 L299 1481 Q309 1579 346 1638 Q435 1780 636 1780 Q800 1780 889 1689 Q927 1650 945 1605 Q963 1560 971 1481 Z " />
<glyph glyph-name="uni0203" unicode="&#x203;" horiz-adv-x="1079" d="M969 0 L701 0 L687 113 Q566 -25 378 -25 Q235 -25 148.5 55 Q62 135 62 266 Q62 356 99 426 Q155 531 286 589 Q417 647 666 678 L666 721 Q666 869 513 869 Q380 869 328 739 L78 846 Q143 966 232 1024 Q354 1102 542 1102 Q636 1102 723 1081 Q969 1019 969 748 L969 0 Z M666 287 L666 492 Q536 475 478 452 Q363 407 363 304 Q363 285 368 267 Q385 196 475 196 Q566 196 666 287 Z M888 1215 L691 1215 Q671 1330 551 1330 Q530 1330 511 1326 Q434 1308 415 1215 L216 1215 Q226 1312 263 1372 Q352 1514 554 1514 Q717 1514 806 1422 Q844 1383 862 1338 Q880 1293 888 1215 Z " />
<glyph glyph-name="uni0204" unicode="&#x204;" horiz-adv-x="1096" d="M1028 0 L113 0 L113 1366 L1001 1366 L1001 1114 L432 1114 L432 825 L905 825 L905 573 L432 573 L432 252 L1028 252 L1028 0 Z M75 1786 L366 1786 L507 1483 L290 1483 L75 1786 Z M487 1786 L777 1786 L919 1483 L702 1483 L487 1786 Z " />
<glyph glyph-name="uni0205" unicode="&#x205;" horiz-adv-x="1077" d="M1016 260 Q982 184 950.5 140.5 Q919 97 870 60 Q747 -35 558 -35 Q476 -35 400 -15 Q231 28 143 181 Q62 323 62 534 Q62 835 225 986 Q350 1102 555 1102 Q1010 1102 1010 561 L1010 479 L359 479 Q364 207 566 207 Q712 207 774 366 L1016 260 Z M723 655 Q721 743 699 789 Q658 879 546 879 Q497 879 457 858 Q373 814 357 655 L723 655 Z M53 1520 L344 1520 L485 1217 L268 1217 L53 1520 Z M465 1520 L755 1520 L897 1217 L680 1217 L465 1520 Z " />
<glyph glyph-name="uni0206" unicode="&#x206;" horiz-adv-x="1096" d="M1028 0 L113 0 L113 1366 L1002 1366 L1002 1114 L432 1114 L432 825 L906 825 L906 573 L432 573 L432 252 L1028 252 L1028 0 Z M884 1481 L688 1481 Q667 1596 547 1596 Q526 1596 508 1592 Q429 1574 411 1481 L213 1481 Q222 1579 259 1638 Q348 1780 549 1780 Q713 1780 802 1689 Q841 1649 858.5 1604 Q876 1559 884 1481 Z " />
<glyph glyph-name="uni0207" unicode="&#x207;" horiz-adv-x="1077" d="M1015 260 Q981 184 949.5 140.5 Q918 97 869 60 Q746 -35 556 -35 Q475 -35 399 -15 Q230 28 142 181 Q61 322 61 534 Q61 835 224 986 Q350 1102 554 1102 Q1009 1102 1009 561 L1009 479 L358 479 Q363 207 565 207 Q712 207 773 366 L1015 260 Z M722 655 Q720 742 698 789 Q657 879 545 879 Q379 879 356 655 L722 655 Z M874 1215 L677 1215 Q657 1330 538 1330 Q423 1330 401 1215 L202 1215 Q212 1312 249 1372 Q338 1514 540 1514 Q703 1514 792 1422 Q830 1383 848 1338 Q866 1293 874 1215 Z " />
<glyph glyph-name="uni0208" unicode="&#x208;" horiz-adv-x="545" d="M432 0 L113 0 L113 1366 L432 1366 L432 0 Z M-196 1786 L95 1786 L236 1483 L19 1483 L-196 1786 Z M166 1786 L457 1786 L598 1483 L381 1483 L166 1786 Z " />
<glyph glyph-name="uni0209" unicode="&#x209;" horiz-adv-x="535" d="M422 0 L115 0 L115 1067 L422 1067 L422 0 Z M-197 1520 L94 1520 L235 1217 L18 1217 L-197 1520 Z M174 1520 L465 1520 L606 1217 L389 1217 L174 1520 Z " />
<glyph glyph-name="uni020A" unicode="&#x20a;" horiz-adv-x="545" d="M433 0 L113 0 L113 1366 L433 1366 L433 0 Z M609 1481 L412 1481 Q392 1596 271 1596 Q158 1596 136 1481 L-63 1481 Q-53 1579 -16 1638 Q73 1780 274 1780 Q438 1780 527 1689 Q565 1649 583 1604 Q601 1559 609 1481 Z " />
<glyph glyph-name="uni020B" unicode="&#x20b;" horiz-adv-x="535" d="M421 0 L114 0 L114 1067 L421 1067 L421 0 Z M604 1215 L407 1215 Q386 1330 267 1330 Q154 1330 131 1215 L-68 1215 Q-58 1312 -21 1372 Q68 1514 270 1514 Q328 1514 382 1501 Q496 1473 555 1380 Q593 1322 604 1215 Z " />
<glyph glyph-name="uni020C" unicode="&#x20c;" horiz-adv-x="1397" d="M708 1401 Q810 1401 895 1378 Q1116 1320 1219 1132 Q1319 949 1319 689 Q1319 426 1211 241 Q1050 -35 695 -35 Q339 -35 181 238 Q78 416 78 684 Q78 831 111 958 Q178 1210 374 1321 Q515 1401 708 1401 Z M696 1143 Q635 1143 590 1116 Q443 1029 443 688 Q443 603 452 535 Q492 223 698 223 Q952 223 952 688 Q952 878 904 990 Q839 1143 696 1143 Z M213 1786 L503 1786 L645 1483 L428 1483 L213 1786 Z M624 1786 L915 1786 L1056 1483 L839 1483 L624 1786 Z " />
<glyph glyph-name="uni020D" unicode="&#x20d;" horiz-adv-x="1106" d="M552 1102 Q704 1102 814 1040 Q1044 911 1044 517 Q1044 207 897 73 Q779 -35 557 -35 Q471 -35 392 -15 Q226 25 140 174 Q61 311 61 528 Q61 645 88 752 Q137 950 293 1040 Q401 1102 552 1102 Z M552 860 Q506 860 474 841 Q423 810 402 739.5 Q381 669 381 530 Q381 486 383 455 Q398 207 553 207 Q644 207 685 286 Q726 365 726 540 Q726 653 709 721 Q674 860 552 860 Z M62 1520 L353 1520 L494 1217 L277 1217 L62 1520 Z M473 1520 L764 1520 L905 1217 L688 1217 L473 1520 Z " />
<glyph glyph-name="uni020E" unicode="&#x20e;" horiz-adv-x="1397" d="M708 1401 Q810 1401 895 1378 Q1116 1320 1219 1132 Q1319 949 1319 689 Q1319 426 1211 241 Q1050 -35 695 -35 Q339 -35 181 238 Q78 416 78 684 Q78 831 111 958 Q178 1210 374 1321 Q515 1401 708 1401 Z M696 1143 Q635 1143 590 1116 Q443 1029 443 688 Q443 603 452 535 Q492 223 698 223 Q952 223 952 688 Q952 878 904 990 Q839 1143 696 1143 Z M1034 1481 L838 1481 Q817 1596 697 1596 Q676 1596 658 1592 Q580 1574 561 1481 L363 1481 Q373 1579 409 1638 Q498 1780 700 1780 Q864 1780 953 1689 Q991 1649 1008.5 1604 Q1026 1559 1034 1481 Z " />
<glyph glyph-name="uni020F" unicode="&#x20f;" horiz-adv-x="1106" d="M552 1102 Q704 1102 814 1040 Q1044 911 1044 516 Q1044 207 897 73 Q778 -35 557 -35 Q471 -35 392 -15 Q226 25 140 174 Q61 311 61 528 Q61 646 88 752 Q137 950 293 1040 Q401 1102 552 1102 Z M552 860 Q506 860 473 841 Q423 811 401.5 740 Q380 669 380 532 Q380 417 398 347 Q435 207 553 207 Q644 207 685 285.5 Q726 364 726 538 Q726 654 709 721 Q674 860 552 860 Z M889 1215 L692 1215 Q671 1330 552 1330 Q438 1330 415 1215 L217 1215 Q226 1312 263 1372 Q352 1514 554 1514 Q612 1514 667 1501 Q780 1473 840 1380 Q877 1322 889 1215 Z " />
<glyph glyph-name="uni0210" unicode="&#x210;" horiz-adv-x="1223" d="M1202 0 L852 0 L612 541 L432 541 L432 0 L113 0 L113 1366 L627 1366 Q815 1366 928 1317 Q1130 1229 1130 977 Q1130 908 1113 845 Q1091 767 1040 712 Q989 657 895 613 L1202 0 Z M432 795 L586 795 Q696 795 748 835 Q800 875 800 961 Q800 1047 753 1080.5 Q706 1114 588 1114 L432 1114 L432 795 Z M95 1786 L386 1786 L527 1483 L310 1483 L95 1786 Z M507 1786 L797 1786 L939 1483 L722 1483 L507 1786 Z " />
<glyph glyph-name="uni0211" unicode="&#x211;" horiz-adv-x="778" d="M767 780 Q730 791 679 791 Q637 791 600 776 Q552 756 514 714.5 Q476 673 424 584 L424 0 L117 0 L117 1069 L400 1069 L408 872 Q482 1005 548 1048 Q618 1093 767 1096 L767 780 Z M-40 1520 L251 1520 L392 1217 L175 1217 L-40 1520 Z M336 1520 L627 1520 L768 1217 L551 1217 L336 1520 Z " />
<glyph glyph-name="uni0212" unicode="&#x212;" horiz-adv-x="1223" d="M1202 0 L852 0 L612 541 L432 541 L432 0 L113 0 L113 1366 L627 1366 Q815 1366 929 1317 Q1130 1229 1130 977 Q1130 908 1113 845 Q1091 766 1040 712 Q989 658 895 613 L1202 0 Z M432 795 L586 795 Q696 795 748 835 Q800 875 800 961 Q800 1047 753 1080.5 Q706 1114 588 1114 L432 1114 L432 795 Z M900 1481 L703 1481 Q683 1596 562 1596 Q449 1596 427 1481 L228 1481 Q238 1579 275 1638 Q364 1780 565 1780 Q729 1780 818 1689 Q856 1649 874 1604 Q892 1559 900 1481 Z " />
<glyph glyph-name="uni0213" unicode="&#x213;" horiz-adv-x="778" d="M766 780 Q729 791 678 791 Q636 791 599 776 Q512 740 423 584 L423 0 L116 0 L116 1069 L398 1069 L407 872 Q481 1007 550.5 1050 Q620 1093 766 1096 L766 780 Z M777 1215 L580 1215 Q559 1330 440 1330 Q327 1330 304 1215 L105 1215 Q115 1312 152 1372 Q241 1514 443 1514 Q501 1514 555 1501 Q669 1473 728 1380 Q766 1322 777 1215 Z " />
<glyph glyph-name="uni0214" unicode="&#x214;" horiz-adv-x="1329" d="M1217 1366 L1217 512 Q1217 -35 663 -35 Q370 -35 234 115 Q113 249 113 512 L113 1366 L432 1366 L432 535 Q432 403 459 338 Q506 229 666 229 Q747 229 805 259 Q854 285 876 350 Q898 415 898 535 L898 1366 L1217 1366 Z M180 1786 L471 1786 L612 1483 L395 1483 L180 1786 Z M591 1786 L882 1786 L1024 1483 L806 1483 L591 1786 Z " />
<glyph glyph-name="uni0215" unicode="&#x215;" horiz-adv-x="1124" d="M1014 0 L728 0 L717 117 Q567 -25 383 -25 Q301 -25 239 9 Q111 80 111 311 L111 1067 L418 1067 L418 348 Q418 213 528 213 Q613 213 707 305 L707 1067 L1014 1067 L1014 0 Z M85 1520 L376 1520 L517 1217 L300 1217 L85 1520 Z M497 1520 L787 1520 L929 1217 L712 1217 L497 1520 Z " />
<glyph glyph-name="uni0216" unicode="&#x216;" horiz-adv-x="1329" d="M1217 1366 L1217 512 Q1217 -35 663 -35 Q370 -35 234 115 Q113 249 113 512 L113 1366 L432 1366 L432 535 Q432 403 459 338 Q506 229 666 229 Q747 229 805 259 Q854 285 876 350 Q898 415 898 535 L898 1366 L1217 1366 Z M1001 1481 L804 1481 Q784 1596 664 1596 Q642 1596 624 1592 Q546 1574 528 1481 L329 1481 Q339 1579 376 1638 Q465 1780 666 1780 Q830 1780 919 1689 Q957 1649 975 1604 Q993 1559 1001 1481 Z " />
<glyph glyph-name="uni0217" unicode="&#x217;" horiz-adv-x="1124" d="M1014 0 L727 0 L717 117 Q567 -25 383 -25 Q301 -25 239 9 Q111 80 111 311 L111 1067 L418 1067 L418 348 Q418 213 528 213 Q613 213 707 305 L707 1067 L1014 1067 L1014 0 Z M899 1215 L702 1215 Q681 1330 562 1330 Q540 1330 522 1326 Q444 1308 425 1215 L227 1215 Q236 1312 273 1372 Q362 1514 564 1514 Q728 1514 817 1422 Q855 1383 872.5 1338 Q890 1293 899 1215 Z " />
<glyph glyph-name="Scommaaccent" unicode="&#x218;" horiz-adv-x="1255" d="M854 1010 Q800 1155 623 1155 Q531 1155 478.5 1119.5 Q426 1084 426 1022 Q426 962 472 922 Q527 874 701 829 Q1004 750 1097 615 Q1165 517 1165 375 Q1165 -35 624 -35 Q430 -35 283 32 Q195 73 127.5 159 Q60 245 41 340 L350 399 Q371 312 443 260.5 Q515 209 617 209 Q645 209 673 213 Q833 234 833 355 Q833 418 786 460 Q727 513 548 565 Q269 645 182 760 Q104 864 104 997 Q104 1044 114 1091 Q180 1401 617 1401 Q861 1401 1012 1293 Q1067 1253 1098 1211 Q1129 1169 1159 1094 L854 1010 Z M758 -355 L616 -592 L516 -592 L602 -371 L514 -371 L514 -121 L758 -121 L758 -355 Z " />
<glyph glyph-name="scommaaccent" unicode="&#x219;" horiz-adv-x="989" d="M699 768 Q680 821 628 852 Q576 883 506 883 Q487 883 466 880 Q369 867 369 797 Q369 762 398 735 Q439 696 578 654 Q780 592 866.5 509 Q953 426 953 294 Q953 -35 519 -35 Q225 -35 77 140 Q51 171 35 209 L275 322 Q330 182 506 182 Q666 182 666 273 Q666 304 641 328 Q603 362 469 405 Q299 458 214 520 Q86 613 86 769 Q86 810 95 848 Q124 972 237 1036 Q351 1102 515 1102 Q659 1102 774 1040.5 Q889 979 942 874 L699 768 Z M623 -355 L481 -592 L381 -592 L467 -371 L379 -371 L379 -121 L623 -121 L623 -355 Z " />
<glyph glyph-name="uni021A" unicode="&#x21a;" horiz-adv-x="1116" d="M1104 1114 L716 1114 L716 0 L397 0 L397 1114 L10 1114 L10 1366 L1104 1366 L1104 1114 Z M677 -355 L536 -592 L435 -592 L521 -371 L433 -371 L433 -121 L677 -121 L677 -355 Z " />
<glyph glyph-name="uni021B" unicode="&#x21b;" horiz-adv-x="770" d="M727 10 Q619 -14 530 -14 Q455 -14 388 2 Q176 54 176 348 L176 831 L37 831 L37 1067 L176 1067 L176 1337 L483 1409 L483 1067 L696 1067 L696 831 L483 831 L483 360 Q483 225 614 225 Q626 225 638 226 Q674 229 723 244 L727 10 Z M457 -355 L316 -592 L215 -592 L301 -371 L213 -371 L213 -121 L457 -121 L457 -355 Z " />
<glyph glyph-name="uni0226" unicode="&#x226;" horiz-adv-x="1270" d="M1268 0 L924 0 L840 291 L405 291 L326 0 L2 0 L418 1366 L852 1366 L1268 0 Z M786 539 L772 585 Q696 820 669 923 Q642 1026 625 1147 Q604 1019 576.5 917.5 Q549 816 469 569 L459 539 L786 539 Z M787 1491 L472 1491 L472 1761 L787 1761 L787 1491 Z " />
<glyph glyph-name="uni0227" unicode="&#x227;" horiz-adv-x="1079" d="M969 0 L701 0 L687 113 Q566 -25 378 -25 Q235 -25 148.5 55 Q62 135 62 266 Q62 356 99 426 Q155 531 286 589 Q417 647 666 678 L666 721 Q666 869 513 869 Q380 869 328 739 L78 846 Q143 966 232 1024 Q354 1102 542 1102 Q636 1102 723 1081 Q969 1019 969 748 L969 0 Z M666 287 L666 492 Q536 475 478 452 Q363 407 363 304 Q363 285 368 267 Q385 196 475 196 Q566 196 666 287 Z M697 1227 L396 1227 L396 1493 L697 1493 L697 1227 Z " />
<glyph glyph-name="uni0237" unicode="&#x237;" horiz-adv-x="535" d="M421 1067 L421 6 Q421 -397 57 -397 L6 -396 Q-54 -396 -162 -379 L-140 -139 Q-55 -151 -15 -151 Q25 -151 54 -135 Q88 -117 101 -72.5 Q114 -28 114 68 L114 1067 L421 1067 Z " />
<glyph glyph-name="uni02C9" unicode="&#x2c9;" horiz-adv-x="1024" d="M824 1278 L201 1278 L201 1497 L824 1497 L824 1278 Z " />
<glyph glyph-name="uni0312" unicode="&#x312;" horiz-adv-x="1052" d="M660 1778 L551 1468 L639 1468 L639 1188 L392 1188 L392 1454 L562 1778 L660 1778 Z " />
<glyph glyph-name="uni0313" unicode="&#x313;" horiz-adv-x="1223" d="M755 1137 L614 900 L513 900 L599 1121 L511 1121 L511 1371 L755 1371 L755 1137 Z " />
<glyph glyph-name="uni031B" unicode="&#x31b;" horiz-adv-x="1223" d="M755 1137 L614 900 L513 900 L599 1121 L511 1121 L511 1371 L755 1371 L755 1137 Z " />
<glyph glyph-name="commaaccent" unicode="&#x326;" horiz-adv-x="1223" d="M755 -355 L614 -592 L513 -592 L599 -371 L511 -371 L511 -121 L755 -121 L755 -355 Z " />
<glyph glyph-name="uni037E" unicode="&#x37e;" horiz-adv-x="621" d="M504 686 L201 686 L201 999 L504 999 L504 686 Z M504 23 L299 -340 L172 -340 L311 0 L201 0 L201 313 L504 313 L504 23 Z " />
<glyph glyph-name="uni0387" unicode="&#x387;" horiz-adv-x="518" d="M412 389 L109 389 L109 704 L412 704 L412 389 Z " />
<glyph glyph-name="uni0394" unicode="&#x394;" horiz-adv-x="1311" d="M1304 0 L6 0 L510 1366 L799 1366 L1304 0 Z M917 246 L655 1043 L387 246 L917 246 Z " />
<glyph glyph-name="uni03A9" unicode="&#x3a9;" horiz-adv-x="1442" d="M1388 0 L815 0 L815 224 Q919 284 972 345 Q1097 489 1097 728 Q1097 824 1069 911 Q1033 1029 940 1101 Q851 1170 721 1170 Q539 1170 436 1035 Q344 914 344 727 Q344 460 498 313 Q543 271 627 224 L627 0 L53 0 L53 246 L346 246 Q222 322 162 414 Q80 539 80 739 Q80 1031 259 1212 Q439 1393 721 1393 Q1003 1393 1182 1212 Q1361 1031 1361 740 Q1361 649 1342 565 Q1298 371 1095 246 L1388 246 L1388 0 Z " />
<glyph glyph-name="uni03BC" unicode="&#x3bc;" horiz-adv-x="1159" d="M1041 0 L777 0 L777 96 Q757 54 735 32 Q682 -20 585 -20 Q455 -20 385 96 L385 -383 L121 -383 L121 1067 L385 1067 L385 444 Q385 191 584 191 Q640 191 683 214 Q777 265 777 451 L777 1067 L1041 1067 L1041 0 Z " />
<glyph glyph-name="uni04D4" unicode="&#x4d4;" horiz-adv-x="1759" d="M1692 0 L823 0 L823 287 L493 287 L362 0 L-8 0 L669 1366 L1665 1366 L1665 1114 L1141 1114 L1141 823 L1571 823 L1571 571 L1141 571 L1141 252 L1692 252 L1692 0 Z M831 1132 L571 539 L823 539 Q823 842 831 1132 Z " />
<glyph glyph-name="uni04D5" unicode="&#x4d5;" horiz-adv-x="1667" d="M1605 260 Q1543 127 1458 60 Q1335 -35 1154 -35 Q1099 -35 1045 -25 Q864 9 788 129 Q651 -27 408 -27 Q258 -27 164 49 Q61 131 61 277 Q61 488 273 584 Q398 640 663 661 Q665 688 665 727 Q665 868 513 868 Q477 868 446 859 Q366 835 327 739 L77 846 Q142 966 231 1023 Q353 1102 523 1102 Q743 1102 833 967 Q944 1102 1157 1102 Q1410 1102 1521 908 Q1597 777 1597 569 L1597 483 L948 483 Q950 373 977 313 Q1026 207 1154 207 Q1299 207 1366 366 L1605 260 Z M1312 643 Q1310 725 1286 777 Q1240 877 1132 877 Q967 877 948 643 L1312 643 Z M667 285 Q659 318 659 385 L659 398 Q659 412 660 437 Q661 456 661 489 Q535 473 477 450 Q362 406 362 301 Q362 281 367 262 Q385 192 475 192 Q564 192 667 285 Z " />
<glyph glyph-name="uni1E02" unicode="&#x1e02;" horiz-adv-x="1223" d="M858 718 Q944 706 988 684 Q1151 604 1151 387 Q1151 208 1034 104 Q917 0 708 0 L113 0 L113 1366 L651 1366 Q829 1366 936 1320 Q1116 1242 1116 1029 Q1116 981 1105 936 Q1084 844 1026.5 794 Q969 744 858 718 Z M432 825 L590 825 Q792 825 792 978 Q792 1003 786 1027 Q774 1073 729 1093.5 Q684 1114 594 1114 L432 1114 L432 825 Z M432 252 L602 252 Q711 252 762 291 Q813 330 813 415 Q813 573 627 573 L432 573 L432 252 Z M720 1491 L405 1491 L405 1761 L720 1761 L720 1491 Z " />
<glyph glyph-name="uni1E03" unicode="&#x1e03;" horiz-adv-x="1128" d="M418 983 Q477 1032 555.5 1059.5 Q634 1087 714 1087 Q933 1087 1017 870 Q1067 743 1067 540 Q1067 462 1059 395 Q1040 250 983 149 Q888 -21 694 -21 Q559 -21 414 104 L398 0 L111 0 L111 1440 L418 1440 L418 983 Z M418 291 Q497 217 570 217 Q741 217 741 544 Q741 661 723 729 Q688 858 579 858 Q558 858 536 853 Q474 840 418 791 L418 291 Z M796 1209 L495 1209 L495 1439 L796 1439 L796 1209 Z " />
<glyph glyph-name="uni1E0C" unicode="&#x1e0c;" horiz-adv-x="1297" d="M113 1366 L557 1366 Q920 1366 1077 1195 Q1218 1040 1218 700 Q1218 553 1185 421 Q1128 190 940 80 Q804 0 600 0 L113 0 L113 1366 Z M432 252 L565 252 Q759 252 826 418 Q866 516 866 683 Q866 907 793.5 1010.5 Q721 1114 565 1114 L432 1114 L432 252 Z M710 -366 L409 -366 L409 -100 L710 -100 L710 -366 Z " />
<glyph glyph-name="uni1E0D" unicode="&#x1e0d;" horiz-adv-x="1128" d="M1017 0 L730 0 L714 104 Q587 -20 434 -20 Q61 -20 61 528 Q61 730 120 867 Q218 1092 445 1092 Q483 1092 517 1085 Q610 1066 710 985 L710 1440 L1017 1440 L1017 0 Z M710 291 L710 795 Q648 861 574 861 Q387 861 387 532 Q387 469 393 420 Q419 218 556 218 Q578 218 598 223 Q661 237 710 291 Z M745 -366 L444 -366 L444 -100 L745 -100 L745 -366 Z " />
<glyph glyph-name="uni1E1E" unicode="&#x1e1e;" horiz-adv-x="1018" d="M1016 1114 L432 1114 L432 828 L926 828 L926 574 L432 574 L432 0 L113 0 L113 1366 L1016 1366 L1016 1114 Z M716 1491 L401 1491 L401 1761 L716 1761 L716 1491 Z " />
<glyph glyph-name="uni1E1F" unicode="&#x1e1f;" horiz-adv-x="709" d="M723 1501 L707 1280 Q651 1295 612 1295 Q573 1295 543 1279 Q494 1252 494 1147 L494 1067 L678 1067 L678 831 L494 831 L494 0 L187 0 L187 831 L35 831 L35 1067 L187 1067 L187 1147 Q187 1320 234 1399 Q305 1520 518 1520 L567 1519 Q627 1519 723 1501 Z M540 1599 L239 1599 L239 1865 L540 1865 L540 1599 Z " />
<glyph glyph-name="uni1E24" unicode="&#x1e24;" horiz-adv-x="1319" d="M1207 0 L888 0 L888 579 L432 579 L432 0 L113 0 L113 1366 L432 1366 L432 831 L888 831 L888 1366 L1207 1366 L1207 0 Z M819 -366 L518 -366 L518 -100 L819 -100 L819 -366 Z " />
<glyph glyph-name="uni1E25" unicode="&#x1e25;" horiz-adv-x="1124" d="M1014 0 L707 0 L707 715 L707 719 L707 728 L707 737 L707 741 Q707 852 593 852 Q548 852 498.5 824.5 Q449 797 418 756 L418 0 L111 0 L111 1440 L420 1440 L420 958 Q581 1094 752 1094 Q834 1094 896 1059 Q957 1024 985.5 948.5 Q1014 873 1014 743 L1014 0 Z M711 -366 L410 -366 L410 -100 L711 -100 L711 -366 Z " />
<glyph glyph-name="uni1E44" unicode="&#x1e44;" horiz-adv-x="1386" d="M1274 0 L848 0 L533 702 Q474 834 402 1010 Q414 815 414 655 L414 0 L113 0 L113 1366 L539 1366 L864 643 Q917 526 976 386 L987 358 Q973 603 973 698 L973 1366 L1274 1366 L1274 0 Z M837 1491 L522 1491 L522 1761 L837 1761 L837 1491 Z " />
<glyph glyph-name="uni1E45" unicode="&#x1e45;" horiz-adv-x="1124" d="M1014 0 L707 0 L707 723 Q707 791 680 822 Q653 853 594 853 Q565 853 541 845 Q474 822 418 758 L418 0 L111 0 L111 1067 L400 1067 L408 950 Q563 1092 743 1092 Q827 1092 890 1057 Q1014 988 1014 756 L1014 0 Z M715 1227 L414 1227 L414 1493 L715 1493 L715 1227 Z " />
<glyph glyph-name="uni1E5A" unicode="&#x1e5a;" horiz-adv-x="1223" d="M1202 0 L852 0 L612 541 L432 541 L432 0 L113 0 L113 1366 L627 1366 Q814 1366 929 1317 Q1130 1229 1130 977 Q1130 908 1113 845 Q1091 766 1040 712 Q989 658 895 613 L1202 0 Z M432 795 L586 795 Q696 795 748 835 Q800 875 800 961 Q800 1047 753 1080.5 Q706 1114 588 1114 L432 1114 L432 795 Z M778 -366 L477 -366 L477 -100 L778 -100 L778 -366 Z " />
<glyph glyph-name="uni1E5B" unicode="&#x1e5b;" horiz-adv-x="778" d="M766 780 Q729 791 678 791 Q636 791 600 776 Q551 756 512.5 713.5 Q474 671 424 584 L424 0 L117 0 L117 1069 L399 1069 L408 872 Q481 1005 548 1048 Q618 1093 766 1096 L766 780 Z M419 -366 L118 -366 L118 -100 L419 -100 L419 -366 Z " />
<glyph glyph-name="uni1E62" unicode="&#x1e62;" horiz-adv-x="1241" d="M854 1010 Q800 1155 623 1155 Q531 1155 478.5 1119.5 Q426 1084 426 1022 Q426 962 472 922 Q527 874 701 829 Q1004 750 1097 615 Q1165 517 1165 375 Q1165 -35 624 -35 Q430 -35 283 32 Q195 73 127.5 159 Q60 245 41 340 L350 399 Q371 312 443 260.5 Q515 209 617 209 Q645 209 673 213 Q833 234 833 355 Q833 418 786 460 Q727 513 548 565 Q269 645 182 760 Q104 864 104 997 Q104 1044 114 1091 Q180 1401 617 1401 Q861 1401 1012 1293 Q1067 1253 1098 1211 Q1129 1169 1159 1094 L854 1010 Z M755 -366 L454 -366 L454 -100 L755 -100 L755 -366 Z " />
<glyph glyph-name="uni1E63" unicode="&#x1e63;" horiz-adv-x="985" d="M695 768 Q676 821 624 852 Q572 883 502 883 Q483 883 462 880 Q365 867 365 797 Q365 762 394 735 Q435 696 574 654 Q776 592 862.5 509 Q949 426 949 294 Q949 -35 515 -35 Q221 -35 73 140 Q47 171 31 209 L271 322 Q326 182 502 182 Q662 182 662 273 Q662 304 637 328 Q599 362 465 405 Q295 458 210 520 Q82 613 82 769 Q82 810 91 848 Q120 972 233 1036 Q347 1102 511 1102 Q655 1102 770 1040.5 Q885 979 938 874 L695 768 Z M652 -366 L351 -366 L351 -100 L652 -100 L652 -366 Z " />
<glyph glyph-name="uni1E6C" unicode="&#x1e6c;" horiz-adv-x="1116" d="M1104 1114 L714 1114 L714 0 L395 0 L395 1114 L10 1114 L10 1366 L1104 1366 L1104 1114 Z M710 -366 L409 -366 L409 -100 L710 -100 L710 -366 Z " />
<glyph glyph-name="uni1E6D" unicode="&#x1e6d;" horiz-adv-x="770" d="M727 10 Q619 -14 530 -14 Q455 -14 388 2 Q176 54 176 348 L176 831 L37 831 L37 1067 L176 1067 L176 1337 L483 1409 L483 1067 L696 1067 L696 831 L483 831 L483 360 Q483 225 614 225 Q626 225 638 226 Q674 229 723 244 L727 10 Z M563 -366 L262 -366 L262 -100 L563 -100 L563 -366 Z " />
<glyph glyph-name="Wgrave" unicode="&#x1e80;" horiz-adv-x="1763" d="M1761 1366 L1427 0 L1071 0 L932 627 Q887 827 870 987 Q843 773 809 627 L661 0 L301 0 L2 1366 L315 1366 L436 743 Q475 542 494 362 Q512 548 553 741 L686 1366 L1069 1366 L1204 723 Q1236 572 1260 362 Q1278 547 1313 723 L1440 1366 L1761 1366 Z M1022 1483 L760 1483 L516 1776 L867 1776 L1022 1483 Z " />
<glyph glyph-name="wgrave" unicode="&#x1e81;" horiz-adv-x="1583" d="M1583 1067 L1278 0 L971 0 L860 401 Q822 539 791 784 Q762 539 725 406 L612 0 L305 0 L0 1067 L313 1067 L397 690 Q419 595 455 293 Q489 541 530 690 L635 1067 L961 1067 L1069 670 Q1097 569 1131 334 Q1134 314 1137 293 Q1165 554 1194 670 L1294 1067 L1583 1067 Z M957 1217 L693 1217 L461 1520 L816 1520 L957 1217 Z " />
<glyph glyph-name="Wacute" unicode="&#x1e82;" horiz-adv-x="1763" d="M1761 1366 L1427 0 L1071 0 L932 627 Q887 827 870 987 Q843 773 809 627 L661 0 L301 0 L2 1366 L315 1366 L436 743 Q475 542 494 362 Q512 548 553 741 L686 1366 L1069 1366 L1204 723 Q1236 572 1260 362 Q1278 547 1313 723 L1440 1366 L1761 1366 Z M1225 1776 L982 1483 L720 1483 L875 1776 L1225 1776 Z " />
<glyph glyph-name="wacute" unicode="&#x1e83;" horiz-adv-x="1583" d="M1583 1067 L1278 0 L971 0 L860 401 Q822 539 791 784 Q762 539 725 406 L612 0 L305 0 L0 1067 L313 1067 L397 690 Q419 595 455 293 Q489 541 530 690 L635 1067 L961 1067 L1069 670 Q1097 569 1131 334 Q1134 314 1137 293 Q1165 554 1194 670 L1294 1067 L1583 1067 Z M1122 1520 L891 1217 L626 1217 L768 1520 L1122 1520 Z " />
<glyph glyph-name="Wdieresis" unicode="&#x1e84;" horiz-adv-x="1763" d="M1761 1366 L1427 0 L1071 0 L932 627 Q887 827 870 987 Q843 773 809 627 L661 0 L301 0 L2 1366 L315 1366 L436 743 Q475 542 494 362 Q512 548 553 741 L686 1366 L1069 1366 L1204 723 Q1236 572 1260 362 Q1278 547 1313 723 L1440 1366 L1761 1366 Z M1219 1491 L965 1491 L965 1761 L1219 1761 L1219 1491 Z M778 1491 L526 1491 L526 1761 L778 1761 L778 1491 Z " />
<glyph glyph-name="wdieresis" unicode="&#x1e85;" horiz-adv-x="1583" d="M1583 1067 L1278 0 L971 0 L860 401 Q822 539 791 784 Q762 539 725 406 L612 0 L305 0 L0 1067 L313 1067 L397 690 Q419 595 455 293 Q489 541 530 690 L635 1067 L961 1067 L1069 670 Q1097 569 1131 334 Q1134 314 1137 293 Q1165 554 1194 670 L1294 1067 L1583 1067 Z M1121 1227 L863 1227 L863 1438 L1121 1438 L1121 1227 Z M720 1227 L462 1227 L462 1438 L720 1438 L720 1227 Z " />
<glyph glyph-name="uni1E92" unicode="&#x1e92;" horiz-adv-x="1137" d="M1078 0 L68 0 L68 225 L601 993 Q645 1057 703 1120 Q620 1114 512 1114 L121 1114 L121 1366 L1070 1366 L1070 1159 L533 385 Q499 336 416 248 L437 249 Q543 252 594 252 L1078 252 L1078 0 Z M742 -366 L441 -366 L441 -100 L742 -100 L742 -366 Z " />
<glyph glyph-name="uni1E93" unicode="&#x1e93;" horiz-adv-x="936" d="M880 0 L49 0 L49 193 L368 661 Q432 755 504 835 Q489 835 456 833 Q404 831 350 831 L100 831 L100 1067 L864 1067 L864 872 L559 403 Q527 354 434 240 Q481 246 567 246 L880 246 L880 0 Z M634 -366 L333 -366 L333 -100 L634 -100 L634 -366 Z " />
<glyph glyph-name="uni1E9E" unicode="&#x1e9e;" horiz-adv-x="1266" d="M919 766 Q1049 717 1117 643 Q1214 536 1214 374 Q1214 310 1198 251 Q1159 103 1033 29 Q938 -27 799 -27 Q770 -27 741 -25 Q660 -18 583 8 L629 250 Q682 233 725 233 Q802 233 846.5 281.5 Q891 330 891 413 Q891 446 884 475 Q865 549 807.5 588.5 Q750 628 641 641 L641 809 L883 1092 Q786 1151 674 1151 Q599 1151 546 1121 Q419 1049 419 739 L419 0 L100 0 L100 815 Q100 1401 640 1401 Q787 1401 909 1355 Q1031 1309 1155 1206 L1155 1030 L919 766 Z " />
<glyph glyph-name="uni2010" unicode="&#x2010;" horiz-adv-x="606" d="M606 397 L0 397 L0 682 L606 682 L606 397 Z " />
<glyph glyph-name="uni2011" unicode="&#x2011;" horiz-adv-x="606" d="M606 397 L0 397 L0 682 L606 682 L606 397 Z " />
<glyph glyph-name="figuredash" unicode="&#x2012;" horiz-adv-x="903" d="M903 397 L0 397 L0 682 L903 682 L903 397 Z " />
<glyph glyph-name="afii00208" unicode="&#x2015;" horiz-adv-x="1485" d="M1485 397 L0 397 L0 682 L1485 682 L1485 397 Z " />
<glyph glyph-name="uni203E" unicode="&#x203e;" horiz-adv-x="1024" d="M824 1278 L201 1278 L201 1497 L824 1497 L824 1278 Z " />
<glyph glyph-name="minus" unicode="&#x2212;" horiz-adv-x="1024" d="M956 430 L69 430 L69 645 L956 645 L956 430 Z " />
<glyph glyph-name="uni2215" unicode="&#x2215;" horiz-adv-x="197" d="M582 1393 L-209 -27 L-385 -27 L406 1393 L582 1393 Z " />
<glyph glyph-name="uni2219" unicode="&#x2219;" horiz-adv-x="518" d="M412 389 L109 389 L109 704 L412 704 L412 389 Z " />
<glyph glyph-name="dotmath" unicode="&#x22c5;" horiz-adv-x="518" d="M412 389 L109 389 L109 704 L412 704 L412 389 Z " />
</font>
</svg>
