<svg xmlns="http://www.w3.org/2000/svg" xmlns:xlink="http://www.w3.org/1999/xlink" class="svglogotv" id="ndrtv_1530" viewBox="0 0 88.89 50.97">
<title>Die Ernährungsdocs</title>
<path d="M339,350.46h-8.63V337h8.29v2h-5.84v3.58h4.79v2h-4.79v3.92H339Z" transform="translate(-330.32 -329.31)"/>
<path d="M345.84,342.17a3.79,3.79,0,0,0-2.1.54,4.48,4.48,0,0,0-1.36,1.77v6H340V340h2.25v2a6,6,0,0,1,1.41-1.73,3.78,3.78,0,0,1,2.15-.56Z" transform="translate(-330.32 -329.31)"/>
<path d="M354.84,350.46h-2.35v-7.16q0-1.63-1.29-1.63a3.65,3.65,0,0,0-2.21,1.09v7.7h-2.35V340h2.21l.06,1.19a5.49,5.49,0,0,1,3.24-1.39,2.44,2.44,0,0,1,2.17.94,4.32,4.32,0,0,1,.52,2.37Z" transform="translate(-330.32 -329.31)"/>
<path d="M364.19,350.46h-2.07l-.1-1.17a3.58,3.58,0,0,1-3,1.39,3.1,3.1,0,0,1-2.21-.77,2.8,2.8,0,0,1-.82-2.14,3.19,3.19,0,0,1,2.07-3,14,14,0,0,1,3.85-.95v-.58a1.6,1.6,0,0,0-.47-1.23,1.78,1.78,0,0,0-1.26-.44,2.07,2.07,0,0,0-2.14,1.35l-1.87-.93a3.74,3.74,0,0,1,1.73-1.71,5.4,5.4,0,0,1,2.42-.54q3.9,0,3.9,3.3Zm-4.73-11.65h-2.11v-2.42h2.11Zm2.41,8.91v-2.41a9.66,9.66,0,0,0-2.29.52,1.78,1.78,0,0,0-1.32,1.67,1.23,1.23,0,0,0,1.38,1.41A3.23,3.23,0,0,0,361.88,347.72Zm1.27-8.91H361v-2.42h2.13Z" transform="translate(-330.32 -329.31)"/>
<path d="M374.13,350.46h-2.37v-7.29q0-1.49-1.29-1.49a3.38,3.38,0,0,0-2.19,1.1v7.67h-2.35v-14h2.35v4.73a4.72,4.72,0,0,1,3-1.35q2.87,0,2.87,3.5Z" transform="translate(-330.32 -329.31)"/>
<path d="M381.66,342.17a3.79,3.79,0,0,0-2.1.54,4.5,4.5,0,0,0-1.36,1.77v6h-2.35V340h2.25v2a6,6,0,0,1,1.41-1.73,3.78,3.78,0,0,1,2.15-.56Z" transform="translate(-330.32 -329.31)"/>
<path d="M390.67,350.46h-2.21l-.06-1.21a5.85,5.85,0,0,1-3.16,1.41q-2.78,0-2.78-3.54V340h2.35v6.93q0,1.83,1.27,1.83a3.89,3.89,0,0,0,2.21-1.08V340h2.37Z" transform="translate(-330.32 -329.31)"/>
<path d="M400.63,350.46h-2.35v-7.16q0-1.63-1.29-1.63a3.65,3.65,0,0,0-2.21,1.09v7.7h-2.35V340h2.21l.06,1.19a5.5,5.5,0,0,1,3.24-1.39,2.44,2.44,0,0,1,2.17.94,4.35,4.35,0,0,1,.52,2.37Z" transform="translate(-330.32 -329.31)"/>
<path d="M411.07,341h-.52a1.73,1.73,0,0,0-1.11.32,3.35,3.35,0,0,1,.76,2.15,3.39,3.39,0,0,1-1.14,2.73,4.8,4.8,0,0,1-4.46.7c-.36.13-.54.31-.54.52s.19.42.56.54l1.39.28,1.83.37a5.7,5.7,0,0,1,2.15.8,2.46,2.46,0,0,1,.92,2.09q0,2.87-4.81,2.87t-4.71-2.66a1.86,1.86,0,0,1,.5-1.39,4.75,4.75,0,0,1,1.35-.81,1.67,1.67,0,0,1-.86-.56,1.4,1.4,0,0,1-.35-.9q0-1.25,1.63-1.61a3.05,3.05,0,0,1-1.69-3,3.44,3.44,0,0,1,1.21-2.76,4.28,4.28,0,0,1,2.9-1,4.45,4.45,0,0,1,2.47.72,2.65,2.65,0,0,1,1.09-.88,4.51,4.51,0,0,1,1.41-.18Zm-2.25,10.58q0-.55-1-.87c-.12,0-.6-.15-1.45-.32l-2-.42q-1.08.54-1.08,1.15c0,.55.37.95,1.11,1.21a5.69,5.69,0,0,0,1.83.26Q408.82,352.59,408.82,351.58Zm-1-8.13a2.28,2.28,0,0,0-.44-1.45,1.57,1.57,0,0,0-1.31-.56q-1.79,0-1.79,2t1.79,2Q407.85,345.45,407.85,343.46Z" transform="translate(-330.32 -329.31)"/>
<path d="M419.2,347.6a2.83,2.83,0,0,1-1.09,2.52,5.3,5.3,0,0,1-2.94.64,4.47,4.47,0,0,1-4.35-2.32l1.89-1.06a2.48,2.48,0,0,0,2.37,1.53q1.87,0,1.87-1c0-.42-.3-.79-.91-1.13l-1.45-.6A11.47,11.47,0,0,1,412.4,345a2.81,2.81,0,0,1-1.07-2.33,2.63,2.63,0,0,1,1-2.19,4.45,4.45,0,0,1,2.82-.81,4,4,0,0,1,3.86,2.11l-1.87.93a2,2,0,0,0-2-1.19c-1.1,0-1.65.33-1.65,1a1.19,1.19,0,0,0,.75,1q.1.06,1.73.69a8.75,8.75,0,0,1,2.15,1.08A2.75,2.75,0,0,1,419.2,347.6Z" transform="translate(-330.32 -329.31)"/>
<path d="M346,333.53a4.48,4.48,0,0,1-.8,2.85,3.18,3.18,0,0,1-2.68,1.13H340v-7.83h2.3a3.67,3.67,0,0,1,2.83,1A4.16,4.16,0,0,1,346,333.53Zm-1.57.08q0-2.78-2.06-2.78h-.91v5.53h.91Q344.42,336.36,344.42,333.61Z" transform="translate(-330.32 -329.31)"/>
<path d="M348.44,330.82H347v-1.5h1.43Zm0,6.69H347v-6.09h1.37Z" transform="translate(-330.32 -329.31)"/>
<path d="M354.63,334.78h-3.75a2.58,2.58,0,0,0,.3,1.33,1.06,1.06,0,0,0,1,.47,1.38,1.38,0,0,0,1.35-1l1.12.52a2.52,2.52,0,0,1-2.5,1.6,2.4,2.4,0,0,1-2-.84,3.76,3.76,0,0,1-.68-2.42,3.54,3.54,0,0,1,.72-2.38,2.39,2.39,0,0,1,1.94-.8,2.27,2.27,0,0,1,2,.91,3.54,3.54,0,0,1,.53,2.05Zm-2.55-2.5q-1.12,0-1.26,1.51h2.44Q353.27,332.28,352.09,332.28Z" transform="translate(-330.32 -329.31)"/>
<path d="M353.45,365.43q0,14-13.31,14h-9.82v-27.3h8.93q7.28,0,10.64,2.91Q353.45,358.23,353.45,365.43Zm-8.31.25q0-4.05-1.29-5.83a4.55,4.55,0,0,0-4-1.78h-2v15.51h2Q345.14,373.58,345.14,365.68Z" transform="translate(-330.32 -329.31)"/>
<path d="M399.56,371.94a11.49,11.49,0,0,1-1.56,4.13q-2.74,4.14-8.43,4.13-10.4,0-10.4-11.48a11.39,11.39,0,0,1,3.15-8.5,9.83,9.83,0,0,1,7.25-2.86,9.19,9.19,0,0,1,7.74,3.5,10.08,10.08,0,0,1,1.72,3.5l-6.55,2.08q-.66-3.48-2.91-3.48-2.9,0-2.9,5.63,0,6,2.9,6,2.42,0,2.78-3.89Z" transform="translate(-330.32 -329.31)"/>
<path d="M419.2,373q0,7.16-9.29,7.16-7.65,0-10.19-4.91l5.61-2.62a4.17,4.17,0,0,0,4.22,2.54q3,0,3-1.51,0-1.1-2.46-1.79l-2.87-.82q-6.38-1.84-6.38-6.62a6.22,6.22,0,0,1,2.45-5.23,11.09,11.09,0,0,1,6.89-1.88q6.37,0,9,4.72l-5.77,2.4a3.89,3.89,0,0,0-3.5-2q-2.52,0-2.51,1.38,0,1.1,2.58,1.82l2.87.81Q419.21,368.26,419.2,373Z" transform="translate(-330.32 -329.31)"/>
<path d="M366.37,357.29a11.5,11.5,0,1,0,11.5,11.5A11.49,11.49,0,0,0,366.37,357.29Zm7.65,14h-5.13v5.13h-5v-5.13h-5.13v-5h5.13v-5.13h5v5.13H374Z" transform="translate(-330.32 -329.31)"/>
</svg>
